<svg width="24" height="24" viewBox="0 0 24 24" fill="none" xmlns="http://www.w3.org/2000/svg">
<path d="M12.0025 0C6.70085 0 2.3877 4.3132 2.3877 9.61477V9.88055C2.3877 12.5618 3.92491 15.6863 6.95679 19.1671C9.15466 21.6905 11.3218 23.45 11.413 23.5237L12.0025 24L12.592 23.5237C12.6831 23.45 14.8503 21.6905 17.0481 19.1671C20.08 15.6863 21.6172 12.5618 21.6172 9.88059V9.61481C21.6172 4.3132 17.3041 0 12.0025 0Z" fill="white"/>
<path d="M12.0025 0C6.70085 0 2.3877 4.3132 2.3877 9.61477V9.88055C2.3877 12.5618 3.92491 15.6863 6.95679 19.1671C9.15466 21.6905 11.3218 23.45 11.413 23.5237L12.0025 24L12.592 23.5237C12.6831 23.45 14.8503 21.6905 17.0481 19.1671C20.08 15.6863 21.6172 12.5618 21.6172 9.88059V9.61481C21.6172 4.3132 17.3041 0 12.0025 0ZM19.7412 9.88059C19.7412 14.4118 13.9029 19.8968 12.0025 21.5619C10.1015 19.8963 4.26373 14.4114 4.26373 9.88059V9.61481C4.26373 5.34769 7.73534 1.87608 12.0025 1.87608C16.2696 1.87608 19.7412 5.34769 19.7412 9.61481V9.88059Z" fill="#D50023"/>
<path d="M12.0025 5.15918C9.54567 5.15918 7.54688 7.15798 7.54688 9.61479C7.54688 12.0716 9.54567 14.0704 12.0025 14.0704C14.4593 14.0704 16.4581 12.0716 16.4581 9.61479C16.4581 7.15798 14.4593 5.15918 12.0025 5.15918ZM12.0025 12.1944C10.5801 12.1944 9.42291 11.0372 9.42291 9.61479C9.42291 8.19241 10.5801 7.03521 12.0025 7.03521C13.4249 7.03521 14.5821 8.19241 14.5821 9.61479C14.5821 11.0372 13.4249 12.1944 12.0025 12.1944Z" fill="#D50023"/>
</svg>
