<svg width="24" height="24" viewBox="0 0 24 24" fill="none" xmlns="http://www.w3.org/2000/svg">
<path d="M14.3437 7.46886C14.3437 6.17653 13.2923 5.12513 11.9999 5.12513C10.7076 5.12513 9.65621 6.17653 9.65621 7.46886C9.65621 8.7612 10.7076 9.81259 11.9999 9.81259C13.2923 9.81259 14.3437 8.7612 14.3437 7.46886ZM11.2187 7.46886C11.2187 7.03809 11.5692 6.68762 11.9999 6.68762C12.4307 6.68762 12.7812 7.03809 12.7812 7.46886C12.7812 7.89964 12.4307 8.25011 11.9999 8.25011C11.5692 8.25011 11.2187 7.89964 11.2187 7.46886ZM11.9999 18.3101L12.6036 17.5755C12.8022 17.3338 17.4687 11.6072 17.4687 7.46871C17.4687 4.45326 15.0154 2 11.9999 2C8.9845 2 6.53124 4.45326 6.53124 7.46871C6.53124 11.6072 11.1977 17.3338 11.3963 17.5755L11.9999 18.3101ZM11.9999 3.56249C14.1538 3.56249 15.9062 5.31482 15.9062 7.46871C15.9062 10.2406 13.2286 14.1526 11.9997 15.8021C10.7705 14.1534 8.09373 10.2445 8.09373 7.46871C8.09373 5.31482 9.84606 3.56249 11.9999 3.56249ZM16.0447 14.8698L15.4917 16.3311C16.7111 16.7926 17.4687 17.468 17.4687 18.0938C17.4687 19.2001 15.1299 20.4375 11.9999 20.4375C8.86997 20.4375 6.53124 19.2001 6.53124 18.0938C6.53124 17.468 7.28877 16.7926 8.50821 16.3311L7.95521 14.8698C6.05726 15.588 4.96875 16.7631 4.96875 18.0938C4.96875 20.8818 9.17598 22 11.9999 22C14.8723 22 19.0311 20.8604 19.0311 18.0938C19.0311 16.7631 17.9426 15.588 16.0447 14.8698Z" fill="white"/>
</svg>
