<svg width="32" height="32" viewBox="0 0 32 32" fill="none" xmlns="http://www.w3.org/2000/svg">
<path d="M27.2482 18.5969V23.3153C26.9223 23.1995 26.5718 23.1362 26.2068 23.1362H5.79256C5.22697 23.1362 4.76514 22.683 4.7513 22.1206C4.76534 21.5583 5.22697 21.1052 5.79256 21.1052H8.92021V7.98183H13.0673C13.2171 7.25267 13.4535 6.55483 13.7642 5.8987H8.92021V2.66994H5.79256C4.06974 2.66994 2.66797 4.07172 2.66797 5.79454V22.0946C2.66797 22.1033 2.66797 22.1121 2.66817 22.1206C2.66797 22.1294 2.66797 22.1381 2.66797 22.1467H2.66838C2.69625 23.8459 4.08704 25.2192 5.79256 25.2192H23.085V29.3334H26.2068C27.8948 29.3334 29.2736 27.9877 29.3287 26.3129H29.3314V15.9502C28.8335 16.6962 28.2472 17.4575 27.5758 18.228C27.4663 18.3533 27.3571 18.4764 27.2482 18.5969ZM4.7511 5.79454C4.7511 5.22019 5.21822 4.75307 5.79256 4.75307H6.83708V19.0221H5.79256C5.42757 19.0221 5.07703 19.0849 4.7511 19.2005V5.79454ZM26.2068 27.2502H25.1682V25.2192H26.2068C26.7724 25.2192 27.2342 25.6725 27.248 26.2348C27.234 26.7971 26.7724 27.2502 26.2068 27.2502ZM22.1475 6.82949C20.4247 6.82949 19.0229 8.23106 19.0229 9.95408C19.0229 11.6769 20.4247 13.0787 22.1475 13.0787C23.8706 13.0787 25.2721 11.6769 25.2721 9.95408C25.2721 8.23106 23.8706 6.82949 22.1475 6.82949ZM22.1475 10.9955C21.5732 10.9955 21.1061 10.5284 21.1061 9.95408C21.1061 9.37974 21.5732 8.91262 22.1475 8.91262C22.7219 8.91262 23.1892 9.37974 23.1892 9.95408C23.1892 10.5284 22.7219 10.9955 22.1475 10.9955ZM22.1475 2.66669C18.1849 2.66669 14.9611 5.88894 14.9611 9.84991V10.0379C14.9611 12.0297 16.0811 14.3248 18.2899 16.8594C19.8679 18.6701 21.4277 19.9358 21.4932 19.9887L22.1475 20.517L22.8018 19.9887C22.8676 19.9358 24.4272 18.6701 26.0054 16.8594C28.2142 14.3248 29.3342 12.0297 29.3342 10.0379V9.84991C29.3342 5.88894 26.1104 2.66669 22.1475 2.66669ZM27.2511 10.0379C27.2511 12.697 24.012 16.1432 22.151 17.8061C21.5842 17.2976 20.7209 16.4783 19.8604 15.4908C18.0179 13.3767 17.044 11.4911 17.044 10.0379V9.84991C17.044 7.03762 19.3336 4.74982 22.1475 4.74982C24.9617 4.74982 27.2511 7.03762 27.2511 9.84991V10.0379Z" fill="white"/>
</svg>
