<svg width="24" height="24" viewBox="0 0 24 24" fill="none" xmlns="http://www.w3.org/2000/svg">
<path d="M20.4362 13.9476V17.4865C20.1917 17.3996 19.9288 17.3522 19.6551 17.3522H4.34442C3.92023 17.3522 3.57385 17.0122 3.56348 16.5905C3.57401 16.1687 3.92023 15.8289 4.34442 15.8289H6.69016V5.98636H9.80051C9.91281 5.43948 10.0901 4.91611 10.3231 4.42401H6.69016V2.00244H4.34442C3.05231 2.00244 2.00098 3.05377 2.00098 4.34589V16.5709C2.00098 16.5775 2.00098 16.584 2.00113 16.5905C2.00098 16.597 2.00098 16.6036 2.00098 16.61H2.00128C2.02219 17.8844 3.06528 18.9144 4.34442 18.9144H17.3138V22H19.6551C20.9211 22 21.9552 20.9908 21.9966 19.7347H21.9985V11.9626C21.6252 12.5222 21.1854 13.0931 20.6819 13.671C20.5998 13.765 20.5178 13.8573 20.4362 13.9476ZM3.56332 4.34589C3.56332 3.91513 3.91367 3.56479 4.34442 3.56479H5.12781V14.2665H4.34442C4.07068 14.2665 3.80777 14.3137 3.56332 14.4004V4.34589ZM19.6551 20.4377H18.8761V18.9144H19.6551C20.0793 18.9144 20.4257 19.2543 20.436 19.6761C20.4255 20.0978 20.0793 20.4377 19.6551 20.4377ZM16.6107 5.1221C15.3185 5.1221 14.2672 6.17328 14.2672 7.46555C14.2672 8.75766 15.3185 9.80899 16.6107 9.80899C17.9029 9.80899 18.9541 8.75766 18.9541 7.46555C18.9541 6.17328 17.9029 5.1221 16.6107 5.1221ZM16.6107 8.24664C16.1799 8.24664 15.8296 7.8963 15.8296 7.46555C15.8296 7.03479 16.1799 6.68445 16.6107 6.68445C17.0414 6.68445 17.3919 7.03479 17.3919 7.46555C17.3919 7.8963 17.0414 8.24664 16.6107 8.24664ZM16.6107 2C13.6387 2 11.2208 4.41669 11.2208 7.38742V7.52841C11.2208 9.02225 12.0608 10.7436 13.7174 12.6445C14.9009 14.0026 16.0708 14.9518 16.1199 14.9915L16.6107 15.3878L17.1014 14.9915C17.1507 14.9518 18.3204 14.0026 19.504 12.6445C21.1607 10.7436 22.0007 9.02225 22.0007 7.52841V7.38742C22.0007 4.41669 19.5828 2 16.6107 2ZM20.4383 7.52841C20.4383 9.52274 18.009 12.1074 16.6133 13.3545C16.1881 12.9732 15.5407 12.3587 14.8953 11.6181C13.5134 10.0325 12.783 8.61835 12.783 7.52841V7.38742C12.783 5.2782 14.5002 3.56235 16.6107 3.56235C18.7213 3.56235 20.4383 5.2782 20.4383 7.38742V7.52841Z" fill="white"/>
</svg>
