<svg width="24" height="24" viewBox="0 0 24 24" fill="none" xmlns="http://www.w3.org/2000/svg">
<g clip-path="url(#clip0_9877_10819)">
<path d="M20.9521 3.92185C20.6982 3.83592 20.417 3.91795 20.249 4.12498C20.2373 4.1406 18.8311 5.74998 11.999 5.74998C5.16699 5.74998 3.76465 4.14451 3.76074 4.14451C3.56543 3.85935 3.1748 3.79295 2.88965 3.98826C2.72168 4.10545 2.62012 4.29685 2.62012 4.49998V19.5C2.62402 19.7617 2.79199 19.9961 3.04199 20.0781C3.2959 20.164 3.57715 20.082 3.74512 19.875C3.76074 19.8594 5.16699 18.25 11.999 18.25C18.8311 18.25 20.1904 19.8125 20.249 19.875C20.3662 20.0312 20.5537 20.125 20.749 20.125C20.8115 20.125 20.874 20.1172 20.9365 20.0976C21.1982 20.0156 21.374 19.7734 21.374 19.5V4.49998C21.3701 4.23826 21.2021 4.00389 20.9521 3.92185ZM20.124 18.3008C18.9209 17.6992 16.5459 17 11.999 17C7.45215 17 5.07715 17.6992 3.87402 18.3008V5.6992C5.07715 6.30076 7.45215 6.99998 11.999 6.99998C16.5459 6.99998 18.9209 6.30076 20.124 5.6992V18.3008Z" fill="#4d4d4d"/>
<path d="M9.49902 12C9.49902 13.3789 10.6201 14.5 11.999 14.5C13.3779 14.5 14.499 13.3789 14.499 12C14.499 10.6211 13.3779 9.49998 11.999 9.49998C10.6201 9.49998 9.49902 10.6211 9.49902 12ZM13.249 12C13.249 12.6914 12.6904 13.25 11.999 13.25C11.3076 13.25 10.749 12.6914 10.749 12C10.749 11.3086 11.3076 10.75 11.999 10.75C12.6904 10.75 13.249 11.3086 13.249 12Z" fill="#4d4d4d"/>
<path d="M7.44043 10.3086C7.19824 10.0664 6.7998 10.0664 6.55762 10.3086L5.30762 11.5586C5.06543 11.8008 5.06543 12.1992 5.30762 12.4414L6.55762 13.6914C6.80762 13.9297 7.20215 13.9258 7.44043 13.6758C7.6748 13.4336 7.6748 13.0508 7.44043 12.8086L6.63184 12L7.44043 11.1914C7.68652 10.9492 7.68652 10.5508 7.44043 10.3086Z" fill="#4d4d4d"/>
<path d="M16.5576 13.6914C16.7998 13.9336 17.1982 13.9336 17.4404 13.6914L18.6904 12.4414C18.9326 12.1992 18.9326 11.8008 18.6904 11.5586L17.4404 10.3086C17.1904 10.0703 16.7959 10.0742 16.5576 10.3242C16.3232 10.5664 16.3232 10.9492 16.5576 11.1914L17.3662 12L16.5576 12.8086C16.3115 13.0508 16.3115 13.4492 16.5576 13.6914Z" fill="#4d4d4d"/>
</g>
<defs>
<clipPath id="clip0_9877_10819">
<rect width="24" height="24" fill="#4d4d4d"/>
</clipPath>
</defs>
</svg>
