<svg width="24" height="24" viewBox="0 0 24 24" fill="none" xmlns="http://www.w3.org/2000/svg">
<path d="M4 18H20V6H4V18ZM2 20V4H22V20H2ZM12 12C11.7167 12 11.4792 11.9042 11.2875 11.7125C11.0958 11.5208 11 11.2833 11 11C11 10.7167 11.0958 10.4792 11.2875 10.2875C11.4792 10.0958 11.7167 10 12 10C12.2833 10 12.5208 10.0958 12.7125 10.2875C12.9042 10.4792 13 10.7167 13 11C13 11.2833 12.9042 11.5208 12.7125 11.7125C12.5208 11.9042 12.2833 12 12 12ZM12 17C13.35 15.85 14.3542 14.7875 15.0125 13.8125C15.6708 12.8375 16 11.9333 16 11.1C16 9.85 15.5958 8.85417 14.7875 8.1125C13.9792 7.37083 13.05 7 12 7C10.95 7 10.0208 7.37083 9.2125 8.1125C8.40417 8.85417 8 9.85 8 11.1C8 11.9333 8.32917 12.8375 8.9875 13.8125C9.64583 14.7875 10.65 15.85 12 17Z" fill="#31343A"/>
</svg>
