<?xml version="1.0" encoding="utf-8"?>
<!-- Generator: Adobe Illustrator 28.0.0, SVG Export Plug-In . SVG Version: 6.00 Build 0)  -->
<svg version="1.1" id="Layer_1" xmlns="http://www.w3.org/2000/svg" xmlns:xlink="http://www.w3.org/1999/xlink" x="0px" y="0px"
	 viewBox="0 0 512 512" style="enable-background:new 0 0 512 512;" xml:space="preserve">
<style type="text/css">
	.st0{fill:#007EC5;}
</style>
<path class="st0" d="M497.9,202.2l-74.7-128c-19.1-32.6-54.3-52.9-92.1-52.9H180.3c-37.8,0-73.1,20.3-92.1,52.9l-74.7,128
	c-19.3,33.2-19.3,74.3,0,107.5l74.7,128c19.1,32.6,54.3,52.9,92.1,52.9h150.8c37.8,0,73.1-20.3,92.1-52.9l74.7-128
	C517.2,276.6,517.2,235.4,497.9,202.2L497.9,202.2z M341.3,277.3H170.7c-11.8,0-21.3-9.6-21.3-21.3s9.5-21.3,21.3-21.3h170.7
	c11.8,0,21.3,9.6,21.3,21.3S353.1,277.3,341.3,277.3z"/>
</svg>
