<svg width="36" height="36" viewBox="0 0 36 36" fill="none" xmlns="http://www.w3.org/2000/svg">
<g clip-path="url(#clip0_18293_35328)">
<g clip-path="url(#clip1_18293_35328)">
<path d="M18 36C27.9411 36 36 27.9411 36 18C36 8.05891 27.9411 0 18 0C8.05891 0 0 8.05891 0 18C0 27.9411 8.05891 36 18 36Z" fill="#1D2E79"/>
<mask id="mask0_18293_35328" style="mask-type:luminance" maskUnits="userSpaceOnUse" x="0" y="3" width="36" height="27">
<path d="M35.25 3.75H0.75V29.25H35.25V3.75Z" fill="white"/>
</mask>
<g mask="url(#mask0_18293_35328)">
<path d="M18.0002 4.84326C9.8388 4.84326 3.22266 11.4594 3.22266 19.6208V21.5912H32.7778V19.6208C32.7778 11.4595 26.1616 4.84326 18.0002 4.84326Z" fill="#FFC839"/>
<path d="M20.8813 5.12489C19.9494 4.94072 18.9862 4.84326 18.0002 4.84326C9.8388 4.84326 3.22266 11.4594 3.22266 19.6208V21.5912H8.98485V19.6208C8.98485 12.4454 14.0992 6.46529 20.8813 5.12489Z" fill="#FFB332"/>
<path d="M17.9998 10.5894C17.9998 10.5894 12.5255 16.1289 3.59329 16.6485C2.8367 16.6925 2.25 17.3279 2.25 18.0857V22.6932H33.7496V18.0857C33.7496 17.3279 33.1629 16.6925 32.4063 16.6485C23.4742 16.1289 17.9998 10.5894 17.9998 10.5894Z" fill="#FFB332"/>
<path d="M8.9844 19.6211C8.9844 18.1895 9.1887 16.8057 9.5685 15.4966C7.8096 16.0817 5.8081 16.5197 3.59329 16.6485C2.8367 16.6925 2.25 17.3279 2.25 18.0857V22.6933H8.9844V19.6211Z" fill="#FF9100"/>
<path d="M20.7029 3.75H15.2982C14.4361 3.75 13.7671 4.50204 13.8674 5.35823L15.8397 22.1844H20.1613L22.1336 5.35823C22.234 4.50204 21.565 3.75 20.7029 3.75Z" fill="#FFDD40"/>
<path d="M18.0005 15.358C16.386 15.358 15.0389 14.2131 14.7268 12.6908L15.8396 22.1843H20.1613L21.2741 12.6909C20.9621 14.2131 19.615 15.358 18.0005 15.358Z" fill="#FFC839"/>
<path d="M33 20.25H3C1.75736 20.25 0.75 21.2574 0.75 22.5C0.75 23.7426 1.75736 24.75 3 24.75H33C34.2426 24.75 35.25 23.7426 35.25 22.5C35.25 21.2574 34.2426 20.25 33 20.25Z" fill="#FFC839"/>
<path d="M33 24.75H3C1.75736 24.75 0.75 25.7574 0.75 27C0.75 28.2426 1.75736 29.25 3 29.25H33C34.2426 29.25 35.25 28.2426 35.25 27C35.25 25.7574 34.2426 24.75 33 24.75Z" fill="#FFB332"/>
<path d="M33 20.25H10.5C9.25736 20.25 8.25 21.2574 8.25 22.5C8.25 23.7426 9.25736 24.75 10.5 24.75H33C34.2426 24.75 35.25 23.7426 35.25 22.5C35.25 21.2574 34.2426 20.25 33 20.25Z" fill="#FFDD40"/>
<path d="M33 24.75H10.5C9.25736 24.75 8.25 25.7574 8.25 27C8.25 28.2426 9.25736 29.25 10.5 29.25H33C34.2426 29.25 35.25 28.2426 35.25 27C35.25 25.7574 34.2426 24.75 33 24.75Z" fill="#FFC839"/>
</g>
<path d="M20.25 10.5H15.75C12.4363 10.5 9.75 13.1863 9.75 16.5C9.75 19.8137 12.4363 22.5 15.75 22.5H20.25C23.5637 22.5 26.25 19.8137 26.25 16.5C26.25 13.1863 23.5637 10.5 20.25 10.5Z" fill="white"/>
<mask id="mask1_18293_35328" style="mask-type:luminance" maskUnits="userSpaceOnUse" x="12" y="13" width="12" height="7">
<path d="M23.5472 13.5H12.4526V19.5H23.5472V13.5Z" fill="white"/>
</mask>
<g mask="url(#mask1_18293_35328)">
<path d="M18.5076 14.1549C18.469 14.1581 18.7725 13.3486 17.7938 13.5252C15.2066 13.9921 13.3783 15.7153 12.9933 16.2086C12.6084 16.7019 11.4293 18.7592 14.5452 18.5186C17.6616 18.2781 19.3832 16.4899 19.6227 16.1605C20.557 14.873 20.1911 14.019 18.5076 14.1549ZM17.87 13.7341C17.87 13.7341 18.4817 13.5934 18.2311 14.1994C18.2311 14.1994 16.7072 14.3437 14.5817 15.6032C14.5817 15.6032 15.6878 14.0666 17.87 13.7341ZM17.0588 17.6996C15.581 18.2506 14.1777 18.1475 13.9239 17.468C13.6706 16.7886 14.6631 15.7914 16.1404 15.2399C17.6183 14.6885 19.0215 14.7921 19.2748 15.4715C19.5286 16.151 18.5362 17.1482 17.0588 17.6996Z" fill="#DF134C"/>
<path d="M20.1335 19.5L20.7887 15.786H21.7547L21.6844 16.1821C21.8477 16.015 21.9905 15.9018 22.1126 15.8427C22.2771 15.7633 22.451 15.7236 22.6334 15.7236C22.994 15.7236 23.2484 15.8611 23.3964 16.1366C23.545 16.4121 23.5836 16.7526 23.5122 17.1587C23.4335 17.6065 23.2653 17.9486 23.0089 18.1845C22.7524 18.4203 22.4606 18.5382 22.1322 18.5382C21.9731 18.5382 21.8324 18.5107 21.7113 18.4567C21.5897 18.4028 21.4866 18.3219 21.4025 18.2146L21.1757 19.5H20.1335ZM21.5849 17.136C21.5474 17.348 21.5648 17.5061 21.6362 17.6091C21.7076 17.7123 21.8118 17.7636 21.9493 17.7636C22.0693 17.7636 22.1782 17.7144 22.2771 17.6155C22.376 17.5167 22.4458 17.3496 22.4875 17.1132C22.5256 16.8954 22.5113 16.7362 22.4452 16.6336C22.3786 16.5316 22.2845 16.4808 22.1629 16.4808C22.0307 16.4808 21.9117 16.5327 21.806 16.6352C21.6997 16.7378 21.6257 16.9049 21.5849 17.136Z" fill="#0060A9"/>
<path d="M16.0876 15.7845H17.0791L17.2154 17.4533L18.0524 15.7845H18.9719L19.2416 17.467L19.9696 15.7845H20.9552L19.4991 18.4574H18.5875L18.3295 16.8489L17.5226 18.4574H16.6074L16.0876 15.7845Z" fill="#0060A9"/>
</g>
</g>
</g>
<defs>
<clipPath id="clip0_18293_35328">
<rect width="36" height="36" fill="white"/>
</clipPath>
<clipPath id="clip1_18293_35328">
<rect width="36" height="36" fill="white"/>
</clipPath>
</defs>
</svg>
