<svg width="36" height="36" viewBox="0 0 36 36" fill="none" xmlns="http://www.w3.org/2000/svg">
<g clip-path="url(#clip0_18293_34404)">
<path d="M32.2015 28.5245C34.109 25.7516 35.2266 22.3931 35.2266 18.7731C35.2266 9.25919 27.5139 1.54651 18 1.54651C8.48611 1.54651 0.773438 9.25919 0.773438 18.7731C0.773438 22.3931 1.89102 25.7516 3.79852 28.5245H32.2015Z" fill="#1D3BA8"/>
<path d="M17.9999 9.37949C17.6519 9.37949 17.3699 9.09741 17.3699 8.74942V0.6297C17.3699 0.281708 17.6519 -0.000366211 17.9999 -0.000366211C18.3479 -0.000366211 18.63 0.281708 18.63 0.6297V8.74942C18.63 9.09741 18.3479 9.37949 17.9999 9.37949Z" fill="#5488E2"/>
<path d="M17.9999 5.86298C17.6519 5.86298 17.3699 5.5809 17.3699 5.23291V8.74936C17.3699 9.09735 17.6519 9.37943 17.9999 9.37943C18.3479 9.37943 18.63 9.09735 18.63 8.74936V5.23291C18.63 5.5809 18.3479 5.86298 17.9999 5.86298Z" fill="#406BCC"/>
<path d="M32.2501 16.0127L18 23.5334V35.9996C23.9247 35.9996 29.15 33.0083 32.2501 28.4542V16.0127Z" fill="#F95D95"/>
<path d="M3.74963 28.4542C6.84998 33.0083 12.0753 35.9996 18 35.9996V23.5334L3.74963 16.0127V28.4542Z" fill="#06DAF7"/>
<path d="M3.74963 16.0127V28.4542C4.69171 29.8376 5.8299 31.0769 7.12408 32.1318C7.12408 28.4489 7.12408 21.2364 7.12408 19.8181C7.12408 17.9073 9.37244 18.9815 9.39771 18.9936L3.74963 16.0127Z" fill="#05B8E2"/>
<path d="M18 35.9996V23.5334L5.19238 30.2925C8.34573 33.7961 12.9152 35.9996 18 35.9996Z" fill="#05B8E2"/>
<path d="M18 23.5334V35.9996C23.0847 35.9996 27.6542 33.7961 30.8076 30.2925L18 23.5334Z" fill="#EF4A8A"/>
<path d="M32.2504 16.0127L18.9176 8.97653C18.6306 8.8252 18.3153 8.74939 18 8.74939V23.5334L32.2504 16.0127Z" fill="#F9CE00"/>
<path d="M20.0473 19.7781L18 18.6976V23.5333L23.8835 20.4283C22.5854 20.6241 21.2399 20.4074 20.0473 19.7781Z" fill="#F4B500"/>
<path d="M18 8.74939C17.6847 8.74939 17.3694 8.8252 17.0823 8.97681L3.74988 16.0127L18 23.5334V8.74939Z" fill="#F4B500"/>
<path d="M12.3992 15.7418C10.8907 14.9455 10.6444 13.0092 11.6584 11.8389L3.74963 16.0126L18 23.5333V18.6976L12.3992 15.7418Z" fill="#F29B00"/>
<path d="M7.12433 29.2732L5.19238 30.2927C5.78784 30.9541 6.43384 31.5691 7.12433 32.1318C7.12433 31.3177 7.12433 30.3315 7.12433 29.2732Z" fill="#07A3D3"/>
<path d="M16.7274 16.6602V16.5055C16.7274 15.96 16.3936 15.8542 15.9458 15.8542C15.669 15.8542 15.5795 15.6099 15.5795 15.3657C15.5795 15.1214 15.669 14.8772 15.9458 14.8772C16.2552 14.8772 16.5808 14.8365 16.5808 14.177C16.5808 13.7048 16.3121 13.5908 15.9783 13.5908C15.5794 13.5908 15.3758 13.6885 15.3758 14.006C15.3758 14.2828 15.2537 14.4701 14.7815 14.4701C14.1953 14.4701 14.1221 14.348 14.1221 13.9573C14.1221 13.3222 14.578 12.5 15.9783 12.5C17.0123 12.5 17.7938 12.8745 17.7938 13.9735C17.7938 14.5678 17.574 15.1214 17.167 15.3087C17.6473 15.4878 17.9973 15.846 17.9973 16.5054V16.6601C17.9973 17.9952 17.0773 18.5 15.9376 18.5C14.5373 18.5 14 17.6452 14 16.9613C14 16.595 14.1547 16.4973 14.6025 16.4973C15.1235 16.4973 15.2537 16.6112 15.2537 16.9206C15.2537 17.3033 15.6119 17.3927 15.9783 17.3927C16.532 17.3928 16.7274 17.1893 16.7274 16.6602Z" fill="#2C2630"/>
<path d="M20.6517 12.5C21.7752 12.5 22.6544 13.0211 22.6544 14.4213V16.5299C22.6544 17.9302 21.7752 18.4512 20.6517 18.4512H19.2107C18.8769 18.4512 18.6571 18.2721 18.6571 18.0686V12.8827C18.6571 12.6791 18.8769 12.5 19.2107 12.5H20.6517ZM19.9272 13.6072V17.344H20.6518C21.1077 17.344 21.3845 17.0835 21.3845 16.5298V14.4212C21.3845 13.8676 21.1077 13.6071 20.6518 13.6071H19.9272V13.6072Z" fill="#2C2630"/>
</g>
<defs>
<clipPath id="clip0_18293_34404">
<rect width="36" height="36" fill="white"/>
</clipPath>
</defs>
</svg>
