<svg width="36" height="36" viewBox="0 0 36 36" fill="none" xmlns="http://www.w3.org/2000/svg">
<g clip-path="url(#clip0_18293_34408)">
<path d="M18 36C27.9411 36 36 27.9411 36 18C36 8.05887 27.9411 0 18 0C8.05887 0 0 8.05887 0 18C0 27.9411 8.05887 36 18 36Z" fill="#FF526C"/>
<path d="M29.4857 26.0904C29.186 26.9184 28.7716 27.7045 28.2617 28.4319C25.5757 32.264 20.8516 33.6489 16.6866 32.4315C15.0306 31.9481 13.462 31.0525 12.1462 29.7366L8.16999 25.7605L7.72842 25.3366L5.07546 22.7894C4.60964 22.7894 4.17546 22.6571 3.80667 22.4286C3.11972 22.004 2.66199 21.2428 2.66199 20.3759C2.66199 19.5083 3.11972 18.7472 3.80667 18.3225C4.17546 18.0947 4.60971 17.9625 5.07546 17.9625C4.60964 17.9625 4.17546 17.8302 3.80667 17.6018C3.11972 17.1771 2.66199 16.4167 2.66199 15.5498C2.66199 14.6821 3.11972 13.9217 3.80667 13.4971C4.17546 13.2685 4.60971 13.1364 5.07546 13.1364V10.2968C4.60964 10.2968 4.17546 10.166 3.80667 9.93749C3.11972 9.5121 2.66199 8.75167 2.66199 7.88479C2.66199 7.01713 3.11972 6.256 3.80667 5.83131C4.17546 5.60357 4.60971 5.47131 5.07546 5.47131L20.496 12.9483L21.0933 13.237L21.7655 13.5632C21.8162 12.9592 21.9161 12.356 22.0653 11.7573C22.2622 10.966 22.7934 10.3459 23.4729 10.0139C24.0144 9.74645 24.6507 9.66194 25.2832 9.81916C26.707 10.1725 27.5747 11.614 27.2213 13.0371C26.8253 14.6292 27.0736 16.2808 27.9215 17.6856C27.9215 17.6856 30.9287 22.0863 29.4857 26.0904Z" fill="#FFDCBF"/>
<path d="M16.6864 32.4313C15.0304 31.9479 13.4618 31.0522 12.146 29.7364L8.16983 25.7602L7.72827 25.3363L14.6204 26.758C10.4305 26.758 13.7984 30.6357 16.6864 32.4313Z" fill="#FCBB8D"/>
<path d="M23.7439 21.0273C23.6308 21.0954 23.5065 21.1285 23.3834 21.1285C23.146 21.1285 22.9137 21.0073 22.7825 20.7879C21.4536 18.5817 20.8647 16.071 21.077 13.5273C21.0781 13.4783 21.082 13.379 21.093 13.2369L21.7651 13.5624C21.8161 12.9585 21.9163 12.3556 22.0655 11.7568C22.2619 10.9657 22.7936 10.3458 23.4726 10.0132C22.5122 11.8639 22.4792 13.5484 22.4792 13.5684L22.4762 13.6225C22.4681 13.7146 22.4621 13.8068 22.4571 13.8979C22.3479 15.6945 22.6934 17.4671 23.4626 19.0924C23.6187 19.4229 23.7921 19.7474 23.9833 20.0648C24.1826 20.3974 24.0764 20.828 23.7439 21.0273Z" fill="#FCBB8D"/>
<path d="M20.4961 12.9477V24.6007C20.4961 25.7924 19.3675 26.7578 17.9734 26.7578H9.1676L8.17008 25.7603L5.07555 22.789C4.60987 22.789 4.17527 22.6568 3.80676 22.4285L3.83257 22.3938C4.73327 21.1829 4.72279 19.5218 3.80676 18.3224C4.17527 18.094 4.60994 17.9619 5.07555 17.9619C4.60987 17.9619 4.17527 17.8297 3.80676 17.6014L3.97066 17.3973C4.78917 16.3781 4.83171 14.9395 4.07486 13.8739L3.80676 13.4965C4.17527 13.2681 4.60994 13.136 5.07555 13.136V10.2968C4.60987 10.2968 4.17527 10.1656 3.80676 9.93723L4.22632 9.2294C4.7467 8.35162 4.72575 7.25488 4.17232 6.39749L3.80676 5.8312C4.17527 5.60282 4.60994 5.4707 5.07555 5.4707L20.4961 12.9477Z" fill="#FCBB8D"/>
<path d="M5.07563 10.567V4.52281C5.07563 3.33137 6.20499 2.36499 7.59837 2.36499H19.2423C20.6358 2.36499 21.7651 3.33137 21.7651 4.52281V24.601C21.7651 25.7925 20.6357 26.7582 19.2423 26.7582H7.5983C6.20499 26.7582 5.07556 25.7925 5.07556 24.601V23.2676L5.07563 10.567Z" fill="#374266"/>
<path d="M20.4973 6.08252H6.34338V23.0407H20.4973V6.08252Z" fill="#F2F2F7"/>
<path d="M34.3765 25.4806C32.8065 28.9138 30.188 31.7674 26.9304 33.632C25.2164 34.6135 23.3253 35.321 21.3174 35.695L18.948 33.3256L30.5848 21.6888L34.3765 25.4806Z" fill="#65A3E6"/>
<path d="M15.5754 5.03975H11.2652C10.9541 5.03975 10.7019 4.78761 10.7019 4.47648C10.7019 4.16542 10.954 3.91321 11.2652 3.91321H15.5754C15.8865 3.91321 16.1387 4.16535 16.1387 4.47648C16.1387 4.78761 15.8865 5.03975 15.5754 5.03975Z" fill="#495B94"/>
<path d="M13.4206 25.9617C14.0075 25.9617 14.4833 25.4859 14.4833 24.899C14.4833 24.3121 14.0075 23.8363 13.4206 23.8363C12.8337 23.8363 12.3579 24.3121 12.3579 24.899C12.3579 25.4859 12.8337 25.9617 13.4206 25.9617Z" fill="#495B94"/>
<path d="M26.9304 33.632C25.2164 34.6136 23.3253 35.3211 21.3174 35.6951L18.948 33.3257L22.786 29.4877L26.9304 33.632Z" fill="#1B79CF"/>
<path d="M10.1215 10.3105H9.16968V11.2624H10.1215V10.3105Z" fill="#495B94"/>
<path d="M10.1215 17.8604H9.16968V18.8122H10.1215V17.8604Z" fill="#495B94"/>
<path d="M14.9576 8.54883V13.0244H19.4331V8.54883H14.9576ZM18.3353 11.9265H16.0554V9.64655H18.3353V11.9265Z" fill="#495B94"/>
<path d="M17.6713 10.3105H16.7194V11.2624H17.6713V10.3105Z" fill="#495B94"/>
<path d="M13.8962 15.9891V15.0374H12.9443V15.9891V16.9409H13.8962V16.967V17.9188H14.848V16.967V16.0151H13.8962V15.9891Z" fill="#495B94"/>
<path d="M17.5294 13.8264V14.7782H18.4813H19.4331V13.8264H18.4813H17.5294Z" fill="#495B94"/>
<path d="M13.9222 17.9381H12.9703V18.8899H13.9222V17.9381Z" fill="#495B94"/>
<path d="M12.9443 14.0854H11.9924V15.0373H12.9443V14.0854Z" fill="#495B94"/>
<path d="M19.4133 15.8826H18.4614V16.8345H19.4133V15.8826Z" fill="#495B94"/>
<path d="M19.4133 16.834H18.4614V17.7859H19.4133V16.834Z" fill="#495B94"/>
<path d="M15.6053 18.6705H14.6534V19.6224H15.6053V18.6705Z" fill="#495B94"/>
<path d="M15.6053 19.6219H14.6534V20.5738H15.6053V19.6219Z" fill="#495B94"/>
<path d="M18.4612 17.7186H17.5093H16.5574V18.6705V19.6224V20.5743H17.5093H18.4612H19.413V19.6224V18.6705V17.7186H18.4612ZM18.4612 19.6223H17.5093V18.6704H18.4612V19.6223Z" fill="#495B94"/>
<path d="M16.2012 13.9186H15.2493H14.2975V14.8704H15.2493V15.8222H16.2012V16.7741H17.1529V15.8222V14.8704H16.2012V13.9186Z" fill="#495B94"/>
<path d="M9.60322 14.0855V15.0374H10.555V14.0855V13.0242H11.8832V8.54871H7.40771V13.0242H9.60329V14.0855H9.60322ZM8.5055 9.6465H10.7855V11.9264H8.5055V9.6465Z" fill="#495B94"/>
<path d="M8.35954 14.0854H7.40771V16.0986V16.5043V20.5741H11.8832V16.0986H8.35954V14.0854ZM8.50543 17.1964H10.7854V19.4763H8.50543V17.1964Z" fill="#495B94"/>
<path d="M13.8962 12.2141V11.2624V10.3105H12.9443V11.2624V12.2141V13.1659H13.8962V12.2141Z" fill="#495B94"/>
</g>
<defs>
<clipPath id="clip0_18293_34408">
<rect width="36" height="36" fill="white"/>
</clipPath>
</defs>
</svg>
