<svg width="36" height="36" viewBox="0 0 36 36" fill="none" xmlns="http://www.w3.org/2000/svg">
<g clip-path="url(#clip0_18293_34403)">
<path d="M35.6586 18.3813C35.6586 28.1116 27.7704 35.9995 18.0401 35.9995C8.30978 35.9995 0.421875 28.1116 0.421875 18.3813C0.421875 8.651 8.30978 0.762817 18.0401 0.762817C27.7704 0.762817 35.6586 8.651 35.6586 18.3813Z" fill="#FDD33A"/>
<path d="M27.331 9.70029V8.40665C27.331 3.77097 23.1631 -0.000366211 18.0401 -0.000366211C12.9172 -0.000366211 8.74927 3.77097 8.74927 8.40665V9.70029C8.84045 9.67419 8.93604 9.65936 9.03491 9.65936H9.79736V8.40665C9.79736 4.34885 13.4951 1.04745 18.0401 1.04745C22.5854 1.04745 26.2832 4.34885 26.2832 8.40665V9.65936H27.0453C27.1445 9.65936 27.2401 9.67419 27.331 9.70029Z" fill="#1B0D59"/>
<path d="M8.25491 13.1724H7.08707C7.06976 13.1724 7.05219 13.1716 7.03516 13.1702C6.7377 13.1447 6.5166 12.8813 6.5166 12.5825V11.5127C6.5166 10.7609 6.77203 10.5055 7.08707 10.5055H8.25491V13.1724Z" fill="#1B0D59"/>
<path d="M10.3401 14.9943H8.77072C8.17746 14.9943 7.69214 14.5087 7.69214 13.9154V10.6357C7.69214 10.0424 8.17746 9.55713 8.77072 9.55713H10.3401V14.9943Z" fill="#6843AF"/>
<path d="M27.8257 10.9423H28.9933C29.3086 10.9423 29.564 11.1977 29.564 11.5127V13.0385C29.564 13.3538 29.3086 13.6092 28.9933 13.6092H27.8257V10.9423Z" fill="#1B0D59"/>
<path d="M25.7401 9.55713H27.3098C27.903 9.55713 28.3884 10.0424 28.3884 10.6357V13.9154C28.3884 14.5087 27.903 14.994 27.3098 14.994H25.7401V9.55713Z" fill="#6843AF"/>
<path d="M7.69214 12.4402V13.9154C7.69214 14.5086 8.17746 14.9942 8.77072 14.9942H10.3401V13.519H8.77072C8.17746 13.519 7.69214 13.0334 7.69214 12.4402Z" fill="#50309E"/>
<path d="M27.3098 13.519H25.7401V14.9942H27.3098C27.903 14.9942 28.3884 14.5086 28.3884 13.9154V12.4402C28.3884 13.0334 27.903 13.519 27.3098 13.519Z" fill="#50309E"/>
<path d="M18.0401 35.9995C24.4267 35.9995 30.0196 32.6014 33.1092 27.5144C29.6315 23.0045 24.1757 20.0984 18.0401 20.0984C11.9048 20.0984 6.44867 23.0045 2.97095 27.5144C6.06058 32.6014 11.6534 35.9995 18.0401 35.9995Z" fill="#46CEC3"/>
<path d="M19.2219 21.1182C20.1088 20.8531 20.9987 20.6439 21.8883 20.4884C20.6455 20.233 19.3587 20.0984 18.0401 20.0984C11.9048 20.0984 6.44867 23.0045 2.97095 27.5144C3.82678 28.9234 4.87488 30.2022 6.07816 31.3157C8.93323 26.5691 13.4969 22.8301 19.2219 21.1182Z" fill="#39B7AB"/>
<path d="M18.04 28.9817C21.9976 28.9817 25.2056 25.7737 25.2056 21.8164V21.4958C22.9938 20.5958 20.5751 20.0984 18.04 20.0984C15.5049 20.0984 13.0863 20.5958 10.8748 21.4958V21.8164C10.8748 25.7737 14.0828 28.9817 18.04 28.9817Z" fill="white"/>
<path d="M18.0401 26.7404C14.9337 26.7404 12.4154 24.2221 12.4154 21.1157V11.807C12.4154 8.70032 14.9337 6.18225 18.0401 6.18225C21.1465 6.18225 23.6649 8.70032 23.6649 11.807V21.1157C23.6649 24.2221 21.1465 26.7404 18.0401 26.7404Z" fill="#E5A67C"/>
<path d="M12.4154 18.2794V21.0537C13.8615 22.4811 15.8478 23.3628 18.0401 23.3628C20.2325 23.3628 22.2188 22.4811 23.6649 21.0537V18.2794H12.4154Z" fill="#CC8A5E"/>
<path d="M18.0401 21.7584C13.6178 21.7584 10.0327 18.1732 10.0327 13.751V9.8316C10.0327 5.40933 13.6178 1.82422 18.0401 1.82422C22.4624 1.82422 26.0475 5.40933 26.0475 9.8316V13.751C26.0475 18.1732 22.4624 21.7584 18.0401 21.7584Z" fill="#E5A67C"/>
<path d="M19.4821 7.34372C21.2926 8.52832 23.5569 9.29462 26.0384 9.45612C25.9406 7.33658 25.0178 5.4332 23.5846 4.05688C22.5851 5.40436 21.1718 6.53622 19.4821 7.34372Z" fill="#563B17"/>
<path d="M23.5846 4.05688C22.5851 5.40436 21.1718 6.53622 19.4821 7.34372C19.8517 7.58569 20.2412 7.80899 20.6466 8.01443C22.1649 7.22205 23.4382 6.16049 24.3586 4.91574C24.1213 4.61115 23.8629 4.32413 23.5846 4.05688Z" fill="#442D11"/>
<path d="M12.4604 13.751V9.8316C12.4604 5.82187 15.4075 2.5007 19.2541 1.91568C18.858 1.85553 18.4529 1.82422 18.0401 1.82422C13.6178 1.82422 10.0327 5.40933 10.0327 9.8316V13.751C10.0327 18.1732 13.6178 21.7584 18.0401 21.7584C18.4529 21.7584 18.858 21.7271 19.2541 21.6669C15.4075 21.0819 12.4604 17.7607 12.4604 13.751Z" fill="#D1946B"/>
<path d="M14.578 12.4487C14.578 12.7143 14.363 12.9296 14.0974 12.9296C13.8318 12.9296 13.6165 12.7143 13.6165 12.4487C13.6165 12.1831 13.8318 11.9678 14.0974 11.9678C14.363 11.9678 14.578 12.1831 14.578 12.4487Z" fill="#1B0D59"/>
<path d="M22.4641 12.4487C22.4641 12.7143 22.2487 12.9296 21.9831 12.9296C21.7175 12.9296 21.5022 12.7143 21.5022 12.4487C21.5022 12.1831 21.7175 11.9678 21.9831 11.9678C22.2487 11.9678 22.4641 12.1831 22.4641 12.4487Z" fill="#1B0D59"/>
<path d="M20.0819 15.4475C20.0819 16.575 19.1678 17.489 18.0401 17.489C16.9126 17.489 15.9985 16.575 15.9985 15.4475H20.0819Z" fill="white"/>
<path d="M14.3223 15.3562H13.8721C13.4491 15.3562 13.1028 15.0102 13.1028 14.5872C13.1028 14.1639 13.4491 13.8179 13.8721 13.8179H14.3223C14.7452 13.8179 15.0916 14.1639 15.0916 14.5872C15.0916 15.0102 14.7452 15.3562 14.3223 15.3562Z" fill="#EF3A50"/>
<path d="M22.2083 15.3562H21.7578C21.3348 15.3562 20.9888 15.0102 20.9888 14.5872C20.9888 14.1639 21.3348 13.8179 21.7578 13.8179H22.2083C22.6312 13.8179 22.9773 14.1639 22.9773 14.5872C22.9773 15.0102 22.6312 15.3562 22.2083 15.3562Z" fill="#EF3A50"/>
<path d="M14.7458 11.3229H13.4486C13.3041 11.3229 13.1871 11.2059 13.1871 11.0617C13.1871 10.9175 13.3041 10.8005 13.4486 10.8005H14.7458C14.8903 10.8005 15.0073 10.9175 15.0073 11.0617C15.0073 11.2062 14.8903 11.3229 14.7458 11.3229Z" fill="#1B0D59"/>
<path d="M22.6318 11.3229H21.3343C21.1901 11.3229 21.0731 11.2059 21.0731 11.0617C21.0731 10.9175 21.1901 10.8005 21.3343 10.8005H22.6318C22.776 10.8005 22.893 10.9175 22.893 11.0617C22.893 11.2062 22.776 11.3229 22.6318 11.3229Z" fill="#1B0D59"/>
<path d="M18.0401 14.1646C17.802 14.1646 17.6086 13.9715 17.6086 13.7331V11.8571C17.6086 11.6187 17.802 11.4257 18.0401 11.4257C18.2785 11.4257 18.4716 11.6187 18.4716 11.8571V13.7331C18.4716 13.9712 18.2785 14.1646 18.0401 14.1646Z" fill="#EF3A50"/>
<path d="M9.25757 14.5873V16.091C9.25757 16.5808 9.65445 16.9774 10.1439 16.9774H14.8101" stroke="#1B0D59" stroke-width="1.07867" stroke-miterlimit="10" stroke-linecap="round" stroke-linejoin="round"/>
<path d="M23.9123 4.3887C22.4497 2.81161 20.3604 1.82422 18.0401 1.82422C13.8584 1.82422 10.426 5.03003 10.0648 9.11804C11.1143 9.35892 12.2234 9.48911 13.3712 9.48911C17.9687 9.48911 21.9529 7.41626 23.9123 4.3887Z" fill="#563B17"/>
<path d="M23.9123 4.3887C22.4497 2.81161 20.3604 1.82422 18.0401 1.82422C13.8584 1.82422 10.426 5.03003 10.0648 9.11804C11.1143 9.35892 12.2234 9.48911 13.3712 9.48911C17.9687 9.48911 21.9529 7.41626 23.9123 4.3887Z" fill="#563B17"/>
<path d="M12.4689 9.46136C12.6436 5.61972 15.5256 2.48367 19.2522 1.91595C19.2393 1.91403 19.2263 1.91211 19.2134 1.91046C19.1409 1.89975 19.0684 1.89014 18.9954 1.88135C18.975 1.87888 18.955 1.8764 18.9349 1.87421C18.8454 1.86432 18.7559 1.85553 18.6655 1.84866C18.6496 1.84729 18.6336 1.84647 18.6177 1.84537C18.5416 1.84015 18.4655 1.83575 18.3889 1.83246C18.3645 1.83136 18.34 1.83026 18.3153 1.82944C18.2238 1.82642 18.1324 1.82422 18.0401 1.82422C17.9728 1.82422 17.9058 1.82504 17.8388 1.82669C17.8165 1.82751 17.7943 1.82834 17.772 1.82916C17.7275 1.83054 17.6833 1.83218 17.6388 1.83411C17.6122 1.83548 17.5858 1.8374 17.5594 1.83905C17.5196 1.84125 17.4798 1.84344 17.44 1.84647C17.412 1.84866 17.3839 1.85114 17.3557 1.85361C17.318 1.8569 17.2804 1.85992 17.2428 1.86377C17.2137 1.86652 17.1845 1.86981 17.1557 1.87311C17.1192 1.87695 17.0829 1.88107 17.0467 1.88547C17.017 1.88931 16.9876 1.89316 16.9582 1.89728C16.9228 1.90195 16.8874 1.90689 16.8522 1.91211C16.8223 1.9165 16.7926 1.92117 16.7629 1.92612C16.7283 1.93161 16.6937 1.93738 16.6591 1.94315C16.6292 1.94836 16.5992 1.95386 16.5693 1.95935C16.5355 1.96567 16.5017 1.97226 16.468 1.97885C16.438 1.98489 16.4078 1.99121 16.3779 1.99753C16.3446 2.00439 16.3114 2.01181 16.2782 2.01923C16.2482 2.02582 16.2183 2.03296 16.1884 2.03983C16.1554 2.04752 16.1227 2.05576 16.09 2.06372C16.0604 2.07141 16.0304 2.07883 16.0008 2.08652C15.9684 2.09503 15.9359 2.10382 15.9038 2.11288C15.8739 2.12112 15.8442 2.12936 15.8145 2.13788C15.783 2.14722 15.7511 2.15656 15.7198 2.16617C15.6898 2.17523 15.6599 2.18402 15.6305 2.19336C15.5995 2.20325 15.5685 2.21341 15.5374 2.22357C15.5078 2.23346 15.4778 2.24307 15.4482 2.25323C15.4179 2.26367 15.3877 2.27438 15.3575 2.2851C15.3276 2.29581 15.2976 2.30624 15.268 2.31723C15.2386 2.32794 15.2092 2.33948 15.1801 2.35074C15.1499 2.36227 15.1197 2.37354 15.09 2.38535C15.0617 2.39661 15.034 2.40814 15.006 2.41968C14.9752 2.43204 14.9444 2.4444 14.9139 2.45758C14.8887 2.46829 14.864 2.47928 14.839 2.49026C14.7121 2.54575 14.5865 2.60452 14.463 2.66632C14.4443 2.67566 14.4253 2.68472 14.4066 2.69434C14.3718 2.71191 14.3374 2.73032 14.3031 2.74844C14.2822 2.75943 14.2611 2.77042 14.2402 2.78168C14.2067 2.7998 14.1732 2.81848 14.1397 2.83743C14.1188 2.84897 14.0974 2.86078 14.0765 2.87259C14.0433 2.89154 14.0106 2.91104 13.9776 2.93054C13.9568 2.94263 13.9359 2.95471 13.9153 2.96735C13.8826 2.98712 13.8502 3.00717 13.8175 3.0275C13.7972 3.04013 13.7769 3.05249 13.7565 3.0654C13.7238 3.086 13.6917 3.10715 13.6596 3.1283C13.6398 3.1412 13.6203 3.15384 13.6008 3.16702C13.5684 3.18872 13.5363 3.21042 13.5041 3.23267C13.4852 3.24557 13.4662 3.25876 13.4475 3.27194C13.4151 3.29446 13.383 3.31754 13.3511 3.34061C13.333 3.35352 13.3152 3.3667 13.2973 3.37961C13.2649 3.4035 13.2328 3.42767 13.2006 3.45212C13.1836 3.46503 13.1668 3.47794 13.1501 3.49084C13.1177 3.51611 13.0853 3.54138 13.0531 3.56693C13.0375 3.57956 13.0218 3.59192 13.0062 3.60455C12.9732 3.63147 12.9405 3.65811 12.9081 3.6853C12.8941 3.69711 12.8801 3.70892 12.8661 3.72073C12.8326 3.74902 12.7991 3.77786 12.7658 3.80698C12.7538 3.81741 12.7419 3.82812 12.7301 3.83884C12.6955 3.8696 12.6609 3.90036 12.6269 3.93167C12.6175 3.94019 12.6082 3.94897 12.5988 3.95776C12.5626 3.99127 12.5263 4.02533 12.4904 4.05966C12.4854 4.06461 12.4802 4.06982 12.475 4.07477C12.0883 4.44885 11.7389 4.86139 11.4335 5.30634C11.4326 5.30771 11.4318 5.30908 11.431 5.31018C11.398 5.35797 11.3659 5.40631 11.3343 5.45493C11.3324 5.45795 11.3302 5.46069 11.3286 5.46371C11.2975 5.51123 11.2668 5.5593 11.2368 5.60764C11.2343 5.61148 11.2319 5.61533 11.2297 5.61917C11.1997 5.66724 11.1706 5.71558 11.1418 5.76447C11.1393 5.76831 11.1371 5.77243 11.1346 5.77628C11.1058 5.82516 11.0775 5.8746 11.0498 5.92404C11.0479 5.92789 11.0457 5.93146 11.0437 5.93503C11.0157 5.98529 10.988 6.0361 10.9611 6.08691C10.9597 6.08966 10.9583 6.09213 10.9569 6.09488C10.9292 6.14706 10.9023 6.19952 10.8756 6.25253C10.8754 6.25336 10.8748 6.25418 10.8743 6.255C10.437 7.13007 10.1549 8.09631 10.0646 9.11777C10.8366 9.2952 11.6408 9.41193 12.4689 9.46136Z" fill="#442D11"/>
</g>
<defs>
<clipPath id="clip0_18293_34403">
<rect width="36" height="36" fill="white"/>
</clipPath>
</defs>
</svg>
