<svg width="36" height="36" viewBox="0 0 36 36" fill="none" xmlns="http://www.w3.org/2000/svg">
<g clip-path="url(#clip0_18293_34410)">
<path d="M35.2267 18.7733C35.2267 9.25928 27.5141 1.54663 18 1.54663C8.48596 1.54663 0.773315 9.25928 0.773315 18.7733C0.773315 24.8021 3.871 30.1067 8.56085 33.1847H27.4392C32.129 30.1067 35.2267 24.8021 35.2267 18.7733Z" fill="#1D2E79"/>
<path d="M9.96508 14.267C11.0177 13.7187 11.9397 12.8572 12.8312 12.0241C12.9968 11.8693 13.1605 11.7164 13.3229 11.5673V6.28418C13.3229 5.38721 13.698 4.58142 14.2966 4.01077C12.1335 3.94861 10.1217 3.83344 8.34705 3.67566V14.8487C8.85154 14.7588 9.39161 14.5657 9.96508 14.267Z" fill="#FEF156"/>
<path d="M9.91839 14.1773C9.32713 14.4852 8.80555 14.6623 8.34705 14.746V19.5203C10.1217 19.3626 12.1335 19.2474 14.2966 19.1852C13.698 18.6145 13.3229 17.8088 13.3229 16.9118V11.4305C12.2646 12.3957 11.1805 13.52 9.91839 14.1773Z" fill="#47CB8F"/>
<path d="M18.9807 10.8553C20.4854 12.2368 22.5547 13.1636 24.2174 13.9082C24.5952 14.0773 24.9575 14.2397 25.2807 14.3944C25.8036 14.4537 26.4196 14.5027 27.1153 14.5222C27.2866 14.5271 27.4666 14.5299 27.653 14.5306V3.67566C24.8994 3.92042 21.5771 4.06343 18 4.06343C16.6773 4.06343 15.3898 4.04375 14.1526 4.00676C13.5517 4.5777 13.1749 5.38517 13.1749 6.28418V11.7036C15.0069 10.0062 16.6542 8.71903 18.9807 10.8553Z" fill="#FFFBB3"/>
<path d="M27.653 14.4298C26.5885 14.4244 25.6883 14.3481 24.9915 14.2584C25.9206 14.6881 26.6134 15.0636 26.5893 15.3658C26.5683 15.6302 25.9849 15.9178 24.8557 16.2206C22.0476 16.9734 20.4102 17.9835 20.0989 19.1495C22.8742 19.1937 25.4464 19.3243 27.653 19.5205V14.4298Z" fill="#02C0FC"/>
<path d="M21.6515 5.84277C19.3482 5.84277 17.4501 7.57246 17.1823 9.80355C17.7418 9.93348 18.3352 10.2623 18.9808 10.8552C20.4855 12.2368 22.5548 13.1635 24.2175 13.9081C24.2571 13.9258 24.2965 13.9435 24.3358 13.9611C25.4394 13.1404 26.1545 11.8266 26.1545 10.3457C26.1545 7.85884 24.1385 5.84277 21.6515 5.84277Z" fill="#FEF156"/>
<path d="M24.2481 10.3457C24.2481 8.91157 23.0855 7.74902 21.6514 7.74902C20.2174 7.74902 19.0548 8.91157 19.0548 10.3457C19.0548 10.5686 19.083 10.785 19.1359 10.9916C20.0074 11.7556 21.0473 12.3776 22.0834 12.9059C23.3117 12.7001 24.2481 11.6325 24.2481 10.3457Z" fill="#FFC242"/>
<path d="M19.049 10.7809C16.6882 8.61333 14.9793 9.90174 13.1749 11.5662V16.9119C13.1749 17.8109 13.5517 18.6184 14.1526 19.1893C15.3898 19.1523 16.6773 19.1326 18 19.1326C18.7466 19.1326 19.4811 19.1392 20.2026 19.1513C20.5149 18.0436 22.0868 17.0674 24.8819 16.318C30.1014 14.9188 22.7333 14.1639 19.049 10.7809Z" fill="#94DC79"/>
<path d="M0.773315 21.2442V21.3921C0.773315 22.1268 3.44765 22.7794 7.58864 23.192C8.07351 23.2403 8.49482 22.8603 8.49482 22.373V19.3599C3.84189 19.7643 0.773315 20.4572 0.773315 21.2442Z" fill="#47CB8F"/>
<path d="M7.58864 0.00414498C3.44765 0.416739 0.773315 1.06938 0.773315 1.804V1.95187C0.773315 2.73888 3.84189 3.43174 8.49475 3.83632V0.823215C8.49475 0.335879 8.07351 -0.0441597 7.58864 0.00414498Z" fill="#FEF156"/>
<path d="M4.96978 11.0794C6.1312 9.23057 7.48035 8.80581 8.49475 8.81622V3.6884C3.84189 3.28389 0.773315 2.59096 0.773315 1.80396V13.8442C1.91076 14.0586 3.45089 13.4972 4.96978 11.0794Z" fill="#FFC242"/>
<path d="M4.96978 10.9448C3.45089 13.3626 1.91076 13.924 0.773315 13.7096V13.8442C0.773315 13.8442 3.24529 16.4162 8.34696 14.8805C8.39723 14.8654 8.44631 14.8528 8.49482 14.8415V8.68158C7.48035 8.67124 6.1312 9.096 4.96978 10.9448Z" fill="#47CB8F"/>
<path d="M27.5052 19.3597V22.3728C27.5052 22.8602 27.9265 23.2402 28.4114 23.1919C32.5524 22.7793 35.2268 22.1267 35.2268 21.392V21.2441C35.2267 20.4572 32.1581 19.7642 27.5052 19.3597Z" fill="#02C0FC"/>
<path d="M28.4114 0.00414498C27.9266 -0.0441597 27.5052 0.335879 27.5052 0.823215V3.83632C32.1581 3.43181 35.2267 2.73888 35.2267 1.95187V1.804C35.2268 1.06938 32.5524 0.416739 28.4114 0.00414498Z" fill="#FFFBB3"/>
<path d="M27.5052 3.6884V10.8347C28.8552 10.8099 32.9808 10.892 35.2267 12.6862V1.80396C35.2267 2.59096 32.1581 3.28389 27.5052 3.6884Z" fill="#FEF156"/>
<path d="M27.5052 10.7002V14.5633C29.5476 14.5867 32.2186 14.3506 35.2267 13.4299V12.5517C32.9807 10.7575 28.8552 10.6755 27.5052 10.7002Z" fill="#02C0FC"/>
<path d="M35.2267 21.392V13.2953C32.2186 14.216 29.5476 14.4521 27.5052 14.4287V19.5076C32.1581 19.9121 35.2267 20.605 35.2267 21.392Z" fill="#27A6FF"/>
<path d="M8.49482 19.5075V14.707C8.44631 14.7184 8.3973 14.7309 8.34696 14.7461C3.24529 16.2817 0.773315 13.7097 0.773315 13.7097V21.392C0.773386 20.605 3.84196 19.9121 8.49482 19.5075Z" fill="#26B26F"/>
<path d="M23.974 23.229H15.3443C14.5739 23.9396 13.1775 25.6336 14.7208 27.5495V33.1847C14.7208 33.1847 13.9686 34.5751 14.8746 35.7165C15.8882 35.9025 16.9327 36.0001 18 36.0001C21.4853 36.0001 24.728 34.9641 27.4392 33.1847V26.6942C27.4392 24.7883 25.8799 23.229 23.974 23.229Z" fill="#E8F8FC"/>
<path d="M15.4145 23.229H12.0259C10.1201 23.229 8.56067 24.7883 8.56067 26.6942V33.1847C10.4639 34.4338 12.6294 35.3159 14.9565 35.7311C14.0324 34.5869 14.7909 33.1847 14.7909 33.1847V27.5495C13.2476 25.6336 14.6442 23.9396 15.4145 23.229Z" fill="#ADE9F7"/>
<path d="M13.7507 30.8821C13.4057 30.8821 13.1261 30.6024 13.1261 30.2575C13.1261 29.9125 13.4057 29.6329 13.7507 29.6329C14.2167 29.6329 14.5958 29.2538 14.5958 28.7877C14.5958 28.3217 14.2167 27.9427 13.7507 27.9427C13.3476 27.9427 12.9989 28.2289 12.9214 28.6233C12.855 28.9618 12.5269 29.1824 12.1882 29.1158C11.8497 29.0494 11.6292 28.721 11.6957 28.3826C11.8878 27.4039 12.7521 26.6935 13.7507 26.6935C14.9056 26.6935 15.845 27.633 15.845 28.7877C15.845 29.9426 14.9056 30.8821 13.7507 30.8821Z" fill="#27A6FF"/>
<path d="M13.7507 33.8224C12.7116 33.8224 11.82 33.0473 11.6766 32.0194C11.6631 31.9237 11.6564 31.8256 11.6564 31.7281C11.6564 31.3831 11.936 31.1035 12.281 31.1035C12.6259 31.1035 12.9055 31.3832 12.9055 31.7281C12.9055 31.7681 12.9083 31.8081 12.9137 31.8468C12.9715 32.261 13.3313 32.5733 13.7506 32.5733C14.2167 32.5733 14.5958 32.1941 14.5958 31.7281C14.5958 31.2621 14.2167 30.883 13.7506 30.883C13.4056 30.883 13.126 30.6033 13.126 30.2584C13.126 29.9134 13.4057 29.6338 13.7506 29.6338C14.9055 29.6338 15.845 30.5733 15.845 31.7282C15.845 32.8829 14.9056 33.8224 13.7507 33.8224Z" fill="#27A6FF"/>
<path d="M16.3456 31.9204C16.3217 31.9204 16.2978 31.919 16.2735 31.9162C15.9308 31.8768 15.6849 31.5672 15.7242 31.2244C16.0352 28.5156 17.9346 27.0744 18.0154 27.0144C18.2921 26.8084 18.6835 26.866 18.8893 27.1428C19.0947 27.4189 19.0379 27.809 18.7628 28.0153C18.7393 28.0331 17.212 29.2174 16.9652 31.3669C16.9287 31.6855 16.6586 31.9204 16.3456 31.9204Z" fill="#02C0FC"/>
<path d="M17.9877 33.8227C16.7273 33.8227 15.702 32.7974 15.702 31.5371C15.702 30.2768 16.7273 29.2515 17.9877 29.2515C19.248 29.2515 20.2733 30.2768 20.2733 31.5371C20.2733 32.7974 19.248 33.8227 17.9877 33.8227ZM17.9877 30.5007C17.4162 30.5007 16.9512 30.9657 16.9512 31.5372C16.9512 32.1087 17.4162 32.5735 17.9877 32.5735C18.5592 32.5735 19.0241 32.1087 19.0241 31.5372C19.024 30.9656 18.5592 30.5007 17.9877 30.5007Z" fill="#02C0FC"/>
<path d="M22.0579 33.822C20.7976 33.822 19.7723 32.7967 19.7723 31.5364V28.8801C19.7723 27.6198 20.7976 26.5945 22.0579 26.5945C23.3182 26.5945 24.3435 27.6198 24.3435 28.8801V31.5364C24.3434 32.7967 23.3181 33.822 22.0579 33.822ZM22.0579 27.8437C21.4864 27.8437 21.0216 28.3086 21.0216 28.8801V31.5364C21.0216 32.1079 21.4864 32.5727 22.0579 32.5727C22.6294 32.5727 23.0943 32.1079 23.0943 31.5364V28.8801C23.0943 28.3086 22.6293 27.8437 22.0579 27.8437Z" fill="#2FD0E2"/>
<path d="M24.9567 25.9564C25.2981 25.6149 25.2981 25.0613 24.9567 24.7199C24.6152 24.3784 24.0616 24.3784 23.7202 24.7199C23.3787 25.0613 23.3787 25.6149 23.7202 25.9564C24.0616 26.2978 24.6152 26.2978 24.9567 25.9564Z" fill="#3FEADD"/>
</g>
<defs>
<clipPath id="clip0_18293_34410">
<rect width="36" height="36" fill="white"/>
</clipPath>
</defs>
</svg>
