<svg width="36" height="36" viewBox="0 0 36 36" fill="none" xmlns="http://www.w3.org/2000/svg">
<g clip-path="url(#clip0_18293_34401)">
<mask id="mask0_18293_34401" style="mask-type:luminance" maskUnits="userSpaceOnUse" x="0" y="-1" width="36" height="37">
<path d="M0 -0.00255966H36V35.9974H0V-0.00255966Z" fill="white"/>
</mask>
<g mask="url(#mask0_18293_34401)">
<path d="M17.9999 -0.00199484C9.61265 -0.00199484 2.56523 5.73445 0.567017 13.498L26.5078 33.8635C32.158 30.8272 35.9999 24.8616 35.9999 17.998C35.9999 8.05687 27.9411 -0.00199484 17.9999 -0.00199484Z" fill="#4FABF7"/>
<path d="M20.9223 3.58937L18.9448 0.623032C18.684 0.231813 18.2449 -0.00317144 17.7747 -0.00317144H10.8984C10.1218 -0.00317144 9.49219 0.626407 9.49219 1.40308V21.0906C9.49219 21.8672 10.1218 22.4968 10.8984 22.4968H34.5937C35.3704 22.4968 35.9999 21.8672 35.9999 21.0906V5.62183C35.9999 4.84516 35.3704 4.21558 34.5937 4.21558H22.0924C21.6222 4.21558 21.1831 3.98059 20.9223 3.58937Z" fill="#2A428C"/>
<path d="M27.3164 8.4342H18.1758C17.5933 8.4342 17.1211 7.96199 17.1211 7.37952C17.1211 6.79705 17.5933 6.32483 18.1758 6.32483H27.3164C27.8989 6.32483 28.3711 6.79705 28.3711 7.37952C28.3711 7.96199 27.8989 8.4342 27.3164 8.4342Z" fill="#1C2E7A"/>
<path d="M25.1016 15.6062H13.7109V1.40308C13.7109 0.626407 14.3405 -0.00317144 15.1172 -0.00317144H10.8984C10.1218 -0.00317144 9.49219 0.626407 9.49219 1.40308V21.0906C9.49219 21.8672 10.1218 22.4968 10.8984 22.4968H28.6172V19.1218C28.6172 17.1833 27.0401 15.6062 25.1016 15.6062Z" fill="#1C2E7A"/>
<path d="M18.7752 13.2253L15.7921 10.2421L8.41588 17.6183C7.59217 18.4421 7.59217 19.7776 8.41588 20.6014C9.23966 21.4252 10.5752 21.4252 11.399 20.6014L18.7752 13.2253Z" fill="white"/>
<path d="M15.7918 10.2429L11.3171 14.7176C12.1409 13.8938 13.4765 13.8938 14.3003 14.7176C15.124 15.5413 15.124 16.877 14.3003 17.7007L18.7749 13.2261L15.7918 10.2429Z" fill="#D3DCFB"/>
<path d="M20.0502 8.20956L13.4561 8.74921C13.038 8.78345 12.8516 9.29125 13.1482 9.58783L19.4302 15.8698C19.7267 16.1663 20.2345 15.9799 20.2687 15.5619L20.8083 8.96767C20.8438 8.53518 20.4827 8.1742 20.0502 8.20956Z" fill="white"/>
<path d="M25.1016 17.7156H12.6003C12.1301 17.7156 11.691 17.4806 11.4302 17.0894L9.45267 14.123C9.19181 13.7318 8.75271 13.4968 8.28253 13.4968H0.56707C0.196875 14.9351 0 16.443 0 17.9968C0 27.938 8.05887 35.9968 18 35.9968C21.0776 35.9968 23.9743 35.2238 26.5078 33.8624V19.1218C26.5078 18.3452 25.8782 17.7156 25.1016 17.7156Z" fill="#FFDD40"/>
<path d="M3.37957 13.4968H0.56707C0.196875 14.9351 0 16.4429 0 17.9968C0 27.9379 8.05887 35.9968 18 35.9968C21.0775 35.9968 23.9742 35.2237 26.5078 33.8624H23.7451C12.4975 33.8624 3.37957 24.7444 3.37957 13.4968Z" fill="#FFB332"/>
<path d="M17.8242 23.884H8.68359C8.10112 23.884 7.62891 23.4118 7.62891 22.8293C7.62891 22.2469 8.10112 21.7747 8.68359 21.7747H17.8242C18.4067 21.7747 18.8789 22.2469 18.8789 22.8293C18.8789 23.4118 18.4067 23.884 17.8242 23.884Z" fill="#FFB332"/>
<path d="M17.2249 22.7692L20.2079 25.7523L27.5841 18.3761C28.4078 17.5523 28.4078 16.2168 27.5841 15.393C26.7604 14.5693 25.4248 14.5693 24.601 15.393L17.2249 22.7692Z" fill="#FF4155"/>
<path d="M20.2079 25.7523L24.6826 21.2776C23.8588 22.1014 22.5233 22.1014 21.6995 21.2776C20.8758 20.4539 20.8758 19.1183 21.6995 18.2946L17.2249 22.7692L20.2079 25.7523Z" fill="#E80054"/>
<path d="M15.9497 27.7852L22.5439 27.2456C22.9619 27.2113 23.1483 26.7035 22.8518 26.4069L16.5698 20.125C16.2733 19.8284 15.7654 20.0149 15.7313 20.4329L15.1916 27.0271C15.1562 27.4596 15.5172 27.8206 15.9497 27.7852Z" fill="#FF4155"/>
</g>
</g>
<defs>
<clipPath id="clip0_18293_34401">
<rect width="36" height="36" fill="white"/>
</clipPath>
</defs>
</svg>
