<svg width="36" height="36" viewBox="0 0 36 36" fill="none" xmlns="http://www.w3.org/2000/svg">
<g clip-path="url(#clip0_18293_35271)">
<path d="M36 18C36 27.9411 27.9411 36 18 36C8.05887 36 0 27.9411 0 18C0 8.05887 8.05887 0 18 0C27.9411 0 36 8.05887 36 18Z" fill="#54469D"/>
<path d="M36 18C36 27.9411 27.9411 36 18 36C8.05887 36 0 27.9411 0 18C0 8.05887 8.05887 0 18 0C27.9411 0 36 8.05887 36 18Z" fill="#0060A9"/>
<path d="M30.8181 18C30.8181 25.0792 25.0793 30.8181 18 30.8181C10.9207 30.8181 5.18188 25.0792 5.18188 18C5.18188 10.9208 10.9208 5.18188 18 5.18188C25.0792 5.18188 30.8181 10.9208 30.8181 18Z" fill="#6354B2"/>
<path d="M30.8181 18C30.8181 25.0792 25.0793 30.8181 18 30.8181C10.9207 30.8181 5.18188 25.0792 5.18188 18C5.18188 10.9208 10.9208 5.18188 18 5.18188C25.0792 5.18188 30.8181 10.9208 30.8181 18Z" fill="#0060A9"/>
<path d="M9.93694 18.5273H7.15735C6.86604 18.5273 6.63 18.2912 6.63 17.9999C6.63 17.7087 6.86604 17.4726 7.15735 17.4726H9.93694C10.2282 17.4726 10.4643 17.7087 10.4643 17.9999C10.4643 18.2912 10.2282 18.5273 9.93694 18.5273ZM8.55073 12.7857C8.34472 12.5797 8.01087 12.5797 7.80493 12.7857C7.59898 12.9916 7.59898 13.3255 7.80493 13.5314L9.77037 15.4969C9.87338 15.5998 10.0084 15.6513 10.1433 15.6513C10.2782 15.6513 10.4132 15.5999 10.5162 15.4969C10.7222 15.2909 10.7222 14.957 10.5162 14.7511L8.55073 12.7857ZM9.77037 20.5029L7.80493 22.4683C7.59898 22.6743 7.59898 23.0082 7.80493 23.2141C7.90793 23.317 8.04293 23.3686 8.17786 23.3686C8.31279 23.3686 8.44779 23.3171 8.5508 23.2141L10.5162 21.2486C10.7222 21.0427 10.7222 20.7088 10.5162 20.5029C10.3102 20.297 9.97639 20.297 9.77037 20.5029ZM28.8427 17.4726H26.0631C25.7718 17.4726 25.5358 17.7087 25.5358 17.9999C25.5358 18.2912 25.7718 18.5273 26.0631 18.5273H28.8427C29.134 18.5273 29.3701 18.2912 29.3701 17.9999C29.3701 17.7087 29.134 17.4726 28.8427 17.4726ZM26.2297 20.5029C26.0237 20.297 25.6898 20.297 25.4839 20.5029C25.2779 20.7088 25.2779 21.0428 25.4839 21.2486L27.4493 23.2141C27.5523 23.317 27.6873 23.3686 27.8223 23.3686C27.9572 23.3686 28.0922 23.3171 28.1952 23.2141C28.4011 23.0081 28.4011 22.6742 28.1952 22.4683L26.2297 20.5029ZM25.8567 15.6514C25.9917 15.6514 26.1267 15.5999 26.2297 15.4969L28.1951 13.5315C28.4011 13.3255 28.4011 12.9916 28.1951 12.7858C27.9891 12.5798 27.6553 12.5798 27.4493 12.7858L25.4839 14.7512C25.2779 14.9571 25.2779 15.2911 25.4839 15.4969C25.5868 15.5999 25.7218 15.6514 25.8567 15.6514Z" fill="#E5F2FD"/>
<path d="M32.9025 17.9999C32.9025 21.3803 31.7395 24.691 29.6276 27.3219C27.6818 29.7459 25.0035 31.5146 22.0326 32.3499L23.3362 33.0515C23.5926 33.1895 23.6886 33.5093 23.5506 33.7658C23.4554 33.9427 23.2736 34.0432 23.0858 34.0432C23.0015 34.0432 22.9158 34.023 22.8363 33.9802L20.4031 32.6706C20.28 32.6043 20.1881 32.4918 20.1479 32.3579C20.1078 32.2239 20.1224 32.0795 20.1886 31.9563L21.4982 29.5232C21.6362 29.2668 21.9559 29.1706 22.2125 29.3087C22.4689 29.4467 22.565 29.7666 22.4269 30.023L21.716 31.344C27.7095 29.6864 31.8478 24.2772 31.8478 17.9999C31.8478 10.3642 25.6357 4.1521 18 4.1521C17.7087 4.1521 17.4727 3.91606 17.4727 3.62476C17.4727 3.33345 17.7087 3.09741 18 3.09741C26.2173 3.09741 32.9025 9.78265 32.9025 17.9999Z" fill="#FF5757"/>
<path d="M20.4961 25.6187C20.4961 26.6287 19.8962 27.4986 19.0332 27.8915C18.9616 27.9241 18.8798 27.9241 18.8081 27.8915C17.9452 27.4986 17.3452 26.6287 17.3452 25.6187C17.3452 24.5652 17.9978 23.6643 18.9206 23.2979C19.8436 23.6643 20.4961 24.5652 20.4961 25.6187Z" fill="#65BEFC"/>
<path d="M19.0628 27.8778C18.7403 28.0297 18.3801 28.1147 18 28.1147C16.6215 28.1147 15.5039 26.9972 15.5039 25.6187C15.5039 24.2401 16.6215 23.1226 18 23.1226C18.3801 23.1226 18.7403 23.2076 19.0628 23.3595C18.2157 23.7587 17.6295 24.6202 17.6295 25.6187C17.6295 26.6171 18.2157 27.4786 19.0628 27.8778Z" fill="#49B6FC"/>
<path d="M23.0861 14.0081V24.3261H12.2485V14.0081C12.2485 11.6781 14.1373 9.78931 16.4673 9.78931H16.5247C16.3116 9.64369 16.1718 9.39886 16.1718 9.12134C16.1718 8.67478 16.5339 8.31274 16.9804 8.31274H19.0195C19.466 8.31274 19.8281 8.67478 19.8281 9.12134C19.8281 9.42298 19.6629 9.68595 19.4181 9.82496C21.4878 10.0948 23.0861 11.8648 23.0861 14.0081Z" fill="#65BEFC"/>
<path d="M23.7515 24.3261H15.314V14.0081C15.314 11.6781 17.2028 9.78931 19.5327 9.78931C21.8627 9.78931 23.7515 11.6781 23.7515 14.0081V24.3261Z" fill="#93D0FD"/>
<path d="M16.3709 24.6814C16.3709 25.128 16.0088 25.49 15.5623 25.49H11.3555C10.9089 25.49 10.5469 25.128 10.5469 24.6814C10.5469 24.2348 10.9089 23.8728 11.3555 23.8728H15.5623C16.0088 23.8728 16.3709 24.2348 16.3709 24.6814Z" fill="#BDE2FD"/>
<path d="M25.4531 24.6814C25.4531 25.128 25.0911 25.49 24.6445 25.49H15.0381C14.5915 25.49 14.2295 25.128 14.2295 24.6814C14.2295 24.2348 14.5915 23.8728 15.0381 23.8728H24.6445C25.0911 23.8728 25.4531 24.2348 25.4531 24.6814Z" fill="#E5F2FD"/>
<path d="M29.4505 6.36434C29.4505 7.58011 29.1095 8.71622 28.5181 9.68231C28.4319 9.82329 28.313 9.94212 28.1721 10.0284C27.2059 10.6198 26.0698 10.9607 24.8541 10.9607C21.3508 10.9607 18.4897 8.09958 18.4897 4.5964C18.4897 3.38112 18.8304 2.2455 19.4213 1.27962C19.508 1.13787 19.6275 1.01841 19.7693 0.931641C20.7352 0.340664 21.8709 0 23.0861 0C26.5893 0 29.4505 2.86116 29.4505 6.36434Z" fill="#FFC143"/>
<path d="M28.5777 9.58278C27.4722 11.4649 25.4268 12.7285 23.0862 12.7285C19.5713 12.7285 16.7219 9.87908 16.7219 6.36423C16.7219 4.02359 17.9854 1.97813 19.8676 0.872681C19.313 1.81698 19.054 2.91849 18.9949 4.09131C18.7286 9.37845 20.6675 10.8147 25.3592 10.4556C26.53 10.3659 27.6334 10.1375 28.5777 9.58278Z" fill="#FFB509"/>
<path d="M23.0864 1.66077C20.493 1.66077 18.3831 3.77063 18.3831 6.36411C18.3831 8.95752 20.493 11.0674 23.0864 11.0674C25.6798 11.0674 27.7897 8.95752 27.7897 6.36411C27.7897 3.77063 25.6798 1.66077 23.0864 1.66077ZM23.0864 10.0127C21.0745 10.0127 19.4377 8.37596 19.4377 6.36411C19.4377 4.35226 21.0745 2.71545 23.0864 2.71545C25.0982 2.71545 26.735 4.35219 26.735 6.36411C26.735 8.37589 25.0982 10.0127 23.0864 10.0127ZM24.9733 6.60852C24.9733 6.89975 24.7373 7.13586 24.446 7.13586H23.0864C22.7951 7.13586 22.5591 6.89975 22.5591 6.60852V4.08472C22.5591 3.79349 22.7951 3.55738 23.0864 3.55738C23.3777 3.55738 23.6137 3.79349 23.6137 4.08472V6.08117H24.446C24.7372 6.08117 24.9733 6.31728 24.9733 6.60852Z" fill="white"/>
<path d="M18.5275 32.375C18.5275 32.6662 18.2915 32.9023 18.0002 32.9023C9.7829 32.9023 3.09766 26.2171 3.09766 17.9998C3.09766 14.546 4.30626 11.1794 6.50085 8.52022C8.44837 6.16039 11.0854 4.45201 14.0073 3.63892L12.7632 2.9694C12.5067 2.83138 12.4107 2.5116 12.5487 2.2551C12.6867 1.99867 13.0064 1.90255 13.263 2.04064L15.6962 3.35022C15.9527 3.48824 16.0487 3.80802 15.9107 4.06452L14.6011 6.49775C14.5059 6.67473 14.3241 6.77528 14.1363 6.77528C14.052 6.77528 13.9664 6.75496 13.8868 6.71221C13.6304 6.57418 13.5344 6.2544 13.6724 5.9979L14.4135 4.6209C8.42095 6.22368 4.15234 11.7241 4.15234 17.9998C4.15234 25.6356 10.3645 31.8477 18.0002 31.8477C18.2915 31.8477 18.5275 32.0838 18.5275 32.375Z" fill="white"/>
</g>
<defs>
<clipPath id="clip0_18293_35271">
<rect width="36" height="36" fill="white"/>
</clipPath>
</defs>
</svg>
