<svg width="32" height="32" viewBox="0 0 32 32" fill="none" xmlns="http://www.w3.org/2000/svg">
<g clip-path="url(#clip0_18184_36321)">
<path d="M16.0923 32C24.5491 32 31.4048 25.1444 31.4048 16.6875C31.4048 8.23064 24.5491 1.375 16.0923 1.375C7.63543 1.375 0.779785 8.23064 0.779785 16.6875C0.779785 25.1444 7.63543 32 16.0923 32Z" fill="#E2DEE2"/>
<path d="M16.0923 4.6875C15.6458 4.6875 15.2053 4.71269 14.7714 4.76019C15.0803 5.56781 15.25 6.44369 15.25 7.35862C15.25 11.3818 11.977 14.6547 7.95391 14.6547C6.6861 14.6547 5.49291 14.3294 4.45304 13.7583C4.21785 14.6959 4.09229 15.677 4.09229 16.6875C4.09229 23.3149 9.46485 28.6875 16.0923 28.6875C22.7197 28.6875 28.0923 23.3149 28.0923 16.6875C28.0923 10.0601 22.7197 4.6875 16.0923 4.6875Z" fill="#F3F0F3"/>
<path d="M24.9796 25.7676L24.0958 24.8838C23.9772 24.7652 23.7863 24.7615 23.6632 24.8755C21.9529 26.4582 19.7476 27.513 17.3086 27.7787C17.1506 27.7958 17.0312 27.9298 17.0312 28.0887V29.3455C17.0312 29.5302 17.1908 29.675 17.3747 29.657C20.2959 29.3703 22.9368 28.1151 24.9719 26.2177C25.1013 26.097 25.1048 25.8928 24.9796 25.7676Z" fill="#2ED1E2"/>
<path d="M17.0312 4.02951V5.28626C17.0312 5.44519 17.1506 5.57913 17.3086 5.59632C19.7476 5.86194 21.9529 6.91682 23.6632 8.49951C23.7864 8.61344 23.9772 8.60976 24.0958 8.49119L24.9796 7.60738C25.1048 7.48219 25.1013 7.27801 24.9719 7.15726C22.9368 5.25982 20.2959 4.00463 17.3747 3.71794C17.1908 3.69994 17.0312 3.84476 17.0312 4.02951Z" fill="#B5ADB6"/>
<path d="M3.54414 13.1672C3.29895 14.0402 3.14189 14.9498 3.08482 15.886C3.07382 16.0661 3.2167 16.2187 3.3972 16.2187H4.64957C4.8137 16.2187 4.94976 16.0916 4.96082 15.9279C5.00239 15.3129 5.09457 14.7116 5.2322 14.1277C4.62495 13.8827 4.05795 13.5583 3.54414 13.1672Z" fill="#2ED1E2"/>
<path d="M4.64957 17.1562H3.3972C3.2167 17.1562 3.07382 17.3088 3.08482 17.4889C3.27457 20.6007 4.56089 23.4207 6.56176 25.5668C6.68257 25.6964 6.88689 25.7001 7.01214 25.5749L7.89595 24.6911C8.01439 24.5726 8.01839 24.3818 7.90464 24.2589C6.22351 22.4422 5.13795 20.0674 4.96095 17.447C4.94982 17.2833 4.8137 17.1562 4.64957 17.1562Z" fill="#2ED1E2"/>
<path d="M24.7071 9.60438C26.1443 11.3492 27.0621 13.5367 27.2235 15.9282C27.2346 16.0919 27.3707 16.2188 27.5348 16.2188H28.7871C28.9674 16.2188 29.1105 16.0666 29.0995 15.8867C28.9246 13.0159 27.8164 10.3935 26.0748 8.31925C25.9568 8.17869 25.7434 8.16937 25.6137 8.29912L24.7274 9.18544C24.6138 9.29912 24.6049 9.48031 24.7071 9.60438Z" fill="#B5ADB6"/>
<path d="M15.7894 27.8412C13.2198 27.7724 10.864 26.8305 9.0086 25.3021C8.88472 25.2 8.7036 25.2092 8.5901 25.3227L7.70372 26.2091C7.5741 26.3387 7.5831 26.5519 7.72347 26.6699C9.91303 28.5085 12.7133 29.6422 15.772 29.7164C15.9481 29.7206 16.0935 29.5794 16.0934 29.4032L16.0924 28.1528C16.0923 27.984 15.9581 27.8457 15.7894 27.8412Z" fill="#2ED1E2"/>
<path d="M27.2235 17.4469C27.062 19.8384 26.1443 22.0259 24.7071 23.7708C24.6049 23.8948 24.6138 24.076 24.7274 24.1896L25.6138 25.0759C25.7435 25.2057 25.9568 25.1964 26.0748 25.0558C27.8164 22.9816 28.9247 20.3591 29.0996 17.4883C29.1105 17.3084 28.9674 17.1562 28.7872 17.1562H27.5348C27.3707 17.1563 27.2345 17.2833 27.2235 17.4469Z" fill="#2ED1E2"/>
<path d="M15.7721 3.65866C15.2768 3.67066 14.7884 3.71054 14.3081 3.77654C14.6249 4.33616 14.8698 4.94148 15.0303 5.58004C15.281 5.55623 15.5342 5.54066 15.7894 5.53379C15.9581 5.52929 16.0923 5.39098 16.0925 5.22223L16.0935 3.97179C16.0936 3.79566 15.9482 3.65441 15.7721 3.65866Z" fill="#B5ADB6"/>
<path d="M16.0921 7.84241C15.8015 7.84241 15.5143 7.85684 15.2308 7.88422C14.9606 11.663 11.8002 14.6549 7.95376 14.6549C7.79651 14.6549 7.64058 14.6493 7.4857 14.6395C7.32983 15.2969 7.24683 15.9825 7.24683 16.6877C7.24683 21.5728 11.207 25.5329 16.0921 25.5329C20.9771 25.5329 24.9374 21.5728 24.9374 16.6877C24.9374 11.8025 20.9772 7.84241 16.0921 7.84241Z" fill="#FED402"/>
<path d="M14.3757 10.8188C15.4729 9.58272 16.9109 8.65597 18.5425 8.18647C17.7644 7.96253 16.9423 7.84229 16.092 7.84229C15.8014 7.84229 15.5142 7.85672 15.2307 7.8841C15.1552 8.93985 14.8544 9.9341 14.3757 10.8188Z" fill="#FAC600"/>
<path d="M12.1478 16.6875C12.1478 15.0968 12.568 13.6043 13.3031 12.3146C11.9696 13.7529 10.0651 14.6548 7.9537 14.6548C7.79645 14.6548 7.64051 14.6492 7.4857 14.6393C7.32983 15.2968 7.24683 15.9824 7.24683 16.6875C7.24683 21.5726 11.207 25.5328 16.0921 25.5328C16.9423 25.5328 17.7644 25.4125 18.5426 25.1886C14.8496 24.1259 12.1478 20.7224 12.1478 16.6875Z" fill="#FAC600"/>
<path d="M19.5939 15.7917H17.7497C17.5772 15.7917 17.4525 15.6266 17.4997 15.4606L18.9801 10.2537C19.0564 9.98542 18.714 9.80167 18.5326 10.0135L12.3931 17.1824C12.2487 17.3511 12.3685 17.6115 12.5905 17.6115H14.4355C14.6085 17.6115 14.7333 17.7774 14.6852 17.9437L13.1883 23.1201C13.1107 23.3882 13.4527 23.5735 13.6349 23.362L19.7907 16.2214C19.936 16.0529 19.8163 15.7917 19.5939 15.7917Z" fill="#7A6D79"/>
<path d="M13.6637 17.1824L18.6732 11.333L18.9801 10.2537C19.0563 9.98542 18.714 9.80167 18.5326 10.0135L12.3931 17.1824C12.2487 17.351 12.3685 17.6115 12.5905 17.6115H13.8612C13.6392 17.6115 13.5193 17.3511 13.6637 17.1824Z" fill="#685E68"/>
<path d="M15.9558 17.9438C16.0039 17.7775 15.8791 17.6116 15.7061 17.6116H14.4355C14.6085 17.6116 14.7333 17.7775 14.6852 17.9438L13.1883 23.1202C13.1107 23.3883 13.4526 23.5736 13.6349 23.3621L14.7695 22.0459L15.9558 17.9438Z" fill="#685E68"/>
<path d="M7.95384 14.7172C12.0179 14.7172 15.3125 11.4227 15.3125 7.35862C15.3125 3.29457 12.0179 0 7.95384 0C3.88978 0 0.595215 3.29457 0.595215 7.35862C0.595215 11.4227 3.88978 14.7172 7.95384 14.7172Z" fill="#918291"/>
<path d="M5.37496 7.35862C5.37496 4.13119 7.45284 1.38931 10.3437 0.397125C9.59434 0.139938 8.79046 0 7.95384 0C3.88978 0 0.595215 3.29456 0.595215 7.35862C0.595215 11.4227 3.88978 14.7172 7.95384 14.7172C8.79046 14.7172 9.59434 14.5773 10.3437 14.3201C7.45284 13.3279 5.37496 10.5861 5.37496 7.35862Z" fill="#7A6D79"/>
<path d="M7.95382 12.6225C10.861 12.6225 13.2177 10.2658 13.2177 7.3586C13.2177 4.45144 10.861 2.09473 7.95382 2.09473C5.04666 2.09473 2.68994 4.45144 2.68994 7.3586C2.68994 10.2658 5.04666 12.6225 7.95382 12.6225Z" fill="white"/>
<path d="M7.5785 2.1095C4.84669 2.30218 2.68994 4.57781 2.68994 7.35862C2.68994 10.1394 4.84669 12.415 7.5785 12.6077C6.21907 11.2726 5.37494 9.41456 5.37494 7.35862C5.37494 5.30268 6.21907 3.44462 7.5785 2.1095Z" fill="#F3F0F3"/>
<path d="M7.95382 13.0912C4.79288 13.0912 2.22119 10.5196 2.22119 7.3586C2.22119 4.1976 4.79282 1.62598 7.95382 1.62598C11.1148 1.62598 13.6865 4.1976 13.6865 7.3586C13.6865 10.5196 11.1148 13.0912 7.95382 13.0912ZM7.95382 2.56348C5.30975 2.56348 3.15869 4.71454 3.15869 7.3586C3.15869 10.0027 5.30975 12.1537 7.95382 12.1537C10.5979 12.1537 12.749 10.0027 12.749 7.3586C12.749 4.71454 10.5978 2.56348 7.95382 2.56348Z" fill="#2ED1E2"/>
<path d="M10.5687 7.9836H7.95386C7.60867 7.9836 7.32886 7.70379 7.32886 7.3586V3.87341C7.32886 3.70085 7.46879 3.56091 7.64136 3.56091H8.26636C8.43892 3.56091 8.57886 3.70085 8.57886 3.87341V6.7336H10.5687C10.7412 6.7336 10.8812 6.87354 10.8812 7.0461V7.6711C10.8812 7.84366 10.7412 7.9836 10.5687 7.9836Z" fill="#2ED1E2"/>
</g>
<defs>
<clipPath id="clip0_18184_36321">
<rect width="32" height="32" fill="white"/>
</clipPath>
</defs>
</svg>
