<svg width="24" height="88" viewBox="0 0 24 88" fill="none" xmlns="http://www.w3.org/2000/svg">
<path d="M16.4999 9.75C16.0832 9.75 15.7291 9.60417 15.4374 9.3125C15.1457 9.02083 14.9999 8.66667 14.9999 8.25C14.9999 7.83333 15.1457 7.47917 15.4374 7.1875C15.7291 6.89583 16.0832 6.75 16.4999 6.75C16.9166 6.75 17.2707 6.89583 17.5624 7.1875C17.8541 7.47917 17.9999 7.83333 17.9999 8.25C17.9999 8.66667 17.8541 9.02083 17.5624 9.3125C17.2707 9.60417 16.9166 9.75 16.4999 9.75ZM7.4999 9.75C7.08324 9.75 6.72907 9.60417 6.4374 9.3125C6.14574 9.02083 5.9999 8.66667 5.9999 8.25C5.9999 7.83333 6.14574 7.47917 6.4374 7.1875C6.72907 6.89583 7.08324 6.75 7.4999 6.75C7.91657 6.75 8.27074 6.89583 8.5624 7.1875C8.85407 7.47917 8.9999 7.83333 8.9999 8.25C8.9999 8.66667 8.85407 9.02083 8.5624 9.3125C8.27074 9.60417 7.91657 9.75 7.4999 9.75ZM11.9999 12.5C11.5832 12.5 11.2291 12.3542 10.9374 12.0625C10.6457 11.7708 10.4999 11.4167 10.4999 11C10.4999 10.5833 10.6457 10.2292 10.9374 9.9375C11.2291 9.64583 11.5832 9.5 11.9999 9.5C12.4166 9.5 12.7707 9.64583 13.0624 9.9375C13.3541 10.2292 13.4999 10.5833 13.4999 11C13.4999 11.4167 13.3541 11.7708 13.0624 12.0625C12.7707 12.3542 12.4166 12.5 11.9999 12.5ZM11.9999 7C11.5832 7 11.2291 6.85417 10.9374 6.5625C10.6457 6.27083 10.4999 5.91667 10.4999 5.5C10.4999 5.08333 10.6457 4.72917 10.9374 4.4375C11.2291 4.14583 11.5832 4 11.9999 4C12.4166 4 12.7707 4.14583 13.0624 4.4375C13.3541 4.72917 13.4999 5.08333 13.4999 5.5C13.4999 5.91667 13.3541 6.27083 13.0624 6.5625C12.7707 6.85417 12.4166 7 11.9999 7ZM11.9999 20C11.6666 20 11.3291 19.975 10.9874 19.925C10.6457 19.875 10.3166 19.8083 9.9999 19.725V16.15C9.9999 15.5667 10.1957 15.0625 10.5874 14.6375C10.9791 14.2125 11.4499 14 11.9999 14C12.5499 14 13.0207 14.2125 13.4124 14.6375C13.8041 15.0625 13.9999 15.5667 13.9999 16.15V19.725C13.6832 19.8083 13.3541 19.875 13.0124 19.925C12.6707 19.975 12.3332 20 11.9999 20ZM8.4999 19.2C8.16657 19.0667 7.84574 18.9167 7.5374 18.75C7.22907 18.5833 6.93324 18.4 6.6499 18.2C6.18324 17.8667 5.8124 17.4333 5.5374 16.9C5.2624 16.3667 5.1249 15.8 5.1249 15.2C5.1249 14.7667 5.07907 14.3625 4.9874 13.9875C4.89574 13.6125 4.73324 13.2583 4.4999 12.925C4.33324 12.7083 4.02074 12.3792 3.5624 11.9375C3.10407 11.4958 2.68324 11.0833 2.2999 10.7C2.11657 10.5167 2.0249 10.2833 2.0249 10C2.0249 9.71667 2.11657 9.48333 2.2999 9.3C2.48324 9.11667 2.71657 9.025 2.9999 9.025C3.28324 9.025 3.51657 9.11667 3.6999 9.3L7.5249 12.925C7.85824 13.225 8.10407 13.5792 8.2624 13.9875C8.42074 14.3958 8.4999 14.8167 8.4999 15.25V19.2ZM15.4999 19.2V15.25C15.4999 14.8167 15.5832 14.3917 15.7499 13.975C15.9166 13.5583 16.1582 13.2083 16.4749 12.925L20.2999 9.3C20.4999 9.11667 20.7374 9.025 21.0124 9.025C21.2874 9.025 21.5166 9.11667 21.6999 9.3C21.8832 9.48333 21.9749 9.71667 21.9749 10C21.9749 10.2833 21.8832 10.5167 21.6999 10.7C21.3166 11.0833 20.8957 11.4917 20.4374 11.925C19.9791 12.3583 19.6666 12.6917 19.4999 12.925C19.2666 13.2583 19.1041 13.6125 19.0124 13.9875C18.9207 14.3625 18.8749 14.7667 18.8749 15.2C18.8749 15.8 18.7374 16.3708 18.4624 16.9125C18.1874 17.4542 17.8082 17.8917 17.3249 18.225C17.0582 18.4083 16.7707 18.5833 16.4624 18.75C16.1541 18.9167 15.8332 19.0667 15.4999 19.2Z" fill="#CAD1DC"/>
<path d="M16.4999 73.75C16.0832 73.75 15.7291 73.6042 15.4374 73.3125C15.1457 73.0208 14.9999 72.6667 14.9999 72.25C14.9999 71.8333 15.1457 71.4792 15.4374 71.1875C15.7291 70.8958 16.0832 70.75 16.4999 70.75C16.9166 70.75 17.2707 70.8958 17.5624 71.1875C17.8541 71.4792 17.9999 71.8333 17.9999 72.25C17.9999 72.6667 17.8541 73.0208 17.5624 73.3125C17.2707 73.6042 16.9166 73.75 16.4999 73.75ZM7.4999 73.75C7.08324 73.75 6.72907 73.6042 6.4374 73.3125C6.14574 73.0208 5.9999 72.6667 5.9999 72.25C5.9999 71.8333 6.14574 71.4792 6.4374 71.1875C6.72907 70.8958 7.08324 70.75 7.4999 70.75C7.91657 70.75 8.27074 70.8958 8.5624 71.1875C8.85407 71.4792 8.9999 71.8333 8.9999 72.25C8.9999 72.6667 8.85407 73.0208 8.5624 73.3125C8.27074 73.6042 7.91657 73.75 7.4999 73.75ZM11.9999 76.5C11.5832 76.5 11.2291 76.3542 10.9374 76.0625C10.6457 75.7708 10.4999 75.4167 10.4999 75C10.4999 74.5833 10.6457 74.2292 10.9374 73.9375C11.2291 73.6458 11.5832 73.5 11.9999 73.5C12.4166 73.5 12.7707 73.6458 13.0624 73.9375C13.3541 74.2292 13.4999 74.5833 13.4999 75C13.4999 75.4167 13.3541 75.7708 13.0624 76.0625C12.7707 76.3542 12.4166 76.5 11.9999 76.5ZM11.9999 71C11.5832 71 11.2291 70.8542 10.9374 70.5625C10.6457 70.2708 10.4999 69.9167 10.4999 69.5C10.4999 69.0833 10.6457 68.7292 10.9374 68.4375C11.2291 68.1458 11.5832 68 11.9999 68C12.4166 68 12.7707 68.1458 13.0624 68.4375C13.3541 68.7292 13.4999 69.0833 13.4999 69.5C13.4999 69.9167 13.3541 70.2708 13.0624 70.5625C12.7707 70.8542 12.4166 71 11.9999 71ZM11.9999 84C11.6666 84 11.3291 83.975 10.9874 83.925C10.6457 83.875 10.3166 83.8083 9.9999 83.725V80.15C9.9999 79.5667 10.1957 79.0625 10.5874 78.6375C10.9791 78.2125 11.4499 78 11.9999 78C12.5499 78 13.0207 78.2125 13.4124 78.6375C13.8041 79.0625 13.9999 79.5667 13.9999 80.15V83.725C13.6832 83.8083 13.3541 83.875 13.0124 83.925C12.6707 83.975 12.3332 84 11.9999 84ZM8.4999 83.2C8.16657 83.0667 7.84574 82.9167 7.5374 82.75C7.22907 82.5833 6.93324 82.4 6.6499 82.2C6.18324 81.8667 5.8124 81.4333 5.5374 80.9C5.2624 80.3667 5.1249 79.8 5.1249 79.2C5.1249 78.7667 5.07907 78.3625 4.9874 77.9875C4.89574 77.6125 4.73324 77.2583 4.4999 76.925C4.33324 76.7083 4.02074 76.3792 3.5624 75.9375C3.10407 75.4958 2.68324 75.0833 2.2999 74.7C2.11657 74.5167 2.0249 74.2833 2.0249 74C2.0249 73.7167 2.11657 73.4833 2.2999 73.3C2.48324 73.1167 2.71657 73.025 2.9999 73.025C3.28324 73.025 3.51657 73.1167 3.6999 73.3L7.5249 76.925C7.85824 77.225 8.10407 77.5792 8.2624 77.9875C8.42074 78.3958 8.4999 78.8167 8.4999 79.25V83.2ZM15.4999 83.2V79.25C15.4999 78.8167 15.5832 78.3917 15.7499 77.975C15.9166 77.5583 16.1582 77.2083 16.4749 76.925L20.2999 73.3C20.4999 73.1167 20.7374 73.025 21.0124 73.025C21.2874 73.025 21.5166 73.1167 21.6999 73.3C21.8832 73.4833 21.9749 73.7167 21.9749 74C21.9749 74.2833 21.8832 74.5167 21.6999 74.7C21.3166 75.0833 20.8957 75.4917 20.4374 75.925C19.9791 76.3583 19.6666 76.6917 19.4999 76.925C19.2666 77.2583 19.1041 77.6125 19.0124 77.9875C18.9207 78.3625 18.8749 78.7667 18.8749 79.2C18.8749 79.8 18.7374 80.3708 18.4624 80.9125C18.1874 81.4542 17.8082 81.8917 17.3249 82.225C17.0582 82.4083 16.7707 82.5833 16.4624 82.75C16.1541 82.9167 15.8332 83.0667 15.4999 83.2Z" fill="white"/>
</svg>
