<svg width="24" height="88" viewBox="0 0 24 88" fill="none" xmlns="http://www.w3.org/2000/svg">
<path d="M18 13V11H22V13H18ZM19.2 20L16 17.6L17.2 16L20.4 18.4L19.2 20ZM17.2 8L16 6.4L19.2 4L20.4 5.6L17.2 8ZM5 19V15H2V9H8L13 6V18L8 15H7V19H5ZM11 14.45V9.55L8.55 11H4V13H8.55L11 14.45ZM14 15.35V8.65C14.45 9.05 14.8125 9.5375 15.0875 10.1125C15.3625 10.6875 15.5 11.3167 15.5 12C15.5 12.6833 15.3625 13.3125 15.0875 13.8875C14.8125 14.4625 14.45 14.95 14 15.35Z" fill="#CAD1DC"/>
<path d="M18 77V75H22V77H18ZM19.2 84L16 81.6L17.2 80L20.4 82.4L19.2 84ZM17.2 72L16 70.4L19.2 68L20.4 69.6L17.2 72ZM5 83V79H2V73H8L13 70V82L8 79H7V83H5ZM11 78.45V73.55L8.55 75H4V77H8.55L11 78.45ZM14 79.35V72.65C14.45 73.05 14.8125 73.5375 15.0875 74.1125C15.3625 74.6875 15.5 75.3167 15.5 76C15.5 76.6833 15.3625 77.3125 15.0875 77.8875C14.8125 78.4625 14.45 78.95 14 79.35Z" fill="white"/>
</svg>
