<svg width="24" height="88" viewBox="0 0 24 88" fill="none" xmlns="http://www.w3.org/2000/svg">
<path d="M15 23C14.45 23 13.9792 22.8042 13.5875 22.4125C13.1958 22.0208 13 21.55 13 21C13 20.6167 13.0917 20.275 13.275 19.975C13.4583 19.675 13.7 19.4333 14 19.25V13.725C13.7 13.5417 13.4583 13.3042 13.275 13.0125C13.0917 12.7208 13 12.3833 13 12C13 11.45 13.1958 10.9792 13.5875 10.5875C13.9792 10.1958 14.45 10 15 10C15.55 10 16.0208 10.1958 16.4125 10.5875C16.8042 10.9792 17 11.45 17 12C17 12.3833 16.9083 12.7208 16.725 13.0125C16.5417 13.3042 16.3 13.5417 16 13.725V16.6L20 15.275V13.725C19.7 13.5417 19.4583 13.3042 19.275 13.0125C19.0917 12.7208 19 12.3833 19 12C19 11.45 19.1958 10.9792 19.5875 10.5875C19.9792 10.1958 20.45 10 21 10C21.55 10 22.0208 10.1958 22.4125 10.5875C22.8042 10.9792 23 11.45 23 12C23 12.3833 22.9083 12.7208 22.725 13.0125C22.5417 13.3042 22.3 13.5417 22 13.725V16.7L16 18.7V19.25C16.3 19.4333 16.5417 19.675 16.725 19.975C16.9083 20.275 17 20.6167 17 21C17 21.55 16.8042 22.0208 16.4125 22.4125C16.0208 22.8042 15.55 23 15 23ZM2 20V4H10L12 6H22V8H11.175L9.175 6H4V18H11V20H2Z" fill="#CAD1DC"/>
<path d="M15 87C14.45 87 13.9792 86.8042 13.5875 86.4125C13.1958 86.0208 13 85.55 13 85C13 84.6167 13.0917 84.275 13.275 83.975C13.4583 83.675 13.7 83.4333 14 83.25V77.725C13.7 77.5417 13.4583 77.3042 13.275 77.0125C13.0917 76.7208 13 76.3833 13 76C13 75.45 13.1958 74.9792 13.5875 74.5875C13.9792 74.1958 14.45 74 15 74C15.55 74 16.0208 74.1958 16.4125 74.5875C16.8042 74.9792 17 75.45 17 76C17 76.3833 16.9083 76.7208 16.725 77.0125C16.5417 77.3042 16.3 77.5417 16 77.725V80.6L20 79.275V77.725C19.7 77.5417 19.4583 77.3042 19.275 77.0125C19.0917 76.7208 19 76.3833 19 76C19 75.45 19.1958 74.9792 19.5875 74.5875C19.9792 74.1958 20.45 74 21 74C21.55 74 22.0208 74.1958 22.4125 74.5875C22.8042 74.9792 23 75.45 23 76C23 76.3833 22.9083 76.7208 22.725 77.0125C22.5417 77.3042 22.3 77.5417 22 77.725V80.7L16 82.7V83.25C16.3 83.4333 16.5417 83.675 16.725 83.975C16.9083 84.275 17 84.6167 17 85C17 85.55 16.8042 86.0208 16.4125 86.4125C16.0208 86.8042 15.55 87 15 87ZM2 84V68H10L12 70H22V72H11.175L9.175 70H4V82H11V84H2Z" fill="white"/>
</svg>
