<svg width="24" height="88" viewBox="0 0 24 88" fill="none" xmlns="http://www.w3.org/2000/svg">
<path d="M8.9 16.5L14 11.4V13.65H16V8H10.35V10H12.575L7.5 15.075L8.9 16.5ZM12 22C10.6167 22 9.31667 21.7375 8.1 21.2125C6.88333 20.6875 5.825 19.975 4.925 19.075C4.025 18.175 3.3125 17.1167 2.7875 15.9C2.2625 14.6833 2 13.3833 2 12C2 10.6167 2.2625 9.31667 2.7875 8.1C3.3125 6.88333 4.025 5.825 4.925 4.925C5.825 4.025 6.88333 3.3125 8.1 2.7875C9.31667 2.2625 10.6167 2 12 2C13.3833 2 14.6833 2.2625 15.9 2.7875C17.1167 3.3125 18.175 4.025 19.075 4.925C19.975 5.825 20.6875 6.88333 21.2125 8.1C21.7375 9.31667 22 10.6167 22 12C22 13.3833 21.7375 14.6833 21.2125 15.9C20.6875 17.1167 19.975 18.175 19.075 19.075C18.175 19.975 17.1167 20.6875 15.9 21.2125C14.6833 21.7375 13.3833 22 12 22ZM12 20C14.2333 20 16.125 19.225 17.675 17.675C19.225 16.125 20 14.2333 20 12C20 9.76667 19.225 7.875 17.675 6.325C16.125 4.775 14.2333 4 12 4C9.76667 4 7.875 4.775 6.325 6.325C4.775 7.875 4 9.76667 4 12C4 14.2333 4.775 16.125 6.325 17.675C7.875 19.225 9.76667 20 12 20Z" fill="#CAD1DC"/>
<path d="M8.9 80.5L14 75.4V77.65H16V72H10.35V74H12.575L7.5 79.075L8.9 80.5ZM12 86C10.6167 86 9.31667 85.7375 8.1 85.2125C6.88333 84.6875 5.825 83.975 4.925 83.075C4.025 82.175 3.3125 81.1167 2.7875 79.9C2.2625 78.6833 2 77.3833 2 76C2 74.6167 2.2625 73.3167 2.7875 72.1C3.3125 70.8833 4.025 69.825 4.925 68.925C5.825 68.025 6.88333 67.3125 8.1 66.7875C9.31667 66.2625 10.6167 66 12 66C13.3833 66 14.6833 66.2625 15.9 66.7875C17.1167 67.3125 18.175 68.025 19.075 68.925C19.975 69.825 20.6875 70.8833 21.2125 72.1C21.7375 73.3167 22 74.6167 22 76C22 77.3833 21.7375 78.6833 21.2125 79.9C20.6875 81.1167 19.975 82.175 19.075 83.075C18.175 83.975 17.1167 84.6875 15.9 85.2125C14.6833 85.7375 13.3833 86 12 86ZM12 84C14.2333 84 16.125 83.225 17.675 81.675C19.225 80.125 20 78.2333 20 76C20 73.7667 19.225 71.875 17.675 70.325C16.125 68.775 14.2333 68 12 68C9.76667 68 7.875 68.775 6.325 70.325C4.775 71.875 4 73.7667 4 76C4 78.2333 4.775 80.125 6.325 81.675C7.875 83.225 9.76667 84 12 84Z" fill="white"/>
</svg>
