<svg width="32" height="32" viewBox="0 0 32 32" fill="none" xmlns="http://www.w3.org/2000/svg">
<path d="M0 16C0 7.16344 7.16344 0 16 0C24.8366 0 32 7.16344 32 16C32 24.8366 24.8366 32 16 32C7.16344 32 0 24.8366 0 16Z" fill="#0060A9"/>
<g clip-path="url(#clip0_14080_54973)">
<path d="M24.2031 10.7266C24.5267 10.7266 24.7891 10.4642 24.7891 10.1406C24.7891 9.81702 24.5267 9.55469 24.2031 9.55469C23.8795 9.55469 23.6172 9.81702 23.6172 10.1406C23.6172 10.4642 23.8795 10.7266 24.2031 10.7266Z" fill="#FFAA00"/>
<path d="M7.75781 22.4453C8.08142 22.4453 8.34375 22.183 8.34375 21.8594C8.34375 21.5358 8.08142 21.2734 7.75781 21.2734C7.43421 21.2734 7.17188 21.5358 7.17188 21.8594C7.17188 22.183 7.43421 22.4453 7.75781 22.4453Z" fill="white"/>
<path d="M7.75781 9.55469C8.72711 9.55469 9.51562 8.76617 9.51562 7.79688C9.51562 6.82758 8.72711 6 7.75781 6C6.78852 6 6 6.82758 6 7.79688C6 8.76617 6.78852 9.55469 7.75781 9.55469Z" fill="white"/>
<path d="M24.2031 22.4453C23.2338 22.4453 22.4453 23.2338 22.4453 24.2031C22.4453 25.1724 23.2338 26 24.2031 26C25.1724 26 26 25.1724 26 24.2031C26 23.2338 25.1724 22.4453 24.2031 22.4453Z" fill="white"/>
<path d="M19.5156 15.4141C19.8392 15.4141 20.1016 15.1517 20.1016 14.8281C20.1016 14.5045 19.8392 14.2422 19.5156 14.2422C19.192 14.2422 18.9297 14.5045 18.9297 14.8281C18.9297 15.1517 19.192 15.4141 19.5156 15.4141Z" fill="white"/>
<path d="M8.69109 20.5456C8.80437 20.6034 8.94688 20.6766 9.04016 20.7327C9.13801 23.0701 11.0994 24.7942 13.2884 24.7942C14.3012 24.7942 15.2693 24.4092 16.0366 23.6819C17.2777 24.42 18.7815 24.539 20.1548 23.9863C21.6048 23.4026 22.6525 22.1707 23.017 20.6463C24.7444 20.1079 26 18.4605 26 16.586C26 14.7114 24.7444 13.064 23.017 12.5256C22.6525 11.0013 21.6048 9.76928 20.1548 9.18564C18.7815 8.63404 17.2783 8.75248 16.0366 9.49006C14.9111 8.42346 13.3536 8.0933 11.8578 8.63287C10.2259 9.22166 9.11281 10.7031 9.04012 12.4392C8.94684 12.4953 8.80437 12.5685 8.69105 12.6263C7.75039 13.1081 6 14.0047 6 16.586C6 19.1672 7.75039 20.0638 8.69109 20.5456ZM21.8594 16.586C22.183 16.586 22.4453 16.8483 22.4453 17.1719C22.4453 17.4955 22.183 17.7578 21.8594 17.7578C21.5358 17.7578 21.2734 17.4955 21.2734 17.1719C21.2734 16.8483 21.5358 16.586 21.8594 16.586ZM19.5156 13.0703C20.4849 13.0703 21.2734 13.8588 21.2734 14.8281C21.2734 15.7974 20.4849 16.586 19.5156 16.586C18.5463 16.586 17.7578 15.7974 17.7578 14.8281C17.7578 13.8588 18.5463 13.0703 19.5156 13.0703ZM18.3438 18.9297C18.6673 18.9297 18.9297 19.1921 18.9297 19.5156C18.9297 19.8392 18.6673 20.1016 18.3438 20.1016C18.0202 20.1016 17.7578 19.8392 17.7578 19.5156C17.7578 19.1921 18.0202 18.9297 18.3438 18.9297ZM14.8281 15.4141C15.1517 15.4141 15.4141 15.6764 15.4141 16C15.4141 16.3236 15.1517 16.586 14.8281 16.586C14.5045 16.586 14.2422 16.3236 14.2422 16C14.2422 15.6764 14.5045 15.4141 14.8281 15.4141ZM13.6562 11.8985C13.9798 11.8985 14.2422 12.1608 14.2422 12.4844C14.2422 12.808 13.9798 13.0703 13.6562 13.0703C13.3327 13.0703 13.0703 12.808 13.0703 12.4844C13.0703 12.1608 13.3327 11.8985 13.6562 11.8985ZM13.6562 17.7578C14.6255 17.7578 15.4141 18.5463 15.4141 19.5156C15.4141 20.4849 14.6255 21.2735 13.6562 21.2735C12.687 21.2735 11.8984 20.4849 11.8984 19.5156C11.8984 18.5463 12.687 17.7578 13.6562 17.7578ZM11.3125 14.2422C11.6361 14.2422 11.8984 14.5046 11.8984 14.8281C11.8984 15.1517 11.6361 15.4141 11.3125 15.4141C10.9889 15.4141 10.7266 15.1517 10.7266 14.8281C10.7266 14.5046 10.9889 14.2422 11.3125 14.2422Z" fill="white"/>
<path d="M13.6562 20.1016C13.9799 20.1016 14.2422 19.8392 14.2422 19.5156C14.2422 19.192 13.9799 18.9297 13.6562 18.9297C13.3326 18.9297 13.0703 19.192 13.0703 19.5156C13.0703 19.8392 13.3326 20.1016 13.6562 20.1016Z" fill="white"/>
</g>
<defs>
<clipPath id="clip0_14080_54973">
<rect width="20" height="20" fill="white" transform="translate(6 6)"/>
</clipPath>
</defs>
</svg>
