<svg width="24" height="24" viewBox="0 0 24 24" fill="none" xmlns="http://www.w3.org/2000/svg">
<g clip-path="url(#clip0_16515_23133)">
<path d="M19.0347 0.993551V17.2143L21.5174 18.2074V0.000488281L19.0347 0.993551Z" fill="#FFCD00"/>
<path d="M9.10352 4.96562V13.2415L19.0345 17.2139V0.993164L9.10352 4.96562Z" fill="#BDDBFF"/>
<path d="M2.48276 4.96582C1.11166 4.96582 0 6.07748 0 7.44858V10.7589C0 12.13 1.11166 13.2417 2.48276 13.2417H9.10345V4.96582H2.48276Z" fill="#006DF0"/>
<path d="M3.72414 13.2417H2.48276C1.11166 13.2417 0 12.13 0 10.7589V7.44858C0 6.07748 1.11166 4.96582 2.48276 4.96582H3.72414C2.35304 4.96582 1.24138 6.07748 1.24138 7.44858V10.7589C1.24138 12.13 2.35304 13.2417 3.72414 13.2417Z" fill="#005ECE"/>
<path d="M3.31055 16.5545L4.67598 22.7044C4.84449 23.4621 5.5169 24.0009 6.29317 24.0003H7.86773C8.36941 23.9997 8.84382 23.7716 9.15739 23.38C9.47117 22.9885 9.59038 22.4757 9.48148 21.9859L8.27606 16.5545V13.2417H3.31055V16.5545Z" fill="#00479B"/>
<path d="M3.31055 13.2417H8.27606V14.4831H3.31055V13.2417Z" fill="#003F8A"/>
<path d="M21.5173 5.79346V12.4141C22.8884 12.4141 24.0001 11.3025 24.0001 9.93139V8.27622C24.0001 6.90512 22.8884 5.79346 21.5173 5.79346Z" fill="#ED1C24"/>
<path d="M19.0346 0.993164L17.7932 1.4898V16.7173L19.0346 17.2139V0.993164Z" fill="#9BC9FF"/>
<path d="M1.65525 9.51753C1.88376 9.51753 2.06904 9.33225 2.06904 9.10373C2.06904 8.87522 1.88376 8.68994 1.65525 8.68994H1.24146V9.51753H1.65525Z" fill="#004FAC"/>
<path d="M0 8.68994H1.24138V9.51753H0V8.68994Z" fill="#004FAC"/>
<path d="M1.24146 7.86225H1.65525C1.88376 7.86225 2.06904 7.67698 2.06904 7.44846C2.06904 7.21995 1.88376 7.03467 1.65525 7.03467H1.27863C1.25479 7.17125 1.24226 7.30965 1.24146 7.44846V7.86225Z" fill="#004FAC"/>
<path d="M1.24138 7.44846C1.24219 7.30965 1.25471 7.17125 1.27856 7.03467H0.0371767C0.0133351 7.17125 0.00080819 7.30965 0 7.44846V7.86225H1.24138V7.44846Z" fill="#004FAC"/>
<path d="M1.27863 11.1728H1.65525C1.88376 11.1728 2.06904 10.9875 2.06904 10.759C2.06904 10.5305 1.88376 10.3452 1.65525 10.3452H1.24146V10.759C1.24226 10.8978 1.25479 11.0362 1.27863 11.1728Z" fill="#004FAC"/>
<path d="M1.24138 10.759V10.3452H0V10.759C0.00080819 10.8978 0.0133351 11.0362 0.0371767 11.1728H1.27856C1.25471 11.0362 1.24219 10.8978 1.24138 10.759Z" fill="#004FAC"/>
</g>
<defs>
<clipPath id="clip0_16515_23133">
<rect width="24" height="24" fill="white"/>
</clipPath>
</defs>
</svg>
