<svg width="24" height="88" viewBox="0 0 24 88" fill="none" xmlns="http://www.w3.org/2000/svg">
<path d="M2 19V17H12V19H2ZM2 14V12H7V14H2ZM2 9V7H7V9H2ZM20.6 19L16.75 15.15C16.35 15.4333 15.9125 15.6458 15.4375 15.7875C14.9625 15.9292 14.4833 16 14 16C12.6167 16 11.4375 15.5125 10.4625 14.5375C9.4875 13.5625 9 12.3833 9 11C9 9.61667 9.4875 8.4375 10.4625 7.4625C11.4375 6.4875 12.6167 6 14 6C15.3833 6 16.5625 6.4875 17.5375 7.4625C18.5125 8.4375 19 9.61667 19 11C19 11.4833 18.9292 11.9625 18.7875 12.4375C18.6458 12.9125 18.4333 13.35 18.15 13.75L22 17.6L20.6 19ZM14 14C14.8333 14 15.5417 13.7083 16.125 13.125C16.7083 12.5417 17 11.8333 17 11C17 10.1667 16.7083 9.45833 16.125 8.875C15.5417 8.29167 14.8333 8 14 8C13.1667 8 12.4583 8.29167 11.875 8.875C11.2917 9.45833 11 10.1667 11 11C11 11.8333 11.2917 12.5417 11.875 13.125C12.4583 13.7083 13.1667 14 14 14Z" fill="#CAD1DC"/>
<path d="M2 83V81H12V83H2ZM2 78V76H7V78H2ZM2 73V71H7V73H2ZM20.6 83L16.75 79.15C16.35 79.4333 15.9125 79.6458 15.4375 79.7875C14.9625 79.9292 14.4833 80 14 80C12.6167 80 11.4375 79.5125 10.4625 78.5375C9.4875 77.5625 9 76.3833 9 75C9 73.6167 9.4875 72.4375 10.4625 71.4625C11.4375 70.4875 12.6167 70 14 70C15.3833 70 16.5625 70.4875 17.5375 71.4625C18.5125 72.4375 19 73.6167 19 75C19 75.4833 18.9292 75.9625 18.7875 76.4375C18.6458 76.9125 18.4333 77.35 18.15 77.75L22 81.6L20.6 83ZM14 78C14.8333 78 15.5417 77.7083 16.125 77.125C16.7083 76.5417 17 75.8333 17 75C17 74.1667 16.7083 73.4583 16.125 72.875C15.5417 72.2917 14.8333 72 14 72C13.1667 72 12.4583 72.2917 11.875 72.875C11.2917 73.4583 11 74.1667 11 75C11 75.8333 11.2917 76.5417 11.875 77.125C12.4583 77.7083 13.1667 78 14 78Z" fill="white"/>
</svg>
