<svg width="48" height="48" viewBox="0 0 48 48" fill="none" xmlns="http://www.w3.org/2000/svg">
<path d="M46.5487 12.1744C45.2897 7.53562 40.4653 2.71125 35.8266 1.45219C32.9831 0.7425 29.1722 0.0121875 24 0C18.8288 0.013125 15.0178 0.7425 12.1744 1.45219C7.53562 2.71219 2.71125 7.53562 1.45219 12.1744C0.7425 15.0178 0.013125 18.8288 0 24C0.013125 29.1722 0.7425 32.9831 1.45219 35.8266C2.71125 40.4653 7.53562 45.2887 12.1744 46.5487C15.0178 47.2584 18.8306 47.9878 24 48.0009C29.1722 47.9878 32.9831 47.2584 35.8266 46.5487C40.4653 45.2887 45.2897 40.4653 46.5487 35.8266C47.2584 32.9831 47.9878 29.1703 48.0009 24C47.9878 18.8288 47.2584 15.0178 46.5487 12.1744Z" fill="#FFE5E5"/>
<path d="M24.015 8.06641H23.9859C22.2535 8.06641 20.5381 8.40765 18.9375 9.07064C17.337 9.73364 15.8827 10.7054 14.6578 11.9305C13.4328 13.1555 12.4611 14.6098 11.7983 16.2104C11.1354 17.811 10.7942 19.5265 10.7944 21.2589C10.7944 29.4048 19.3106 38.0139 23.4572 39.8214C23.6308 39.897 23.8181 39.9361 24.0075 39.9361C24.1969 39.9361 24.3842 39.897 24.5578 39.8214C28.7034 38.0167 37.2066 29.4077 37.2066 21.2589C37.2067 19.5265 36.8656 17.811 36.2027 16.2104C35.5398 14.6098 34.5681 13.1555 33.3432 11.9305C32.1182 10.7054 30.6639 9.73364 29.0634 9.07064C27.4629 8.40765 25.7474 8.06641 24.015 8.06641Z" fill="url(#paint0_linear_18287_41892)"/>
<path d="M24 25.6776C23.0772 25.6774 22.1752 25.4036 21.408 24.8908C20.6408 24.378 20.0429 23.6492 19.6899 22.7966C19.3369 21.944 19.2447 21.0058 19.4248 20.1008C19.6049 19.1957 20.0494 18.3644 20.702 17.712C21.3546 17.0595 22.1859 16.6153 23.091 16.4353C23.9961 16.2553 24.9342 16.3478 25.7868 16.701C26.6393 17.0541 27.368 17.6522 27.8806 18.4195C28.3933 19.1868 28.6669 20.0888 28.6669 21.0116C28.6669 21.6245 28.5462 22.2313 28.3116 22.7974C28.0771 23.3636 27.7333 23.878 27.2999 24.3113C26.8666 24.7446 26.3521 25.0882 25.7859 25.3227C25.2197 25.5571 24.6128 25.6777 24 25.6776Z" fill="url(#paint1_linear_18287_41892)"/>
<defs>
<linearGradient id="paint0_linear_18287_41892" x1="33.78" y1="31.9164" x2="14.2256" y2="12.362" gradientUnits="userSpaceOnUse">
<stop stop-color="#F50A0D"/>
<stop offset="0.54" stop-color="#F50A0D"/>
<stop offset="1" stop-color="#FF8C8B"/>
</linearGradient>
<linearGradient id="paint1_linear_18287_41892" x1="27.3" y1="24.3116" x2="20.701" y2="17.7126" gradientUnits="userSpaceOnUse">
<stop stop-color="#FFD2D2"/>
<stop offset="0.57" stop-color="white"/>
<stop offset="1" stop-color="white"/>
</linearGradient>
</defs>
</svg>
