<svg width="32" height="32" viewBox="0 0 32 32" fill="none" xmlns="http://www.w3.org/2000/svg">
<g clip-path="url(#clip0_18203_30261)">
<path d="M32 16C32 18.0625 31.6094 20.0337 30.8987 21.8445C30.6995 22.3518 30.4751 22.8462 30.2268 23.3269C29.5781 24.585 28.7668 25.7463 27.8206 26.782C27.4194 27.2224 26.9932 27.6399 26.5449 28.0332C23.7295 30.5024 20.0393 32 16 32C11.9607 32 8.27051 30.5024 5.45508 28.0332C5.00684 27.6399 4.58057 27.2224 4.17944 26.782C3.23242 25.7456 2.42114 24.5845 1.77246 23.3257C1.52441 22.845 1.30054 22.3506 1.10132 21.8438C0.389893 20.0332 0 18.0625 0 16C0 7.16431 7.16309 0.000732425 15.9988 0H16C24.8362 0 32 7.16382 32 16Z" fill="#F73E3E"/>
<path d="M30.8987 21.8445C29.9568 24.2444 28.4512 26.3618 26.5449 28.0332H5.45508C3.54883 26.3618 2.04321 24.2444 1.10132 21.8438L12.5688 1.98071C13.2849 0.740723 14.5669 0 15.9988 0H16C17.4326 0 18.7144 0.740723 19.4307 1.98071L30.8987 21.8445Z" fill="#E6E6E6"/>
<path d="M30.2268 23.3269C29.5781 24.585 28.7668 25.7463 27.8206 26.782C27.7512 26.7876 27.6812 26.79 27.6101 26.79H4.38867C4.31812 26.79 4.24805 26.7876 4.17944 26.782C3.23242 25.7456 2.42114 24.5845 1.77246 23.3257C1.83252 23.1182 1.91943 22.9126 2.03491 22.7124L13.6455 2.60254C14.6919 0.790039 17.3076 0.790039 18.3538 2.60254L29.9644 22.7124C30.0801 22.9131 30.167 23.1194 30.2268 23.3269Z" fill="#FFBB16"/>
<path d="M17.4976 17.28C17.4976 18.1074 16.8269 18.7781 15.9995 18.7781C15.1721 18.7781 14.5015 18.1074 14.5015 17.28C14.5015 16.4529 15.1721 15.782 15.9995 15.782C16.8269 15.782 17.4976 16.4529 17.4976 17.28Z" fill="#564D47"/>
<path d="M21.72 11.5598L17.8323 15.4473C17.3633 14.9783 16.7153 14.6882 15.9995 14.6882C15.2839 14.6882 14.636 14.9783 14.167 15.4473L10.2793 11.5598C11.7434 10.0957 13.7656 9.19043 15.9998 9.19043C18.2336 9.19043 20.2559 10.0957 21.72 11.5598Z" fill="#564D47"/>
<path d="M8.12222 15.4385L13.4757 16.6899C13.3246 17.3362 13.4201 18.0396 13.7978 18.6475C14.1752 19.2556 14.7636 19.6528 15.4096 19.804L14.1581 25.1575C12.1417 24.686 10.3061 23.4458 9.12734 21.5481C7.94888 19.6501 7.65078 17.4548 8.12222 15.4385Z" fill="#564D47"/>
<path d="M23.8757 15.4385L18.5222 16.6899C18.6731 17.3362 18.5776 18.0396 18.2002 18.6475C17.8225 19.2556 17.2344 19.6528 16.5884 19.804L17.8398 25.1575C19.856 24.686 21.6919 23.4458 22.8704 21.5481C24.0491 19.6501 24.3469 17.4548 23.8757 15.4385Z" fill="#564D47"/>
</g>
<defs>
<clipPath id="clip0_18203_30261">
<rect width="32" height="32" fill="white"/>
</clipPath>
</defs>
</svg>
