<svg width="32" height="32" viewBox="0 0 32 32" fill="none" xmlns="http://www.w3.org/2000/svg">
<g clip-path="url(#clip0_18203_30147)">
<path d="M16 32C24.8366 32 32 24.8366 32 16C32 7.16344 24.8366 0 16 0C7.16344 0 0 7.16344 0 16C0 24.8366 7.16344 32 16 32Z" fill="#569FDB"/>
<path d="M6.52013 3.11072H9.00538C9.46376 3.11072 9.83807 3.48322 9.83807 3.94403C9.83807 4.40378 9.4652 4.77666 9.00545 4.77666H7.0367C6.57295 4.77666 6.20401 5.15303 6.20401 5.60928C6.20401 6.06903 6.57688 6.44191 7.03663 6.44191H11.6183C12.074 6.44191 12.4509 6.81197 12.4509 7.27459C12.4509 7.73434 12.0781 8.10722 11.6183 8.10722H5.40463C4.9452 8.10722 4.57201 8.47984 4.57201 8.93991C4.57201 9.39966 4.94488 9.77253 5.40463 9.77253H7.85213C8.30788 9.77253 8.68482 10.1427 8.68482 10.6052C8.68482 11.065 8.31195 11.4378 7.8522 11.4378L0.661133 11.4379C1.66413 8.06072 3.75138 5.15053 6.52013 3.11072Z" fill="#77BBE8"/>
<path d="M4.55217 13.087H5.79305C6.25292 13.087 6.62573 13.4598 6.62573 13.9197C6.62573 14.3796 6.25292 14.7524 5.79305 14.7524H4.55217C4.09229 14.7524 3.71948 14.3796 3.71948 13.9197C3.71948 13.4598 4.09229 13.087 4.55217 13.087Z" fill="#77BBE8"/>
<path d="M24.2989 14.2013H21.8085C21.4862 14.2013 21.2249 13.94 21.2249 13.6176C21.2249 13.2951 21.4862 13.0339 21.8085 13.0339H23.7152V10.7288C23.7152 10.4065 23.9765 10.1451 24.2989 10.1451C24.6212 10.1451 24.8825 10.4065 24.8825 10.7288V13.6175C24.8825 13.94 24.6212 14.2013 24.2989 14.2013Z" fill="#D8D8D8"/>
<path d="M0.104625 14.1718C0.0363125 14.7718 0 15.3816 0 16C0 16.6618 0.041 17.3139 0.119062 17.9547L3.09188 21.3281C3.54644 21.8439 4.33325 21.8938 4.84931 21.4391C5.36525 20.9844 5.41487 20.1976 4.96025 19.6817L0.104625 14.1718Z" fill="#EA5050"/>
<path d="M4.07762 20.5771L0.000625 15.9507C0.0005625 15.9671 0 15.9835 0 16C0 16.6618 0.041 17.3139 0.119062 17.9547L3.09188 21.3281C3.54663 21.8442 4.33344 21.8936 4.84931 21.4391C4.995 21.3107 5.10213 21.1553 5.17263 20.9875C4.74081 21.0434 4.34094 20.8759 4.07762 20.5771Z" fill="#D84545"/>
<path d="M19.8786 15.421C19.5031 14.6568 18.7773 14.1249 17.9356 13.9968C17.575 13.9419 17.2074 14.0322 16.9133 14.2479L12.5929 17.4159C12.2348 17.6785 11.8023 17.82 11.3583 17.82H11.1718C10.8965 17.82 10.622 17.8493 10.3528 17.9073L4.15939 19.2419L0.121582 17.9775C0.23952 18.9345 0.441457 19.8654 0.720707 20.7623C3.57808 21.6771 3.75752 21.7802 4.14171 21.7446L8.76314 21.7486C9.85083 21.7495 10.9301 21.5586 11.9515 21.1848L17.5887 19.1211C18.586 18.7561 19.4413 18.0831 20.0308 17.1996C20.2881 16.8139 20.3207 16.3203 20.1161 15.9041L19.8786 15.421Z" fill="#F95E5A"/>
<path d="M20.0581 15.7859C19.4708 16.6333 18.6362 17.2798 17.6666 17.6348L12.1073 19.9318C11.0859 20.3057 10.0066 20.4966 8.91894 20.4956L4.2975 20.4916C4.259 20.4952 4.22037 20.497 4.18181 20.497C4.05581 20.497 3.93037 20.478 3.80969 20.4401L0.354248 19.3582C0.455936 19.8343 0.577811 20.303 0.720873 20.7623C3.57825 21.6772 3.75769 21.7803 4.14187 21.7446L8.76331 21.7486C9.851 21.7496 10.9303 21.5587 11.9517 21.1848L17.5889 19.1213C18.5862 18.7562 19.4415 18.0832 20.0309 17.1998C20.2883 16.814 20.3209 16.3204 20.1163 15.9042L20.0581 15.7859Z" fill="#EA5050"/>
<path d="M21.3588 14.6907C22.5037 14.6907 23.4319 13.7625 23.4319 12.6176C23.4319 11.4726 22.5037 10.5444 21.3588 10.5444C20.2138 10.5444 19.2856 11.4726 19.2856 12.6176C19.2856 13.7625 20.2138 14.6907 21.3588 14.6907Z" fill="#F4C48B"/>
<path d="M20.5032 10.7289C20.2962 10.8226 20.1011 10.9518 19.9274 11.1175C19.099 11.9079 19.0682 13.2203 19.8587 14.0488C20.6491 14.8772 21.9614 14.9079 22.7899 14.1175C23.103 13.8187 23.302 13.4453 23.3859 13.0517C21.8342 13.7545 20.1493 12.3888 20.5032 10.7289Z" fill="#E4A970"/>
<path d="M23.5465 8.87822C24.1713 8.87822 24.6778 8.37174 24.6778 7.74697C24.6778 7.1222 24.1713 6.61572 23.5465 6.61572C22.9218 6.61572 22.4153 7.1222 22.4153 7.74697C22.4153 8.37174 22.9218 8.87822 23.5465 8.87822Z" fill="#77BBE8"/>
<path d="M22.0526 2.92888C22.6774 2.92888 23.1839 2.4224 23.1839 1.79763C23.1839 1.17286 22.6774 0.666382 22.0526 0.666382C21.4279 0.666382 20.9214 1.17286 20.9214 1.79763C20.9214 2.4224 21.4279 2.92888 22.0526 2.92888Z" fill="#77BBE8"/>
<path d="M20.0389 6.95959C20.8443 6.95959 21.4972 6.30668 21.4972 5.50128C21.4972 4.69588 20.8443 4.04297 20.0389 4.04297C19.2335 4.04297 18.5806 4.69588 18.5806 5.50128C18.5806 6.30668 19.2335 6.95959 20.0389 6.95959Z" fill="#77BBE8"/>
<path d="M12.6527 20.8239C12.5769 20.6929 12.3762 20.7495 12.378 20.9008C12.3897 21.8226 12.2463 23.7131 11.0521 25.298C9.45209 27.4214 11.0325 28.9716 10.9645 31.1906C12.0415 31.5474 13.1689 31.7934 14.3337 31.914C14.2285 30.901 13.9084 29.5207 13.0234 28.2197C11.9309 26.6136 14.6913 24.3463 12.6527 20.8239Z" fill="#77C680"/>
<path d="M12.378 20.9009C12.3897 21.8227 12.2463 23.7131 11.0521 25.2981C9.45209 27.4214 11.0325 28.9716 10.9645 31.1907C11.4802 31.3616 12.0075 31.5066 12.545 31.6249C12.8625 29.1676 10.965 27.5572 12.6673 25.2981C12.9815 24.8811 13.2224 24.4429 13.4074 24.0067C13.4841 23.0754 13.3463 22.0224 12.6527 20.8239C12.5769 20.6929 12.3762 20.7495 12.378 20.9009Z" fill="#59AA5F"/>
<path d="M17.4594 24.3793C17.3836 24.2483 17.1829 24.3049 17.1848 24.4562C17.1964 25.378 17.0531 27.2685 15.8588 28.8534C14.9959 29.9985 15.0583 30.977 15.2881 31.9835C15.5241 31.9938 15.7613 32 15.9999 32C16.6445 32 17.2799 31.9608 17.9046 31.8867C17.8802 31.8495 17.8554 31.8122 17.8302 31.7751C16.7376 30.169 19.4981 27.9017 17.4594 24.3793Z" fill="#77C680"/>
<path d="M17.1848 24.4561C17.1964 25.378 17.0531 27.2684 15.8588 28.8533C14.9959 29.9985 15.0583 30.9769 15.2881 31.9834C15.5241 31.9937 15.7613 32 15.9999 32C16.3024 32 16.6028 31.9908 16.9012 31.9742C16.6732 30.971 16.6138 29.995 17.4741 28.8533C17.7883 28.4363 18.0292 27.9981 18.2143 27.5621C18.2909 26.6308 18.1531 25.5778 17.4595 24.3793C17.3836 24.2482 17.1829 24.3048 17.1848 24.4561Z" fill="#59AA5F"/>
<path d="M8.97925 18.8425C8.3505 18.8034 7.76625 18.4198 7.50094 17.8013C7.12556 16.9265 7.5305 15.9131 8.40531 15.5377L16.652 11.9996C17.5267 11.624 18.5402 12.0291 18.9156 12.9039C19.2909 13.7787 18.886 14.7922 18.0111 15.1675L9.76444 18.7057C9.50812 18.8157 9.23981 18.8587 8.97925 18.8425Z" fill="#D8D8D8"/>
<path d="M18.9157 12.904C18.8036 12.6426 18.6341 12.4235 18.4288 12.2543C18.3863 12.8792 18.004 13.4588 17.3887 13.7228L9.14196 17.261C8.88565 17.371 8.61727 17.414 8.35671 17.3978C7.99365 17.3752 7.6459 17.2371 7.36534 17.006C7.34734 17.2698 7.38952 17.5416 7.50096 17.8013C7.76634 18.4198 8.35052 18.8034 8.97927 18.8425C9.23984 18.8587 9.50821 18.8158 9.76452 18.7057L18.0113 15.1675C18.8861 14.7922 19.2911 13.7788 18.9157 12.904Z" fill="#C7C7C9"/>
<path d="M23.0013 18.5163L17.2424 16.9598C16.5785 16.7804 16.1858 16.0967 16.3652 15.4329C16.5447 14.769 17.2282 14.3765 17.8921 14.5557L23.2173 15.995L29.1123 13.3022C29.738 13.0165 30.4766 13.2919 30.7623 13.9175C31.048 14.543 30.7726 15.2817 30.1471 15.5674L23.8435 18.4468C23.5795 18.5675 23.2816 18.592 23.0013 18.5163Z" fill="#EA5050"/>
<path d="M30.5504 13.5966C30.4705 13.9042 30.2581 14.1746 29.9465 14.317L23.7099 17.1572C23.4777 17.2633 23.2159 17.2846 22.9702 17.2182L17.679 15.7734C17.1943 15.6424 16.8752 15.2051 16.8717 14.7264C16.632 14.8878 16.4465 15.1321 16.3652 15.4329C16.1858 16.0968 16.5785 16.7805 17.2424 16.9599L23.0013 18.5163C23.2815 18.592 23.5794 18.5675 23.8435 18.4468L30.1471 15.5674C30.9142 15.2169 31.118 14.2202 30.5504 13.5966Z" fill="#D84545"/>
<path d="M28.9629 16.1083L30.1471 15.5673C30.7726 15.2816 31.0481 14.5429 30.7624 13.9174C30.4766 13.2918 29.738 13.0163 29.1124 13.3021L27.8459 13.8806L28.9629 16.1083Z" fill="#9F9FA0"/>
<path d="M30.5504 13.5966C30.4705 13.9042 30.2581 14.1746 29.9465 14.317L28.4146 15.0146L28.9629 16.1083L30.1471 15.5674C30.9128 15.2176 31.119 14.2216 30.5504 13.5966Z" fill="#888889"/>
<path d="M13.8261 17.5472C13.6073 17.5472 13.3975 17.4236 13.2979 17.2125L11.8255 14.0932C11.6879 13.8017 11.8127 13.4538 12.1042 13.3162C12.3957 13.1787 12.7436 13.3034 12.8812 13.5949L14.3535 16.7143C14.4912 17.0057 14.3664 17.3537 14.0748 17.4912C13.9943 17.5292 13.9095 17.5472 13.8261 17.5472Z" fill="#A09C9D"/>
<path d="M25.7626 20.1426C25.3027 20.1426 24.9299 20.5154 24.9299 20.9753C24.9299 21.4351 25.3027 21.808 25.7626 21.808H26.744C27.2038 21.808 27.5767 22.1808 27.5767 22.6406C27.5767 23.1005 27.2038 23.4733 26.744 23.4733C25.6497 23.4733 22.9997 23.4733 22.0343 23.4733C21.5745 23.4733 21.2017 23.8462 21.2017 24.306C21.2017 24.7658 21.5745 25.1387 22.0343 25.1387C22.4474 25.1387 25.1742 25.1387 25.5862 25.1387C26.046 25.1387 26.4188 25.5115 26.4188 25.9714C26.4188 26.4313 26.046 26.8041 25.5862 26.8041H24.7355C24.2756 26.8041 23.9028 27.177 23.9028 27.6368C23.9028 28.0966 24.2756 28.4695 24.7355 28.4695H26.0245C28.6323 26.3703 30.5676 23.4703 31.4573 20.1426H25.7626Z" fill="#77BBE8"/>
</g>
<defs>
<clipPath id="clip0_18203_30147">
<rect width="32" height="32" fill="white"/>
</clipPath>
</defs>
</svg>
