<svg width="32" height="32" viewBox="0 0 32 32" fill="none" xmlns="http://www.w3.org/2000/svg">
<g clip-path="url(#clip0_18203_29961)">
<path d="M16 30.625C24.4569 30.625 31.3125 23.7694 31.3125 15.3125C31.3125 6.85564 24.4569 0 16 0C7.54314 0 0.6875 6.85564 0.6875 15.3125C0.6875 23.7694 7.54314 30.625 16 30.625Z" fill="#4F66D0"/>
<path d="M16 25.375C21.5574 25.375 26.0625 20.8699 26.0625 15.3125C26.0625 9.75513 21.5574 5.25 16 5.25C10.4426 5.25 5.9375 9.75513 5.9375 15.3125C5.9375 20.8699 10.4426 25.375 16 25.375Z" fill="#8795DE"/>
<path d="M15.9408 8.25024C12.0533 8.28212 8.93744 11.4251 8.9375 15.3126C8.9375 17.6944 10.1167 19.8004 11.9231 21.0796C12.4219 21.4328 12.7188 22.0056 12.7188 22.6167V23.3125H19.2812V22.6158C19.2812 21.9996 19.587 21.4281 20.0891 21.0709C21.8886 19.7909 23.0625 17.6889 23.0625 15.3125C23.0625 11.3922 19.8684 8.21799 15.9408 8.25024Z" fill="white"/>
<path d="M15.9408 8.25024C15.6421 8.25268 15.3479 8.27368 15.0593 8.31181C18.5181 8.76899 21.1876 11.7287 21.1876 15.3125C21.1876 17.6889 20.0136 19.7909 18.2142 21.0709C17.7121 21.4281 17.4063 21.9996 17.4063 22.6158V23.3125H19.2813V22.6158C19.2813 21.9996 19.5871 21.4281 20.0892 21.0709C21.8886 19.7909 23.0626 17.6889 23.0626 15.3125C23.0626 11.3922 19.8685 8.21799 15.9408 8.25024Z" fill="#F2FBFF"/>
<path d="M13.5937 16.9062C13.8987 16.9062 14.1861 16.8291 14.4374 16.6933V23.3125H15.3749V15.5938H16.6249V23.3125H17.5624V16.6933C17.8137 16.8291 18.1011 16.9062 18.4062 16.9062C19.3884 16.9062 20.1874 16.1072 20.1874 15.125C20.1874 14.1428 19.3884 13.3438 18.4062 13.3438C17.5862 13.3438 16.8943 13.9008 16.688 14.6562H15.3119C15.1056 13.9008 14.4137 13.3438 13.5938 13.3438C12.6116 13.3438 11.8125 14.1428 11.8125 15.125C11.8125 16.1072 12.6115 16.9062 13.5937 16.9062ZM18.4062 14.2812C18.8714 14.2812 19.2499 14.6598 19.2499 15.125C19.2499 15.5902 18.8714 15.9688 18.4062 15.9688C17.9409 15.9688 17.5624 15.5902 17.5624 15.125C17.5624 14.6598 17.9409 14.2812 18.4062 14.2812ZM13.5937 14.2812C14.0589 14.2812 14.4374 14.6598 14.4374 15.125C14.4374 15.5902 14.0589 15.9688 13.5937 15.9688C13.1284 15.9688 12.7499 15.5902 12.7499 15.125C12.7499 14.6598 13.1284 14.2812 13.5937 14.2812Z" fill="#A2AEE6"/>
<path d="M23.6153 6.37134L7.05884 22.9278C7.46503 23.404 7.90846 23.8474 8.38465 24.2536L24.9411 7.69715C24.5349 7.22096 24.0915 6.77753 23.6153 6.37134Z" fill="#FE646F"/>
<path d="M16 28.875C12.3773 28.875 8.9715 27.4642 6.40987 24.9026C3.84825 22.341 2.4375 18.9352 2.4375 15.3125C2.4375 11.6898 3.84825 8.284 6.40987 5.72237C8.9715 3.16075 12.3773 1.75 16 1.75C19.6227 1.75 23.0285 3.16075 25.5901 5.72237C28.1517 8.284 29.5625 11.6898 29.5625 15.3125C29.5625 18.9352 28.1517 22.341 25.5901 24.9026C23.0285 27.4642 19.6227 28.875 16 28.875ZM16 3.625C9.5555 3.625 4.3125 8.868 4.3125 15.3125C4.3125 21.757 9.5555 27 16 27C22.4445 27 27.6875 21.757 27.6875 15.3125C27.6875 8.868 22.4445 3.625 16 3.625Z" fill="#FD8087"/>
<path d="M13.4773 29.5L14.0872 31.1772C14.2668 31.6712 14.7363 32 15.2619 32H16.7384C17.264 32 17.7335 31.6712 17.9131 31.1772L18.5229 29.5H13.4773Z" fill="#E2DEE2"/>
<path d="M16.5625 29.5L15.9526 31.1772C15.8011 31.5937 15.4433 31.8919 15.0198 31.9755C15.0985 31.9911 15.1793 32 15.2617 32H16.7382C17.2638 32 17.7333 31.6712 17.9129 31.1772L18.5228 29.5H16.5625Z" fill="#CBC4CC"/>
<path d="M20.5 25.5679V24.3696C20.5 23.7512 19.9988 23.25 19.3804 23.25H12.6196C12.0012 23.25 11.5 23.7512 11.5 24.3696V25.5679C11.5 25.9017 11.6462 26.2011 11.8779 26.4062C11.6463 26.6114 11.5 26.9108 11.5 27.2446V28.4429C11.5 29.0613 12.0012 29.5625 12.6196 29.5625H19.3804C19.9988 29.5625 20.5 29.0613 20.5 28.4429V27.2446C20.5 26.9108 20.3538 26.6114 20.1221 26.4062C20.3538 26.2011 20.5 25.9017 20.5 25.5679Z" fill="#FEDF30"/>
<path d="M20.1221 26.4062H18.2471C18.4787 26.6114 18.6249 26.9108 18.6249 27.2446V28.4429C18.6249 29.0613 18.1237 29.5625 17.5054 29.5625H19.3804C19.9987 29.5625 20.4999 29.0613 20.4999 28.4429V27.2446C20.4999 26.9108 20.3537 26.6114 20.1221 26.4062Z" fill="#FED402"/>
<path d="M19.3804 23.25H12.6196C12.0012 23.25 11.5 23.7512 11.5 24.3696V25.5679C11.5 25.9017 11.6462 26.2011 11.8779 26.4062H20.1221C20.3538 26.2011 20.5 25.9017 20.5 25.5679V24.3696C20.5 23.7512 19.9988 23.25 19.3804 23.25Z" fill="#FED402"/>
<path d="M19.3804 23.25H17.5054C18.1237 23.25 18.6249 23.7512 18.6249 24.3696V25.5679C18.6249 25.9017 18.4787 26.2011 18.2471 26.4062H20.1221C20.3537 26.2011 20.4999 25.9017 20.4999 25.5679V24.3696C20.4999 23.7512 19.9987 23.25 19.3804 23.25Z" fill="#FAC600"/>
</g>
<defs>
<clipPath id="clip0_18203_29961">
<rect width="32" height="32" fill="white"/>
</clipPath>
</defs>
</svg>
