<svg width="36" height="36" viewBox="0 0 36 36" fill="none" xmlns="http://www.w3.org/2000/svg">
<g clip-path="url(#clip0_10368_7327)">
<path d="M17.2265 1.54669C7.7124 1.54669 -0.000244141 9.25934 -0.000244141 18.7734C-0.000244141 21.5944 0.67792 24.2569 1.87998 26.6071L17.9689 27.9243L25.5351 33.8665C30.8515 30.9337 34.4532 25.2745 34.4532 18.7735C34.4532 9.25934 26.7405 1.54669 17.2265 1.54669Z" fill="#02C0FC"/>
<path d="M19.7875 19.2235C19.6999 18.7058 19.6393 18.1747 19.5887 17.6303H19.5886L16.4364 13.8931L13.8775 6.98938C13.3409 6.89889 12.9857 6.90311 12.9857 6.90311C12.9857 6.90311 8.6717 6.84939 7.38062 10.9511C6.41235 14.0275 6.59875 16.7729 6.18383 19.2235C5.92811 20.7344 6.9804 22.1595 8.49718 22.3775C9.57824 22.5328 11.0338 22.6442 12.9857 22.6442C14.9375 22.6442 16.3932 22.5328 17.4742 22.3775C18.991 22.1596 20.0433 20.7344 19.7875 19.2235Z" fill="#2A428B"/>
<path d="M12.985 11.3071C14.578 13.7839 17.5866 16.189 17.5866 16.189C17.5866 16.189 17.8446 17.8197 19.5879 17.6303C19.3992 15.5979 19.3538 13.3775 18.5901 10.9513C17.6693 8.02591 15.2112 7.21443 13.8767 6.9895C13.8767 6.9895 11.392 8.83042 12.985 11.3071Z" fill="#3F57A0"/>
<path d="M4.91394 24.529L4.09198 24.7334C3.0901 24.9826 2.27989 25.6846 1.87988 26.6069C2.67603 28.1635 3.7028 29.5822 4.91394 30.8199L6.4445 28.3202L4.91394 24.529Z" fill="#BBF0F9"/>
<path d="M24.3049 27.3058C24.069 26.0475 23.1208 25.0423 21.8784 24.7334L21.0297 24.5223L19.314 30.9495L21.0297 35.5778C22.627 35.2178 24.1399 34.6359 25.535 33.8663L24.3049 27.3058Z" fill="#E8F8FC"/>
<path d="M15.7763 23.2159L15.4384 20.6852H10.5323L10.1943 23.2159V23.2159L11.0744 29.8311H14.6768L15.7763 23.216V23.2159Z" fill="#CE7867"/>
<path d="M18.7871 14.8026C18.6791 14.7346 18.5466 14.722 18.4254 14.7622C18.2254 14.8286 18.0213 14.8093 17.8035 14.7122L16.9495 15.832L17.6506 17.2757C18.3871 17.2698 18.5674 16.7804 18.6038 16.4439C18.6209 16.2862 18.6587 16.1289 18.7171 15.9734C18.7927 15.7725 18.9004 15.5253 18.9693 15.2669C19.0166 15.089 18.943 14.9007 18.7871 14.8026Z" fill="#E28B7D"/>
<path d="M12.9856 11.3071L12.9843 11.3053C12.8445 11.2787 12.702 11.2482 12.5537 11.2093C10.6851 10.7188 10.5647 12.8932 10.0171 14.8877L10.3095 15.4994L9.61608 16.0477C9.42406 16.4769 9.18352 16.8639 8.86458 17.1699C8.54353 17.478 8.42913 17.9445 8.56181 18.3692C8.84074 19.2618 9.18626 20.0633 9.59428 20.7617C10.1899 21.781 11.0919 22.5737 12.2027 23.0544C12.7002 23.2696 13.2707 23.2696 13.7682 23.0544C14.4821 22.7455 15.1092 22.307 15.6248 21.7629L15.7764 16.3189L12.9856 11.3071Z" fill="#E28B7D"/>
<path d="M17.8042 14.7121C17.6659 14.6519 17.539 14.5592 17.4376 14.4321C17.0007 13.8851 16.3048 12.8229 15.9647 11.2825C15.9351 11.1486 15.7939 11.0717 15.6667 11.1227C15.2489 11.2901 14.308 11.5569 12.9845 11.3054L12.9857 11.3072C12.9857 11.3072 9.80155 17.4305 15.625 21.7631C15.9116 21.4607 16.1641 21.1261 16.3769 20.7619C16.9635 19.7581 17.4213 18.5417 17.738 17.1439C17.827 16.5779 17.9196 15.5525 17.8042 14.7121Z" fill="#EFA29A"/>
<path d="M13.9824 15.1921C13.4247 15.7236 14.2304 16.5372 14.8067 16.0278C15.0235 15.8362 15.3535 15.8363 15.5702 16.0278C16.146 16.5367 16.9531 15.7245 16.3944 15.1921C15.7233 14.5524 14.6544 14.5517 13.9824 15.1921Z" fill="#BF6B5E"/>
<path d="M10.0162 14.8878C9.90591 15.2896 9.77808 15.684 9.61523 16.0479C9.82238 16.2164 10.135 16.2618 10.3996 16.0279C10.6163 15.8363 10.9463 15.8364 11.163 16.0279C11.7389 16.5369 12.5459 15.7246 11.9873 15.1922C11.4493 14.6794 10.6561 14.5783 10.0162 14.8878Z" fill="#BF6B5E"/>
<path d="M11.8041 18.3721C11.3511 18.3721 11.0099 18.6639 11.0842 18.9834C11.3125 19.9643 12.077 20.6853 12.9849 20.6853C13.8928 20.6853 14.6572 19.9643 14.8855 18.9834C14.9599 18.6639 14.6186 18.3721 14.1656 18.3721H11.8041Z" fill="#E2338F"/>
<path d="M18.6743 12.9854L19.0009 12.8697C19.1797 12.8063 19.2991 12.6372 19.2991 12.4475V11.4067C19.2991 8.56518 17.2959 6.09377 14.5034 5.56748C14.035 5.47917 13.5292 5.42889 12.9849 5.42889V11.7842L14.4971 12.4261C16.0994 12.5252 17.5662 12.7616 18.6743 12.9854Z" fill="#FFC242"/>
<path d="M6.96916 12.8698L7.30786 12.9898C8.40551 12.7649 9.8666 12.5262 11.4725 12.4265L12.9852 11.7843V5.42896C12.4301 5.42896 11.9151 5.48127 11.4389 5.57289C8.65877 6.1074 6.6709 8.57586 6.6709 11.4069V12.4476C6.67083 12.6373 6.79036 12.8064 6.96916 12.8698Z" fill="#FEA53D"/>
<path d="M16.6031 12.636C16.2488 11.8188 16.0655 10.9377 16.0655 10.0465V6.50994C16.0655 5.4253 14.5324 4.9007 14.5324 4.9007L13.4253 9.45413L14.2036 12.4099C15.0471 12.4526 15.8575 12.5349 16.6031 12.636Z" fill="#FFDA4C"/>
<path d="M11.8361 12.4065L12.6377 9.88898L11.4373 4.90073C11.4373 4.90073 9.90432 5.42526 9.90432 6.50997V10.0465C9.90432 10.9384 9.72059 11.8203 9.36572 12.6381C10.1299 12.5333 10.9646 12.4483 11.8361 12.4065Z" fill="#FFDA4C"/>
<path d="M12.9852 12.3786C13.51 12.3786 14.0279 12.3969 14.5324 12.4288V7.97665L12.9852 6.91479L11.438 7.97658V12.4289C11.9416 12.397 12.4596 12.3786 12.9852 12.3786Z" fill="#FEF156"/>
<path d="M13.726 4.09433H12.2444C11.8009 4.09433 11.438 4.45721 11.438 4.90074V7.97649C11.6458 8.63314 12.2623 9.11253 12.9852 9.11253C13.7082 9.11253 14.3246 8.63307 14.5324 7.97649V4.90074C14.5324 4.45721 14.1696 4.09433 13.726 4.09433Z" fill="#FFFBB3"/>
<path d="M11.438 11.6232C8.57348 11.7731 6.42719 12.2822 6.32222 12.3075C5.77821 12.4384 5.44338 12.9855 5.57423 13.5295C5.70515 14.0736 6.25239 14.4086 6.79633 14.2775C6.82031 14.2718 8.91274 13.7754 11.6574 13.6413L12.3271 12.482L11.438 11.6232Z" fill="#FFC242"/>
<path d="M19.6492 12.3076C19.5261 12.2779 16.5928 11.5821 12.9861 11.5821C12.4533 11.5821 11.9353 11.5973 11.4388 11.6233C11.4376 11.625 10.5463 12.79 11.6582 13.6414C12.0867 13.6205 12.5311 13.6083 12.9861 13.6083C16.3415 13.6083 19.1478 14.2711 19.1751 14.2776C19.2548 14.2968 19.3345 14.306 19.4131 14.306C19.8705 14.3059 20.2855 13.994 20.3972 13.5296C20.5281 12.9856 20.1932 12.4385 19.6492 12.3076Z" fill="#FFDA4C"/>
<path d="M24.4618 6.98946C24.4618 6.98946 23.7553 15.0757 30.6624 18.372L33.0157 17.8262C34.8962 15.205 35.9998 12.0138 35.9998 8.5705C35.9998 7.91674 35.9587 7.27246 35.8809 6.63923C35.844 6.33907 35.6141 6.09881 35.3168 6.04361C33.0903 5.63039 30.7003 5.40546 28.2124 5.40546C27.5913 5.40546 26.9764 5.41952 26.3685 5.44694L24.4618 6.98946Z" fill="#5071B7"/>
<path d="M28.5889 22.0415C30.3211 20.9194 31.8242 19.4872 33.0157 17.8262C25.8507 15.2311 26.1264 7.6516 26.3684 5.44702C24.5412 5.52957 22.7785 5.73362 21.1078 6.04369C20.8105 6.09889 20.5807 6.33915 20.5438 6.63931C20.4659 7.27254 20.4248 7.91682 20.4248 8.57058C20.4248 14.1955 23.3696 19.1481 27.8356 22.0415C28.0644 22.1897 28.3602 22.1897 28.5889 22.0415Z" fill="#3F57A0"/>
<path d="M19.2467 4.02999L20.0522 4.56134C20.3603 4.76461 20.7827 4.70963 21.0054 4.4153C21.2494 4.09277 21.1675 3.63673 20.8352 3.41756L20.01 2.87313C19.6905 2.66234 19.2606 2.75044 19.0499 3.06994C18.8392 3.38937 18.9273 3.81919 19.2467 4.02999Z" fill="#FEF156"/>
<path d="M21.0376 0.999807L21.7898 2.51856C21.9418 2.85493 22.3284 3.03395 22.6738 2.90401C23.0524 2.76163 23.2265 2.33223 23.0627 1.96949L22.2785 0.385346C22.1028 0.0304085 21.6657 -0.105084 21.32 0.0882756C20.9981 0.268416 20.8739 0.669268 21.0376 0.999807Z" fill="#FEF156"/>
<path d="M6.70605 32.4147C8.21074 33.5768 9.91259 34.4959 11.7534 35.1122L12.9848 31.2245L6.70605 32.4147Z" fill="#1D8DF2"/>
<path d="M13.2251 31.3878L14.217 35.7375C15.1943 35.9098 16.2 36 17.2268 36C18.5338 36 19.8066 35.8536 21.0302 35.5778V32.4145L13.2251 31.3878Z" fill="#27A6FF"/>
<path d="M7.46237 27.6745C7.46237 27.6745 6.58325 30.7234 7.97502 32.4144H11.7539L12.4464 29.3209C12.4464 29.3209 11.5634 26.5578 7.46237 27.6745Z" fill="#27A6FF"/>
<path d="M13.6846 29.0267L14.2161 32.4146H17.9683L18.3914 27.4078C15.3499 26.8389 13.6846 29.0267 13.6846 29.0267Z" fill="#02C0FC"/>
<path d="M7.33116 23.928L4.91431 24.5291V30.8201C5.47385 31.3919 6.07278 31.9248 6.70685 32.4146H7.97536V27.8767L8.81665 25.2584L7.33116 23.928Z" fill="#FFDA4C"/>
<path d="M18.6399 23.928L17.1274 26.0539L17.9689 27.9243V32.4146H21.03V24.5225L18.6399 23.928Z" fill="#FEF156"/>
<path d="M14.0613 28.523L13.6844 28.7202H12.2848L11.9093 28.523L11.7532 28.8079V35.112C12.5497 35.3787 13.3722 35.5889 14.2159 35.7375V28.8079L14.0613 28.523Z" fill="#6AD9FB"/>
<path d="M7.83056 27.5036C8.32767 29.5657 12.2848 28.7202 12.2848 28.7202L10.1936 23.2158L7.33008 23.9279C7.35694 24.538 7.45727 25.9552 7.83056 27.5036Z" fill="#BBF0F9"/>
<path d="M18.1388 27.5038C18.5121 25.9554 18.6124 24.5382 18.6393 23.9282L15.7758 23.216L13.6846 28.7204C13.6846 28.7204 17.6418 29.5659 18.1388 27.5038Z" fill="#E8F8FC"/>
<path d="M30.3738 10.9154L26.279 7.39243C24.9565 7.45824 23.6536 7.59007 22.3839 7.79025C22.369 8.05125 22.3616 8.3119 22.3616 8.57051C22.3616 9.96157 22.5698 11.3235 22.9653 12.6209C23.8491 15.5198 25.6708 18.0959 28.2116 19.9499C29.3729 19.1026 30.3833 18.1041 31.2233 16.9933L30.3738 10.9154Z" fill="#3ECD8D"/>
<path d="M26.2793 7.39249C26.3205 10.1864 27.1028 14.5867 31.2235 16.9934C32.2215 15.6736 32.9784 14.1951 33.4583 12.6209C33.8538 11.3235 34.0619 9.96164 34.0619 8.5705C34.0619 8.31196 34.0544 8.05132 34.0395 7.79024C32.1554 7.49324 30.1995 7.34299 28.2118 7.34299C27.5636 7.34299 26.9194 7.36064 26.2793 7.39249Z" fill="#95DB76"/>
<path d="M27.2917 11.3226C26.9696 10.9823 26.4301 10.9749 26.0987 11.3063C25.779 11.6262 25.7731 12.1428 26.0855 12.4698L27.6095 14.0448L28.5033 12.5783L27.2917 11.3226Z" fill="#BBF0F9"/>
<path d="M30.7083 10.9457C30.3824 10.6198 29.854 10.6198 29.5281 10.9457L27.6295 12.8443C27.3152 13.1586 27.2779 13.6702 27.5713 14.0041C27.8927 14.37 28.4505 14.3836 28.7894 14.0447L30.7082 12.1259C31.0341 11.8 31.0341 11.2716 30.7083 10.9457Z" fill="#E8F8FC"/>
</g>
<defs>
<clipPath id="clip0_10368_7327">
<rect width="36" height="36" fill="white"/>
</clipPath>
</defs>
</svg>
