<svg width="32" height="32" viewBox="0 0 32 32" fill="none" xmlns="http://www.w3.org/2000/svg">
<g clip-path="url(#clip0_18203_30210)">
<path d="M15.9064 1.37476C7.44944 1.37476 0.59375 8.23044 0.59375 16.6874C0.59375 20.8834 2.28212 24.6848 5.01581 27.4506L13.5414 26.3986L23.6731 29.8858C28.1888 27.2227 31.2191 22.3093 31.2191 16.6874C31.219 8.23044 24.3633 1.37476 15.9064 1.37476Z" fill="#833FAF"/>
<path d="M13.4787 8.9762L9.60369 10.2462V19.3822C9.60369 20.4324 9.27675 21.4566 8.66825 22.3125L5.01562 27.4506C5.40569 27.8453 5.81775 28.218 6.24856 28.5686H13.2766L14.2554 27.6655V15.0509L17.3537 12.0092V10.2461L13.4787 8.9762Z" fill="#DDD1CC"/>
<path d="M18.2893 22.3125C17.6808 21.4565 17.3538 20.4324 17.3538 19.3822V12.0093H14.4197C13.3461 12.0093 12.4758 12.8795 12.4758 13.9532V24.301C12.4758 24.301 12.4803 25.8545 13.5413 26.9155C13.8208 27.195 13.662 27.8119 13.2766 28.5687H14.3443L22.2623 30.6211C22.7465 30.3998 23.2174 30.1544 23.673 29.8858L18.2893 22.3125Z" fill="#EDE3DD"/>
<path d="M13.7458 10.2462H9.47508C8.7737 10.2462 8.20508 9.67761 8.20508 8.97618C8.20508 8.2748 8.7737 7.70618 9.47508 7.70618H13.7458L14.5851 8.97618L13.7458 10.2462Z" fill="#EDE3DD"/>
<path d="M17.4825 7.70618H13.7458C13.0445 7.70624 12.4758 8.2748 12.4758 8.97618C12.4758 9.67755 13.0445 10.2462 13.7458 10.2462H17.4825C18.184 10.2462 18.7525 9.67761 18.7525 8.97618C18.7525 8.27474 18.1839 7.70618 17.4825 7.70618Z" fill="#F9F2F2"/>
<path d="M7.8562 26.3985L8.58001 28.2071H13.2675L13.5413 26.3985C10.59 23.4471 7.8562 26.3985 7.8562 26.3985Z" fill="#00B7A0"/>
<path d="M13.5414 26.3986C10.6019 29.0232 7.85628 26.3986 7.85628 26.3986L6.24878 28.5686C6.9684 29.1544 7.74259 29.6754 8.56197 30.1244H10.1791L11.3815 31.3186C12.5615 31.6832 13.8023 31.9096 15.0853 31.9775L16.1729 28.2072L13.5414 26.3986Z" fill="#3ECD8D"/>
<path d="M27.5539 14.3903C24.0741 16.5637 19.2166 15.3226 17.0441 11.5596C14.9159 7.87343 16.1788 3.15999 19.865 1.03174L25.4658 2.01136L29.4734 8.68843L27.5539 14.3903Z" fill="#FFC242"/>
<path d="M30.3596 3.84392C28.2365 0.166419 23.5425 -1.09108 19.865 1.03179C19.865 1.03192 19.4971 2.22404 20.7564 2.22404L25.2744 5.01136C25.2744 5.01136 24.1629 7.49311 26.8302 7.70611L26.9851 13.0125C26.9851 13.0125 26.5851 14.1737 27.5538 14.3902C31.2851 12.2756 32.4859 7.52667 30.3596 3.84392Z" fill="#FEF156"/>
<path d="M20.6084 7.70618H17.659C17.5631 7.70618 17.4862 7.78549 17.4888 7.8813C17.5455 9.96449 18.655 11.91 20.452 13.0137C20.5337 13.0639 20.6408 13.037 20.6888 12.9539L22.1632 10.4001C22.2085 10.3216 22.1838 10.2221 22.1078 10.1726C21.3315 9.66711 20.828 8.81518 20.7777 7.86786C20.7729 7.77736 20.699 7.70618 20.6084 7.70618Z" fill="#1D2E79"/>
<path d="M22.3873 5.07759C23.25 4.6394 24.2344 4.66553 25.0499 5.0774C25.1307 5.11822 25.2291 5.0899 25.2744 5.01147L26.7482 2.45878C26.7962 2.37559 26.7658 2.26928 26.6812 2.22365C24.8898 1.25778 22.6658 1.19115 20.7564 2.22415C20.6719 2.2699 20.6412 2.37609 20.6893 2.45934L22.1629 5.01178C22.2064 5.10415 22.2938 5.13009 22.3873 5.07759Z" fill="#3F57A0"/>
<path d="M29.7778 7.70618H26.8302C26.74 7.70618 26.6658 7.77668 26.6608 7.86674C26.6103 8.77618 26.1438 9.58905 25.3368 10.1124C25.2566 10.1644 25.2305 10.2697 25.2775 10.3529L26.7478 12.9531C26.7959 13.0363 26.9032 13.0629 26.9851 13.0126C28.8341 11.8757 29.8883 9.91674 29.9479 7.8828C29.9507 7.78636 29.8743 7.70618 29.7778 7.70618Z" fill="#3F57A0"/>
<path d="M25.4108 8.15822C25.6606 7.22629 25.1077 6.26825 24.1758 6.01838C23.2438 5.76851 22.2858 6.32144 22.0359 7.25337C21.7861 8.18531 22.339 9.14335 23.2709 9.39322C24.2029 9.64309 25.1609 9.09016 25.4108 8.15822Z" fill="#2A428B"/>
<path d="M12.4758 23.7384C13.287 23.7384 13.9446 23.0808 13.9446 22.2697C13.9446 21.4585 13.287 20.8009 12.4758 20.8009C11.6647 20.8009 11.0071 21.4585 11.0071 22.2697C11.0071 23.0808 11.6647 23.7384 12.4758 23.7384Z" fill="#3ECD8D"/>
<path d="M16.1533 18.0342C16.2561 17.4004 15.8255 16.8032 15.1917 16.7005C14.5578 16.5977 13.9607 17.0283 13.8579 17.6621C13.7552 18.296 14.1857 18.8931 14.8196 18.9959C15.4534 19.0986 16.0506 18.6681 16.1533 18.0342Z" fill="#95DB76"/>
<path d="M14.4699 5.59537C14.956 5.10934 14.956 4.32133 14.4699 3.83529C13.9839 3.34926 13.1959 3.34926 12.7099 3.83529C12.2238 4.32133 12.2238 5.10934 12.7099 5.59537C13.1959 6.0814 13.9839 6.0814 14.4699 5.59537Z" fill="#9957BC"/>
<path d="M15.0852 31.9775C15.3572 31.9919 15.6307 32.0001 15.9063 32.0001C18.1742 32.0001 20.3262 31.5061 22.2623 30.6211L19.6633 27.0063C18.3304 25.1524 15.7098 24.4623 13.5413 26.3986C13.5413 26.3986 12.715 29.8102 15.0852 31.9775Z" fill="#95DB76"/>
<path d="M17.8104 29.6925C18.4038 29.4466 18.6854 28.7661 18.4394 28.1727C18.1935 27.5793 17.5131 27.2977 16.9197 27.5437C16.3263 27.7896 16.0446 28.4701 16.2906 29.0635C16.5365 29.6568 17.217 29.9385 17.8104 29.6925Z" fill="#BAEE63"/>
<path d="M11.3813 31.3186C11.3995 31.2233 11.4093 31.1251 11.4093 31.0244C11.4093 30.1594 10.7081 29.4583 9.84308 29.4583C9.31321 29.4583 8.84514 29.7216 8.56177 30.1244C9.45171 30.612 10.3951 31.0138 11.3813 31.3186Z" fill="#00B7A0"/>
<path d="M11.5182 2.1622C11.6829 1.14639 10.9929 0.189432 9.9771 0.0247625C8.9613 -0.139907 8.00433 0.550073 7.83966 1.56588C7.67499 2.58168 8.36498 3.53864 9.38078 3.70331C10.3966 3.86798 11.3535 3.178 11.5182 2.1622Z" fill="#BB81E3"/>
</g>
<defs>
<clipPath id="clip0_18203_30210">
<rect width="32" height="32" fill="white"/>
</clipPath>
</defs>
</svg>
