<svg width="32" height="32" viewBox="0 0 32 32" fill="none" xmlns="http://www.w3.org/2000/svg">
<g clip-path="url(#clip0_18203_29827)">
<path d="M15.9999 1.37463C7.54294 1.37463 0.687256 8.23032 0.687256 16.6873C0.687256 24.6745 6.80294 31.2323 14.6069 31.9362H17.3928C25.1968 31.2323 31.3124 24.6746 31.3124 16.6873C31.3125 8.23032 24.4568 1.37463 15.9999 1.37463Z" fill="#6279DD"/>
<path d="M30.4825 11.7034C28.4146 5.69345 22.712 1.37463 16 1.37463C9.28877 1.37463 3.5867 5.69238 1.51826 11.7013C1.50608 11.9597 1.50026 12.2189 1.50201 12.4788C1.5282 16.3134 3.03376 19.9146 5.74814 22.6289C7.08839 23.9691 8.64489 25.0144 10.3389 25.7326C11.3861 26.1765 12.0758 27.1921 12.0758 28.3295V31.4908C12.8948 31.7073 13.7404 31.8579 14.6071 31.9361H17.3929C18.2595 31.8579 19.1052 31.7073 19.9242 31.4908V28.3295C19.9242 27.1921 20.614 26.1765 21.6611 25.7326C23.3551 25.0145 24.9116 23.9692 26.2518 22.6289C28.9902 19.8906 30.4983 16.2498 30.4983 12.3771C30.4983 12.1517 30.4926 11.9272 30.4825 11.7034Z" fill="#4E5FC6"/>
<path d="M14.6069 24.1775V31.9361C15.0658 31.9775 15.5302 31.9999 15.9998 31.9999C16.4694 31.9999 16.9339 31.9776 17.3927 31.9361V24.1775C16.9357 24.2311 16.4711 24.2596 15.9999 24.2596C15.5286 24.2596 15.064 24.2311 14.6069 24.1775Z" fill="#E9EFFF"/>
<path d="M16 26.8285C16 26.3029 16.4344 25.878 16.9597 25.8974C17.1034 25.9027 17.2479 25.9054 17.3929 25.9054V24.1775C16.9359 24.2311 16.4712 24.2596 16.0001 24.2596C15.5288 24.2596 15.0642 24.2311 14.6072 24.1775V31.9361C15.0661 31.9775 15.5304 31.9999 16.0001 31.9999V26.8285H16Z" fill="#BEC8F7"/>
<path d="M15.9998 24.3443C22.609 24.3443 27.9668 18.9864 27.9668 12.3772C27.9668 5.76799 22.609 0.410156 15.9998 0.410156C9.39055 0.410156 4.03271 5.76799 4.03271 12.3772C4.03271 18.9864 9.39055 24.3443 15.9998 24.3443Z" fill="#FF4155"/>
<path d="M23.366 21.8089C23.279 21.7356 23.2419 21.645 23.2286 21.5652C23.2108 21.4585 23.1291 21.3725 23.0218 21.3586C22.2836 21.2628 22.2071 20.6652 22.2066 20.4261C22.2065 20.3603 22.1808 20.2973 22.1339 20.2512L8.0229 6.34903C7.98271 6.30947 7.92996 6.28434 7.87377 6.27997C7.07508 6.21753 6.9314 5.72997 6.91658 5.44559C6.91077 5.33397 6.82758 5.24472 6.7184 5.22078C6.61933 5.19909 6.54471 5.16159 6.4879 5.11597C4.94827 7.12984 4.03296 9.6464 4.03296 12.3771C4.03296 18.9863 9.39077 24.3442 16 24.3442C18.7781 24.3442 21.335 23.3973 23.366 21.8089Z" fill="#E80054"/>
<path d="M16 24.7543C9.17518 24.7543 3.6228 19.2019 3.6228 12.3771C3.62274 5.55232 9.17512 -0.00012207 16 -0.00012207C22.8249 -0.00012207 28.3772 5.55232 28.3772 12.3771C28.3772 19.2019 22.8248 24.7543 16 24.7543ZM16 0.820253C9.62749 0.820253 4.44311 6.00463 4.44311 12.3771C4.44311 18.7496 9.62749 23.934 16 23.934C22.3725 23.934 27.5569 18.7496 27.5569 12.3771C27.5569 6.00463 22.3725 0.820253 16 0.820253Z" fill="#FF7186"/>
<path d="M23.1326 19.5134C27.0736 15.5724 27.0736 9.18274 23.1326 5.24172C19.1916 1.30071 12.802 1.30071 8.86094 5.24172C4.91992 9.18274 4.91992 15.5724 8.86094 19.5134C12.802 23.4544 19.1916 23.4544 23.1326 19.5134Z" fill="#E9EFFF"/>
<path d="M20.852 16.2881L20.9494 14.7359L20.1161 12.7018L18.6577 12.9631C18.6577 12.9631 17.0223 12.2851 16.0488 12.1636C15.0752 12.0421 15.0182 11.1099 15.0182 11.1099L14.4352 10.1393L13.7305 8.93776H11.4295C8.07455 8.93776 7.94874 6.32863 7.94743 6.29907C6.66724 7.99095 5.90674 10.0968 5.90674 12.3771C5.90674 17.9424 10.4345 22.4702 15.9999 22.4702C18.3315 22.4702 20.4807 21.6751 22.1914 20.3424C19.5953 18.8058 20.852 16.2881 20.852 16.2881Z" fill="#BEC8F7"/>
<path d="M16.2003 6.19879C16.1075 6.34635 15.8924 6.34635 15.7996 6.19879L14.472 4.08754C14.3729 3.92992 14.4862 3.72485 14.6724 3.72485H17.3276C17.5138 3.72485 17.6271 3.92992 17.5279 4.08754L16.2003 6.19879Z" fill="#6C5475"/>
<path d="M16.2003 18.5555C16.1075 18.4079 15.8924 18.4079 15.7996 18.5555L14.472 20.6667C14.3729 20.8244 14.4862 21.0294 14.6724 21.0294H17.3276C17.5138 21.0294 17.6271 20.8244 17.5279 20.6667L16.2003 18.5555Z" fill="#543E5B"/>
<path d="M12.8052 12.9631C12.4816 12.9631 12.2192 12.7008 12.2192 12.3772C12.2192 12.0536 12.4816 11.7912 12.8052 11.7912C13.3989 11.7912 13.8818 11.3082 13.8818 10.7147C13.8818 10.1211 13.3989 9.63812 12.8052 9.63812C12.2919 9.63812 11.8476 10.0028 11.7489 10.5054C11.6866 10.8229 11.3784 11.0299 11.061 10.9674C10.7434 10.905 10.5366 10.597 10.599 10.2794C10.8054 9.22875 11.7333 8.46619 12.8053 8.46619C14.0451 8.46619 15.0538 9.47487 15.0538 10.7147C15.0538 11.9545 14.0451 12.9631 12.8052 12.9631Z" fill="#6C5475"/>
<path d="M12.8051 16.2881C11.6896 16.2881 10.7323 15.456 10.5783 14.3526C10.564 14.2494 10.5566 14.1442 10.5566 14.0397C10.5566 13.7161 10.819 13.4537 11.1426 13.4537C11.4662 13.4537 11.7286 13.7161 11.7286 14.0397C11.7286 14.0903 11.7321 14.1411 11.739 14.1907C11.8126 14.7183 12.271 15.1163 12.8051 15.1163C13.3988 15.1163 13.8817 14.6333 13.8817 14.0398C13.8817 13.4461 13.3988 12.9632 12.8051 12.9632C12.4815 12.9632 12.2191 12.7009 12.2191 12.3773C12.2191 12.0536 12.4815 11.7913 12.8051 11.7913C14.045 11.7913 15.0536 12.7999 15.0536 14.0398C15.0536 15.2795 14.045 16.2881 12.8051 16.2881Z" fill="#543E5B"/>
<path d="M20.8519 16.2882C20.5283 16.2882 20.2659 16.0258 20.2659 15.7022V14.0402C20.2659 14.0313 20.2661 14.0225 20.2665 14.0138C20.2951 13.3794 20.174 13.2011 20.1362 13.1615C20.0777 13.1003 19.9404 13.0875 19.8355 13.0875C19.6926 13.0875 19.313 13.0875 19.3129 13.7913L19.3121 14.2406C19.3115 14.5638 19.0492 14.8254 18.7261 14.8254C18.7258 14.8254 18.7253 14.8254 18.7249 14.8254C18.4013 14.8248 18.1395 14.5619 18.1401 14.2383L18.141 13.79C18.1411 12.6517 18.8063 11.9155 19.8355 11.9155C20.3205 11.9155 20.7066 12.0623 20.9833 12.3517C21.4341 12.8232 21.4598 13.5453 21.4378 14.053V15.7022C21.4379 16.0258 21.1755 16.2882 20.8519 16.2882Z" fill="#6C5475"/>
<path d="M16.5689 16.2882C16.2453 16.2882 15.9829 16.0258 15.9829 15.7022V12.4329C15.9829 12.1093 16.2452 11.8469 16.5689 11.8469C16.8925 11.8469 17.1548 12.1093 17.1548 12.4329V15.7022C17.1548 16.0259 16.8925 16.2882 16.5689 16.2882Z" fill="#6C5475"/>
<path d="M18.7262 16.2882C18.4026 16.2882 18.1403 16.0258 18.1403 15.7022V14.0846C18.1403 14.0811 18.1403 14.0777 18.1403 14.0742C18.1417 13.9997 18.1413 13.9276 18.1393 13.8599C18.1258 13.4012 18.0399 13.2202 17.9898 13.1531C17.9683 13.1244 17.9283 13.0707 17.7401 13.0707C17.3083 13.0707 17.1551 13.5776 17.1551 14.0116C17.1551 14.3352 16.8928 14.5976 16.5692 14.5976C16.2455 14.5976 15.9832 14.3353 15.9832 14.0116C15.9832 12.7676 16.7057 11.8988 17.7401 11.8988C18.4307 11.8988 19.2638 12.2331 19.3107 13.8254C19.3132 13.9098 19.3137 13.9986 19.3122 14.0896V15.7022C19.3122 16.0259 19.0498 16.2882 18.7262 16.2882Z" fill="#6C5475"/>
<path d="M23.8384 21.9488C23.3816 21.9379 23.2559 21.7289 23.2286 21.5653C23.2204 21.5163 23.1984 21.4721 23.167 21.4368C21.1957 22.9995 18.7051 23.9341 16 23.9341C9.62749 23.9341 4.44311 18.7497 4.44311 12.3772C4.44311 9.71722 5.34699 7.26459 6.86299 5.30928C6.8273 5.26559 6.77687 5.23365 6.71837 5.2209C6.43249 5.15834 6.34612 4.96578 6.32343 4.81778C6.3178 4.7809 6.30387 4.74715 6.28443 4.71753C4.61843 6.82615 3.6228 9.48753 3.6228 12.3773C3.6228 19.2021 9.17518 24.7545 16 24.7545C18.972 24.7544 21.7024 23.7012 23.8384 21.9488Z" fill="#FF4155"/>
<path d="M19.1094 0.93917C19.1094 1.11867 19.2261 1.27755 19.3976 1.33042C23.8462 2.70142 27.1571 6.69123 27.5225 11.4917C27.5389 11.7065 27.716 11.8732 27.9314 11.8732C28.1689 11.8732 28.3587 11.6719 28.3407 11.4351C27.9518 6.2918 24.4062 2.01611 19.6409 0.546545C19.377 0.46517 19.1094 0.66292 19.1094 0.93917Z" fill="#F9A0B1"/>
<path d="M28.3389 11.413C28.2293 9.99783 27.8804 8.64889 27.3332 7.40608C27.2461 7.20839 27.0174 7.11564 26.8165 7.19489L26.8038 7.19989C26.5897 7.28433 26.4916 7.52977 26.5842 7.74046C27.0959 8.90377 27.4214 10.1667 27.5223 11.4916C27.5396 11.7178 27.7351 11.8906 27.9657 11.8716C28.194 11.8529 28.3566 11.6414 28.3389 11.413Z" fill="#FCC0CF"/>
<path d="M11.061 10.9674C11.3784 11.0299 11.6866 10.8229 11.7489 10.5054C11.8073 10.2082 11.9871 9.95999 12.2301 9.80611C12.2298 9.80611 12.2296 9.80605 12.2294 9.80605C11.4521 9.76961 11.4296 8.93799 11.4296 8.93799C11.0111 9.2618 10.7067 9.73124 10.599 10.2794C10.5366 10.5971 10.7434 10.9051 11.061 10.9674Z" fill="#543E5B"/>
<path d="M15.0182 11.1099C14.1287 11.4035 13.8818 10.7146 13.8818 10.7146C13.8818 11.3082 13.3989 11.7911 12.8052 11.7911C12.4816 11.7911 12.2192 12.0535 12.2192 12.3771C12.2192 12.7007 12.4816 12.9631 12.8052 12.9631C13.9102 12.963 14.8308 12.1617 15.0182 11.1099Z" fill="#543E5B"/>
<path d="M17.3275 3.72485H16.1837C16.0596 3.85879 15.9829 4.03723 15.9829 4.23304V4.59242C15.9829 5.00492 16.3204 5.34242 16.7329 5.34242H16.7387L17.5278 4.08748C17.6269 3.92992 17.5137 3.72485 17.3275 3.72485Z" fill="#876D93"/>
<path d="M17.3275 21.0294H16.1837C16.0596 20.8955 15.9829 20.7171 15.9829 20.5212V20.1619C15.9829 19.7494 16.3204 19.4119 16.7329 19.4119H16.7387L17.5278 20.6668C17.6269 20.8244 17.5137 21.0294 17.3275 21.0294Z" fill="#6C5475"/>
<path d="M20.9835 12.3517C20.7069 12.0623 20.3207 11.9155 19.8357 11.9155C19.4114 11.9155 19.0491 12.041 18.7697 12.2678C18.7689 12.2719 18.6007 13.0904 19.5187 13.1773C19.632 13.0876 19.7638 13.0875 19.8357 13.0875C19.9405 13.0875 20.0779 13.1004 20.1364 13.1616C20.1742 13.2012 20.2954 13.3795 20.2667 14.0138C20.2667 14.0138 20.7776 14.7135 21.438 14.0531C21.46 13.5453 21.4343 12.8232 20.9835 12.3517Z" fill="#876D93"/>
</g>
<defs>
<clipPath id="clip0_18203_29827">
<rect width="32" height="32" fill="white"/>
</clipPath>
</defs>
</svg>
