<svg width="32" height="32" viewBox="0 0 32 32" fill="none" xmlns="http://www.w3.org/2000/svg">
<g clip-path="url(#clip0_18203_30008)">
<path d="M30.6255 16.3435C30.6255 7.88657 23.7698 1.03088 15.3128 1.03088C7.09384 1.03082 0.38809 7.50632 0.0170898 15.6336L0.68084 20.6786C0.919027 20.597 1.17165 20.5523 1.43053 20.5521C1.84078 20.5517 2.2029 20.2718 2.3184 19.8781C2.73021 18.4743 4.41503 17.7824 5.69215 18.4867C6.06959 18.6949 6.5374 18.6286 6.83865 18.3203C7.62028 17.5204 8.88853 17.4001 9.80721 18.005C10.2104 18.2705 10.7477 18.2153 11.0622 17.849C11.8433 16.939 13.2597 16.7574 14.2425 17.4908C14.585 17.7464 15.0605 17.7377 15.4048 17.4844C16.3499 16.7893 17.7009 16.918 18.4999 17.7694C18.7958 18.0848 19.279 18.1533 19.6527 17.9359C20.567 17.404 21.7519 17.5628 22.4957 18.3126C22.8027 18.6221 23.2699 18.6979 23.6517 18.4876C24.9283 17.7841 26.62 18.4664 27.0283 19.8794C27.1419 20.2726 27.5043 20.5517 27.9136 20.5521C28.6373 20.5528 29.314 20.8945 29.7523 21.446C29.8251 21.24 29.894 21.0321 29.9581 20.8222H29.9593C29.9612 20.8158 29.963 20.8103 29.9965 20.6972H29.9962C30.4048 19.3171 30.6255 17.8562 30.6255 16.3435Z" fill="#D33C1E"/>
<path d="M27.9135 20.4271C27.5043 20.4267 27.1419 20.1476 27.0282 19.7544C26.6199 18.3414 24.9282 17.6591 23.6517 18.3626C23.2699 18.5729 22.8027 18.4971 22.4957 18.1876C21.7519 17.4377 20.567 17.279 19.6526 17.8109C19.2789 18.0283 18.7957 17.9597 18.4999 17.6444C17.7009 16.7931 16.3499 16.6642 15.4047 17.3594C15.0604 17.6127 14.585 17.6214 14.2424 17.3657C13.2597 16.6324 11.8432 16.814 11.0621 17.724C10.7476 18.0903 10.2103 18.1455 9.80716 17.88C8.88848 17.2751 7.62023 17.3954 6.8386 18.1952C6.53735 18.5036 6.06954 18.5698 5.6921 18.3617C4.41498 17.6574 2.73023 18.3492 2.31835 19.7531C2.20285 20.1467 1.84073 20.4267 1.43048 20.4271C1.16585 20.4273 0.907789 20.4742 0.665039 20.5592L0.722539 20.9962C1.04516 22.0087 1.4696 22.9758 1.98485 23.8847L8.56967 30.094C10.6041 31.0939 12.8925 31.6561 15.3127 31.6561C22.0125 31.6561 27.7053 27.3524 29.7824 21.3594C29.3454 20.7852 28.654 20.4278 27.9135 20.4271Z" fill="#E7522A"/>
<path d="M1.27126 15.6966V11.67C1.26176 11.662 1.2467 11.6515 1.22513 11.641L0.481197 11.282C0.0579471 11.0777 -0.11949 10.569 0.0848221 10.1458C0.289072 9.72264 0.797697 9.54521 1.22095 9.74946L1.96495 10.1085C2.58676 10.4087 2.97301 10.9916 2.97301 11.63V15.6966H1.27126Z" fill="#DAE2FE"/>
<path d="M2.12212 13.8941C1.74587 13.8941 1.42205 13.6729 1.27124 13.3539V15.6966H2.97299V13.3539C2.82212 13.6729 2.49837 13.8941 2.12212 13.8941Z" fill="#BEC8F7"/>
<path d="M0 16.3435C0 16.7342 0.0148125 17.1214 0.0435625 17.5047H4.92244V15.6335H0.0169375C0.0061875 15.8689 0 16.1055 0 16.3435Z" fill="#FFDD40"/>
<path d="M2.00391 15.6335C2.40403 15.6335 2.72834 15.9579 2.72834 16.358V17.5047H4.92259V15.6335H2.00391Z" fill="#FFB332"/>
<path d="M0.723764 21.0058H4.92245V19.1346H0.254639C0.372201 19.7731 0.529576 20.3976 0.723764 21.0058Z" fill="#FFDD40"/>
<path d="M2.72834 19.1346V20.2813C2.72834 20.6814 2.40403 21.0058 2.00391 21.0058H4.92259V19.1346H2.72834Z" fill="#FFB332"/>
<path d="M0.262385 19.1742H4.92264V17.4651H0.0412598C0.0831973 18.0443 0.15776 18.6145 0.262385 19.1742Z" fill="#4F71B6"/>
<path d="M2.72827 17.4651H4.92252V19.1743H2.72827V17.4651Z" fill="#3C58A0"/>
<path d="M12.472 20.9069V23.5689C9.97099 22.9316 7.36062 22.9316 4.85962 23.5689V20.9069H12.472Z" fill="#FFDD40"/>
<path d="M8.29962 21.915C8.29962 21.4908 8.52118 21.1191 8.85424 20.9069C7.00131 20.9069 5.08962 20.9069 4.85962 20.9069V23.5689C6.35249 23.1885 7.88424 23.0354 9.40849 23.109C8.79931 23.0682 8.29962 22.5555 8.29962 21.915Z" fill="#FFB332"/>
<path d="M12.5951 12.9237L12.0586 12.0456C11.8543 11.7112 11.4908 11.5073 11.0989 11.5073H7.28857L12.7115 5.68018C12.5352 6.0003 12.4345 6.36724 12.4345 6.75668C12.4345 7.99136 13.4447 9.00155 14.6794 9.00155C15.1121 9.00155 15.5171 8.87711 15.8608 8.66274L12.6115 12.9522L12.5951 12.9237Z" fill="#FFC839"/>
<path d="M13.7668 8.86743L13.7715 8.80799C12.9859 8.45755 12.4345 7.66861 12.4345 6.75668C12.4345 6.36724 12.5352 6.0003 12.7115 5.68018L7.28857 11.5072H11.0989C11.1022 11.5072 11.1053 11.5076 11.1086 11.5076C10.9546 10.8882 11.29 10.5506 11.29 10.5506C11.29 10.5506 11.6338 10.1131 12.2275 9.31611C12.8213 8.5193 13.7668 8.86743 13.7668 8.86743Z" fill="#FFB332"/>
<path d="M20.4706 2.78918C20.3617 2.5543 20.4639 2.27562 20.6987 2.16674L23.4945 0.87049C23.7295 0.761615 24.0081 0.86374 24.117 1.09855C24.2258 1.33343 24.1236 1.61212 23.8888 1.72099L21.093 3.01724C20.8591 3.12574 20.5799 3.02493 20.4706 2.78918Z" fill="#E9EFFF"/>
<path d="M29.893 19.3213C29.6559 19.2172 29.5481 18.9407 29.6522 18.7037L31.1019 15.401C31.206 15.164 31.4824 15.0562 31.7196 15.1602C31.9566 15.2643 32.0644 15.5408 31.9604 15.7779L30.5107 19.0805C30.4064 19.3178 30.13 19.4252 29.893 19.3213Z" fill="#BEC8F7"/>
<path d="M31.0809 15.7194L30.017 12.0294C29.9453 11.7806 30.0887 11.5208 30.3375 11.4491C30.5861 11.3774 30.8461 11.5209 30.9177 11.7696L31.9817 15.4597C32.0534 15.7085 31.9099 15.9683 31.6612 16.04C31.4114 16.112 31.1524 15.9671 31.0809 15.7194Z" fill="#E9EFFF"/>
<path d="M16.7981 6.78098C16.7981 6.3081 16.6513 5.86804 16.4014 5.50354H22.8997L22.8967 5.52285C22.8415 5.88135 22.8649 6.24754 22.9652 6.5961L23.3308 7.86554C23.3496 7.93079 23.3719 7.99491 23.3959 8.05841H16.4014C16.6513 7.69391 16.7981 7.25379 16.7981 6.78098Z" fill="#FFB332"/>
<path d="M22.8998 5.50354H19.9993C20.4861 5.72304 20.8253 6.21223 20.8253 6.78098C20.8253 7.34973 20.4861 7.83891 19.9993 8.05841H23.396C23.372 7.99498 23.3496 7.93085 23.3308 7.86554L22.9653 6.5961C22.8649 6.24754 22.8415 5.88135 22.8968 5.52285L22.8998 5.50354Z" fill="#FF9100"/>
<path d="M14.8281 4.59536C14.9114 4.47592 15.0257 4.37579 15.1672 4.31011L20.0099 2.06498C20.4366 1.86729 20.9421 2.05273 21.1398 2.47904C21.3374 2.90542 21.152 3.41123 20.7257 3.60892L16.4254 5.60261C16.071 5.06411 15.4941 4.68404 14.8281 4.59536Z" fill="#FFC839"/>
<path d="M17.5358 3.6814C17.5358 3.47696 17.5999 3.28777 17.7086 3.13184L15.1672 4.31002C15.0256 4.37571 14.9114 4.47584 14.8281 4.59527C15.4941 4.68396 16.071 5.06409 16.4255 5.60252L18.4928 4.64409C17.9637 4.64084 17.5358 4.21121 17.5358 3.6814Z" fill="#FFB332"/>
<path d="M30.5107 12.0499C30.8452 11.9534 31.0381 11.6041 30.9417 11.2696L28.408 2.48181C28.3116 2.14737 27.9621 1.95443 27.6277 2.05081C27.2932 2.14725 27.1003 2.49656 27.1967 2.83106L29.7305 11.6189C29.8261 11.9506 30.1733 12.1471 30.5107 12.0499Z" fill="#FFDD40"/>
<path d="M28.5934 5.26793C28.8368 5.19774 29.0872 5.26862 29.2585 5.43162L28.408 2.48193C28.3116 2.14749 27.9621 1.95456 27.6277 2.05093C27.2932 2.14737 27.1003 2.49668 27.1967 2.83118L28.0971 5.95399C28.0857 5.64556 28.2835 5.35724 28.5934 5.26793Z" fill="#FFB332"/>
<path d="M28.0926 2.95854H25.9293L25.4006 1.12248C25.3979 1.11298 25.3941 1.1041 25.3911 1.09473H28.0926C28.6073 1.09473 29.0245 1.51198 29.0245 2.02666C29.0245 2.54135 28.6072 2.95854 28.0926 2.95854Z" fill="#4F71B6"/>
<path d="M27.1724 2.02654C27.1724 1.51385 27.5866 1.0981 28.0985 1.09492C28.0965 1.09492 28.0946 1.0946 28.0926 1.0946H25.3911C25.3941 1.10398 25.3979 1.11285 25.4006 1.12235L25.9293 2.95842H28.0926C28.0946 2.95842 28.0964 2.9581 28.0984 2.9581C27.5865 2.95498 27.1724 2.53929 27.1724 2.02654Z" fill="#3C58A0"/>
<path d="M30.1236 18.1557L28.5526 17.8598L28.4623 17.6929C28.4848 17.6041 28.5078 17.4829 28.5078 17.3321C28.5078 16.6897 28.0921 16.1429 27.5158 15.9456L23.4093 8.36488C23.3234 8.20625 23.2549 8.03881 23.205 7.8655L22.8394 6.59606C22.739 6.2475 22.7156 5.88131 22.7709 5.52281L23.428 1.25644C23.4919 0.841689 23.7909 0.501876 24.1941 0.385814C24.7655 0.221314 25.3621 0.551064 25.5266 1.12244L30.4673 18.2805C30.362 18.2215 30.2464 18.1789 30.1236 18.1557Z" fill="#FFC839"/>
<path d="M28.5077 17.3321C28.5077 17.4829 28.4846 17.604 28.4622 17.6928L28.5526 17.8597L30.1235 18.1557C30.2463 18.1788 30.3619 18.2215 30.4672 18.2805L29.6761 15.5327C28.5676 15.914 28.2431 14.9569 28.2431 14.9569C28.2431 14.9569 25.9931 8.92565 25.1493 6.78084C24.5607 5.28471 25.7143 4.63871 26.466 4.38478L25.5266 1.12234C25.3621 0.550964 24.7655 0.221152 24.1941 0.385714C23.7909 0.501839 23.4919 0.841652 23.428 1.25634L22.7709 5.52271C22.7156 5.88121 22.7391 6.2474 22.8394 6.59596L23.2049 7.8654C23.2549 8.03871 23.3234 8.20615 23.4093 8.36478L27.5157 15.9455C28.0921 16.143 28.5077 16.6897 28.5077 17.3321Z" fill="#FFB332"/>
<path d="M22.0551 23.2611H22.5212C23.5496 23.2611 24.5603 22.9501 25.3878 22.3396C25.8744 21.9806 26.3259 21.5021 26.563 20.8796C26.8491 20.1286 26.8398 19.3798 26.734 18.7646C26.8335 18.786 26.9366 18.7976 27.0424 18.7976C27.7074 18.7976 28.2701 18.3521 28.4485 17.7439L30.141 18.0628C30.5524 18.1403 30.8955 18.423 31.0505 18.8118L31.7165 20.4838C32.1814 21.6507 31.7607 22.9911 30.7006 23.6649C30.0364 24.0871 29.1749 24.4271 28.123 24.4271H22.0551C21.7684 24.4271 21.6079 24.2208 21.6141 24.2255C21.2875 23.8479 21.5558 23.2611 22.0551 23.2611Z" fill="#4F71B6"/>
<path d="M30.141 18.0628L28.4485 17.7439C28.2701 18.3521 27.7074 18.7976 27.0424 18.7976C26.9366 18.7976 26.8335 18.786 26.734 18.7646C26.8398 19.3798 26.8491 20.1286 26.563 20.8796C26.3258 21.5021 25.8744 21.9806 25.3878 22.3396C24.5603 22.9501 23.5496 23.2611 22.5212 23.2611H22.0551C21.5558 23.2611 21.2875 23.8479 21.6141 24.2255C21.6078 24.2208 21.7683 24.4271 22.0551 24.4271H26.8125C26.4432 23.8618 26.5325 23.0287 27.2847 22.7278C28.3264 22.3111 28.743 20.957 28.743 19.6086C28.743 18.6262 29.9921 18.3706 30.6705 18.304C30.5182 18.1841 30.3376 18.0999 30.141 18.0628Z" fill="#3C58A0"/>
<path d="M28.3803 18.1583C28.83 17.4234 28.5989 16.4631 27.864 16.0134C27.1291 15.5637 26.1688 15.7948 25.7191 16.5297C25.2694 17.2646 25.5005 18.2249 26.2354 18.6746C26.9703 19.1244 27.9306 18.8932 28.3803 18.1583Z" fill="#FFDD40"/>
<path d="M27.0424 18.0858C27.4732 18.0858 27.8225 17.7365 27.8225 17.3058C27.8225 16.875 27.4732 16.5258 27.0424 16.5258C26.6117 16.5258 26.2625 16.875 26.2625 17.3058C26.2625 17.7365 26.6117 18.0858 27.0424 18.0858Z" fill="#FFE98D"/>
<path d="M14.6553 9.04997C15.9033 9.04997 16.9244 8.0289 16.9244 6.7809C16.9244 5.53297 15.9033 4.51184 14.6553 4.51184C13.4074 4.51184 12.3862 5.5329 12.3862 6.7809C12.3863 8.0289 13.4074 9.04997 14.6553 9.04997Z" fill="#FFDD40"/>
<path d="M14.6553 8.03768C15.3466 8.03768 15.9122 7.47211 15.9122 6.7808C15.9122 6.08955 15.3466 5.52393 14.6553 5.52393C13.9641 5.52393 13.3984 6.08949 13.3984 6.7808C13.3985 7.47211 13.9641 8.03768 14.6553 8.03768Z" fill="#FFE98D"/>
<path d="M5.75693 11.4443H6.66643V15.768C6.66643 15.9752 6.75506 16.1725 6.90987 16.3101L8.69206 17.8943C8.84687 18.0319 8.93549 18.2292 8.93549 18.4363V21.0057H4.85962V12.3416C4.85962 11.8461 5.26137 11.4443 5.75693 11.4443Z" fill="#FF9100"/>
<path d="M11.1619 11.4443C11.5537 11.4443 11.9172 11.6483 12.1215 11.9826L12.6581 12.8607L14.9262 16.8055C14.9286 16.8354 14.9302 16.8654 14.9302 16.8955V19.8811C14.9302 20.5022 14.4267 21.0057 13.8056 21.0057H8.80935V18.4363C8.80935 18.2291 8.72078 18.0319 8.56591 17.8943L6.78372 16.3101C6.62891 16.1725 6.54028 15.9751 6.54028 15.768V11.4443H11.1619Z" fill="#FFDD40"/>
<path d="M11.173 21.0057C9.97778 19.617 11.173 18.6109 11.173 18.6109L11.2963 17.6903C10.9663 17.121 11.4515 16.8055 11.4515 16.8055C10.1285 16.3625 9.70147 14.5611 9.48372 13.9048C9.26597 13.2486 9.85328 12.8607 9.85328 12.8607C9.02172 12.0291 9.85328 11.4443 9.85328 11.4443H6.54028V15.768C6.54028 15.9752 6.62885 16.1725 6.78372 16.3101L8.56591 17.8943C8.72072 18.0319 8.80935 18.2292 8.80935 18.4363V21.0057H11.173Z" fill="#FFB332"/>
<path d="M8.63073 12.8607H12.6582L14.7653 16.3092C14.8575 16.46 14.9122 16.6302 14.9263 16.8055H9.80941C9.68479 16.8055 9.56485 16.758 9.47416 16.6726L8.29548 15.5632C8.19723 15.4708 8.1416 15.3418 8.1416 15.207V13.3498C8.14154 13.0797 8.36054 12.8607 8.63073 12.8607Z" fill="#E9EFFF"/>
<path d="M9.48355 13.9048C9.26586 13.2487 9.85298 12.8608 9.85311 12.8607H8.63055C8.36036 12.8607 8.14136 13.0797 8.14136 13.3499V15.207C8.14136 15.3419 8.19705 15.4708 8.29523 15.5633L9.47392 16.6727C9.56467 16.758 9.68455 16.8056 9.80917 16.8056H11.4512C10.1284 16.3625 9.7013 14.5611 9.48355 13.9048Z" fill="#BEC8F7"/>
<path d="M11.1729 18.6108H10.322C10.0631 18.6108 9.85327 18.401 9.85327 18.1421C9.85327 17.8832 10.0631 17.6733 10.322 17.6733H11.1729C11.4318 17.6733 11.6416 17.8832 11.6416 18.1421C11.6416 18.401 11.4318 18.6108 11.1729 18.6108Z" fill="#FF9100"/>
<path d="M18.584 25.3246C17.1327 24.9885 15.7194 24.4933 13.7264 23.8516C10.4335 22.7825 6.88679 22.7825 3.59392 23.8516C3.10292 24.0098 2.6501 24.1579 2.22485 24.2965C3.5666 26.4998 5.44898 28.3378 7.68792 29.6258H18.0451C19.2322 29.6258 20.2357 28.695 20.2682 27.5083C20.2973 26.448 19.5685 25.5526 18.584 25.3246Z" fill="#2A428C"/>
<path d="M13.7264 23.8516C12.1 23.3235 10.4117 23.0568 8.72262 23.0504L8.54688 23.5146C8.54688 23.5146 9.504 24.3114 8.54688 25.2685V25.5611H16.8359V24.85C15.9198 24.5722 14.9289 24.2389 13.7264 23.8516Z" fill="#1C2E7A"/>
<path d="M7.68795 29.6257H18.0904V29.6206C16.9533 29.5476 16.0535 28.6026 16.0535 27.4471C16.0535 26.2915 16.9533 25.3466 18.0904 25.2735V25.2684H2.86938C4.14363 27.0419 5.78707 28.5322 7.68795 29.6257Z" fill="#4F71B6"/>
<path d="M8.4487 25.2684H2.86938C3.97301 26.8044 5.35395 28.1274 6.93888 29.1648L8.33351 28.6661C8.46151 28.6203 8.54695 28.499 8.54695 28.3631C8.54695 28.2891 8.52107 28.2171 8.4742 28.1599C7.97482 27.5491 8.18588 27.0726 8.3737 26.829C8.45776 26.72 8.45982 26.5671 8.38132 26.454C8.0842 26.0255 8.2412 25.6549 8.38888 25.4469C8.42701 25.3931 8.44657 25.3308 8.4487 25.2684Z" fill="#3C58A0"/>
<path d="M7.46563 24.6525C7.6849 24.1301 7.43916 23.5288 6.91675 23.3095C6.39433 23.0903 5.79307 23.336 5.5738 23.8584C5.35452 24.3808 5.60026 24.9821 6.12267 25.2014C6.64509 25.4206 7.24635 25.1749 7.46563 24.6525Z" fill="#4F71B6"/>
<path d="M11.7415 24.6538C11.9608 24.1314 11.715 23.5302 11.1926 23.3109C10.6702 23.0916 10.069 23.3373 9.84967 23.8597C9.6304 24.3822 9.87614 24.9834 10.3986 25.2027C10.921 25.422 11.5222 25.1762 11.7415 24.6538Z" fill="#6289CC"/>
<path d="M18.0905 29.6259C19.2937 29.6259 20.2691 28.6505 20.2691 27.4473C20.2691 26.2441 19.2937 25.2687 18.0905 25.2687C16.8873 25.2687 15.9119 26.2441 15.9119 27.4473C15.9119 28.6505 16.8873 29.6259 18.0905 29.6259Z" fill="#6289CC"/>
<path d="M13.8819 26.6501H3.98804C4.50985 27.2232 5.07516 27.7558 5.67772 28.2443H13.882C14.3211 28.2443 14.6723 27.8875 14.6721 27.4496C14.6722 26.9985 14.3144 26.6501 13.8819 26.6501Z" fill="#6289CC"/>
<path d="M8.43785 26.65H3.98804C4.50985 27.2231 5.07516 27.7557 5.67772 28.2442H8.52316C8.51104 28.214 8.4951 28.1853 8.47429 28.1599C7.97491 27.5492 8.18597 27.0727 8.37379 26.829C8.41429 26.7765 8.43529 26.7136 8.43785 26.65Z" fill="#4F71B6"/>
<path d="M18.6899 24.868C17.26 24.5368 15.855 24.0445 13.8712 23.4058C10.462 22.2989 6.85817 22.2989 3.4503 23.4054C2.92161 23.5756 2.43661 23.7346 1.98242 23.8825C2.14105 24.1623 2.30836 24.4366 2.48373 24.7051C2.87705 24.5768 3.29286 24.441 3.73873 24.2975C6.95842 23.2521 10.362 23.2521 13.5827 24.2978C15.5857 24.9428 17.0027 25.4395 18.4783 25.7813C19.2662 25.9638 19.8219 26.6848 19.7997 27.4955C19.7745 28.4117 18.9875 29.157 18.0451 29.157H9.18442C9.19542 29.2417 9.20136 29.3282 9.20136 29.4163C9.20136 29.6562 9.15886 29.885 9.08236 30.0945H18.0451C19.4904 30.0945 20.6979 28.9401 20.7368 27.5212C20.7712 26.2665 19.9104 25.1506 18.6899 24.868Z" fill="#79A4E2"/>
<path d="M19.0372 27.8616C19.2564 27.3392 19.0107 26.7379 18.4883 26.5186C17.9659 26.2994 17.3646 26.5451 17.1453 27.0675C16.9261 27.5899 17.1718 28.1912 17.6942 28.4105C18.2166 28.6297 18.8179 28.384 19.0372 27.8616Z" fill="#4F71B6"/>
<path d="M22.4957 29.0836C21.7519 28.3337 20.567 28.175 19.6526 28.7069C19.2789 28.9242 18.7958 28.8557 18.4999 28.5404C17.7009 27.6891 16.3499 27.5602 15.4048 28.2554C15.0604 28.5087 14.585 28.5174 14.2424 28.2617C13.2597 27.5284 11.8433 27.71 11.0621 28.62C10.7476 28.9863 10.2103 29.0414 9.80719 28.776C9.01701 28.2557 7.96857 28.2724 7.19326 28.7961L6.81226 29.0817C6.82257 29.0861 10.21 31.6561 15.3128 31.6561C18.2758 31.6561 21.0414 30.8139 23.3848 29.3567C23.0684 29.4224 22.7338 29.3237 22.4957 29.0836Z" fill="#F76D52"/>
<path d="M15.3043 29.7174C15.7299 29.7553 16.1302 29.4985 16.2905 29.1023C16.5095 28.5609 16.9214 28.1407 17.4188 27.8927C16.7448 27.7082 15.9954 27.8208 15.4048 28.2554C15.0604 28.5086 14.585 28.5173 14.2424 28.2617C13.2597 27.5284 11.8433 27.7099 11.0621 28.6199C10.7476 28.9862 10.2103 29.0414 9.80719 28.7759C9.01701 28.2556 7.96857 28.2724 7.19326 28.796L6.81226 29.0817C6.82082 29.0853 9.14269 30.8463 12.8358 31.4532C13.1241 30.3888 14.1659 29.6159 15.3043 29.7174Z" fill="#E7522A"/>
<path d="M8.54767 23.514C8.07698 23.0433 8.46923 22.6062 8.49617 22.5773C6.79786 22.594 5.10105 22.8695 3.4503 23.4055C2.92161 23.5757 2.43661 23.7346 1.98242 23.8825C2.14105 24.1624 2.30836 24.4366 2.48373 24.7052C2.87705 24.5769 3.29286 24.441 3.73873 24.2975C5.3118 23.7868 6.9288 23.5263 8.54692 23.5146L8.54767 23.514Z" fill="#6289CC"/>
</g>
<defs>
<clipPath id="clip0_18203_30008">
<rect width="32" height="32" fill="white"/>
</clipPath>
</defs>
</svg>
