<svg width="36" height="36" viewBox="0 0 36 36" fill="none" xmlns="http://www.w3.org/2000/svg">
<g clip-path="url(#clip0_10368_7492)">
<path d="M4.11182 8.58005C4.11182 8.58005 11.0445 15.4252 17.9756 15.4252C24.9065 15.4252 31.9283 8.63475 31.9284 8.63468C28.7956 4.33831 23.7244 1.54562 18.0002 1.54562C12.3001 1.54562 7.24757 4.31462 4.11182 8.58005Z" fill="#27A6FF"/>
<path d="M31.6514 3.97824C31.6032 2.8935 30.611 2.05028 29.5369 2.17474C29.4265 2.18754 29.3213 2.12566 29.2855 2.0204C28.8685 0.794322 27.8007 0.0974334 26.6833 0.00939941L26.6716 0.0226186C25.7958 0.910974 25.4678 2.32458 26.198 3.60375C26.2459 3.68756 26.2348 3.79149 26.1745 3.86679C25.6887 4.47241 25.5752 5.27084 25.8206 5.96794H29.7506C30.8303 5.96787 31.6999 5.06861 31.6514 3.97824Z" fill="#3F57A0"/>
<path d="M26.3151 3.86679C26.3755 3.79148 26.3865 3.68748 26.3386 3.60374C25.6084 2.32464 25.9364 0.911038 26.8122 0.0226122C25.7116 -0.110986 24.54 0.347607 23.8793 1.47918C23.8307 1.56257 23.7351 1.60497 23.6397 1.59028C22.5535 1.42335 21.505 2.09514 21.1997 3.1571C21.1669 3.27136 21.0593 3.34554 20.9412 3.33127C20.1952 3.24106 19.5114 3.81743 19.4666 4.56325C19.4204 5.33088 20.0294 5.96786 20.7871 5.96786H25.9613C25.7159 5.27083 25.8293 4.47234 26.3151 3.86679Z" fill="#2A428B"/>
<path d="M27.3993 9.77692C27.33 8.62319 26.2723 7.7316 25.1182 7.87118C24.9357 7.89319 24.7692 7.77843 24.7184 7.60173C24.2462 5.95904 22.6242 4.91986 20.9438 5.17813C20.7963 5.20077 20.6484 5.13516 20.5732 5.00621C19.9778 3.9865 19.1142 3.31971 18.1603 2.98135C17.2446 4.45634 17.1016 6.4125 18.1812 8.10322C18.2775 8.2539 18.2495 8.44818 18.1225 8.57404C17.4699 9.22066 17.1806 10.1098 17.2455 10.9744C18.3117 11.261 19.5145 10.9281 20.2622 9.97359C21.4345 8.47708 23.6632 8.39847 24.8593 9.87599L24.9719 10.015C25.509 10.6785 26.2657 11.0291 27.036 11.073C27.2897 10.7096 27.4284 10.26 27.3993 9.77692Z" fill="#5071B7"/>
<path d="M18.2034 8.56547C18.3255 8.44446 18.3525 8.25756 18.2599 8.11264C17.1869 6.43219 17.3695 4.47906 18.3307 3.04598C16.0264 2.1219 13.1189 3.171 12.21 5.84331C12.1547 6.00616 11.9919 6.10185 11.8211 6.0821C10.1595 5.88957 8.62472 7.19391 8.55011 8.8719C8.51257 9.71561 8.83046 10.4853 9.36654 11.0439C10.0058 10.914 10.6085 10.5636 11.0479 9.9897L11.0708 9.95974C12.2328 8.44207 14.5132 8.42512 15.6976 9.92536L15.698 9.92578C16.1332 10.505 16.7327 10.8645 17.3721 11.0057C17.2684 10.1336 17.5426 9.22031 18.2034 8.56547Z" fill="#3F57A0"/>
<path d="M31.9283 8.63468C31.0233 8.59509 30.1029 8.97844 29.5011 9.78467L29.5004 9.78552C28.3812 11.2849 26.1492 11.3287 24.972 9.87446L24.8595 9.73545C23.6634 8.25793 21.4346 8.33654 20.2624 9.83298C19.5018 10.8038 18.2706 11.1324 17.1911 10.8194L17.2193 10.8554C17.0392 11.0504 16.5651 11.6331 16.5874 12.34C16.6016 12.7875 16.812 13.1975 17.2135 13.5599C17.0804 13.7383 16.803 14.1777 16.8804 14.6569C16.9366 15.0048 17.1663 15.2976 17.5633 15.527C18.5645 16.1058 18.3812 21.0662 18.2261 22.9287L18.223 22.966L22.3506 29.002C22.3191 29.1704 22.2426 29.7437 22.5674 30.1565C22.7681 30.4116 23.0797 30.5532 23.4946 30.5784C23.3881 30.9998 23.1412 32.3244 23.8744 33.4648C24.1489 33.8916 24.5298 34.2407 25.0118 34.5125C31.0314 31.8268 35.2274 25.7902 35.2274 18.7729C35.2274 14.9828 34.0026 11.4793 31.9283 8.63468Z" fill="#3F57A0"/>
<path d="M23.6317 30.477C22.0997 30.477 22.4623 28.9795 22.4623 28.9795L18.3305 22.9374C18.3305 22.9374 18.8939 16.1747 17.6153 15.4357C16.3367 14.6966 17.3583 13.5467 17.3583 13.5467C15.8579 12.2897 17.3583 10.8629 17.3583 10.8629L17.3578 10.8623C16.7237 10.719 16.1299 10.3603 15.6978 9.78524L15.6974 9.78482C14.513 8.28459 12.2326 8.30153 11.0706 9.81921L11.0477 9.84916C9.89231 11.3583 7.60877 11.3263 6.49597 9.78553L6.45941 9.7349C5.88473 8.93922 4.99307 8.55347 4.11111 8.58005C2.01278 11.4344 0.772217 14.9585 0.772217 18.7729C0.772217 28.2872 8.48511 36.0001 17.9995 36.0001C20.5433 36.0001 22.9581 35.4483 25.1314 34.4585C22.7598 33.1839 23.6317 30.477 23.6317 30.477Z" fill="#2A428B"/>
<path d="M17.2132 13.5599C17.0801 13.7382 16.8027 14.1777 16.8801 14.6569C16.9363 15.0048 17.166 15.2975 17.5629 15.527C18.5642 16.1057 18.3809 21.0661 18.2258 22.9286L18.2227 22.966L22.3503 29.002C22.3187 29.1704 22.2423 29.7437 22.5671 30.1565C22.7676 30.4114 23.0788 30.5529 23.4932 30.5783C25.866 28.8697 27.4111 26.0836 27.4111 22.9364C27.4111 17.7386 23.1975 13.525 17.9998 13.525C17.7341 13.525 17.4713 13.5366 17.2112 13.5582C17.212 13.5587 17.2126 13.5593 17.2132 13.5599Z" fill="#FFD402"/>
<path d="M23.6316 30.477C22.0996 30.477 22.4623 28.9795 22.4623 28.9795L18.3304 22.9374C18.3304 22.9374 18.8939 16.1747 17.6153 15.4357C16.3429 14.7002 17.3479 13.5584 17.3579 13.5472C12.4595 13.8771 8.58813 17.9543 8.58813 22.9363C8.58813 28.1341 12.8017 32.3477 17.9995 32.3477C20.1115 32.3476 22.0611 31.6518 23.6316 30.477Z" fill="#FEA53D"/>
<path d="M20.0042 19.4647C18.0899 18.3596 15.6335 19.0178 14.5284 20.932C13.4216 22.8491 14.0784 25.3009 15.9956 26.4078C17.9353 27.5276 20.3775 26.8353 21.4714 24.9406C22.5782 23.0236 21.9216 20.5717 20.0042 19.4647Z" fill="#FFFBB3"/>
<path d="M7.17595 16.6544C7.979 16.2601 8.31028 15.2893 7.9159 14.4863C7.52151 13.6832 6.5508 13.3519 5.74775 13.7462C4.9447 14.1406 4.61341 15.1113 5.0078 15.9144C5.40219 16.7175 6.3729 17.0488 7.17595 16.6544Z" fill="#5071B7"/>
<path d="M28.9833 17.4858C28.7299 18.4799 29.3304 19.4912 30.3245 19.7446C31.3186 19.9979 32.3298 19.3974 32.5832 18.4033C32.8365 17.4092 32.236 16.3979 31.2419 16.1446C30.248 15.8912 29.2367 16.4917 28.9833 17.4858Z" fill="#5071B7"/>
<path d="M3.70228 21.2776C3.54274 21.9037 3.92089 22.5406 4.54697 22.7001C5.17306 22.8597 5.80997 22.4815 5.96951 21.8554C6.12906 21.2294 5.7509 20.5924 5.12482 20.4329C4.49874 20.2733 3.86183 20.6515 3.70228 21.2776Z" fill="#5071B7"/>
<path d="M17.7426 15.4302C16.7976 15.4641 15.8665 15.6754 15.0013 16.0509C14.5853 16.2314 14.4181 16.7332 14.6448 17.1259L16.9978 21.2012C17.5966 20.8568 18.3584 20.8289 19.0018 21.2003L20.0455 19.3926C17.0971 19.3184 17.6429 15.9414 17.7426 15.4302Z" fill="#2A428B"/>
<path d="M15.9956 22.9362H11.2902C10.8368 22.9362 10.4859 23.332 10.5375 23.7825C10.7697 25.8075 11.8184 27.7167 13.5434 28.9854C13.9049 29.2514 14.4185 29.1387 14.6429 28.7501L16.9973 24.6723C16.3554 24.3017 15.9965 23.6284 15.9956 22.9362Z" fill="#1D2E79"/>
<path d="M22.7496 25.5032C21.3114 24.9404 21.9558 23.2942 22.1162 22.9363H20.0034C20.0038 23.2772 19.918 23.6225 19.7354 23.9386C19.553 24.2545 19.2968 24.5015 19.0012 24.6714L21.3554 28.749C21.5816 29.1408 22.098 29.2477 22.4623 28.9795C23.271 28.3842 23.9724 27.6166 24.5058 26.6927C24.6598 26.426 24.7949 26.1535 24.9127 25.877C24.3944 25.9 23.6274 25.8467 22.7496 25.5032Z" fill="#3F57A0"/>
<path d="M20.0667 23.3396C20.2927 22.1964 19.5492 21.0864 18.406 20.8603C17.2628 20.6342 16.1528 21.3777 15.9267 22.5209C15.7006 23.6641 16.4441 24.7742 17.5873 25.0003C18.7305 25.2263 19.8406 24.4829 20.0667 23.3396Z" fill="#5071B7"/>
<path d="M24.7116 22.9362H22.0086C22.0086 22.9363 20.9918 24.9406 22.6091 25.5734C23.5531 25.9428 24.3691 25.9767 24.8854 25.9409C25.1918 25.24 25.383 24.5117 25.4646 23.7795C25.5148 23.3301 25.1639 22.9362 24.7116 22.9362Z" fill="#5071B7"/>
<path d="M20.0042 19.4647L21.3565 17.1225C21.5809 16.7339 21.4216 16.2327 21.0105 16.0526C19.9159 15.5729 18.754 15.3757 17.6157 15.4358C17.6141 15.443 16.6989 19.4647 20.0042 19.4647Z" fill="#3F57A0"/>
</g>
<defs>
<clipPath id="clip0_10368_7492">
<rect width="36" height="36" fill="white"/>
</clipPath>
</defs>
</svg>
