<svg width="32" height="32" viewBox="0 0 32 32" fill="none" xmlns="http://www.w3.org/2000/svg">
<g clip-path="url(#clip0_16708_25394)">
<path d="M32.0003 16C32.0003 7.16342 24.8369 0 16.0003 0C9.84306 0 6.05018 3.47307 6.0397 3.4789C6.0397 3.4789 5.88202 3.67573 5.85253 3.80656C5.61297 4.86996 5.38916 6.29522 5.38916 7.33522C5.38916 16.1718 12.841 23.3335 21.6775 23.3335C25.0803 23.3335 28.8661 21.7026 31.3998 19.7417C31.4565 19.6979 31.6363 19.4032 31.6363 19.4032C31.6475 19.335 32.0003 17.9302 32.0003 16Z" fill="#AFE6FF"/>
<path d="M5.67738 6.8818C5.67738 5.7138 5.80331 4.57573 6.04099 3.47888C3.25385 5.69931 1.22549 8.83123 0.404785 12.423L6.69705 12.5113C6.03854 10.76 5.67738 8.86323 5.67738 6.8818Z" fill="#9DC6FB"/>
<path d="M26.1494 22.2475V28.3684C28.8754 26.131 30.8569 23.0049 31.6372 19.4032C30.0309 20.6827 28.1728 21.6593 26.1494 22.2475Z" fill="#9DC6FB"/>
<path d="M23.3407 29.6288H9.70491L7.96863 29.84C10.3292 31.213 13.0728 32 16.0005 32C18.9154 32 21.6619 31.2158 24.0297 29.8398L23.3407 29.6288Z" fill="#6E64C3"/>
<path d="M23.2763 10.0668C22.5544 10.0668 21.911 9.62555 21.6355 8.95825C21.6325 8.95097 21.6295 8.94363 21.6264 8.93636C21.3485 8.26831 21.4895 7.49974 22.0011 6.98806L22.5249 6.46426L19.3913 3.33058L18.8675 3.85444C18.3558 4.36607 17.5873 4.50712 16.9192 4.22916C16.9119 4.22614 16.9047 4.22313 16.8974 4.22012C16.2301 3.94461 15.7888 3.30128 15.7888 2.57934V1.83838H11.3572V2.57927C11.3572 3.30122 10.9159 3.94454 10.2485 4.22006C10.2413 4.22307 10.234 4.22608 10.2267 4.22909C9.55866 4.50705 8.79003 4.36607 8.27841 3.85438L7.75461 3.33058L6.23254 8.72453L7.64688 18.2458L19.0849 19.1095L22.5249 18.101L22.0011 17.5772C21.4895 17.0655 21.3485 16.2969 21.6264 15.6289C21.6294 15.6216 21.6325 15.6143 21.6355 15.607C21.911 14.9397 22.5543 14.4984 23.2762 14.4984H24.0172V10.0668L23.2763 10.0668ZM14.3558 16.3807L13.868 16.5179C10.871 17.3606 8.23863 14.3469 9.47665 11.4904C9.85714 9.51148 11.636 8.03 13.7447 8.11465C15.9035 8.2013 17.6559 9.95502 17.7411 12.1138C17.8243 14.2246 16.3385 16.0043 14.3558 16.3807Z" fill="#528ECB"/>
<path d="M13.5726 5.72766C11.3585 5.72766 9.40101 6.82545 8.21438 8.50645L7.96948 10.5656L9.47762 11.4908C9.84776 9.5659 11.5398 8.11135 13.5727 8.11135C15.8765 8.11135 17.7441 9.97896 17.7441 12.2828C17.7441 14.319 16.2848 16.0132 14.3553 16.3796L15.3819 17.8081L17.3363 17.65C19.0245 16.4642 20.1278 14.5024 20.1278 12.2828C20.1277 8.6625 17.1929 5.72766 13.5726 5.72766Z" fill="#4A80AA"/>
<path d="M21.0247 18.1676C18.5948 18.1676 16.317 17.5165 14.3558 16.3798C11.4559 16.9304 8.92103 14.3861 9.47777 11.4907C8.3508 9.53561 7.70591 7.26757 7.70591 4.84887C7.70591 4.34703 7.73465 3.85204 7.78867 3.36463L7.75473 3.33069L4.62111 6.46437L5.14491 6.98816C5.65659 7.49979 5.79758 8.26841 5.51962 8.93646C5.51661 8.94374 5.5136 8.95102 5.51058 8.9583C5.23507 9.62559 4.59175 10.0669 3.8698 10.0669H3.12891V14.4985H3.8698C4.59175 14.4985 5.23507 14.9398 5.51058 15.6071C5.5136 15.6144 5.51661 15.6216 5.51962 15.629C5.79758 16.297 5.65653 17.0656 5.14491 17.5773L4.62111 18.1011L7.75473 21.2348L8.27858 20.7109C8.79027 20.1993 9.55884 20.0582 10.2269 20.3362C10.2342 20.3392 10.2414 20.3423 10.2488 20.3453C10.9161 20.6208 11.3574 21.2641 11.3574 21.9861V22.727H15.789V21.9861C15.789 21.2641 16.2303 20.6208 16.8976 20.3453L16.9194 20.3362C17.5874 20.0583 18.356 20.1993 18.8677 20.711L19.3915 21.2348L22.5251 18.1011L22.5089 18.0848C22.0215 18.1389 21.5265 18.1676 21.0247 18.1676Z" fill="#4A80AA"/>
<path d="M14.3557 16.3797C14.3556 16.3797 14.3554 16.3798 14.3553 16.3798C11.4591 16.9295 8.92075 14.388 9.47761 11.4908L9.47768 11.4906C8.94171 10.5609 8.51504 9.56016 8.21468 8.50623C7.46093 9.57377 7.01794 10.8764 7.01794 12.2827C7.01794 15.9029 9.95278 18.8378 13.5731 18.8378C14.9737 18.8378 16.2715 18.3982 17.3367 17.6499C16.2837 17.347 15.2842 16.9179 14.3557 16.3797Z" fill="#407093"/>
<path d="M13.5722 12.4229L12.2948 23.3334L13.5722 29.8388H24.0287C24.413 29.6155 24.7873 29.3766 25.1507 29.1229L27.0385 13.6778L13.5722 12.4229Z" fill="#FFC305"/>
<path d="M0.128296 18.0365C0.762021 23.0247 3.70652 27.36 7.96848 29.8389H13.572V12.423L0.128296 18.0365Z" fill="#FFA50A"/>
<path d="M29.7055 18.0363H16.1309L13.5723 12.4229H27.1468L29.7055 18.0363Z" fill="#FFD23C"/>
<path d="M13.5722 12.4229H0.402761C0.139984 13.573 0 14.77 0 15.9999C0 16.6898 0.0441725 17.3694 0.128878 18.0363H11.2451L13.5722 12.4229Z" fill="#FFC305"/>
<path d="M22.333 12.732C22.1792 12.5783 21.9599 12.5096 21.7459 12.5483L17.2831 13.3548C17.0089 13.4044 16.7949 13.6199 16.7473 13.8945L16.5736 14.8976L26.7182 25.6186L30.4447 20.8438L22.333 12.732ZM18.9922 15.5694C18.6781 15.913 18.0929 15.8879 17.7743 15.5694C17.4329 15.228 17.4591 14.6962 17.7743 14.3515C18.0884 14.0079 18.6736 14.033 18.9922 14.3515C19.3336 14.6929 19.3073 15.2247 18.9922 15.5694Z" fill="#DF134C"/>
<path d="M27.0385 27.5795V25.556L26.9815 25.6131C26.7224 25.8722 26.3023 25.8722 26.0432 25.6131L16.6037 16.1736L16.0126 19.5872C15.9757 19.7998 16.0446 20.017 16.1971 20.1696L25.1512 29.1235C25.8191 28.6573 26.4497 28.1405 27.0385 27.5795Z" fill="#FFA50A"/>
<path d="M30.4447 20.8437L26.9514 24.3371C26.6923 24.5962 26.2722 24.5962 26.0131 24.3371L16.5736 14.8976L15.9824 18.3112C15.9456 18.5238 16.0145 18.741 16.167 18.8936L25.642 28.3686C25.9011 28.6277 26.3212 28.6277 26.5802 28.3686L31.8058 23.143C32.0648 22.884 32.0648 22.4639 31.8058 22.2048L30.4447 20.8437Z" fill="#B30435"/>
<path d="M17.9124 14.9403C17.7917 14.9403 17.6708 14.8945 17.5782 14.8027L15.4803 12.7238C15.2941 12.5392 15.2926 12.2386 15.4773 12.0523C15.6619 11.8661 15.9625 11.8647 16.1488 12.0493L18.2467 14.1282C18.4329 14.3128 18.4344 14.6134 18.2497 14.7997C18.1569 14.8933 18.0347 14.9403 17.9124 14.9403Z" fill="#A55A3C"/>
</g>
<defs>
<clipPath id="clip0_16708_25394">
<rect width="32" height="32" fill="white"/>
</clipPath>
</defs>
</svg>
