<svg width="32" height="32" viewBox="0 0 32 32" fill="none" xmlns="http://www.w3.org/2000/svg">
<g clip-path="url(#clip0_12115_113135)">
<path d="M15.3125 0.6875C6.85563 0.6875 0 7.54313 0 16C0 18.7539 0.7275 21.3376 2 23.5705L8.56819 29.75C10.6031 30.7501 12.892 31.3125 15.3125 31.3125C23.7694 31.3125 30.625 24.4569 30.625 16C30.625 7.54313 23.7694 0.6875 15.3125 0.6875Z" fill="#FFE400"/>
<path d="M2.625 11V23.8579L3.20556 24.125V25.375H3.20525C3.72631 26.0469 4.302 26.6744 4.92569 27.2507L4.92588 27.25L31.375 28.5V11H2.625Z" fill="#515181"/>
<path d="M3.20537 25.375C3.72644 26.0469 4.30213 26.6744 4.92581 27.2506L4.92588 27.25L12 27.5843V11H2.625V23.8579L3.20556 24.125V25.375H3.20537Z" fill="#41416B"/>
<path d="M28.875 6H27C26.6548 6 26.375 6.27981 26.375 6.625V7.875H29.5V6.625C29.5 6.27981 29.2202 6 28.875 6Z" fill="#41416B"/>
<path d="M5.125 6H7C7.34519 6 7.625 6.27981 7.625 6.625V7.875H4.5V6.625C4.5 6.27981 4.77981 6 5.125 6Z" fill="#313159"/>
<path d="M25.4375 7.875H8.5625L9.86588 5.26825C10.0247 4.95063 10.3493 4.75 10.7044 4.75H23.2956C23.6508 4.75 23.9754 4.95063 24.1341 5.26825L25.4375 7.875Z" fill="#616196"/>
<path d="M14.4544 4.75H10.7044C10.3493 4.75 10.0247 4.95063 9.86594 5.26825L8.5625 7.875H12.3125L13.6159 5.26825C13.7747 4.95063 14.0993 4.75 14.4544 4.75Z" fill="#515181"/>
<path d="M3.875 10.375H30.125V7.875C30.125 7.52981 29.8452 7.25 29.5 7.25H4.5C4.15481 7.25 3.875 7.52981 3.875 7.875V10.375Z" fill="#515181"/>
<path d="M12.625 7.25H4.5C4.15481 7.25 3.875 7.52981 3.875 7.875V10.375H12V7.875C12 7.52981 12.2798 7.25 12.625 7.25Z" fill="#41416B"/>
<path d="M2.625 12.25H31.375C31.7202 12.25 32 11.9702 32 11.625V10.375C32 10.0298 31.7202 9.75 31.375 9.75H2.625C2.27981 9.75 2 10.0298 2 10.375V11.625C2 11.9702 2.27981 12.25 2.625 12.25Z" fill="#616196"/>
<path d="M25.125 21H31.375C31.7202 21 32 20.7202 32 20.375V19.125C32 18.7798 31.7202 18.5 31.375 18.5H25.125C24.7798 18.5 24.5 18.7798 24.5 19.125V20.375C24.5 20.7202 24.7798 21 25.125 21Z" fill="#A3EA6E"/>
<path d="M25.125 25.375H31.375C31.7202 25.375 32 25.0952 32 24.75V23.5C32 23.1548 31.7202 22.875 31.375 22.875H25.125C24.7798 22.875 24.5 23.1548 24.5 23.5V24.75C24.5 25.0952 24.7798 25.375 25.125 25.375Z" fill="#A3EA6E"/>
<path d="M25.125 16.625H31.375C31.7202 16.625 32 16.3452 32 16V14.75C32 14.4048 31.7202 14.125 31.375 14.125H25.125C24.7798 14.125 24.5 14.4048 24.5 14.75V16C24.5 16.3452 24.7798 16.625 25.125 16.625Z" fill="#A3EA6E"/>
<path d="M8.875 22.875H2.625C2.27981 22.875 2 23.1548 2 23.5V23.5705C2.35963 24.2015 2.76294 24.8042 3.20556 25.375H8.875C9.22019 25.375 9.5 25.0952 9.5 24.75V23.5C9.5 23.1548 9.22019 22.875 8.875 22.875Z" fill="#85D249"/>
<path d="M2.625 16.625H8.875C9.22019 16.625 9.5 16.3452 9.5 16V14.75C9.5 14.4048 9.22019 14.125 8.875 14.125H2.625C2.27981 14.125 2 14.4048 2 14.75V16C2 16.3452 2.27981 16.625 2.625 16.625Z" fill="#85D249"/>
<path d="M5.75 16V14.75C5.75 14.4048 6.02981 14.125 6.375 14.125H2.625C2.27981 14.125 2 14.4048 2 14.75V16C2 16.3452 2.27981 16.625 2.625 16.625H6.375C6.02981 16.625 5.75 16.3452 5.75 16Z" fill="#60B550"/>
<path d="M2.625 21H8.875C9.22019 21 9.5 20.7202 9.5 20.375V19.125C9.5 18.7798 9.22019 18.5 8.875 18.5H2.625C2.27981 18.5 2 18.7798 2 19.125V20.375C2 20.7202 2.27981 21 2.625 21Z" fill="#85D249"/>
<path d="M11.375 11.625V10.375C11.375 10.0298 11.6548 9.75 12 9.75H2.625C2.27981 9.75 2 10.0298 2 10.375V11.625C2 11.9702 2.27981 12.25 2.625 12.25H12C11.6548 12.25 11.375 11.9702 11.375 11.625Z" fill="#515181"/>
<path d="M31.9998 27.875V29.125C31.9998 29.47 31.7198 29.75 31.3748 29.75H8.56543C7.23105 29.0938 6.00605 28.2487 4.9248 27.25H31.3748C31.7198 27.25 31.9998 27.53 31.9998 27.875Z" fill="#616196"/>
<path d="M11.9999 27.25H4.92578C6.00722 28.2489 7.23284 29.0938 8.56816 29.75H11.9999C11.6547 29.75 11.3749 29.4702 11.3749 29.125V27.875C11.3749 27.5298 11.6547 27.25 11.9999 27.25Z" fill="#515181"/>
<path d="M17 25.375C20.1066 25.375 22.625 22.8566 22.625 19.75C22.625 16.6434 20.1066 14.125 17 14.125C13.8934 14.125 11.375 16.6434 11.375 19.75C11.375 22.8566 13.8934 25.375 17 25.375Z" fill="#85D249"/>
<path d="M17 19.75C17 18.4674 17.4293 17.2851 18.1521 16.3389C18.8393 15.4392 18.2027 14.1394 17.0706 14.1254C17.0472 14.1251 17.0239 14.125 17.0005 14.125C13.9622 14.1248 11.4929 16.4975 11.3791 19.5337C11.2589 22.7388 13.8216 25.375 17 25.375C17.0238 25.375 17.0476 25.3749 17.0714 25.3746C18.2031 25.3605 18.8391 24.0605 18.1521 23.1611C17.4293 22.2149 17 21.0326 17 19.75Z" fill="#60B550"/>
<path d="M18.7863 19.1431H18.0351C17.7391 19.1431 17.4993 18.9032 17.4993 18.6073V16.5367C17.4993 15.9788 16.7529 15.7923 16.4906 16.2847L14.7404 19.5691C14.5503 19.9261 14.8089 20.3569 15.2133 20.3569H15.9645C16.2604 20.3569 16.5003 20.5968 16.5003 20.8928V22.9633C16.5003 23.5213 17.2467 23.7077 17.509 23.2153L19.2591 19.9309C19.4493 19.574 19.1907 19.1431 18.7863 19.1431Z" fill="#FFF442"/>
<path d="M17.5719 22.9633V20.8927C17.5719 20.5968 17.332 20.3569 17.036 20.3569H15.9644C16.2603 20.3569 16.5002 20.5968 16.5002 20.8927V22.9633C16.5002 23.5212 17.2465 23.7077 17.5089 23.2153L17.583 23.0761C17.576 23.0404 17.5719 23.0029 17.5719 22.9633Z" fill="#FFE400"/>
<path d="M5.75 20.375V19.125C5.75 18.7798 6.02981 18.5 6.375 18.5H2.625C2.27981 18.5 2 18.7798 2 19.125V20.375C2 20.7202 2.27981 21 2.625 21H6.375C6.02981 21 5.75 20.7202 5.75 20.375Z" fill="#60B550"/>
<path d="M6.375 22.875H2.625C2.27981 22.875 2 23.1548 2 23.5V23.5705C2.35963 24.2015 2.76294 24.8042 3.20556 25.375H6.375C6.02981 25.375 5.75 25.0952 5.75 24.75V23.5C5.75 23.1548 6.02981 22.875 6.375 22.875Z" fill="#60B550"/>
<path d="M28.25 16V14.75C28.25 14.4048 28.5298 14.125 28.875 14.125H25.125C24.7798 14.125 24.5 14.4048 24.5 14.75V16C24.5 16.3452 24.7798 16.625 25.125 16.625H28.875C28.5298 16.625 28.25 16.3452 28.25 16Z" fill="#85D249"/>
<path d="M28.25 20.375V19.125C28.25 18.7798 28.5298 18.5 28.875 18.5H25.125C24.7798 18.5 24.5 18.7798 24.5 19.125V20.375C24.5 20.7202 24.7798 21 25.125 21H28.875C28.5298 21 28.25 20.7202 28.25 20.375Z" fill="#85D249"/>
<path d="M28.25 24.75V23.5C28.25 23.1548 28.5298 22.875 28.875 22.875H25.125C24.7798 22.875 24.5 23.1548 24.5 23.5V24.75C24.5 25.0952 24.7798 25.375 25.125 25.375H28.875C28.5298 25.375 28.25 25.0952 28.25 24.75Z" fill="#85D249"/>
</g>
<defs>
<clipPath id="clip0_12115_113135">
<rect width="32" height="32" fill="white"/>
</clipPath>
</defs>
</svg>
