<svg width="24" height="88" viewBox="0 0 24 88" fill="none" xmlns="http://www.w3.org/2000/svg">
<path d="M6.5 11L12 2L17.5 11H6.5ZM17.5 22C16.25 22 15.1875 21.5625 14.3125 20.6875C13.4375 19.8125 13 18.75 13 17.5C13 16.25 13.4375 15.1875 14.3125 14.3125C15.1875 13.4375 16.25 13 17.5 13C18.75 13 19.8125 13.4375 20.6875 14.3125C21.5625 15.1875 22 16.25 22 17.5C22 18.75 21.5625 19.8125 20.6875 20.6875C19.8125 21.5625 18.75 22 17.5 22ZM3 21.5V13.5H11V21.5H3ZM17.5 20C18.2 20 18.7917 19.7583 19.275 19.275C19.7583 18.7917 20 18.2 20 17.5C20 16.8 19.7583 16.2083 19.275 15.725C18.7917 15.2417 18.2 15 17.5 15C16.8 15 16.2083 15.2417 15.725 15.725C15.2417 16.2083 15 16.8 15 17.5C15 18.2 15.2417 18.7917 15.725 19.275C16.2083 19.7583 16.8 20 17.5 20ZM5 19.5H9V15.5H5V19.5ZM10.05 9H13.95L12 5.85L10.05 9Z" fill="#CAD1DC"/>
<path d="M6.5 75L12 66L17.5 75H6.5ZM17.5 86C16.25 86 15.1875 85.5625 14.3125 84.6875C13.4375 83.8125 13 82.75 13 81.5C13 80.25 13.4375 79.1875 14.3125 78.3125C15.1875 77.4375 16.25 77 17.5 77C18.75 77 19.8125 77.4375 20.6875 78.3125C21.5625 79.1875 22 80.25 22 81.5C22 82.75 21.5625 83.8125 20.6875 84.6875C19.8125 85.5625 18.75 86 17.5 86ZM3 85.5V77.5H11V85.5H3ZM17.5 84C18.2 84 18.7917 83.7583 19.275 83.275C19.7583 82.7917 20 82.2 20 81.5C20 80.8 19.7583 80.2083 19.275 79.725C18.7917 79.2417 18.2 79 17.5 79C16.8 79 16.2083 79.2417 15.725 79.725C15.2417 80.2083 15 80.8 15 81.5C15 82.2 15.2417 82.7917 15.725 83.275C16.2083 83.7583 16.8 84 17.5 84ZM5 83.5H9V79.5H5V83.5ZM10.05 73H13.95L12 69.85L10.05 73Z" fill="white"/>
</svg>
