<svg width="24" height="24" viewBox="0 0 24 24" fill="none" xmlns="http://www.w3.org/2000/svg">
<path d="M3.9999 17.6501C5.2999 17.2668 6.62074 16.9793 7.9624 16.7876C9.30407 16.5959 10.6499 16.5001 11.9999 16.5001C13.3499 16.5001 14.6957 16.5959 16.0374 16.7876C17.3791 16.9793 18.6999 17.2668 19.9999 17.6501V6.3751C18.6999 6.75843 17.3791 7.04176 16.0374 7.2251C14.6957 7.40843 13.3499 7.5001 11.9999 7.5001C10.6499 7.5001 9.30407 7.40843 7.9624 7.2251C6.62074 7.04176 5.2999 6.75843 3.9999 6.3751V17.6501ZM2.0249 20.5001V3.4751C3.2749 4.05843 4.7749 4.54176 6.5249 4.9251C8.2749 5.30843 10.1082 5.5001 12.0249 5.5001C13.9416 5.5001 15.7749 5.30843 17.5249 4.9251C19.2749 4.54176 20.7749 4.05843 22.0249 3.4751V20.5001C20.7749 19.9168 19.2749 19.4376 17.5249 19.0626C15.7749 18.6876 13.9416 18.5001 12.0249 18.5001C10.1082 18.5001 8.2749 18.6876 6.5249 19.0626C4.7749 19.4376 3.2749 19.9168 2.0249 20.5001ZM5.4999 15.4001C6.58324 15.2668 7.6624 15.1668 8.7374 15.1001C9.8124 15.0334 10.8999 15.0001 11.9999 15.0001C13.0999 15.0001 14.1874 15.0334 15.2624 15.1001C16.3374 15.1668 17.4166 15.2668 18.4999 15.4001L13.9999 10.0001L11.1499 13.4001L9.1499 11.0001L5.4999 15.4001Z" fill="white"/>
</svg>
