<svg width="24" height="88" viewBox="0 0 24 88" fill="none" xmlns="http://www.w3.org/2000/svg">
<path d="M4 19V17H6V10C6 8.61667 6.41667 7.3875 7.25 6.3125C8.08333 5.2375 9.16667 4.53333 10.5 4.2V2H13.5V4.2C14.8333 4.53333 15.9167 5.2375 16.75 6.3125C17.5833 7.3875 18 8.61667 18 10V17H20V19H4ZM12 22C11.45 22 10.9792 21.8042 10.5875 21.4125C10.1958 21.0208 10 20.55 10 20H14C14 20.55 13.8042 21.0208 13.4125 21.4125C13.0208 21.8042 12.55 22 12 22ZM8 17H16V10C16 8.9 15.6083 7.95833 14.825 7.175C14.0417 6.39167 13.1 6 12 6C10.9 6 9.95833 6.39167 9.175 7.175C8.39167 7.95833 8 8.9 8 10V17Z" fill="#CAD1DC"/>
<path d="M4 83V81H6V74C6 72.6167 6.41667 71.3875 7.25 70.3125C8.08333 69.2375 9.16667 68.5333 10.5 68.2V66H13.5V68.2C14.8333 68.5333 15.9167 69.2375 16.75 70.3125C17.5833 71.3875 18 72.6167 18 74V81H20V83H4ZM12 86C11.45 86 10.9792 85.8042 10.5875 85.4125C10.1958 85.0208 10 84.55 10 84H14C14 84.55 13.8042 85.0208 13.4125 85.4125C13.0208 85.8042 12.55 86 12 86ZM8 81H16V74C16 72.9 15.6083 71.9583 14.825 71.175C14.0417 70.3917 13.1 70 12 70C10.9 70 9.95833 70.3917 9.175 71.175C8.39167 71.9583 8 72.9 8 74V81Z" fill="white"/>
</svg>
