<svg width="24" height="90" viewBox="0 0 24 90" fill="none" xmlns="http://www.w3.org/2000/svg">
<path d="M11 19.725V12.875L5 9.4V16.25L11 19.725ZM13 19.725L19 16.25V9.4L13 12.875V19.725ZM12 11.15L17.925 7.725L12 4.3L6.075 7.725L12 11.15ZM3 17.425V7.175L12 2L21 7.175V17.425L12 22.6L3 17.425Z" fill="#CAD1DC"/>
<path d="M11 84.3251V77.4751L5 74.0001V80.8501L11 84.3251ZM13 84.3251L19 80.8501V74.0001L13 77.4751V84.3251ZM12 75.7501L17.925 72.3251L12 68.9001L6.075 72.3251L12 75.7501ZM3 82.0251V71.7751L12 66.6001L21 71.7751V82.0251L12 87.2001L3 82.0251Z" fill="white"/>
</svg>
