<svg width="24" height="24" viewBox="0 0 24 24" fill="none" xmlns="http://www.w3.org/2000/svg">
<path d="M14.6001 8.075C14.6001 7.35833 14.3626 6.78333 13.8876 6.35C13.4126 5.91667 12.7834 5.7 12.0001 5.7C11.5167 5.7 11.0792 5.80417 10.6876 6.0125C10.2959 6.22083 9.95839 6.525 9.67506 6.925C9.40839 7.30833 9.04589 7.52917 8.58756 7.5875C8.12922 7.64583 7.73339 7.525 7.40006 7.225C7.16672 7.00833 7.03756 6.74167 7.01256 6.425C6.98756 6.10833 7.06672 5.80833 7.25006 5.525C7.78339 4.725 8.46256 4.10417 9.28756 3.6625C10.1126 3.22083 11.0167 3 12.0001 3C13.6167 3 14.9292 3.45833 15.9376 4.375C16.9459 5.29167 17.4501 6.49167 17.4501 7.975C17.4501 8.725 17.2917 9.4 16.9751 10C16.6584 10.6 16.0751 11.3083 15.2251 12.125C14.6084 12.7083 14.1917 13.1625 13.9751 13.4875C13.7584 13.8125 13.6167 14.1833 13.5501 14.6C13.4834 15 13.3126 15.3333 13.0376 15.6C12.7626 15.8667 12.4334 16 12.0501 16C11.6667 16 11.3376 15.8708 11.0626 15.6125C10.7876 15.3542 10.6501 15.0333 10.6501 14.65C10.6501 14 10.7917 13.4042 11.0751 12.8625C11.3584 12.3208 11.8334 11.75 12.5001 11.15C13.3501 10.4 13.9126 9.82083 14.1876 9.4125C14.4626 9.00417 14.6001 8.55833 14.6001 8.075ZM12.0001 22C11.4501 22 10.9792 21.8042 10.5876 21.4125C10.1959 21.0208 10.0001 20.55 10.0001 20C10.0001 19.45 10.1959 18.9792 10.5876 18.5875C10.9792 18.1958 11.4501 18 12.0001 18C12.5501 18 13.0209 18.1958 13.4126 18.5875C13.8042 18.9792 14.0001 19.45 14.0001 20C14.0001 20.55 13.8042 21.0208 13.4126 21.4125C13.0209 21.8042 12.5501 22 12.0001 22Z" fill="white"/>
</svg>
