<svg width="32" height="32" viewBox="0 0 32 32" fill="none" xmlns="http://www.w3.org/2000/svg">
<path d="M0 16C0 7.16344 7.16344 0 16 0C24.8366 0 32 7.16344 32 16C32 24.8366 24.8366 32 16 32C7.16344 32 0 24.8366 0 16Z" fill="#FFAA00"/>
<path d="M8 16.6C8 15.5 8.20417 14.4791 8.6125 13.5375C9.02083 12.5958 9.6 11.7666 10.35 11.05L14.95 6.52498C15.1 6.39164 15.2667 6.28748 15.45 6.21248C15.6333 6.13748 15.8167 6.09998 16 6.09998C16.1833 6.09998 16.3667 6.13748 16.55 6.21248C16.7333 6.28748 16.9 6.39164 17.05 6.52498L21.65 11.05C22.1333 11.5333 22.5542 12.0666 22.9125 12.65C23.2708 13.2333 23.5417 13.8583 23.725 14.525C23.7917 14.7583 23.7458 14.9625 23.5875 15.1375C23.4292 15.3125 23.2333 15.425 23 15.475C22.7667 15.525 22.5167 15.4791 22.25 15.3375C21.9833 15.1958 21.775 14.9333 21.625 14.55C21.475 14.1666 21.2875 13.8 21.0625 13.45C20.8375 13.1 20.5667 12.7833 20.25 12.5L16 8.29998L11.75 12.5C11.1667 13.05 10.7292 13.6708 10.4375 14.3625C10.1458 15.0541 10 15.8 10 16.6C10 17.8666 10.3792 19.0083 11.1375 20.025C11.8958 21.0416 12.8583 21.7583 14.025 22.175C14.4083 22.3083 14.6667 22.5083 14.8 22.775C14.9333 23.0416 14.9833 23.2916 14.95 23.525C14.9167 23.7583 14.8125 23.9541 14.6375 24.1125C14.4625 24.2708 14.2583 24.3166 14.025 24.25C12.275 23.8 10.8333 22.8708 9.7 21.4625C8.56667 20.0541 8 18.4333 8 16.6ZM21.375 19.5C21.075 19.3666 20.7708 19.25 20.4625 19.15C20.1542 19.05 19.8333 19 19.5 19C19.2333 19 18.975 19.0291 18.725 19.0875C18.475 19.1458 18.2333 19.225 18 19.325C17.8167 19.4083 17.625 19.4166 17.425 19.35C17.225 19.2833 17.0833 19.1583 17 18.975C16.9167 18.775 16.9167 18.575 17 18.375C17.0833 18.175 17.225 18.0333 17.425 17.95C17.7583 17.8166 18.1 17.7083 18.45 17.625C18.8 17.5416 19.15 17.5 19.5 17.5C19.8833 17.5 20.2625 17.5458 20.6375 17.6375C21.0125 17.7291 21.375 17.8416 21.725 17.975C22.025 18.1083 22.3292 18.225 22.6375 18.325C22.9458 18.425 23.2667 18.475 23.6 18.475C23.8667 18.475 24.125 18.4458 24.375 18.3875C24.625 18.3291 24.8667 18.25 25.1 18.15C25.2833 18.0666 25.475 18.0583 25.675 18.125C25.875 18.1916 26.0167 18.3166 26.1 18.5C26.1833 18.7 26.1833 18.9 26.1 19.1C26.0167 19.3 25.875 19.4416 25.675 19.525C25.3417 19.6583 25 19.7666 24.65 19.85C24.3 19.9333 23.95 19.975 23.6 19.975C23.2167 19.975 22.8375 19.9291 22.4625 19.8375C22.0875 19.7458 21.725 19.6333 21.375 19.5ZM21.375 22.5C21.075 22.3666 20.7708 22.25 20.4625 22.15C20.1542 22.05 19.8333 22 19.5 22C19.2333 22 18.975 22.0291 18.725 22.0875C18.475 22.1458 18.2333 22.225 18 22.325C17.8167 22.4083 17.625 22.4166 17.425 22.35C17.225 22.2833 17.0833 22.1583 17 21.975C16.9167 21.775 16.9167 21.575 17 21.375C17.0833 21.175 17.225 21.0333 17.425 20.95C17.7583 20.8166 18.1 20.7083 18.45 20.625C18.8 20.5416 19.15 20.5 19.5 20.5C19.8833 20.5 20.2625 20.5458 20.6375 20.6375C21.0125 20.7291 21.375 20.8416 21.725 20.975C22.025 21.1083 22.3292 21.225 22.6375 21.325C22.9458 21.425 23.2667 21.475 23.6 21.475C23.8667 21.475 24.125 21.4458 24.375 21.3875C24.625 21.3291 24.8667 21.25 25.1 21.15C25.2833 21.0666 25.475 21.0583 25.675 21.125C25.875 21.1916 26.0167 21.3166 26.1 21.5C26.1833 21.7 26.1833 21.9 26.1 22.1C26.0167 22.3 25.875 22.4416 25.675 22.525C25.3417 22.6583 25 22.7666 24.65 22.85C24.3 22.9333 23.95 22.975 23.6 22.975C23.2167 22.975 22.8375 22.9291 22.4625 22.8375C22.0875 22.7458 21.725 22.6333 21.375 22.5ZM21.375 25.5C21.075 25.3666 20.7708 25.25 20.4625 25.15C20.1542 25.05 19.8333 25 19.5 25C19.2333 25 18.975 25.0291 18.725 25.0875C18.475 25.1458 18.2333 25.225 18 25.325C17.8167 25.4083 17.625 25.4166 17.425 25.35C17.225 25.2833 17.0833 25.1583 17 24.975C16.9167 24.775 16.9167 24.575 17 24.375C17.0833 24.175 17.225 24.0333 17.425 23.95C17.7583 23.8166 18.1 23.7083 18.45 23.625C18.8 23.5416 19.15 23.5 19.5 23.5C19.8833 23.5 20.2625 23.5458 20.6375 23.6375C21.0125 23.7291 21.375 23.8416 21.725 23.975C22.025 24.1083 22.3292 24.225 22.6375 24.325C22.9458 24.425 23.2667 24.475 23.6 24.475C23.8667 24.475 24.125 24.4458 24.375 24.3875C24.625 24.3291 24.8667 24.25 25.1 24.15C25.2833 24.0666 25.475 24.0583 25.675 24.125C25.875 24.1916 26.0167 24.3166 26.1 24.5C26.1833 24.7 26.1833 24.9 26.1 25.1C26.0167 25.3 25.875 25.4416 25.675 25.525C25.3417 25.6583 25 25.7666 24.65 25.85C24.3 25.9333 23.95 25.975 23.6 25.975C23.2167 25.975 22.8375 25.9291 22.4625 25.8375C22.0875 25.7458 21.725 25.6333 21.375 25.5Z" fill="white"/>
</svg>
