<svg width="36" height="37" viewBox="0 0 36 37" fill="none" xmlns="http://www.w3.org/2000/svg">
<g clip-path="url(#clip0_10372_3622)">
<path d="M35.2966 18.9507C35.2966 28.4647 27.584 36.1772 18.0701 36.1772C8.55608 36.1772 0.843506 28.4647 0.843506 18.9507C0.843506 9.4367 8.55608 1.72412 18.0701 1.72412C27.584 1.72412 35.2966 9.4367 35.2966 18.9507Z" fill="#FEF156"/>
<path d="M30.7893 10.3173C30.7857 10.3519 30.782 10.3862 30.7786 10.419C30.7393 10.7941 30.6143 11.0428 30.4071 11.1579C30.1002 11.3286 29.6904 11.165 29.6082 11.129C29.3466 10.8455 25.1816 6.32035 24.7068 5.15817C24.5772 4.84095 24.5732 4.58625 24.695 4.40094C24.9236 4.05321 25.5257 4.03733 25.5318 4.03721L25.5448 4.03696L25.6057 4.0182C25.0826 3.4982 24.3726 3.20166 23.6275 3.20166H12.3719C11.5314 3.20166 10.7352 3.57837 10.2021 4.22824L7.46753 7.56195C7.51121 7.76504 7.60479 7.99803 7.8032 8.16205C8.05637 8.37135 8.41794 8.41885 8.87906 8.30331L26.9796 30.0162C26.9977 30.1604 27.1029 30.7716 27.619 31.1419C27.6388 31.156 27.6592 31.1692 27.6796 31.1823C29.155 29.9447 30.3899 28.4299 31.3041 26.718C31.3447 26.5273 31.3658 26.3319 31.3658 26.1345V12.0204C31.3657 11.404 31.1624 10.8058 30.7893 10.3173Z" fill="#FE3D97"/>
<path d="M5.07613 27.8166C5.62476 28.7016 9.66955 33.529 10.2598 34.1157C10.7829 34.6357 11.4928 34.9323 12.238 34.9323H23.4935C24.3341 34.9323 25.1303 34.5555 25.6634 33.9057L28.3979 30.572C28.3543 30.3689 28.2607 30.1359 28.0623 29.9719C27.8091 29.7626 27.4475 29.7151 26.9864 29.8306L8.88585 8.11775C8.86782 7.97348 8.76262 7.3623 8.24644 6.99205C8.22669 6.9779 8.20626 6.96474 8.18583 6.95163C6.7105 8.18918 5.4756 9.70401 4.56137 11.416C4.52082 11.6066 4.49972 11.802 4.49972 11.9994L4.49972 26.1135C4.49978 26.7299 4.70312 27.3281 5.07613 27.8166Z" fill="#FF0363"/>
<path d="M30.7291 10.2406L25.7973 4.22832C25.714 4.12681 25.6237 4.0328 25.5284 3.94507C25.496 3.94581 24.1274 3.98438 24.6213 5.19313C25.121 6.41634 29.5529 11.2053 29.5529 11.2053C29.5529 11.2053 30.7287 11.7801 30.8703 10.4287C30.826 10.3642 30.779 10.3014 30.7291 10.2406Z" fill="#FD77A6"/>
<path d="M28.9109 11.732L23.9792 5.7197C23.8925 5.61401 23.7643 5.55334 23.6276 5.55334H12.372C12.2353 5.55334 12.1072 5.61401 12.0204 5.7197L9.28735 9.05157L10.1041 9.31938C10.107 9.75134 10.1945 12.0198 11.682 13.3801C12.533 14.1584 13.6842 14.4857 15.1056 14.3534C15.0474 14.6826 14.9468 15.5746 15.417 16.173C15.7076 16.543 16.1617 16.7305 16.7669 16.7305C17.5984 16.7305 18.7104 18.1864 19.9827 20.9408C20.9177 22.965 21.6215 25.0155 21.6797 25.1866C21.6851 25.2549 21.7211 25.5372 21.9471 25.7124C22.0941 25.8264 22.2867 25.8697 22.5207 25.8418C22.4924 25.9994 22.4539 26.2804 22.4601 26.6153C22.4726 27.2947 22.6676 27.8691 23.0239 28.2764C23.5781 28.9099 24.5101 29.1589 25.7943 29.0167C26.1375 28.9786 26.415 29.0382 26.6351 29.1972L28.9108 26.4228C28.9773 26.3417 29.0139 26.2393 29.0139 26.1344V12.0203C29.014 11.9155 28.9774 11.813 28.9109 11.732Z" fill="#F9F2F2"/>
<path d="M25.7839 28.9251C21.7319 29.3738 22.638 25.7283 22.638 25.7283C21.7976 25.9128 21.7707 25.1685 21.7707 25.1685C21.7707 25.1685 18.895 16.6383 16.7667 16.6383C14.6383 16.6383 15.2206 14.2489 15.2206 14.2489C10.0799 14.8178 10.1964 9.25263 10.1964 9.25263L9.34988 8.9751L7.0884 11.732C7.02196 11.8131 6.98535 11.9155 6.98535 12.0204V26.1345C6.98535 26.2394 7.02196 26.3419 7.08847 26.423L12.0202 32.4353C12.1069 32.5409 12.235 32.6016 12.3717 32.6016H23.6273C23.7641 32.6016 23.8922 32.541 23.9789 32.4352L26.6935 29.1259C26.462 28.9572 26.1626 28.8832 25.7839 28.9251Z" fill="#DDD1CC"/>
<path d="M23.6276 33.432H12.372C11.9857 33.432 11.6235 33.2608 11.3784 32.9621L6.44659 26.9496C6.25851 26.7203 6.15503 26.4308 6.15503 26.1345V12.0204C6.15503 11.7241 6.25851 11.4347 6.44628 11.2055L8.91239 8.19908C9.20333 7.84446 9.72665 7.79278 10.0813 8.08366C10.436 8.37461 10.4876 8.89793 10.1967 9.25261L7.81616 12.1547V26L12.5497 31.7709H23.4498L25.7841 28.925C26.075 28.5704 26.5983 28.5187 26.953 28.8096C27.3076 29.1006 27.3593 29.6238 27.0684 29.9785L24.6214 32.9618C24.3761 33.2607 24.0139 33.432 23.6276 33.432Z" fill="#FD77A6"/>
<path d="M26.4258 30.2824C26.2404 30.2824 26.054 30.2206 25.8995 30.094C25.5449 29.803 25.4932 29.2798 25.7841 28.9251L28.1834 26.0001V12.1331C27.9932 11.789 28.0695 11.3475 28.3845 11.0895C28.7394 10.7987 29.2626 10.8508 29.5534 11.2057C29.7412 11.4348 29.8445 11.7242 29.8445 12.0204V26.1345C29.8445 26.4309 29.741 26.7203 29.5531 26.9496L27.0684 29.9785C26.9042 30.1787 26.6659 30.2824 26.4258 30.2824Z" fill="#FEA2C8"/>
<path d="M9.55399 9.55649C9.36862 9.55649 9.1822 9.49478 9.02771 9.36811C8.67303 9.07716 8.62141 8.55384 8.9123 8.19916L11.3781 5.19306C11.6233 4.89418 11.9855 4.7229 12.3719 4.7229H23.6274C24.0138 4.7229 24.376 4.89418 24.6211 5.19288C24.9121 5.5475 24.8606 6.07082 24.506 6.36182C24.2039 6.60982 23.7793 6.60909 23.4801 6.38403H12.5496L10.1966 9.25263C10.0324 9.45282 9.79417 9.55649 9.55399 9.55649Z" fill="#FEA2C8"/>
<path d="M28.9114 12.5626C28.6712 12.5626 28.433 12.4589 28.2688 12.2587L23.3371 6.24653C23.0462 5.89185 23.0979 5.36853 23.4525 5.07759C23.8072 4.78664 24.3305 4.83838 24.6214 5.193L29.5531 11.2052C29.844 11.5599 29.7924 12.0832 29.4377 12.3741C29.2832 12.5009 29.0968 12.5626 28.9114 12.5626Z" fill="#FCD4E7"/>
<path d="M24.2665 20.7718C23.6172 21.0195 22.5023 21.1572 21.8782 19.597C20.9879 17.3712 22.2546 16.1647 22.3305 14.2089C21.8876 14.429 21.3042 14.5509 20.5349 14.4798C18.4144 14.2838 17.8682 12.2992 17.73 11.1569C17.5424 11.5409 17.2653 11.9471 16.8603 12.3521C16.2522 12.9602 15.6153 13.6663 15.0927 14.4323C15.0359 14.8083 14.9801 15.6171 15.4169 16.1731C15.7075 16.5431 16.1617 16.7306 16.7668 16.7306C17.5983 16.7306 18.7103 18.1865 19.9826 20.9409C20.9177 22.9651 21.6214 25.0156 21.6796 25.1867C21.6851 25.255 21.721 25.5373 21.947 25.7125C22.0929 25.8256 22.2838 25.869 22.5156 25.8423C23.2638 25.1657 23.8851 24.2739 24.3033 23.1546C24.5345 22.5357 24.6933 21.8606 24.7506 21.1271C24.7708 20.8672 24.51 20.6789 24.2665 20.7718Z" fill="#FE3D97"/>
<path d="M11.2661 21.0874C11.6172 27.2235 18.8627 29.3311 22.6382 25.7284C21.7979 25.9128 21.7711 25.1685 21.7711 25.1685C21.7711 25.1685 18.8954 16.6383 16.767 16.6383C14.6387 16.6383 15.221 14.2489 15.221 14.2489C14.3289 15.4973 13.7178 16.9177 14.0368 18.3416C14.0854 18.5586 13.8404 18.7187 13.6611 18.5873C13.2588 18.2923 12.724 17.7904 12.349 17.0232C12.2029 16.7243 11.7668 16.7628 11.6849 17.0853C11.4459 18.0271 11.175 19.4964 11.2661 21.0874Z" fill="#FF0363"/>
<path d="M20.7928 23.8325C20.2112 23.688 19.7469 23.0758 19.6782 22.5946C19.5458 21.6668 18.4695 20.8465 18.4276 20.8151C17.8085 20.2937 17.5158 19.7681 17.5573 19.2525C17.6186 18.4949 18.3912 17.985 18.4847 17.9259L18.5092 17.9186C18.1158 17.4472 17.9803 16.9872 17.9457 16.6368C17.9159 16.3348 17.5901 16.1597 17.321 16.3C16.0246 16.9756 15.3148 18.0628 15.3148 19.1633C15.3148 20.4401 16.1642 21.189 15.5967 22.6076C15.2751 23.4117 14.7426 23.4865 14.3417 23.4005C14.0638 23.3409 13.8132 23.5713 13.8534 23.8527C13.9047 24.2113 13.9954 24.5458 14.1157 24.857C15.727 29.0242 21.8006 28.1217 22.1503 23.6676C22.1609 23.5323 22.1667 23.3983 22.1692 23.2659C21.7359 23.7538 21.2643 23.9496 20.7928 23.8325Z" fill="#FFC242"/>
<path d="M20.4736 14.6644C21.2733 14.7383 21.8725 14.6038 22.3215 14.367C22.3295 14.2561 22.3344 14.1434 22.3344 14.0275C22.3344 12.111 21.0031 10.2195 18.5896 9.15727C18.3517 9.05256 18.0835 9.23485 18.0938 9.4946C18.1109 9.9305 18.0442 10.5769 17.6624 11.2888C17.7903 12.4218 18.3203 14.4653 20.4736 14.6644Z" fill="#FD77A6"/>
<path d="M21.4536 21.0881C21.3161 21.3483 21.1498 21.5561 20.9877 21.7181C20.7997 21.9059 20.4763 21.7664 20.4943 21.5013C20.58 20.2434 19.5895 19.0164 18.7002 18.1272C18.6046 18.0315 18.521 17.9359 18.4472 17.8408L18.4469 17.8409C18.4469 17.8409 16.2829 19.1295 18.3684 20.8857C18.3684 20.8857 19.4585 21.7068 19.5871 22.6076C19.7066 23.445 20.938 24.6865 22.1653 23.4069C22.1997 22.5228 22.0599 21.7086 21.9248 21.1507C21.8699 20.9237 21.5626 20.8816 21.4536 21.0881Z" fill="#FEF156"/>
<path d="M20.2398 25.1225C19.9957 25.1971 19.6304 25.1971 19.4183 24.6669C19.0791 23.8188 19.5869 23.371 19.5869 22.6076C19.5869 21.9442 19.1555 21.2889 18.3683 20.8857C18.2154 20.8075 18.0298 20.9046 18.0159 21.0758C17.9962 21.3179 17.8969 21.6542 17.563 21.9882C17.0125 22.5386 16.3972 23.3054 16.4982 24.0852C16.5061 24.1463 16.4765 24.1965 16.4331 24.2229C16.5193 24.5737 16.8518 25.5592 17.8958 25.7517C18.3345 25.8326 18.7079 26.1039 18.8948 26.4773C19.0425 26.7725 19.0619 27.0836 18.9549 27.4057C19.536 27.1735 20.0384 26.7112 20.3099 25.9958C20.389 25.7876 20.4458 25.562 20.4724 25.3184C20.4863 25.19 20.3633 25.0848 20.2398 25.1225Z" fill="#FFFBB3"/>
<path d="M19.0658 27.358C19.1651 26.9967 19.1029 26.6868 18.9774 26.4359C18.7705 26.0224 18.3673 25.7447 17.9125 25.6609C16.6944 25.4362 16.4982 24.0851 16.4982 24.0851C16.5147 24.2117 16.3705 24.2927 16.2742 24.2087C16.1583 24.1074 16.0301 23.9661 15.927 23.7773C15.8566 23.6482 15.665 23.6701 15.6309 23.813C15.5436 24.1791 15.4546 24.7218 15.5001 25.3007C15.6503 27.2131 17.6362 28.0144 19.0658 27.358Z" fill="#FEF156"/>
</g>
<defs>
<clipPath id="clip0_10372_3622">
<rect width="36" height="36" fill="white" transform="translate(0 0.95166)"/>
</clipPath>
</defs>
</svg>
