<svg width="36" height="36" viewBox="0 0 36 36" fill="none" xmlns="http://www.w3.org/2000/svg">
<g clip-path="url(#clip0_10410_17959)">
<path d="M0.0132891 19.4195L2.1567 22.584L4.1201 29.9515C4.62973 30.5485 5.17943 31.1101 5.76499 31.6324L18.5349 33.3565L21.9523 35.3437C22.9724 35.0533 23.9534 34.6702 24.8869 34.2059L26.5141 30.2039L29.7908 30.5574C32.6819 27.4762 34.4533 23.3319 34.4533 18.7733C34.4533 9.25928 26.7407 1.54663 17.2266 1.54663C7.71265 1.54663 0 9.25928 0 18.7733C0 18.9898 0.00534375 19.2049 0.0132891 19.4195Z" fill="#C2C2C2"/>
<path d="M27.5957 18.9362C26.816 15.5948 24.7741 14.1715 24.7741 14.1715L21.4841 18L22.3608 25.8727L24.887 34.2059C26.7346 33.2872 28.3935 32.0467 29.791 30.5573C29.0633 26.4538 28.0626 20.9373 27.5957 18.9362Z" fill="#02C0FC"/>
<path d="M2.94349 14.1715C2.94349 14.1715 0.901545 15.5947 0.12185 18.9362C0.0883809 19.0797 0.0520996 19.2416 0.0134277 19.4195C0.161506 23.433 1.68201 27.0954 4.12024 29.9515L5.35676 25.8727L6.97359 19.6995L2.94349 14.1715Z" fill="#1D8DF2"/>
<path d="M5.76514 31.5221V31.6322C6.962 32.6998 8.3089 33.6026 9.77014 34.3053L10.8494 30.5798L5.76514 31.5221Z" fill="#1D8DF2"/>
<path d="M9.77002 31.5221V34.3053C11.0528 34.9221 12.4236 35.3849 13.8586 35.6696L15.2249 29.8636L9.77002 31.5221Z" fill="#27A6FF"/>
<path d="M18.2075 29.4125L13.8586 31.5222V35.6697C14.9479 35.8857 16.0738 36.0001 17.2267 36.0001C18.8655 36.0001 20.4507 35.7711 21.9523 35.3437V31.5222L18.2075 29.4125Z" fill="#02C0FC"/>
<path d="M3.68188 20.6439C3.68449 20.7582 3.68596 20.8698 3.68596 20.9781C3.68596 23.5026 5.76496 31.5218 5.7651 31.5221H9.77017L11.2418 18.7732L3.68188 20.6439Z" fill="#27A6FF"/>
<path d="M8.94604 20.644C8.94604 24.4088 9.77018 31.5222 9.77018 31.5222H13.8588L15.3951 19.2417L8.94604 20.644Z" fill="#02C0FC"/>
<path d="M19.738 18.2476L13.8586 20.6441V31.5223H21.9523C21.9524 31.5219 24.0314 23.5028 24.0314 20.9782C24.0314 20.87 24.0329 20.7583 24.0355 20.6441L19.738 18.2476Z" fill="#6AD9FB"/>
<path d="M21.0057 22.0806H17.2311C16.7921 22.0806 16.4329 22.4398 16.4329 22.8788V23.4357C16.4329 23.8747 16.7921 24.234 17.2311 24.234H21.0057C21.4447 24.234 21.804 23.8747 21.804 23.4357V22.8788C21.804 22.4397 21.4447 22.0806 21.0057 22.0806Z" fill="#BBF0F9"/>
<path d="M7.76993 11.845L5.55818 12.9111L4.71387 16.9132L6.48427 20.644H8.94598L11.1044 18.9932L11.823 16.3758L7.76993 11.845Z" fill="#1D8DF2"/>
<path d="M13.8588 18.6515L11.823 16.3757C10.6719 16.9121 8.94604 18.1346 8.94604 20.644H13.8588L15.055 19.4771L13.8588 18.6515Z" fill="#27A6FF"/>
<path d="M22.1592 12.9111L19.9474 11.845L13.8586 18.6516V20.644H21.2331L23.2111 17.1291L22.1592 12.9111Z" fill="#02C0FC"/>
<path d="M22.1592 12.911C21.8591 14.8878 21.4425 17.9043 21.2332 20.6439H24.0355C24.0939 18.0939 24.774 14.1714 24.774 14.1714L22.1592 12.911Z" fill="#E8F8FC"/>
<path d="M5.55814 12.911L2.94336 14.1714C2.94336 14.1714 3.62349 18.0939 3.68185 20.6439H6.48423C6.27498 17.9043 5.8583 14.8877 5.55814 12.911Z" fill="#BBF0F9"/>
<path d="M9.7439 11.1182V13.5774L13.8587 18.6515L17.9067 13.6297V11.1182H9.7439Z" fill="#3F57A0"/>
<path d="M17.2744 9.69157C17.2744 9.69157 15.2942 9.02332 13.9577 9.02332C12.6211 9.02332 10.443 9.69157 10.443 9.69157L9.49536 11.1182L10.4528 12.1503C11.4498 11.8954 12.9226 11.5727 13.9892 11.5727C15.0222 11.5727 16.3463 11.8753 17.2659 12.1259L18.129 10.9209L17.2744 9.69157Z" fill="#5071B7"/>
<path d="M10.4429 9.69153V11.8428C10.4429 12.8618 10.7389 13.8589 11.2948 14.7129L13.8587 18.6515L10.1151 17.1062C9.81984 16.9843 9.65812 16.6648 9.73476 16.3547L10.1459 14.6913L7.64775 14.8404C7.23297 14.8652 6.90616 14.4923 6.98526 14.0843L7.34857 12.2097C7.4122 11.8812 7.60443 11.5917 7.88252 11.4055L10.4429 9.69153Z" fill="#02C0FC"/>
<path d="M17.2744 9.69153V11.8428C17.2744 12.8618 16.9784 13.8589 16.4225 14.7129L13.8586 18.6515L17.6022 17.1062C17.8975 16.9843 18.0592 16.6648 17.9825 16.3547L17.5714 14.6913L20.0695 14.8404C20.4843 14.8652 20.8111 14.4923 20.732 14.0843L20.3687 12.2097C20.305 11.8812 20.1128 11.5917 19.8347 11.4055L17.2744 9.69153Z" fill="#6AD9FB"/>
<path d="M19.5659 9.69263C18.4957 10.2035 18.3486 11.6695 19.2986 12.3794C20.3812 13.1884 22.1011 14.0416 24.7368 14.3901L26.5863 11.2817L19.5659 9.69263Z" fill="#FFC242"/>
<path d="M35.1008 9.69263L25.4299 11.766C25.4299 11.766 23.3005 12.6137 24.7365 14.3901C25.5192 14.4936 26.3816 14.5531 27.3332 14.5531C31.4897 14.5531 33.964 13.4286 35.368 12.3794C36.3181 11.6695 36.171 10.2035 35.1008 9.69263Z" fill="#FFDA4C"/>
<path d="M29.2013 1.81248C28.625 1.70384 28.0029 1.64197 27.3333 1.64197V9.45995L32.2447 11.5449C32.8032 11.4348 33.354 11.2843 33.8925 11.0934L34.7339 10.7952C34.9538 10.7173 35.1007 10.5092 35.1007 10.2759V8.9956C35.1007 5.50009 32.6364 2.45991 29.2013 1.81248Z" fill="#FFC242"/>
<path d="M25.431 1.81901C22.0111 2.47658 19.5657 5.51309 19.5657 8.99567V10.276C19.5657 10.5094 19.7127 10.7173 19.9326 10.7953L20.774 11.0935C21.3124 11.2843 21.8633 11.4349 22.4218 11.5449L27.3332 9.45995V1.64197C26.6504 1.64197 26.0168 1.70637 25.431 1.81901Z" fill="#FEA53D"/>
<path d="M31.8154 10.5807C31.3586 9.55507 31.1226 8.44484 31.1226 7.32209V2.97164C31.1226 1.63732 29.2367 0.992065 29.2367 0.992065L27.8748 6.59351L29.2367 11.7661H29.982C30.743 11.7661 31.5008 11.6915 32.2448 11.545L31.8154 10.5807Z" fill="#FFDA4C"/>
<path d="M25.4301 0.992065C25.4301 0.992065 23.5442 1.63739 23.5442 2.97164V7.32216C23.5442 8.44491 23.3082 9.55507 22.8513 10.5807L22.4219 11.5449C23.1659 11.6915 23.9237 11.7661 24.6847 11.7661H25.43L26.9067 7.12838L25.4301 0.992065Z" fill="#FFDA4C"/>
<path d="M27.3333 4.82129L25.4299 6.12748V11.766H29.2366V6.12748L27.3333 4.82129Z" fill="#FEF156"/>
<path d="M28.2446 0H26.422C25.8763 0 25.4299 0.446414 25.4299 0.992039V6.12752C25.6856 6.93527 26.4438 7.52505 27.3333 7.52505C28.2227 7.52505 28.9809 6.93527 29.2366 6.12759V0.992039C29.2366 0.446414 28.7902 0 28.2446 0Z" fill="#FFFBB3"/>
</g>
<defs>
<clipPath id="clip0_10410_17959">
<rect width="36" height="36" fill="white"/>
</clipPath>
</defs>
</svg>
