<svg width="36" height="36" viewBox="0 0 36 36" fill="none" xmlns="http://www.w3.org/2000/svg">
<g clip-path="url(#clip0_10368_7376)">
<mask id="mask0_10368_7376" style="mask-type:luminance" maskUnits="userSpaceOnUse" x="0" y="0" width="36" height="36">
<path d="M0 3.43323e-05H36V36H0V3.43323e-05Z" fill="white"/>
</mask>
<g mask="url(#mask0_10368_7376)">
<path d="M35.2966 17.9108C35.2966 27.4248 27.584 35.1374 18.0701 35.1374C8.55608 35.1374 0.843506 27.4248 0.843506 17.9108C0.843506 8.39685 8.55608 0.684269 18.0701 0.684269C27.584 0.684269 35.2966 8.39685 35.2966 17.9108Z" fill="#2385EC"/>
<path d="M34.9325 11.6355L30.8779 2.35802L30.2336 2.63962L29.5894 2.35802L26.179 10.1612L22.7687 2.35802L22.1244 2.63962L21.4802 2.35802L18.0586 10.187L14.6371 2.35802L13.9928 2.63962L13.3485 2.35802L9.93823 10.1613L6.52793 2.35802L5.88366 2.63962L5.23938 2.35802L1.18481 11.6355L2.47336 12.1986L5.88366 4.39533L9.29396 12.1986L9.93823 11.917L10.5825 12.1986L13.9928 4.39533L17.4031 12.1986L18.0586 11.9122L18.7141 12.1986L22.1244 4.39533L25.5347 12.1986L26.1791 11.917L26.8233 12.1986L30.2336 4.3954L33.6439 12.1986L34.9325 11.6355Z" fill="#272F38"/>
<path d="M21.0482 12.169H15.0923V15.6508H21.0482V12.169Z" fill="#272F38"/>
<path d="M35.2966 3.84805H0.843506V1.78642H35.2966V3.84805Z" fill="#484F61"/>
<path d="M35.2966 12.9193H0.843506V10.8577H35.2966V12.9193Z" fill="#484F61"/>
<path d="M19.1468 22.9462V20.1733H16.5175V24.4175C16.5175 25.2288 16.9529 25.9834 17.6656 26.371C18.4152 26.7787 18.9238 27.5733 18.9238 28.4863C18.9238 29.815 17.8469 30.8926 16.5175 30.8926C15.3301 30.8926 14.3431 30.0319 14.1468 28.9005C14.1055 28.6625 13.9037 28.4863 13.6622 28.4863H13.5053C13.2385 28.4863 13.0221 28.7025 13.022 28.9695V28.9744C13.022 31.7618 15.2826 34.0225 18.0701 34.0225C20.8582 34.0225 23.1181 31.7618 23.1181 28.9744C23.1181 26.8957 21.8618 25.1115 20.0671 24.3378C19.5101 24.0978 19.1468 23.5527 19.1468 22.9462Z" fill="#484F61"/>
<path d="M17.6657 26.371C18.4153 26.7786 18.9239 27.5732 18.9239 28.4862C18.9239 29.6419 18.109 30.6073 17.022 30.8392C17.1844 30.8738 17.3528 30.8925 17.5255 30.8925C18.8549 30.8925 19.9318 29.8149 19.9318 28.4862C19.9318 27.5732 19.4232 26.7786 18.6736 26.371C17.961 25.9833 17.5255 25.2287 17.5255 24.4175V20.1733H16.5176V24.4175C16.5176 25.2287 16.953 25.9833 17.6657 26.371Z" fill="#272F38"/>
<path d="M14.0299 28.9744V28.9694C14.03 28.8856 14.0513 28.8068 14.089 28.7381C14.0038 28.5867 13.8443 28.4863 13.6622 28.4863H13.5054C13.2385 28.4863 13.0221 28.7026 13.022 28.9694V28.9744C13.022 31.7619 15.2826 34.0224 18.0701 34.0224C18.2402 34.0224 18.4083 34.0138 18.5741 33.9973C16.0232 33.7443 14.0299 31.5917 14.0299 28.9744Z" fill="#272F38"/>
<path d="M20.9932 21.7974H15.1466C14.565 21.7974 14.0644 21.3868 13.9504 20.8165L12.9862 15.987C12.8355 15.2323 13.4128 14.5284 14.1823 14.5284H21.9575C22.7271 14.5284 23.3043 15.2323 23.1536 15.987L22.1894 20.8165C22.0755 21.3868 21.5748 21.7974 20.9932 21.7974Z" fill="#FEE887"/>
<path d="M16.5282 21.7977H15.1466C14.5651 21.7977 14.0645 21.387 13.9506 20.8168L12.9866 15.987C12.8361 15.2326 13.4134 14.5288 14.1826 14.5288H15.5643C14.7943 14.5288 14.2171 15.2326 14.3682 15.987L15.3322 20.8168C15.4461 21.387 15.9468 21.7977 16.5282 21.7977Z" fill="#FD9B3D"/>
<path d="M19.9485 18.1629C19.9485 17.1253 19.1073 16.2841 18.0697 16.2841C17.0321 16.2841 16.1909 17.1253 16.1909 18.1629C16.1909 19.2005 17.0321 20.0417 18.0697 20.0417C19.1073 20.0417 19.9485 19.2005 19.9485 18.1629Z" fill="#FC5B5B"/>
</g>
</g>
<defs>
<clipPath id="clip0_10368_7376">
<rect width="36" height="36" fill="white"/>
</clipPath>
</defs>
</svg>
