<svg width="48" height="48" viewBox="0 0 48 48" fill="none" xmlns="http://www.w3.org/2000/svg">
<path d="M23.9688 46.9375C36.654 46.9375 46.9375 36.654 46.9375 23.9688C46.9375 11.2835 36.654 1 23.9688 1C11.2835 1 1 11.2835 1 23.9688C1 36.654 11.2835 46.9375 23.9688 46.9375Z" fill="#F0F0F0"/>
<g clip-path="url(#clip0_10376_18048)">
<path d="M24.0003 6.45782C13.1184 6.45782 4.29688 15.2793 4.29688 26.1612V28.7884H43.7037V26.1612C43.7037 15.2794 34.8822 6.45782 24.0003 6.45782Z" fill="#FFC839"/>
<path d="M27.8418 6.83333C26.5992 6.58777 25.315 6.45782 24.0003 6.45782C13.1184 6.45782 4.29688 15.2793 4.29688 26.1612V28.7884H11.9798V26.1612C11.9798 16.594 18.799 8.62053 27.8418 6.83333Z" fill="#FFB332"/>
<path d="M24.0003 14.119C24.0003 14.119 16.7012 21.5051 4.79155 22.1978C3.78276 22.2565 3.00049 23.1037 3.00049 24.1141V30.2575H45V24.1141C45 23.1037 44.2177 22.2565 43.2089 22.1978C31.2994 21.5051 24.0003 14.119 24.0003 14.119Z" fill="#FFB332"/>
<path d="M11.9792 26.1613C11.9792 24.2526 12.2516 22.4076 12.758 20.6621C10.4128 21.4422 7.74413 22.0261 4.79106 22.1979C3.78227 22.2566 3 23.1038 3 24.1143V30.2577H11.9792V26.1613Z" fill="#FF9100"/>
<path d="M27.6037 5H20.3973C19.2479 5 18.3558 6.00272 18.4896 7.14431L21.1193 29.5792H26.8815L29.5113 7.14431C29.6452 6.00272 28.7531 5 27.6037 5Z" fill="#FFDD40"/>
<path d="M24.0001 20.4774C21.8474 20.4774 20.0513 18.9508 19.6353 16.9211L21.119 29.5791H26.8812L28.3649 16.9212C27.9489 18.9508 26.1528 20.4774 24.0001 20.4774Z" fill="#FFC839"/>
<rect x="1" y="27" width="46" height="6" rx="3" fill="#FFC839"/>
<rect x="1" y="33" width="46" height="6" rx="3" fill="#FFB332"/>
<rect x="11" y="27" width="36" height="6" rx="3" fill="#FFDD40"/>
<rect x="11" y="33" width="36" height="6" rx="3" fill="#FFC839"/>
</g>
<rect x="13" y="14" width="22" height="16" rx="8" fill="white"/>
<g clip-path="url(#clip1_10376_18048)">
<path d="M24.6768 18.8732C24.6253 18.8775 25.03 17.7981 23.7251 18.0336C20.2755 18.6561 17.8377 20.9537 17.3244 21.6114C16.8112 22.2692 15.2391 25.0123 19.3936 24.6915C23.5488 24.3708 25.8443 21.9865 26.1636 21.5473C27.4093 19.8306 26.9215 18.6928 24.6768 18.874V18.8732ZM23.8266 18.3121C23.8266 18.3121 24.6422 18.1245 24.3081 18.9325C24.3081 18.9325 22.2763 19.1249 19.4422 20.8042C19.4422 20.8042 20.9178 18.7562 23.8273 18.3128L23.8266 18.3121ZM22.7451 23.5995C20.7747 24.3341 18.9036 24.1966 18.5652 23.2907C18.2275 22.3848 19.5508 21.0552 21.5205 20.3199C23.491 19.5846 25.362 19.7228 25.6997 20.6287C26.0381 21.5346 24.7142 22.8649 22.7444 23.6002L22.7451 23.5995Z" fill="#DF134C"/>
<path d="M26.8447 26L27.7182 21.0481H29.0062L28.9125 21.5762C29.1303 21.3534 29.3207 21.2025 29.4835 21.1236C29.7028 21.0178 29.9347 20.965 30.1779 20.965C30.6587 20.965 30.9978 21.1482 31.1952 21.5155C31.3933 21.8828 31.4448 22.3369 31.3496 22.8783C31.2446 23.4754 31.0204 23.9316 30.6785 24.246C30.3365 24.5604 29.9474 24.7176 29.5096 24.7176C29.2974 24.7176 29.1099 24.681 28.9484 24.609C28.7863 24.5371 28.6488 24.4293 28.5367 24.2862L28.2343 26H26.8447ZM28.7799 22.848C28.7299 23.1307 28.7531 23.3415 28.8483 23.4789C28.9435 23.6164 29.0824 23.6848 29.2657 23.6848C29.4257 23.6848 29.5709 23.6192 29.7028 23.4874C29.8346 23.3556 29.9277 23.1328 29.9833 22.8177C30.0341 22.5272 30.0151 22.315 29.9269 22.1782C29.8381 22.0422 29.7126 21.9745 29.5505 21.9745C29.3742 21.9745 29.2156 22.0436 29.0746 22.1804C28.9329 22.3171 28.8349 22.5399 28.7806 22.848H28.7799Z" fill="#0060A9"/>
<path d="M21.45 21.046H22.7718L22.9537 23.271L24.0697 21.046H25.2957L25.6552 23.2893L26.626 21.046H27.9401L25.9986 24.6098H24.7831L24.4391 22.4652L23.3633 24.6098H22.143L21.45 21.046Z" fill="#0060A9"/>
</g>
<defs>
<clipPath id="clip0_10376_18048">
<rect width="46" height="34" fill="white" transform="translate(1 5)"/>
</clipPath>
<clipPath id="clip1_10376_18048">
<rect width="14.7928" height="8" fill="white" transform="translate(16.6035 18)"/>
</clipPath>
</defs>
</svg>
