<svg width="440" height="330" viewBox="0 0 440 330" fill="none" xmlns="http://www.w3.org/2000/svg">
<path d="M24 0.5H416C428.979 0.5 439.5 11.0213 439.5 24V306C439.5 318.979 428.979 329.5 416 329.5H24C11.0213 329.5 0.5 318.979 0.5 306V24C0.5 11.0213 11.0213 0.5 24 0.5Z" fill="#EFFBFE"/>
<path d="M24 0.5H416C428.979 0.5 439.5 11.0213 439.5 24V306C439.5 318.979 428.979 329.5 416 329.5H24C11.0213 329.5 0.5 318.979 0.5 306V24C0.5 11.0213 11.0213 0.5 24 0.5Z" stroke="#C4EBF5"/>
<path d="M44.9834 35.9922V46H43.7188V37.5713L41.1689 38.501V37.3594L44.7852 35.9922H44.9834ZM54.5302 40.2305V41.748C54.5302 42.5638 54.4573 43.252 54.3114 43.8125C54.1656 44.373 53.956 44.8242 53.6825 45.166C53.4091 45.5078 53.0787 45.7562 52.6913 45.9111C52.3085 46.0615 51.8756 46.1367 51.3925 46.1367C51.0097 46.1367 50.6565 46.0889 50.3329 45.9932C50.0094 45.8975 49.7177 45.7448 49.4579 45.5352C49.2027 45.321 48.984 45.043 48.8017 44.7012C48.6194 44.3594 48.4804 43.9447 48.3847 43.457C48.289 42.9694 48.2411 42.3997 48.2411 41.748V40.2305C48.2411 39.4147 48.314 38.7311 48.4599 38.1797C48.6103 37.6283 48.8222 37.1862 49.0956 36.8535C49.3691 36.5163 49.6972 36.2747 50.08 36.1289C50.4674 35.9831 50.9003 35.9102 51.3788 35.9102C51.7662 35.9102 52.1217 35.958 52.4452 36.0537C52.7734 36.1449 53.065 36.293 53.3202 36.498C53.5754 36.6986 53.7919 36.9674 53.9696 37.3047C54.1519 37.6374 54.2909 38.0452 54.3866 38.5283C54.4823 39.0114 54.5302 39.5788 54.5302 40.2305ZM53.2587 41.9531V40.0186C53.2587 39.5719 53.2314 39.18 53.1767 38.8428C53.1265 38.501 53.0514 38.2093 52.9511 37.9678C52.8508 37.7262 52.7232 37.5303 52.5683 37.3799C52.4179 37.2295 52.2424 37.1201 52.0419 37.0518C51.846 36.9788 51.6249 36.9424 51.3788 36.9424C51.078 36.9424 50.8114 36.9993 50.579 37.1133C50.3466 37.2227 50.1506 37.3981 49.9911 37.6396C49.8362 37.8812 49.7177 38.1979 49.6357 38.5898C49.5536 38.9818 49.5126 39.458 49.5126 40.0186V41.9531C49.5126 42.3997 49.5377 42.7939 49.5878 43.1357C49.6425 43.4775 49.7223 43.7738 49.8271 44.0244C49.9319 44.2705 50.0595 44.4733 50.2099 44.6328C50.3603 44.7923 50.5335 44.9108 50.7294 44.9883C50.9299 45.0612 51.151 45.0977 51.3925 45.0977C51.7024 45.0977 51.9736 45.0384 52.206 44.9199C52.4384 44.8014 52.6321 44.6169 52.787 44.3662C52.9465 44.111 53.065 43.7852 53.1425 43.3887C53.22 42.9876 53.2587 42.5091 53.2587 41.9531ZM61.9852 40.2305V41.748C61.9852 42.5638 61.9123 43.252 61.7664 43.8125C61.6206 44.373 61.411 44.8242 61.1375 45.166C60.8641 45.5078 60.5337 45.7562 60.1463 45.9111C59.7635 46.0615 59.3306 46.1367 58.8475 46.1367C58.4647 46.1367 58.1115 46.0889 57.7879 45.9932C57.4644 45.8975 57.1727 45.7448 56.9129 45.5352C56.6577 45.321 56.439 45.043 56.2567 44.7012C56.0744 44.3594 55.9354 43.9447 55.8397 43.457C55.744 42.9694 55.6961 42.3997 55.6961 41.748V40.2305C55.6961 39.4147 55.769 38.7311 55.9149 38.1797C56.0653 37.6283 56.2772 37.1862 56.5506 36.8535C56.8241 36.5163 57.1522 36.2747 57.535 36.1289C57.9224 35.9831 58.3553 35.9102 58.8338 35.9102C59.2212 35.9102 59.5767 35.958 59.9002 36.0537C60.2284 36.1449 60.52 36.293 60.7752 36.498C61.0304 36.6986 61.2469 36.9674 61.4246 37.3047C61.6069 37.6374 61.7459 38.0452 61.8416 38.5283C61.9373 39.0114 61.9852 39.5788 61.9852 40.2305ZM60.7137 41.9531V40.0186C60.7137 39.5719 60.6864 39.18 60.6317 38.8428C60.5815 38.501 60.5064 38.2093 60.4061 37.9678C60.3058 37.7262 60.1782 37.5303 60.0233 37.3799C59.8729 37.2295 59.6974 37.1201 59.4969 37.0518C59.301 36.9788 59.0799 36.9424 58.8338 36.9424C58.533 36.9424 58.2664 36.9993 58.034 37.1133C57.8016 37.2227 57.6056 37.3981 57.4461 37.6396C57.2912 37.8812 57.1727 38.1979 57.0907 38.5898C57.0086 38.9818 56.9676 39.458 56.9676 40.0186V41.9531C56.9676 42.3997 56.9927 42.7939 57.0428 43.1357C57.0975 43.4775 57.1773 43.7738 57.2821 44.0244C57.3869 44.2705 57.5145 44.4733 57.6649 44.6328C57.8153 44.7923 57.9885 44.9108 58.1844 44.9883C58.3849 45.0612 58.606 45.0977 58.8475 45.0977C59.1574 45.0977 59.4286 45.0384 59.661 44.9199C59.8934 44.8014 60.0871 44.6169 60.242 44.3662C60.4015 44.111 60.52 43.7852 60.5975 43.3887C60.675 42.9876 60.7137 42.5091 60.7137 41.9531ZM69.4402 40.2305V41.748C69.4402 42.5638 69.3673 43.252 69.2214 43.8125C69.0756 44.373 68.866 44.8242 68.5925 45.166C68.3191 45.5078 67.9887 45.7562 67.6013 45.9111C67.2185 46.0615 66.7856 46.1367 66.3025 46.1367C65.9197 46.1367 65.5665 46.0889 65.2429 45.9932C64.9194 45.8975 64.6277 45.7448 64.3679 45.5352C64.1127 45.321 63.894 45.043 63.7117 44.7012C63.5294 44.3594 63.3904 43.9447 63.2947 43.457C63.199 42.9694 63.1511 42.3997 63.1511 41.748V40.2305C63.1511 39.4147 63.224 38.7311 63.3699 38.1797C63.5203 37.6283 63.7322 37.1862 64.0056 36.8535C64.2791 36.5163 64.6072 36.2747 64.99 36.1289C65.3774 35.9831 65.8103 35.9102 66.2888 35.9102C66.6762 35.9102 67.0317 35.958 67.3552 36.0537C67.6834 36.1449 67.975 36.293 68.2302 36.498C68.4854 36.6986 68.7019 36.9674 68.8796 37.3047C69.0619 37.6374 69.2009 38.0452 69.2966 38.5283C69.3923 39.0114 69.4402 39.5788 69.4402 40.2305ZM68.1687 41.9531V40.0186C68.1687 39.5719 68.1414 39.18 68.0867 38.8428C68.0365 38.501 67.9614 38.2093 67.8611 37.9678C67.7608 37.7262 67.6332 37.5303 67.4783 37.3799C67.3279 37.2295 67.1524 37.1201 66.9519 37.0518C66.756 36.9788 66.5349 36.9424 66.2888 36.9424C65.988 36.9424 65.7214 36.9993 65.489 37.1133C65.2566 37.2227 65.0606 37.3981 64.9011 37.6396C64.7462 37.8812 64.6277 38.1979 64.5457 38.5898C64.4636 38.9818 64.4226 39.458 64.4226 40.0186V41.9531C64.4226 42.3997 64.4477 42.7939 64.4978 43.1357C64.5525 43.4775 64.6323 43.7738 64.7371 44.0244C64.8419 44.2705 64.9695 44.4733 65.1199 44.6328C65.2703 44.7923 65.4435 44.9108 65.6394 44.9883C65.8399 45.0612 66.061 45.0977 66.3025 45.0977C66.6124 45.0977 66.8836 45.0384 67.116 44.9199C67.3484 44.8014 67.5421 44.6169 67.697 44.3662C67.8565 44.111 67.975 43.7852 68.0525 43.3887C68.13 42.9876 68.1687 42.5091 68.1687 41.9531Z" fill="#242424"/>
<path d="M47.1025 74.9066C47.1025 75.5127 46.9613 76.0277 46.6787 76.4515C46.4007 76.8708 46.0225 77.1898 45.5439 77.4086C45.07 77.6273 44.5345 77.7367 43.9375 77.7367C43.3405 77.7367 42.8027 77.6273 42.3242 77.4086C41.8457 77.1898 41.4674 76.8708 41.1895 76.4515C40.9115 76.0277 40.7725 75.5127 40.7725 74.9066C40.7725 74.5101 40.8477 74.1478 40.998 73.8197C41.153 73.487 41.3695 73.1976 41.6475 72.9515C41.93 72.7054 42.2627 72.5163 42.6455 72.3842C43.0329 72.2474 43.459 72.1791 43.9238 72.1791C44.5345 72.1791 45.0791 72.2976 45.5576 72.5345C46.0361 72.767 46.4121 73.0883 46.6855 73.4984C46.9635 73.9086 47.1025 74.378 47.1025 74.9066ZM45.8311 74.8793C45.8311 74.5101 45.7513 74.1843 45.5918 73.9017C45.4323 73.6146 45.209 73.3913 44.9219 73.2318C44.6348 73.0723 44.3021 72.9926 43.9238 72.9926C43.5365 72.9926 43.2015 73.0723 42.9189 73.2318C42.641 73.3913 42.4245 73.6146 42.2695 73.9017C42.1146 74.1843 42.0371 74.5101 42.0371 74.8793C42.0371 75.2621 42.1123 75.5902 42.2627 75.8636C42.4176 76.1325 42.6364 76.3399 42.9189 76.4857C43.2061 76.627 43.5456 76.6976 43.9375 76.6976C44.3294 76.6976 44.6667 76.627 44.9492 76.4857C45.2318 76.3399 45.4482 76.1325 45.5986 75.8636C45.7536 75.5902 45.8311 75.2621 45.8311 74.8793ZM46.8701 70.2377C46.8701 70.7207 46.7425 71.156 46.4873 71.5433C46.2321 71.9307 45.8835 72.236 45.4414 72.4594C44.9993 72.6827 44.498 72.7943 43.9375 72.7943C43.3678 72.7943 42.8597 72.6827 42.4131 72.4594C41.971 72.236 41.6247 71.9307 41.374 71.5433C41.1234 71.156 40.998 70.7207 40.998 70.2377C40.998 69.6589 41.1234 69.1667 41.374 68.7611C41.6292 68.3555 41.9779 68.0456 42.4199 67.8314C42.862 67.6172 43.3656 67.5101 43.9307 67.5101C44.5003 67.5101 45.0062 67.6172 45.4482 67.8314C45.8903 68.0456 46.2367 68.3555 46.4873 68.7611C46.7425 69.1667 46.8701 69.6589 46.8701 70.2377ZM45.6055 70.2582C45.6055 69.9255 45.5348 69.6316 45.3936 69.3763C45.2523 69.1211 45.0563 68.9206 44.8057 68.7748C44.555 68.6244 44.2633 68.5492 43.9307 68.5492C43.598 68.5492 43.3063 68.6198 43.0557 68.7611C42.8096 68.8978 42.6159 69.0938 42.4746 69.349C42.3379 69.6042 42.2695 69.9073 42.2695 70.2582C42.2695 70.6 42.3379 70.8985 42.4746 71.1537C42.6159 71.4089 42.8118 71.6071 43.0625 71.7484C43.3132 71.8897 43.6048 71.9603 43.9375 71.9603C44.2702 71.9603 44.5596 71.8897 44.8057 71.7484C45.0563 71.6071 45.2523 71.4089 45.3936 71.1537C45.5348 70.8985 45.6055 70.6 45.6055 70.2582ZM54.5302 71.8304V73.348C54.5302 74.1638 54.4573 74.8519 54.3114 75.4125C54.1656 75.973 53.956 76.4242 53.6825 76.766C53.4091 77.1078 53.0787 77.3562 52.6913 77.5111C52.3085 77.6615 51.8756 77.7367 51.3925 77.7367C51.0097 77.7367 50.6565 77.6888 50.3329 77.5931C50.0094 77.4974 49.7177 77.3448 49.4579 77.1351C49.2027 76.9209 48.984 76.6429 48.8017 76.3011C48.6194 75.9594 48.4804 75.5446 48.3847 75.057C48.289 74.5694 48.2411 73.9997 48.2411 73.348V71.8304C48.2411 71.0147 48.314 70.3311 48.4599 69.7797C48.6103 69.2282 48.8222 68.7862 49.0956 68.4535C49.3691 68.1163 49.6972 67.8747 50.08 67.7289C50.4674 67.583 50.9003 67.5101 51.3788 67.5101C51.7662 67.5101 52.1217 67.558 52.4452 67.6537C52.7734 67.7448 53.065 67.8929 53.3202 68.098C53.5754 68.2985 53.7919 68.5674 53.9696 68.9047C54.1519 69.2373 54.2909 69.6452 54.3866 70.1283C54.4823 70.6114 54.5302 71.1788 54.5302 71.8304ZM53.2587 73.5531V71.6185C53.2587 71.1719 53.2314 70.78 53.1767 70.4427C53.1265 70.101 53.0514 69.8093 52.9511 69.5677C52.8508 69.3262 52.7232 69.1302 52.5683 68.9799C52.4179 68.8295 52.2424 68.7201 52.0419 68.6517C51.846 68.5788 51.6249 68.5424 51.3788 68.5424C51.078 68.5424 50.8114 68.5993 50.579 68.7133C50.3466 68.8226 50.1506 68.9981 49.9911 69.2396C49.8362 69.4812 49.7177 69.7979 49.6357 70.1898C49.5536 70.5817 49.5126 71.058 49.5126 71.6185V73.5531C49.5126 73.9997 49.5377 74.3939 49.5878 74.7357C49.6425 75.0775 49.7223 75.3737 49.8271 75.6244C49.9319 75.8705 50.0595 76.0733 50.2099 76.2328C50.3603 76.3923 50.5335 76.5108 50.7294 76.5883C50.9299 76.6612 51.151 76.6976 51.3925 76.6976C51.7024 76.6976 51.9736 76.6384 52.206 76.5199C52.4384 76.4014 52.6321 76.2168 52.787 75.9662C52.9465 75.711 53.065 75.3851 53.1425 74.9886C53.22 74.5876 53.2587 74.1091 53.2587 73.5531ZM61.9852 71.8304V73.348C61.9852 74.1638 61.9123 74.8519 61.7664 75.4125C61.6206 75.973 61.411 76.4242 61.1375 76.766C60.8641 77.1078 60.5337 77.3562 60.1463 77.5111C59.7635 77.6615 59.3306 77.7367 58.8475 77.7367C58.4647 77.7367 58.1115 77.6888 57.7879 77.5931C57.4644 77.4974 57.1727 77.3448 56.9129 77.1351C56.6577 76.9209 56.439 76.6429 56.2567 76.3011C56.0744 75.9594 55.9354 75.5446 55.8397 75.057C55.744 74.5694 55.6961 73.9997 55.6961 73.348V71.8304C55.6961 71.0147 55.769 70.3311 55.9149 69.7797C56.0653 69.2282 56.2772 68.7862 56.5506 68.4535C56.8241 68.1163 57.1522 67.8747 57.535 67.7289C57.9224 67.583 58.3553 67.5101 58.8338 67.5101C59.2212 67.5101 59.5767 67.558 59.9002 67.6537C60.2284 67.7448 60.52 67.8929 60.7752 68.098C61.0304 68.2985 61.2469 68.5674 61.4246 68.9047C61.6069 69.2373 61.7459 69.6452 61.8416 70.1283C61.9373 70.6114 61.9852 71.1788 61.9852 71.8304ZM60.7137 73.5531V71.6185C60.7137 71.1719 60.6864 70.78 60.6317 70.4427C60.5815 70.101 60.5064 69.8093 60.4061 69.5677C60.3058 69.3262 60.1782 69.1302 60.0233 68.9799C59.8729 68.8295 59.6974 68.7201 59.4969 68.6517C59.301 68.5788 59.0799 68.5424 58.8338 68.5424C58.533 68.5424 58.2664 68.5993 58.034 68.7133C57.8016 68.8226 57.6056 68.9981 57.4461 69.2396C57.2912 69.4812 57.1727 69.7979 57.0907 70.1898C57.0086 70.5817 56.9676 71.058 56.9676 71.6185V73.5531C56.9676 73.9997 56.9927 74.3939 57.0428 74.7357C57.0975 75.0775 57.1773 75.3737 57.2821 75.6244C57.3869 75.8705 57.5145 76.0733 57.6649 76.2328C57.8153 76.3923 57.9885 76.5108 58.1844 76.5883C58.3849 76.6612 58.606 76.6976 58.8475 76.6976C59.1574 76.6976 59.4286 76.6384 59.661 76.5199C59.8934 76.4014 60.0871 76.2168 60.242 75.9662C60.4015 75.711 60.52 75.3851 60.5975 74.9886C60.675 74.5876 60.7137 74.1091 60.7137 73.5531Z" fill="#242424"/>
<path d="M45.6807 99.2332H45.79V100.306H45.6807C45.0107 100.306 44.4502 100.416 43.999 100.635C43.5479 100.849 43.1901 101.138 42.9258 101.503C42.6615 101.863 42.4701 102.268 42.3516 102.719C42.2376 103.171 42.1807 103.629 42.1807 104.094V105.556C42.1807 105.998 42.2331 106.39 42.3379 106.732C42.4427 107.069 42.5863 107.354 42.7686 107.587C42.9508 107.819 43.1559 107.995 43.3838 108.113C43.6162 108.232 43.8577 108.291 44.1084 108.291C44.4001 108.291 44.6598 108.236 44.8877 108.127C45.1156 108.013 45.307 107.856 45.4619 107.655C45.6214 107.45 45.7422 107.208 45.8242 106.93C45.9062 106.652 45.9473 106.347 45.9473 106.014C45.9473 105.718 45.9108 105.433 45.8379 105.16C45.765 104.882 45.6533 104.636 45.5029 104.422C45.3525 104.203 45.1634 104.032 44.9355 103.909C44.7122 103.781 44.4456 103.718 44.1357 103.718C43.7848 103.718 43.4567 103.804 43.1514 103.977C42.8506 104.146 42.6022 104.369 42.4062 104.647C42.2148 104.921 42.1055 105.219 42.0781 105.543L41.4082 105.536C41.472 105.025 41.5905 104.59 41.7637 104.23C41.9414 103.866 42.1602 103.569 42.4199 103.342C42.6842 103.109 42.9782 102.941 43.3018 102.836C43.6299 102.726 43.9762 102.672 44.3408 102.672C44.8376 102.672 45.266 102.765 45.626 102.952C45.986 103.139 46.2822 103.389 46.5146 103.704C46.7471 104.014 46.918 104.365 47.0273 104.757C47.1413 105.144 47.1982 105.543 47.1982 105.953C47.1982 106.422 47.1322 106.862 47 107.272C46.8678 107.682 46.6696 108.042 46.4053 108.352C46.1455 108.662 45.8242 108.904 45.4414 109.077C45.0586 109.25 44.6143 109.337 44.1084 109.337C43.5706 109.337 43.1012 109.227 42.7002 109.009C42.2992 108.785 41.9665 108.489 41.7021 108.12C41.4378 107.751 41.2396 107.341 41.1074 106.889C40.9753 106.438 40.9092 105.98 40.9092 105.515V104.921C40.9092 104.219 40.9798 103.531 41.1211 102.856C41.2624 102.182 41.5062 101.571 41.8525 101.024C42.2035 100.477 42.6888 100.042 43.3086 99.7185C43.9284 99.3949 44.7191 99.2332 45.6807 99.2332ZM54.5302 103.43V104.948C54.5302 105.764 54.4573 106.452 54.3114 107.012C54.1656 107.573 53.956 108.024 53.6825 108.366C53.4091 108.708 53.0787 108.956 52.6913 109.111C52.3085 109.261 51.8756 109.337 51.3925 109.337C51.0097 109.337 50.6565 109.289 50.3329 109.193C50.0094 109.097 49.7177 108.945 49.4579 108.735C49.2027 108.521 48.984 108.243 48.8017 107.901C48.6194 107.559 48.4804 107.145 48.3847 106.657C48.289 106.169 48.2411 105.6 48.2411 104.948V103.43C48.2411 102.615 48.314 101.931 48.4599 101.38C48.6103 100.828 48.8222 100.386 49.0956 100.053C49.3691 99.7162 49.6972 99.4747 50.08 99.3289C50.4674 99.183 50.9003 99.1101 51.3788 99.1101C51.7662 99.1101 52.1217 99.158 52.4452 99.2537C52.7734 99.3448 53.065 99.4929 53.3202 99.698C53.5754 99.8985 53.7919 100.167 53.9696 100.505C54.1519 100.837 54.2909 101.245 54.3866 101.728C54.4823 102.211 54.5302 102.779 54.5302 103.43ZM53.2587 105.153V103.219C53.2587 102.772 53.2314 102.38 53.1767 102.043C53.1265 101.701 53.0514 101.409 52.9511 101.168C52.8508 100.926 52.7232 100.73 52.5683 100.58C52.4179 100.429 52.2424 100.32 52.0419 100.252C51.846 100.179 51.6249 100.142 51.3788 100.142C51.078 100.142 50.8114 100.199 50.579 100.313C50.3466 100.423 50.1506 100.598 49.9911 100.84C49.8362 101.081 49.7177 101.398 49.6357 101.79C49.5536 102.182 49.5126 102.658 49.5126 103.219V105.153C49.5126 105.6 49.5377 105.994 49.5878 106.336C49.6425 106.677 49.7223 106.974 49.8271 107.224C49.9319 107.47 50.0595 107.673 50.2099 107.833C50.3603 107.992 50.5335 108.111 50.7294 108.188C50.9299 108.261 51.151 108.298 51.3925 108.298C51.7024 108.298 51.9736 108.238 52.206 108.12C52.4384 108.001 52.6321 107.817 52.787 107.566C52.9465 107.311 53.065 106.985 53.1425 106.589C53.22 106.188 53.2587 105.709 53.2587 105.153ZM61.9852 103.43V104.948C61.9852 105.764 61.9123 106.452 61.7664 107.012C61.6206 107.573 61.411 108.024 61.1375 108.366C60.8641 108.708 60.5337 108.956 60.1463 109.111C59.7635 109.261 59.3306 109.337 58.8475 109.337C58.4647 109.337 58.1115 109.289 57.7879 109.193C57.4644 109.097 57.1727 108.945 56.9129 108.735C56.6577 108.521 56.439 108.243 56.2567 107.901C56.0744 107.559 55.9354 107.145 55.8397 106.657C55.744 106.169 55.6961 105.6 55.6961 104.948V103.43C55.6961 102.615 55.769 101.931 55.9149 101.38C56.0653 100.828 56.2772 100.386 56.5506 100.053C56.8241 99.7162 57.1522 99.4747 57.535 99.3289C57.9224 99.183 58.3553 99.1101 58.8338 99.1101C59.2212 99.1101 59.5767 99.158 59.9002 99.2537C60.2284 99.3448 60.52 99.4929 60.7752 99.698C61.0304 99.8985 61.2469 100.167 61.4246 100.505C61.6069 100.837 61.7459 101.245 61.8416 101.728C61.9373 102.211 61.9852 102.779 61.9852 103.43ZM60.7137 105.153V103.219C60.7137 102.772 60.6864 102.38 60.6317 102.043C60.5815 101.701 60.5064 101.409 60.4061 101.168C60.3058 100.926 60.1782 100.73 60.0233 100.58C59.8729 100.429 59.6974 100.32 59.4969 100.252C59.301 100.179 59.0799 100.142 58.8338 100.142C58.533 100.142 58.2664 100.199 58.034 100.313C57.8016 100.423 57.6056 100.598 57.4461 100.84C57.2912 101.081 57.1727 101.398 57.0907 101.79C57.0086 102.182 56.9676 102.658 56.9676 103.219V105.153C56.9676 105.6 56.9927 105.994 57.0428 106.336C57.0975 106.677 57.1773 106.974 57.2821 107.224C57.3869 107.47 57.5145 107.673 57.6649 107.833C57.8153 107.992 57.9885 108.111 58.1844 108.188C58.3849 108.261 58.606 108.298 58.8475 108.298C59.1574 108.298 59.4286 108.238 59.661 108.12C59.8934 108.001 60.0871 107.817 60.242 107.566C60.4015 107.311 60.52 106.985 60.5975 106.589C60.675 106.188 60.7137 105.709 60.7137 105.153Z" fill="#242424"/>
<path d="M47.5537 137.45V138.49H40.3623V137.744L44.8193 130.847H45.8516L44.7441 132.843L41.7979 137.45H47.5537ZM46.166 130.847V140.8H44.9014V130.847H46.166ZM54.5302 135.031V136.548C54.5302 137.364 54.4573 138.052 54.3114 138.613C54.1656 139.173 53.956 139.624 53.6825 139.966C53.4091 140.308 53.0787 140.556 52.6913 140.711C52.3085 140.862 51.8756 140.937 51.3925 140.937C51.0097 140.937 50.6565 140.889 50.3329 140.793C50.0094 140.698 49.7177 140.545 49.4579 140.335C49.2027 140.121 48.984 139.843 48.8017 139.501C48.6194 139.159 48.4804 138.745 48.3847 138.257C48.289 137.769 48.2411 137.2 48.2411 136.548V135.031C48.2411 134.215 48.314 133.531 48.4599 132.98C48.6103 132.428 48.8222 131.986 49.0956 131.654C49.3691 131.316 49.6972 131.075 50.08 130.929C50.4674 130.783 50.9003 130.71 51.3788 130.71C51.7662 130.71 52.1217 130.758 52.4452 130.854C52.7734 130.945 53.065 131.093 53.3202 131.298C53.5754 131.499 53.7919 131.767 53.9696 132.105C54.1519 132.437 54.2909 132.845 54.3866 133.328C54.4823 133.811 54.5302 134.379 54.5302 135.031ZM53.2587 136.753V134.819C53.2587 134.372 53.2314 133.98 53.1767 133.643C53.1265 133.301 53.0514 133.009 52.9511 132.768C52.8508 132.526 52.7232 132.33 52.5683 132.18C52.4179 132.03 52.2424 131.92 52.0419 131.852C51.846 131.779 51.6249 131.742 51.3788 131.742C51.078 131.742 50.8114 131.799 50.579 131.913C50.3466 132.023 50.1506 132.198 49.9911 132.44C49.8362 132.681 49.7177 132.998 49.6357 133.39C49.5536 133.782 49.5126 134.258 49.5126 134.819V136.753C49.5126 137.2 49.5377 137.594 49.5878 137.936C49.6425 138.278 49.7223 138.574 49.8271 138.824C49.9319 139.071 50.0595 139.273 50.2099 139.433C50.3603 139.592 50.5335 139.711 50.7294 139.788C50.9299 139.861 51.151 139.898 51.3925 139.898C51.7024 139.898 51.9736 139.838 52.206 139.72C52.4384 139.601 52.6321 139.417 52.787 139.166C52.9465 138.911 53.065 138.585 53.1425 138.189C53.22 137.788 53.2587 137.309 53.2587 136.753ZM61.9852 135.031V136.548C61.9852 137.364 61.9123 138.052 61.7664 138.613C61.6206 139.173 61.411 139.624 61.1375 139.966C60.8641 140.308 60.5337 140.556 60.1463 140.711C59.7635 140.862 59.3306 140.937 58.8475 140.937C58.4647 140.937 58.1115 140.889 57.7879 140.793C57.4644 140.698 57.1727 140.545 56.9129 140.335C56.6577 140.121 56.439 139.843 56.2567 139.501C56.0744 139.159 55.9354 138.745 55.8397 138.257C55.744 137.769 55.6961 137.2 55.6961 136.548V135.031C55.6961 134.215 55.769 133.531 55.9149 132.98C56.0653 132.428 56.2772 131.986 56.5506 131.654C56.8241 131.316 57.1522 131.075 57.535 130.929C57.9224 130.783 58.3553 130.71 58.8338 130.71C59.2212 130.71 59.5767 130.758 59.9002 130.854C60.2284 130.945 60.52 131.093 60.7752 131.298C61.0304 131.499 61.2469 131.767 61.4246 132.105C61.6069 132.437 61.7459 132.845 61.8416 133.328C61.9373 133.811 61.9852 134.379 61.9852 135.031ZM60.7137 136.753V134.819C60.7137 134.372 60.6864 133.98 60.6317 133.643C60.5815 133.301 60.5064 133.009 60.4061 132.768C60.3058 132.526 60.1782 132.33 60.0233 132.18C59.8729 132.03 59.6974 131.92 59.4969 131.852C59.301 131.779 59.0799 131.742 58.8338 131.742C58.533 131.742 58.2664 131.799 58.034 131.913C57.8016 132.023 57.6056 132.198 57.4461 132.44C57.2912 132.681 57.1727 132.998 57.0907 133.39C57.0086 133.782 56.9676 134.258 56.9676 134.819V136.753C56.9676 137.2 56.9927 137.594 57.0428 137.936C57.0975 138.278 57.1773 138.574 57.2821 138.824C57.3869 139.071 57.5145 139.273 57.6649 139.433C57.8153 139.592 57.9885 139.711 58.1844 139.788C58.3849 139.861 58.606 139.898 58.8475 139.898C59.1574 139.898 59.4286 139.838 59.661 139.72C59.8934 139.601 60.0871 139.417 60.242 139.166C60.4015 138.911 60.52 138.585 60.5975 138.189C60.675 137.788 60.7137 137.309 60.7137 136.753Z" fill="#242424"/>
<path d="M47.3486 171.361V172.4H40.834V171.491L44.0947 167.861C44.4958 167.414 44.8057 167.036 45.0244 166.726C45.2477 166.412 45.4027 166.131 45.4893 165.885C45.5804 165.635 45.626 165.38 45.626 165.12C45.626 164.792 45.5576 164.495 45.4209 164.231C45.2887 163.962 45.0928 163.748 44.833 163.589C44.5732 163.429 44.2588 163.349 43.8896 163.349C43.4476 163.349 43.0785 163.436 42.7822 163.609C42.4906 163.778 42.2718 164.015 42.126 164.32C41.9801 164.625 41.9072 164.976 41.9072 165.373H40.6426C40.6426 164.812 40.7656 164.299 41.0117 163.835C41.2578 163.37 41.6224 163.001 42.1055 162.727C42.5885 162.449 43.1833 162.31 43.8896 162.31C44.5186 162.31 45.0563 162.422 45.5029 162.645C45.9495 162.864 46.2913 163.174 46.5283 163.575C46.7699 163.971 46.8906 164.436 46.8906 164.969C46.8906 165.261 46.8405 165.557 46.7402 165.858C46.6445 166.154 46.5101 166.45 46.3369 166.747C46.1683 167.043 45.9701 167.335 45.7422 167.622C45.5189 167.909 45.2796 168.191 45.0244 168.469L42.3584 171.361H47.3486ZM54.5302 166.63V168.148C54.5302 168.964 54.4573 169.652 54.3114 170.213C54.1656 170.773 53.956 171.224 53.6825 171.566C53.4091 171.908 53.0787 172.156 52.6913 172.311C52.3085 172.462 51.8756 172.537 51.3925 172.537C51.0097 172.537 50.6565 172.489 50.3329 172.393C50.0094 172.297 49.7177 172.145 49.4579 171.935C49.2027 171.721 48.984 171.443 48.8017 171.101C48.6194 170.759 48.4804 170.345 48.3847 169.857C48.289 169.369 48.2411 168.8 48.2411 168.148V166.63C48.2411 165.815 48.314 165.131 48.4599 164.58C48.6103 164.028 48.8222 163.586 49.0956 163.254C49.3691 162.916 49.6972 162.675 50.08 162.529C50.4674 162.383 50.9003 162.31 51.3788 162.31C51.7662 162.31 52.1217 162.358 52.4452 162.454C52.7734 162.545 53.065 162.693 53.3202 162.898C53.5754 163.099 53.7919 163.367 53.9696 163.705C54.1519 164.037 54.2909 164.445 54.3866 164.928C54.4823 165.411 54.5302 165.979 54.5302 166.63ZM53.2587 168.353V166.419C53.2587 165.972 53.2314 165.58 53.1767 165.243C53.1265 164.901 53.0514 164.609 52.9511 164.368C52.8508 164.126 52.7232 163.93 52.5683 163.78C52.4179 163.63 52.2424 163.52 52.0419 163.452C51.846 163.379 51.6249 163.342 51.3788 163.342C51.078 163.342 50.8114 163.399 50.579 163.513C50.3466 163.623 50.1506 163.798 49.9911 164.04C49.8362 164.281 49.7177 164.598 49.6357 164.99C49.5536 165.382 49.5126 165.858 49.5126 166.419V168.353C49.5126 168.8 49.5377 169.194 49.5878 169.536C49.6425 169.878 49.7223 170.174 49.8271 170.424C49.9319 170.671 50.0595 170.873 50.2099 171.033C50.3603 171.192 50.5335 171.311 50.7294 171.388C50.9299 171.461 51.151 171.498 51.3925 171.498C51.7024 171.498 51.9736 171.438 52.206 171.32C52.4384 171.201 52.6321 171.017 52.787 170.766C52.9465 170.511 53.065 170.185 53.1425 169.789C53.22 169.388 53.2587 168.909 53.2587 168.353ZM61.9852 166.63V168.148C61.9852 168.964 61.9123 169.652 61.7664 170.213C61.6206 170.773 61.411 171.224 61.1375 171.566C60.8641 171.908 60.5337 172.156 60.1463 172.311C59.7635 172.462 59.3306 172.537 58.8475 172.537C58.4647 172.537 58.1115 172.489 57.7879 172.393C57.4644 172.297 57.1727 172.145 56.9129 171.935C56.6577 171.721 56.439 171.443 56.2567 171.101C56.0744 170.759 55.9354 170.345 55.8397 169.857C55.744 169.369 55.6961 168.8 55.6961 168.148V166.63C55.6961 165.815 55.769 165.131 55.9149 164.58C56.0653 164.028 56.2772 163.586 56.5506 163.254C56.8241 162.916 57.1522 162.675 57.535 162.529C57.9224 162.383 58.3553 162.31 58.8338 162.31C59.2212 162.31 59.5767 162.358 59.9002 162.454C60.2284 162.545 60.52 162.693 60.7752 162.898C61.0304 163.099 61.2469 163.367 61.4246 163.705C61.6069 164.037 61.7459 164.445 61.8416 164.928C61.9373 165.411 61.9852 165.979 61.9852 166.63ZM60.7137 168.353V166.419C60.7137 165.972 60.6864 165.58 60.6317 165.243C60.5815 164.901 60.5064 164.609 60.4061 164.368C60.3058 164.126 60.1782 163.93 60.0233 163.78C59.8729 163.63 59.6974 163.52 59.4969 163.452C59.301 163.379 59.0799 163.342 58.8338 163.342C58.533 163.342 58.2664 163.399 58.034 163.513C57.8016 163.623 57.6056 163.798 57.4461 164.04C57.2912 164.281 57.1727 164.598 57.0907 164.99C57.0086 165.382 56.9676 165.858 56.9676 166.419V168.353C56.9676 168.8 56.9927 169.194 57.0428 169.536C57.0975 169.878 57.1773 170.174 57.2821 170.424C57.3869 170.671 57.5145 170.873 57.6649 171.033C57.8153 171.192 57.9885 171.311 58.1844 171.388C58.3849 171.461 58.606 171.498 58.8475 171.498C59.1574 171.498 59.4286 171.438 59.661 171.32C59.8934 171.201 60.0871 171.017 60.242 170.766C60.4015 170.511 60.52 170.185 60.5975 169.789C60.675 169.388 60.7137 168.909 60.7137 168.353Z" fill="#242424"/>
<path d="M47.0752 198.23V199.748C47.0752 200.564 47.0023 201.252 46.8564 201.812C46.7106 202.373 46.501 202.824 46.2275 203.166C45.9541 203.508 45.6237 203.756 45.2363 203.911C44.8535 204.062 44.4206 204.137 43.9375 204.137C43.5547 204.137 43.2015 204.089 42.8779 203.993C42.5544 203.897 42.2627 203.745 42.0029 203.535C41.7477 203.321 41.529 203.043 41.3467 202.701C41.1644 202.359 41.0254 201.945 40.9297 201.457C40.834 200.969 40.7861 200.4 40.7861 199.748V198.23C40.7861 197.415 40.859 196.731 41.0049 196.18C41.1553 195.628 41.3672 195.186 41.6406 194.854C41.9141 194.516 42.2422 194.275 42.625 194.129C43.0124 193.983 43.4453 193.91 43.9238 193.91C44.3112 193.91 44.6667 193.958 44.9902 194.054C45.3184 194.145 45.61 194.293 45.8652 194.498C46.1204 194.699 46.3369 194.967 46.5146 195.305C46.6969 195.637 46.8359 196.045 46.9316 196.528C47.0273 197.011 47.0752 197.579 47.0752 198.23ZM45.8037 199.953V198.019C45.8037 197.572 45.7764 197.18 45.7217 196.843C45.6715 196.501 45.5964 196.209 45.4961 195.968C45.3958 195.726 45.2682 195.53 45.1133 195.38C44.9629 195.229 44.7874 195.12 44.5869 195.052C44.391 194.979 44.1699 194.942 43.9238 194.942C43.623 194.942 43.3564 194.999 43.124 195.113C42.8916 195.223 42.6956 195.398 42.5361 195.64C42.3812 195.881 42.2627 196.198 42.1807 196.59C42.0986 196.982 42.0576 197.458 42.0576 198.019V199.953C42.0576 200.4 42.0827 200.794 42.1328 201.136C42.1875 201.478 42.2673 201.774 42.3721 202.024C42.4769 202.271 42.6045 202.473 42.7549 202.633C42.9053 202.792 43.0785 202.911 43.2744 202.988C43.4749 203.061 43.696 203.098 43.9375 203.098C44.2474 203.098 44.5186 203.038 44.751 202.92C44.9834 202.801 45.1771 202.617 45.332 202.366C45.4915 202.111 45.61 201.785 45.6875 201.389C45.765 200.988 45.8037 200.509 45.8037 199.953Z" fill="#242424"/>
<rect x="87" y="40" width="274" height="1" fill="#B6BFCC"/>
<rect x="87" y="71.8" width="274" height="1" fill="#B6BFCC"/>
<rect x="87" y="103.6" width="274" height="1" fill="#B6BFCC"/>
<rect x="87" y="135.4" width="274" height="1" fill="#B6BFCC"/>
<rect x="87" y="167.2" width="274" height="1" fill="#B6BFCC"/>
<rect x="87" y="199" width="274" height="1" fill="#B6BFCC"/>
<path d="M381.983 35.9922V46H380.719V37.5713L378.169 38.501V37.3594L381.785 35.9922H381.983ZM391.53 40.2305V41.748C391.53 42.5638 391.457 43.252 391.311 43.8125C391.166 44.373 390.956 44.8242 390.683 45.166C390.409 45.5078 390.079 45.7562 389.691 45.9111C389.309 46.0615 388.876 46.1367 388.392 46.1367C388.01 46.1367 387.656 46.0889 387.333 45.9932C387.009 45.8975 386.718 45.7448 386.458 45.5352C386.203 45.321 385.984 45.043 385.802 44.7012C385.619 44.3594 385.48 43.9447 385.385 43.457C385.289 42.9694 385.241 42.3997 385.241 41.748V40.2305C385.241 39.4147 385.314 38.7311 385.46 38.1797C385.61 37.6283 385.822 37.1862 386.096 36.8535C386.369 36.5163 386.697 36.2747 387.08 36.1289C387.467 35.9831 387.9 35.9102 388.379 35.9102C388.766 35.9102 389.122 35.958 389.445 36.0537C389.773 36.1449 390.065 36.293 390.32 36.498C390.575 36.6986 390.792 36.9674 390.97 37.3047C391.152 37.6374 391.291 38.0452 391.387 38.5283C391.482 39.0114 391.53 39.5788 391.53 40.2305ZM390.259 41.9531V40.0186C390.259 39.5719 390.231 39.18 390.177 38.8428C390.127 38.501 390.051 38.2093 389.951 37.9678C389.851 37.7262 389.723 37.5303 389.568 37.3799C389.418 37.2295 389.242 37.1201 389.042 37.0518C388.846 36.9788 388.625 36.9424 388.379 36.9424C388.078 36.9424 387.811 36.9993 387.579 37.1133C387.347 37.2227 387.151 37.3981 386.991 37.6396C386.836 37.8812 386.718 38.1979 386.636 38.5898C386.554 38.9818 386.513 39.458 386.513 40.0186V41.9531C386.513 42.3997 386.538 42.7939 386.588 43.1357C386.642 43.4775 386.722 43.7738 386.827 44.0244C386.932 44.2705 387.059 44.4733 387.21 44.6328C387.36 44.7923 387.533 44.9108 387.729 44.9883C387.93 45.0612 388.151 45.0977 388.392 45.0977C388.702 45.0977 388.974 45.0384 389.206 44.9199C389.438 44.8014 389.632 44.6169 389.787 44.3662C389.947 44.111 390.065 43.7852 390.142 43.3887C390.22 42.9876 390.259 42.5091 390.259 41.9531ZM398.985 40.2305V41.748C398.985 42.5638 398.912 43.252 398.766 43.8125C398.621 44.373 398.411 44.8242 398.138 45.166C397.864 45.5078 397.534 45.7562 397.146 45.9111C396.764 46.0615 396.331 46.1367 395.847 46.1367C395.465 46.1367 395.111 46.0889 394.788 45.9932C394.464 45.8975 394.173 45.7448 393.913 45.5352C393.658 45.321 393.439 45.043 393.257 44.7012C393.074 44.3594 392.935 43.9447 392.84 43.457C392.744 42.9694 392.696 42.3997 392.696 41.748V40.2305C392.696 39.4147 392.769 38.7311 392.915 38.1797C393.065 37.6283 393.277 37.1862 393.551 36.8535C393.824 36.5163 394.152 36.2747 394.535 36.1289C394.922 35.9831 395.355 35.9102 395.834 35.9102C396.221 35.9102 396.577 35.958 396.9 36.0537C397.228 36.1449 397.52 36.293 397.775 36.498C398.03 36.6986 398.247 36.9674 398.425 37.3047C398.607 37.6374 398.746 38.0452 398.842 38.5283C398.937 39.0114 398.985 39.5788 398.985 40.2305ZM397.714 41.9531V40.0186C397.714 39.5719 397.686 39.18 397.632 38.8428C397.582 38.501 397.506 38.2093 397.406 37.9678C397.306 37.7262 397.178 37.5303 397.023 37.3799C396.873 37.2295 396.697 37.1201 396.497 37.0518C396.301 36.9788 396.08 36.9424 395.834 36.9424C395.533 36.9424 395.266 36.9993 395.034 37.1133C394.802 37.2227 394.606 37.3981 394.446 37.6396C394.291 37.8812 394.173 38.1979 394.091 38.5898C394.009 38.9818 393.968 39.458 393.968 40.0186V41.9531C393.968 42.3997 393.993 42.7939 394.043 43.1357C394.097 43.4775 394.177 43.7738 394.282 44.0244C394.387 44.2705 394.514 44.4733 394.665 44.6328C394.815 44.7923 394.988 44.9108 395.184 44.9883C395.385 45.0612 395.606 45.0977 395.847 45.0977C396.157 45.0977 396.429 45.0384 396.661 44.9199C396.893 44.8014 397.087 44.6169 397.242 44.3662C397.402 44.111 397.52 43.7852 397.597 43.3887C397.675 42.9876 397.714 42.5091 397.714 41.9531Z" fill="#242424"/>
<path d="M391.103 74.9066C391.103 75.5127 390.961 76.0277 390.679 76.4515C390.401 76.8708 390.022 77.1898 389.544 77.4086C389.07 77.6273 388.535 77.7367 387.938 77.7367C387.34 77.7367 386.803 77.6273 386.324 77.4086C385.846 77.1898 385.467 76.8708 385.189 76.4515C384.911 76.0277 384.772 75.5127 384.772 74.9066C384.772 74.5101 384.848 74.1478 384.998 73.8197C385.153 73.487 385.369 73.1976 385.647 72.9515C385.93 72.7054 386.263 72.5163 386.646 72.3842C387.033 72.2474 387.459 72.1791 387.924 72.1791C388.535 72.1791 389.079 72.2976 389.558 72.5345C390.036 72.767 390.412 73.0883 390.686 73.4984C390.964 73.9086 391.103 74.378 391.103 74.9066ZM389.831 74.8793C389.831 74.5101 389.751 74.1843 389.592 73.9017C389.432 73.6146 389.209 73.3913 388.922 73.2318C388.635 73.0723 388.302 72.9926 387.924 72.9926C387.536 72.9926 387.201 73.0723 386.919 73.2318C386.641 73.3913 386.424 73.6146 386.27 73.9017C386.115 74.1843 386.037 74.5101 386.037 74.8793C386.037 75.2621 386.112 75.5902 386.263 75.8636C386.418 76.1325 386.636 76.3399 386.919 76.4857C387.206 76.627 387.546 76.6976 387.938 76.6976C388.329 76.6976 388.667 76.627 388.949 76.4857C389.232 76.3399 389.448 76.1325 389.599 75.8636C389.754 75.5902 389.831 75.2621 389.831 74.8793ZM390.87 70.2377C390.87 70.7207 390.743 71.156 390.487 71.5433C390.232 71.9307 389.883 72.236 389.441 72.4594C388.999 72.6827 388.498 72.7943 387.938 72.7943C387.368 72.7943 386.86 72.6827 386.413 72.4594C385.971 72.236 385.625 71.9307 385.374 71.5433C385.123 71.156 384.998 70.7207 384.998 70.2377C384.998 69.6589 385.123 69.1667 385.374 68.7611C385.629 68.3555 385.978 68.0456 386.42 67.8314C386.862 67.6172 387.366 67.5101 387.931 67.5101C388.5 67.5101 389.006 67.6172 389.448 67.8314C389.89 68.0456 390.237 68.3555 390.487 68.7611C390.743 69.1667 390.87 69.6589 390.87 70.2377ZM389.605 70.2582C389.605 69.9255 389.535 69.6316 389.394 69.3763C389.252 69.1211 389.056 68.9206 388.806 68.7748C388.555 68.6244 388.263 68.5492 387.931 68.5492C387.598 68.5492 387.306 68.6198 387.056 68.7611C386.81 68.8978 386.616 69.0938 386.475 69.349C386.338 69.6042 386.27 69.9073 386.27 70.2582C386.27 70.6 386.338 70.8985 386.475 71.1537C386.616 71.4089 386.812 71.6071 387.062 71.7484C387.313 71.8897 387.605 71.9603 387.938 71.9603C388.27 71.9603 388.56 71.8897 388.806 71.7484C389.056 71.6071 389.252 71.4089 389.394 71.1537C389.535 70.8985 389.605 70.6 389.605 70.2582ZM398.53 71.8304V73.348C398.53 74.1638 398.457 74.8519 398.311 75.4125C398.166 75.973 397.956 76.4242 397.683 76.766C397.409 77.1078 397.079 77.3562 396.691 77.5111C396.309 77.6615 395.876 77.7367 395.392 77.7367C395.01 77.7367 394.656 77.6888 394.333 77.5931C394.009 77.4974 393.718 77.3448 393.458 77.1351C393.203 76.9209 392.984 76.6429 392.802 76.3011C392.619 75.9594 392.48 75.5446 392.385 75.057C392.289 74.5694 392.241 73.9997 392.241 73.348V71.8304C392.241 71.0147 392.314 70.3311 392.46 69.7797C392.61 69.2282 392.822 68.7862 393.096 68.4535C393.369 68.1163 393.697 67.8747 394.08 67.7289C394.467 67.583 394.9 67.5101 395.379 67.5101C395.766 67.5101 396.122 67.558 396.445 67.6537C396.773 67.7448 397.065 67.8929 397.32 68.098C397.575 68.2985 397.792 68.5674 397.97 68.9047C398.152 69.2373 398.291 69.6452 398.387 70.1283C398.482 70.6114 398.53 71.1788 398.53 71.8304ZM397.259 73.5531V71.6185C397.259 71.1719 397.231 70.78 397.177 70.4427C397.127 70.101 397.051 69.8093 396.951 69.5677C396.851 69.3262 396.723 69.1302 396.568 68.9799C396.418 68.8295 396.242 68.7201 396.042 68.6517C395.846 68.5788 395.625 68.5424 395.379 68.5424C395.078 68.5424 394.811 68.5993 394.579 68.7133C394.347 68.8226 394.151 68.9981 393.991 69.2396C393.836 69.4812 393.718 69.7979 393.636 70.1898C393.554 70.5817 393.513 71.058 393.513 71.6185V73.5531C393.513 73.9997 393.538 74.3939 393.588 74.7357C393.642 75.0775 393.722 75.3737 393.827 75.6244C393.932 75.8705 394.059 76.0733 394.21 76.2328C394.36 76.3923 394.533 76.5108 394.729 76.5883C394.93 76.6612 395.151 76.6976 395.392 76.6976C395.702 76.6976 395.974 76.6384 396.206 76.5199C396.438 76.4014 396.632 76.2168 396.787 75.9662C396.947 75.711 397.065 75.3851 397.142 74.9886C397.22 74.5876 397.259 74.1091 397.259 73.5531Z" fill="#242424"/>
<path d="M389.681 99.2332H389.79V100.306H389.681C389.011 100.306 388.45 100.416 387.999 100.635C387.548 100.849 387.19 101.138 386.926 101.503C386.661 101.863 386.47 102.268 386.352 102.719C386.238 103.171 386.181 103.629 386.181 104.094V105.556C386.181 105.998 386.233 106.39 386.338 106.732C386.443 107.069 386.586 107.354 386.769 107.587C386.951 107.819 387.156 107.995 387.384 108.113C387.616 108.232 387.858 108.291 388.108 108.291C388.4 108.291 388.66 108.236 388.888 108.127C389.116 108.013 389.307 107.856 389.462 107.655C389.621 107.45 389.742 107.208 389.824 106.93C389.906 106.652 389.947 106.347 389.947 106.014C389.947 105.718 389.911 105.433 389.838 105.16C389.765 104.882 389.653 104.636 389.503 104.422C389.353 104.203 389.163 104.032 388.936 103.909C388.712 103.781 388.446 103.718 388.136 103.718C387.785 103.718 387.457 103.804 387.151 103.977C386.851 104.146 386.602 104.369 386.406 104.647C386.215 104.921 386.105 105.219 386.078 105.543L385.408 105.536C385.472 105.025 385.59 104.59 385.764 104.23C385.941 103.866 386.16 103.569 386.42 103.342C386.684 103.109 386.978 102.941 387.302 102.836C387.63 102.726 387.976 102.672 388.341 102.672C388.838 102.672 389.266 102.765 389.626 102.952C389.986 103.139 390.282 103.389 390.515 103.704C390.747 104.014 390.918 104.365 391.027 104.757C391.141 105.144 391.198 105.543 391.198 105.953C391.198 106.422 391.132 106.862 391 107.272C390.868 107.682 390.67 108.042 390.405 108.352C390.146 108.662 389.824 108.904 389.441 109.077C389.059 109.25 388.614 109.337 388.108 109.337C387.571 109.337 387.101 109.227 386.7 109.009C386.299 108.785 385.966 108.489 385.702 108.12C385.438 107.751 385.24 107.341 385.107 106.889C384.975 106.438 384.909 105.98 384.909 105.515V104.921C384.909 104.219 384.98 103.531 385.121 102.856C385.262 102.182 385.506 101.571 385.853 101.024C386.203 100.477 386.689 100.042 387.309 99.7185C387.928 99.3949 388.719 99.2332 389.681 99.2332ZM398.53 103.43V104.948C398.53 105.764 398.457 106.452 398.311 107.012C398.166 107.573 397.956 108.024 397.683 108.366C397.409 108.708 397.079 108.956 396.691 109.111C396.309 109.261 395.876 109.337 395.392 109.337C395.01 109.337 394.656 109.289 394.333 109.193C394.009 109.097 393.718 108.945 393.458 108.735C393.203 108.521 392.984 108.243 392.802 107.901C392.619 107.559 392.48 107.145 392.385 106.657C392.289 106.169 392.241 105.6 392.241 104.948V103.43C392.241 102.615 392.314 101.931 392.46 101.38C392.61 100.828 392.822 100.386 393.096 100.053C393.369 99.7162 393.697 99.4747 394.08 99.3289C394.467 99.183 394.9 99.1101 395.379 99.1101C395.766 99.1101 396.122 99.158 396.445 99.2537C396.773 99.3448 397.065 99.4929 397.32 99.698C397.575 99.8985 397.792 100.167 397.97 100.505C398.152 100.837 398.291 101.245 398.387 101.728C398.482 102.211 398.53 102.779 398.53 103.43ZM397.259 105.153V103.219C397.259 102.772 397.231 102.38 397.177 102.043C397.127 101.701 397.051 101.409 396.951 101.168C396.851 100.926 396.723 100.73 396.568 100.58C396.418 100.429 396.242 100.32 396.042 100.252C395.846 100.179 395.625 100.142 395.379 100.142C395.078 100.142 394.811 100.199 394.579 100.313C394.347 100.423 394.151 100.598 393.991 100.84C393.836 101.081 393.718 101.398 393.636 101.79C393.554 102.182 393.513 102.658 393.513 103.219V105.153C393.513 105.6 393.538 105.994 393.588 106.336C393.642 106.677 393.722 106.974 393.827 107.224C393.932 107.47 394.059 107.673 394.21 107.833C394.36 107.992 394.533 108.111 394.729 108.188C394.93 108.261 395.151 108.298 395.392 108.298C395.702 108.298 395.974 108.238 396.206 108.12C396.438 108.001 396.632 107.817 396.787 107.566C396.947 107.311 397.065 106.985 397.142 106.589C397.22 106.188 397.259 105.709 397.259 105.153Z" fill="#242424"/>
<path d="M391.554 137.45V138.49H384.362V137.744L388.819 130.847H389.852L388.744 132.843L385.798 137.45H391.554ZM390.166 130.847V140.8H388.901V130.847H390.166ZM398.53 135.031V136.548C398.53 137.364 398.457 138.052 398.311 138.613C398.166 139.173 397.956 139.624 397.683 139.966C397.409 140.308 397.079 140.556 396.691 140.711C396.309 140.862 395.876 140.937 395.392 140.937C395.01 140.937 394.656 140.889 394.333 140.793C394.009 140.698 393.718 140.545 393.458 140.335C393.203 140.121 392.984 139.843 392.802 139.501C392.619 139.159 392.48 138.745 392.385 138.257C392.289 137.769 392.241 137.2 392.241 136.548V135.031C392.241 134.215 392.314 133.531 392.46 132.98C392.61 132.428 392.822 131.986 393.096 131.654C393.369 131.316 393.697 131.075 394.08 130.929C394.467 130.783 394.9 130.71 395.379 130.71C395.766 130.71 396.122 130.758 396.445 130.854C396.773 130.945 397.065 131.093 397.32 131.298C397.575 131.499 397.792 131.767 397.97 132.105C398.152 132.437 398.291 132.845 398.387 133.328C398.482 133.811 398.53 134.379 398.53 135.031ZM397.259 136.753V134.819C397.259 134.372 397.231 133.98 397.177 133.643C397.127 133.301 397.051 133.009 396.951 132.768C396.851 132.526 396.723 132.33 396.568 132.18C396.418 132.03 396.242 131.92 396.042 131.852C395.846 131.779 395.625 131.742 395.379 131.742C395.078 131.742 394.811 131.799 394.579 131.913C394.347 132.023 394.151 132.198 393.991 132.44C393.836 132.681 393.718 132.998 393.636 133.39C393.554 133.782 393.513 134.258 393.513 134.819V136.753C393.513 137.2 393.538 137.594 393.588 137.936C393.642 138.278 393.722 138.574 393.827 138.824C393.932 139.071 394.059 139.273 394.21 139.433C394.36 139.592 394.533 139.711 394.729 139.788C394.93 139.861 395.151 139.898 395.392 139.898C395.702 139.898 395.974 139.838 396.206 139.72C396.438 139.601 396.632 139.417 396.787 139.166C396.947 138.911 397.065 138.585 397.142 138.189C397.22 137.788 397.259 137.309 397.259 136.753Z" fill="#242424"/>
<path d="M391.349 171.361V172.4H384.834V171.491L388.095 167.861C388.496 167.414 388.806 167.036 389.024 166.726C389.248 166.412 389.403 166.131 389.489 165.885C389.58 165.635 389.626 165.38 389.626 165.12C389.626 164.792 389.558 164.495 389.421 164.231C389.289 163.962 389.093 163.748 388.833 163.589C388.573 163.429 388.259 163.349 387.89 163.349C387.448 163.349 387.078 163.436 386.782 163.609C386.491 163.778 386.272 164.015 386.126 164.32C385.98 164.625 385.907 164.976 385.907 165.373H384.643C384.643 164.812 384.766 164.299 385.012 163.835C385.258 163.37 385.622 163.001 386.105 162.727C386.589 162.449 387.183 162.31 387.89 162.31C388.519 162.31 389.056 162.422 389.503 162.645C389.95 162.864 390.291 163.174 390.528 163.575C390.77 163.971 390.891 164.436 390.891 164.969C390.891 165.261 390.84 165.557 390.74 165.858C390.645 166.154 390.51 166.45 390.337 166.747C390.168 167.043 389.97 167.335 389.742 167.622C389.519 167.909 389.28 168.191 389.024 168.469L386.358 171.361H391.349ZM398.53 166.63V168.148C398.53 168.964 398.457 169.652 398.311 170.213C398.166 170.773 397.956 171.224 397.683 171.566C397.409 171.908 397.079 172.156 396.691 172.311C396.309 172.462 395.876 172.537 395.392 172.537C395.01 172.537 394.656 172.489 394.333 172.393C394.009 172.297 393.718 172.145 393.458 171.935C393.203 171.721 392.984 171.443 392.802 171.101C392.619 170.759 392.48 170.345 392.385 169.857C392.289 169.369 392.241 168.8 392.241 168.148V166.63C392.241 165.815 392.314 165.131 392.46 164.58C392.61 164.028 392.822 163.586 393.096 163.254C393.369 162.916 393.697 162.675 394.08 162.529C394.467 162.383 394.9 162.31 395.379 162.31C395.766 162.31 396.122 162.358 396.445 162.454C396.773 162.545 397.065 162.693 397.32 162.898C397.575 163.099 397.792 163.367 397.97 163.705C398.152 164.037 398.291 164.445 398.387 164.928C398.482 165.411 398.53 165.979 398.53 166.63ZM397.259 168.353V166.419C397.259 165.972 397.231 165.58 397.177 165.243C397.127 164.901 397.051 164.609 396.951 164.368C396.851 164.126 396.723 163.93 396.568 163.78C396.418 163.63 396.242 163.52 396.042 163.452C395.846 163.379 395.625 163.342 395.379 163.342C395.078 163.342 394.811 163.399 394.579 163.513C394.347 163.623 394.151 163.798 393.991 164.04C393.836 164.281 393.718 164.598 393.636 164.99C393.554 165.382 393.513 165.858 393.513 166.419V168.353C393.513 168.8 393.538 169.194 393.588 169.536C393.642 169.878 393.722 170.174 393.827 170.424C393.932 170.671 394.059 170.873 394.21 171.033C394.36 171.192 394.533 171.311 394.729 171.388C394.93 171.461 395.151 171.498 395.392 171.498C395.702 171.498 395.974 171.438 396.206 171.32C396.438 171.201 396.632 171.017 396.787 170.766C396.947 170.511 397.065 170.185 397.142 169.789C397.22 169.388 397.259 168.909 397.259 168.353Z" fill="#242424"/>
<path d="M399.075 198.23V199.748C399.075 200.564 399.002 201.252 398.856 201.812C398.711 202.373 398.501 202.824 398.228 203.166C397.954 203.508 397.624 203.756 397.236 203.911C396.854 204.062 396.421 204.137 395.938 204.137C395.555 204.137 395.201 204.089 394.878 203.993C394.554 203.897 394.263 203.745 394.003 203.535C393.748 203.321 393.529 203.043 393.347 202.701C393.164 202.359 393.025 201.945 392.93 201.457C392.834 200.969 392.786 200.4 392.786 199.748V198.23C392.786 197.415 392.859 196.731 393.005 196.18C393.155 195.628 393.367 195.186 393.641 194.854C393.914 194.516 394.242 194.275 394.625 194.129C395.012 193.983 395.445 193.91 395.924 193.91C396.311 193.91 396.667 193.958 396.99 194.054C397.318 194.145 397.61 194.293 397.865 194.498C398.12 194.699 398.337 194.967 398.515 195.305C398.697 195.637 398.836 196.045 398.932 196.528C399.027 197.011 399.075 197.579 399.075 198.23ZM397.804 199.953V198.019C397.804 197.572 397.776 197.18 397.722 196.843C397.672 196.501 397.596 196.209 397.496 195.968C397.396 195.726 397.268 195.53 397.113 195.38C396.963 195.229 396.787 195.12 396.587 195.052C396.391 194.979 396.17 194.942 395.924 194.942C395.623 194.942 395.356 194.999 395.124 195.113C394.892 195.223 394.696 195.398 394.536 195.64C394.381 195.881 394.263 196.198 394.181 196.59C394.099 196.982 394.058 197.458 394.058 198.019V199.953C394.058 200.4 394.083 200.794 394.133 201.136C394.188 201.478 394.267 201.774 394.372 202.024C394.477 202.271 394.604 202.473 394.755 202.633C394.905 202.792 395.078 202.911 395.274 202.988C395.475 203.061 395.696 203.098 395.938 203.098C396.247 203.098 396.519 203.038 396.751 202.92C396.983 202.801 397.177 202.617 397.332 202.366C397.492 202.111 397.61 201.785 397.688 201.389C397.765 200.988 397.804 200.509 397.804 199.953Z" fill="#242424"/>
<path d="M114.767 229.61H116.012V239.96H114.767V229.61ZM112.472 233.21H115.277V234.23H112.472V233.21ZM112.472 236.06H115.277V237.065H112.472V236.06ZM104.867 231.26H112.472V232.265H104.867V231.26ZM108.707 233C109.317 233 109.852 233.11 110.312 233.33C110.772 233.55 111.132 233.855 111.392 234.245C111.652 234.635 111.782 235.085 111.782 235.595C111.782 236.105 111.652 236.56 111.392 236.96C111.132 237.35 110.772 237.655 110.312 237.875C109.852 238.085 109.317 238.19 108.707 238.19C108.107 238.19 107.577 238.085 107.117 237.875C106.657 237.655 106.297 237.35 106.037 236.96C105.777 236.56 105.647 236.105 105.647 235.595C105.647 235.085 105.777 234.635 106.037 234.245C106.297 233.855 106.657 233.55 107.117 233.33C107.577 233.11 108.107 233 108.707 233ZM108.707 233.99C108.147 233.99 107.692 234.14 107.342 234.44C106.992 234.73 106.817 235.115 106.817 235.595C106.817 236.085 106.992 236.48 107.342 236.78C107.692 237.07 108.147 237.215 108.707 237.215C109.267 237.215 109.722 237.07 110.072 236.78C110.432 236.48 110.612 236.085 110.612 235.595C110.612 235.115 110.432 234.73 110.072 234.44C109.722 234.14 109.267 233.99 108.707 233.99ZM108.107 229.595H109.337V231.89H108.107V229.595ZM107.297 241.85H116.327V242.87H107.297V241.85ZM107.297 239.06H108.542V242.33H107.297V239.06ZM128.716 229.595H129.916V243.17H128.716V229.595ZM126.571 235.07H129.181V236.12H126.571V235.07ZM125.761 229.88H126.946V242.48H125.761V229.88ZM121.156 231.695H122.116V233.27C122.116 234.07 122.051 234.835 121.921 235.565C121.791 236.295 121.591 236.965 121.321 237.575C121.061 238.185 120.736 238.73 120.346 239.21C119.956 239.68 119.501 240.07 118.981 240.38L118.201 239.42C118.861 239.06 119.406 238.575 119.836 237.965C120.266 237.345 120.591 236.635 120.811 235.835C121.041 235.035 121.156 234.18 121.156 233.27V231.695ZM121.381 231.695H122.356V233.27C122.356 234.09 122.466 234.87 122.686 235.61C122.906 236.35 123.231 237.01 123.661 237.59C124.091 238.16 124.626 238.61 125.266 238.94L124.531 239.9C123.841 239.51 123.261 238.985 122.791 238.325C122.321 237.665 121.966 236.905 121.726 236.045C121.496 235.185 121.381 234.26 121.381 233.27V231.695ZM118.531 231.2H124.816V232.22H118.531V231.2ZM141.134 229.595H142.379V236.975H141.134V229.595ZM142.034 232.715H144.374V233.765H142.034V232.715ZM137.354 230.405H138.704C138.704 231.545 138.449 232.56 137.939 233.45C137.429 234.34 136.699 235.09 135.749 235.7C134.809 236.31 133.674 236.78 132.344 237.11L131.879 236.09C133.049 235.8 134.039 235.41 134.849 234.92C135.669 234.43 136.289 233.855 136.709 233.195C137.139 232.535 137.354 231.815 137.354 231.035V230.405ZM132.479 230.405H138.119V231.425H132.479V230.405ZM133.319 237.68H134.489V239.3H136.829V237.68H137.969V242.975H133.319V237.68ZM134.489 240.26V242H136.829V240.26H134.489ZM140.399 237.53H141.374V238.67C141.374 239.25 141.274 239.83 141.074 240.41C140.884 240.99 140.594 241.515 140.204 241.985C139.814 242.455 139.319 242.83 138.719 243.11L138.044 242.165C138.574 241.935 139.009 241.63 139.349 241.25C139.699 240.86 139.959 240.44 140.129 239.99C140.309 239.54 140.399 239.1 140.399 238.67V237.53ZM140.639 237.53H141.599V238.625C141.599 239.065 141.684 239.515 141.854 239.975C142.034 240.435 142.294 240.86 142.634 241.25C142.984 241.63 143.414 241.935 143.924 242.165L143.264 243.11C142.664 242.84 142.169 242.47 141.779 242C141.389 241.52 141.099 240.99 140.909 240.41C140.729 239.82 140.639 239.225 140.639 238.625V237.53Z" fill="#242424"/>
<path d="M210.237 229.595H211.482V243.17H210.237V229.595ZM206.262 231.065H207.492C207.492 232.045 207.372 232.99 207.132 233.9C206.902 234.81 206.537 235.675 206.037 236.495C205.537 237.305 204.887 238.06 204.087 238.76C203.287 239.46 202.317 240.085 201.177 240.635L200.517 239.63C201.827 239 202.907 238.265 203.757 237.425C204.607 236.585 205.237 235.65 205.647 234.62C206.057 233.58 206.262 232.46 206.262 231.26V231.065ZM201.147 231.065H206.787V232.07H201.147V231.065ZM224.171 229.595H225.356V243.17H224.171V229.595ZM221.876 235.04H224.486V236.06H221.876V235.04ZM221.096 229.895H222.251V242.465H221.096V229.895ZM214.331 238.775H215.216C215.886 238.775 216.491 238.77 217.031 238.76C217.581 238.74 218.101 238.7 218.591 238.64C219.091 238.58 219.601 238.495 220.121 238.385L220.241 239.42C219.701 239.53 219.176 239.615 218.666 239.675C218.166 239.735 217.636 239.775 217.076 239.795C216.526 239.815 215.906 239.825 215.216 239.825H214.331V238.775ZM214.331 231.245H219.371V232.265H215.576V239.255H214.331V231.245ZM236.634 229.595H237.879V236.975H236.634V229.595ZM237.534 232.715H239.874V233.765H237.534V232.715ZM232.854 230.405H234.204C234.204 231.545 233.949 232.56 233.439 233.45C232.929 234.34 232.199 235.09 231.249 235.7C230.309 236.31 229.174 236.78 227.844 237.11L227.379 236.09C228.549 235.8 229.539 235.41 230.349 234.92C231.169 234.43 231.789 233.855 232.209 233.195C232.639 232.535 232.854 231.815 232.854 231.035V230.405ZM227.979 230.405H233.619V231.425H227.979V230.405ZM228.819 237.68H229.989V239.3H232.329V237.68H233.469V242.975H228.819V237.68ZM229.989 240.26V242H232.329V240.26H229.989ZM235.899 237.53H236.874V238.67C236.874 239.25 236.774 239.83 236.574 240.41C236.384 240.99 236.094 241.515 235.704 241.985C235.314 242.455 234.819 242.83 234.219 243.11L233.544 242.165C234.074 241.935 234.509 241.63 234.849 241.25C235.199 240.86 235.459 240.44 235.629 239.99C235.809 239.54 235.899 239.1 235.899 238.67V237.53ZM236.139 237.53H237.099V238.625C237.099 239.065 237.184 239.515 237.354 239.975C237.534 240.435 237.794 240.86 238.134 241.25C238.484 241.63 238.914 241.935 239.424 242.165L238.764 243.11C238.164 242.84 237.669 242.47 237.279 242C236.889 241.52 236.599 240.99 236.409 240.41C236.229 239.82 236.139 239.225 236.139 238.625V237.53Z" fill="#242424"/>
<path d="M295.852 240.41H308.152V241.445H295.852V240.41ZM301.357 237.155H302.587V240.71H301.357V237.155ZM297.292 230.555H298.537V232.97H305.437V230.555H306.667V237.5H297.292V230.555ZM298.537 233.99V236.48H305.437V233.99H298.537ZM316.596 233.12H319.641V234.155H316.596V233.12ZM319.266 229.595H320.511V237.68H319.266V229.595ZM316.041 238.1C316.981 238.1 317.786 238.2 318.456 238.4C319.136 238.6 319.656 238.89 320.016 239.27C320.376 239.64 320.556 240.095 320.556 240.635C320.556 241.435 320.151 242.055 319.341 242.495C318.541 242.935 317.441 243.155 316.041 243.155C314.641 243.155 313.536 242.935 312.726 242.495C311.926 242.055 311.526 241.435 311.526 240.635C311.526 240.095 311.706 239.64 312.066 239.27C312.436 238.89 312.956 238.6 313.626 238.4C314.306 238.2 315.111 238.1 316.041 238.1ZM316.041 239.075C315.361 239.075 314.776 239.135 314.286 239.255C313.796 239.375 313.416 239.55 313.146 239.78C312.886 240.01 312.756 240.295 312.756 240.635C312.756 240.955 312.886 241.23 313.146 241.46C313.416 241.69 313.796 241.87 314.286 242C314.776 242.12 315.361 242.18 316.041 242.18C316.731 242.18 317.316 242.12 317.796 242C318.286 241.87 318.661 241.69 318.921 241.46C319.191 241.23 319.326 240.955 319.326 240.635C319.326 240.295 319.191 240.01 318.921 239.78C318.661 239.55 318.286 239.375 317.796 239.255C317.316 239.135 316.731 239.075 316.041 239.075ZM312.801 230.975H313.821V232.07C313.821 232.9 313.661 233.68 313.341 234.41C313.031 235.13 312.591 235.765 312.021 236.315C311.451 236.855 310.791 237.27 310.041 237.56L309.396 236.57C309.906 236.39 310.366 236.145 310.776 235.835C311.196 235.525 311.556 235.17 311.856 234.77C312.166 234.37 312.401 233.94 312.561 233.48C312.721 233.02 312.801 232.55 312.801 232.07V230.975ZM313.041 230.975H314.061V232.055C314.061 232.635 314.196 233.2 314.466 233.75C314.736 234.3 315.121 234.785 315.621 235.205C316.121 235.625 316.696 235.955 317.346 236.195L316.716 237.185C315.976 236.915 315.331 236.525 314.781 236.015C314.231 235.495 313.801 234.895 313.491 234.215C313.191 233.535 313.041 232.815 313.041 232.055V230.975ZM309.786 230.585H317.031V231.605H309.786V230.585ZM332.134 229.595H333.379V236.975H332.134V229.595ZM333.034 232.715H335.374V233.765H333.034V232.715ZM328.354 230.405H329.704C329.704 231.545 329.449 232.56 328.939 233.45C328.429 234.34 327.699 235.09 326.749 235.7C325.809 236.31 324.674 236.78 323.344 237.11L322.879 236.09C324.049 235.8 325.039 235.41 325.849 234.92C326.669 234.43 327.289 233.855 327.709 233.195C328.139 232.535 328.354 231.815 328.354 231.035V230.405ZM323.479 230.405H329.119V231.425H323.479V230.405ZM324.319 237.68H325.489V239.3H327.829V237.68H328.969V242.975H324.319V237.68ZM325.489 240.26V242H327.829V240.26H325.489ZM331.399 237.53H332.374V238.67C332.374 239.25 332.274 239.83 332.074 240.41C331.884 240.99 331.594 241.515 331.204 241.985C330.814 242.455 330.319 242.83 329.719 243.11L329.044 242.165C329.574 241.935 330.009 241.63 330.349 241.25C330.699 240.86 330.959 240.44 331.129 239.99C331.309 239.54 331.399 239.1 331.399 238.67V237.53ZM331.639 237.53H332.599V238.625C332.599 239.065 332.684 239.515 332.854 239.975C333.034 240.435 333.294 240.86 333.634 241.25C333.984 241.63 334.414 241.935 334.924 242.165L334.264 243.11C333.664 242.84 333.169 242.47 332.779 242C332.389 241.52 332.099 240.99 331.909 240.41C331.729 239.82 331.639 239.225 331.639 238.625V237.53Z" fill="#242424"/>
<rect width="32" height="48" transform="translate(124 151)" fill="#F24216"/>
<rect width="32" height="48" transform="translate(124 151)" fill="#FF7A00"/>
<rect width="32" height="72" transform="translate(204 127)" fill="#19C5F0"/>
<rect width="32" height="72" transform="translate(204 127)" fill="#00CAFF"/>
<rect width="32" height="24" transform="translate(284 175)" fill="#0078D4"/>
<path d="M135.5 183L220.5 109L304.5 115" stroke="black" stroke-width="2" stroke-linecap="round" stroke-linejoin="round"/>
<path d="M218.5 107C220.157 107 221.5 108.343 221.5 110C221.5 111.657 220.157 113 218.5 113C216.843 113 215.5 111.657 215.5 110C215.5 108.343 216.843 107 218.5 107Z" stroke="black" stroke-width="2"/>
<path d="M301 112C302.657 112 304 113.343 304 115C304 116.657 302.657 118 301 118C299.343 118 298 116.657 298 115C298 113.343 299.343 112 301 112Z" stroke="black" stroke-width="2"/>
<path d="M140 176C141.657 176 143 177.343 143 179C143 180.657 141.657 182 140 182C138.343 182 137 180.657 137 179C137 177.343 138.343 176 140 176Z" stroke="black" stroke-width="2"/>
<rect width="12" height="12" transform="translate(84.5 274)" fill="#FF7A00"/>
<path d="M114.454 274.436H115.616V284.096H114.454V274.436ZM112.312 277.796H114.93V278.748H112.312V277.796ZM112.312 280.456H114.93V281.394H112.312V280.456ZM105.214 275.976H112.312V276.914H105.214V275.976ZM108.798 277.6C109.367 277.6 109.867 277.703 110.296 277.908C110.725 278.113 111.061 278.398 111.304 278.762C111.547 279.126 111.668 279.546 111.668 280.022C111.668 280.498 111.547 280.923 111.304 281.296C111.061 281.66 110.725 281.945 110.296 282.15C109.867 282.346 109.367 282.444 108.798 282.444C108.238 282.444 107.743 282.346 107.314 282.15C106.885 281.945 106.549 281.66 106.306 281.296C106.063 280.923 105.942 280.498 105.942 280.022C105.942 279.546 106.063 279.126 106.306 278.762C106.549 278.398 106.885 278.113 107.314 277.908C107.743 277.703 108.238 277.6 108.798 277.6ZM108.798 278.524C108.275 278.524 107.851 278.664 107.524 278.944C107.197 279.215 107.034 279.574 107.034 280.022C107.034 280.479 107.197 280.848 107.524 281.128C107.851 281.399 108.275 281.534 108.798 281.534C109.321 281.534 109.745 281.399 110.072 281.128C110.408 280.848 110.576 280.479 110.576 280.022C110.576 279.574 110.408 279.215 110.072 278.944C109.745 278.664 109.321 278.524 108.798 278.524ZM108.238 274.422H109.386V276.564H108.238V274.422ZM107.482 285.86H115.91V286.812H107.482V285.86ZM107.482 283.256H108.644V286.308H107.482V283.256ZM127.473 274.422H128.593V287.092H127.473V274.422ZM125.471 279.532H127.907V280.512H125.471V279.532ZM124.715 274.688H125.821V286.448H124.715V274.688ZM120.417 276.382H121.313V277.852C121.313 278.599 121.252 279.313 121.131 279.994C121.01 280.675 120.823 281.301 120.571 281.87C120.328 282.439 120.025 282.948 119.661 283.396C119.297 283.835 118.872 284.199 118.387 284.488L117.659 283.592C118.275 283.256 118.784 282.803 119.185 282.234C119.586 281.655 119.89 280.993 120.095 280.246C120.31 279.499 120.417 278.701 120.417 277.852V276.382ZM120.627 276.382H121.537V277.852C121.537 278.617 121.64 279.345 121.845 280.036C122.05 280.727 122.354 281.343 122.755 281.884C123.156 282.416 123.656 282.836 124.253 283.144L123.567 284.04C122.923 283.676 122.382 283.186 121.943 282.57C121.504 281.954 121.173 281.245 120.949 280.442C120.734 279.639 120.627 278.776 120.627 277.852V276.382ZM117.967 275.92H123.833V276.872H117.967V275.92ZM139.064 274.422H140.226V281.31H139.064V274.422ZM139.904 277.334H142.088V278.314H139.904V277.334ZM135.536 275.178H136.796C136.796 276.242 136.558 277.189 136.082 278.02C135.606 278.851 134.924 279.551 134.038 280.12C133.16 280.689 132.101 281.128 130.86 281.436L130.426 280.484C131.518 280.213 132.442 279.849 133.198 279.392C133.963 278.935 134.542 278.398 134.934 277.782C135.335 277.166 135.536 276.494 135.536 275.766V275.178ZM130.986 275.178H136.25V276.13H130.986V275.178ZM131.77 281.968H132.862V283.48H135.046V281.968H136.11V286.91H131.77V281.968ZM132.862 284.376V286H135.046V284.376H132.862ZM138.378 281.828H139.288V282.892C139.288 283.433 139.194 283.975 139.008 284.516C138.83 285.057 138.56 285.547 138.196 285.986C137.832 286.425 137.37 286.775 136.81 287.036L136.18 286.154C136.674 285.939 137.08 285.655 137.398 285.3C137.724 284.936 137.967 284.544 138.126 284.124C138.294 283.704 138.378 283.293 138.378 282.892V281.828ZM138.602 281.828H139.498V282.85C139.498 283.261 139.577 283.681 139.736 284.11C139.904 284.539 140.146 284.936 140.464 285.3C140.79 285.655 141.192 285.939 141.668 286.154L141.052 287.036C140.492 286.784 140.03 286.439 139.666 286C139.302 285.552 139.031 285.057 138.854 284.516C138.686 283.965 138.602 283.41 138.602 282.85V281.828Z" fill="#242424"/>
<rect width="12" height="12" transform="translate(159.5 274)" fill="#F24216"/>
<rect width="12" height="12" transform="translate(159.5 274)" fill="#00CAFF"/>
<path d="M189.426 274.422H190.588V287.092H189.426V274.422ZM185.716 275.794H186.864C186.864 276.709 186.752 277.591 186.528 278.44C186.313 279.289 185.973 280.097 185.506 280.862C185.039 281.618 184.433 282.323 183.686 282.976C182.939 283.629 182.034 284.213 180.97 284.726L180.354 283.788C181.577 283.2 182.585 282.514 183.378 281.73C184.171 280.946 184.759 280.073 185.142 279.112C185.525 278.141 185.716 277.096 185.716 275.976V275.794ZM180.942 275.794H186.206V276.732H180.942V275.794ZM202.431 274.422H203.537V287.092H202.431V274.422ZM200.289 279.504H202.725V280.456H200.289V279.504ZM199.561 274.702H200.639V286.434H199.561V274.702ZM193.247 282.99H194.073C194.698 282.99 195.263 282.985 195.767 282.976C196.28 282.957 196.766 282.92 197.223 282.864C197.69 282.808 198.166 282.729 198.651 282.626L198.763 283.592C198.259 283.695 197.769 283.774 197.293 283.83C196.826 283.886 196.332 283.923 195.809 283.942C195.296 283.961 194.717 283.97 194.073 283.97H193.247V282.99ZM193.247 275.962H197.951V276.914H194.409V283.438H193.247V275.962ZM214.064 274.422H215.226V281.31H214.064V274.422ZM214.904 277.334H217.088V278.314H214.904V277.334ZM210.536 275.178H211.796C211.796 276.242 211.558 277.189 211.082 278.02C210.606 278.851 209.924 279.551 209.038 280.12C208.16 280.689 207.101 281.128 205.86 281.436L205.426 280.484C206.518 280.213 207.442 279.849 208.198 279.392C208.963 278.935 209.542 278.398 209.934 277.782C210.335 277.166 210.536 276.494 210.536 275.766V275.178ZM205.986 275.178H211.25V276.13H205.986V275.178ZM206.77 281.968H207.862V283.48H210.046V281.968H211.11V286.91H206.77V281.968ZM207.862 284.376V286H210.046V284.376H207.862ZM213.378 281.828H214.288V282.892C214.288 283.433 214.194 283.975 214.008 284.516C213.83 285.057 213.56 285.547 213.196 285.986C212.832 286.425 212.37 286.775 211.81 287.036L211.18 286.154C211.674 285.939 212.08 285.655 212.398 285.3C212.724 284.936 212.967 284.544 213.126 284.124C213.294 283.704 213.378 283.293 213.378 282.892V281.828ZM213.602 281.828H214.498V282.85C214.498 283.261 214.577 283.681 214.736 284.11C214.904 284.539 215.146 284.936 215.464 285.3C215.79 285.655 216.192 285.939 216.668 286.154L216.052 287.036C215.492 286.784 215.03 286.439 214.666 286C214.302 285.552 214.031 285.057 213.854 284.516C213.686 283.965 213.602 283.41 213.602 282.85V281.828Z" fill="#242424"/>
<rect width="12" height="12" transform="translate(234.5 274)" fill="#0076D1"/>
<path d="M255.2 284.516H266.68V285.482H255.2V284.516ZM260.338 281.478H261.486V284.796H260.338V281.478ZM256.544 275.318H257.706V277.572H264.146V275.318H265.294V281.8H256.544V275.318ZM257.706 278.524V280.848H264.146V278.524H257.706ZM274.561 277.712H277.403V278.678H274.561V277.712ZM277.053 274.422H278.215V281.968H277.053V274.422ZM274.043 282.36C274.92 282.36 275.672 282.453 276.297 282.64C276.932 282.827 277.417 283.097 277.753 283.452C278.089 283.797 278.257 284.222 278.257 284.726C278.257 285.473 277.879 286.051 277.123 286.462C276.376 286.873 275.35 287.078 274.043 287.078C272.736 287.078 271.705 286.873 270.949 286.462C270.202 286.051 269.829 285.473 269.829 284.726C269.829 284.222 269.997 283.797 270.333 283.452C270.678 283.097 271.164 282.827 271.789 282.64C272.424 282.453 273.175 282.36 274.043 282.36ZM274.043 283.27C273.408 283.27 272.862 283.326 272.405 283.438C271.948 283.55 271.593 283.713 271.341 283.928C271.098 284.143 270.977 284.409 270.977 284.726C270.977 285.025 271.098 285.281 271.341 285.496C271.593 285.711 271.948 285.879 272.405 286C272.862 286.112 273.408 286.168 274.043 286.168C274.687 286.168 275.233 286.112 275.681 286C276.138 285.879 276.488 285.711 276.731 285.496C276.983 285.281 277.109 285.025 277.109 284.726C277.109 284.409 276.983 284.143 276.731 283.928C276.488 283.713 276.138 283.55 275.681 283.438C275.233 283.326 274.687 283.27 274.043 283.27ZM271.019 275.71H271.971V276.732C271.971 277.507 271.822 278.235 271.523 278.916C271.234 279.588 270.823 280.181 270.291 280.694C269.759 281.198 269.143 281.585 268.443 281.856L267.841 280.932C268.317 280.764 268.746 280.535 269.129 280.246C269.521 279.957 269.857 279.625 270.137 279.252C270.426 278.879 270.646 278.477 270.795 278.048C270.944 277.619 271.019 277.18 271.019 276.732V275.71ZM271.243 275.71H272.195V276.718C272.195 277.259 272.321 277.787 272.573 278.3C272.825 278.813 273.184 279.266 273.651 279.658C274.118 280.05 274.654 280.358 275.261 280.582L274.673 281.506C273.982 281.254 273.38 280.89 272.867 280.414C272.354 279.929 271.952 279.369 271.663 278.734C271.383 278.099 271.243 277.427 271.243 276.718V275.71ZM268.205 275.346H274.967V276.298H268.205V275.346ZM289.064 274.422H290.226V281.31H289.064V274.422ZM289.904 277.334H292.088V278.314H289.904V277.334ZM285.536 275.178H286.796C286.796 276.242 286.558 277.189 286.082 278.02C285.606 278.851 284.924 279.551 284.038 280.12C283.16 280.689 282.101 281.128 280.86 281.436L280.426 280.484C281.518 280.213 282.442 279.849 283.198 279.392C283.963 278.935 284.542 278.398 284.934 277.782C285.335 277.166 285.536 276.494 285.536 275.766V275.178ZM280.986 275.178H286.25V276.13H280.986V275.178ZM281.77 281.968H282.862V283.48H285.046V281.968H286.11V286.91H281.77V281.968ZM282.862 284.376V286H285.046V284.376H282.862ZM288.378 281.828H289.288V282.892C289.288 283.433 289.194 283.975 289.008 284.516C288.83 285.057 288.56 285.547 288.196 285.986C287.832 286.425 287.37 286.775 286.81 287.036L286.18 286.154C286.674 285.939 287.08 285.655 287.398 285.3C287.724 284.936 287.967 284.544 288.126 284.124C288.294 283.704 288.378 283.293 288.378 282.892V281.828ZM288.602 281.828H289.498V282.85C289.498 283.261 289.577 283.681 289.736 284.11C289.904 284.539 290.146 284.936 290.464 285.3C290.79 285.655 291.192 285.939 291.668 286.154L291.052 287.036C290.492 286.784 290.03 286.439 289.666 286C289.302 285.552 289.031 285.057 288.854 284.516C288.686 283.965 288.602 283.41 288.602 282.85V281.828Z" fill="#242424"/>
<path d="M315.5 275C318.261 275 320.5 277.239 320.5 280C320.5 282.761 318.261 285 315.5 285C312.739 285 310.5 282.761 310.5 280C310.5 277.239 312.739 275 315.5 275Z" stroke="black" stroke-width="2"/>
<path d="M333.21 282.248H334.372V285.244H333.21V282.248ZM337.466 282.248H338.614V285.244H337.466V282.248ZM330.76 276.298H341.05V277.25H330.76V276.298ZM330.2 284.684H341.68V285.636H330.2V284.684ZM335.912 278.062C337.191 278.062 338.199 278.272 338.936 278.692C339.683 279.103 340.056 279.686 340.056 280.442C340.056 281.189 339.683 281.772 338.936 282.192C338.199 282.603 337.191 282.808 335.912 282.808C334.624 282.808 333.611 282.603 332.874 282.192C332.137 281.772 331.768 281.189 331.768 280.442C331.768 279.686 332.137 279.103 332.874 278.692C333.611 278.272 334.624 278.062 335.912 278.062ZM335.898 278.972C335.291 278.972 334.764 279.033 334.316 279.154C333.877 279.266 333.537 279.434 333.294 279.658C333.061 279.873 332.944 280.134 332.944 280.442C332.944 280.741 333.061 281.002 333.294 281.226C333.537 281.441 333.877 281.609 334.316 281.73C334.764 281.842 335.291 281.898 335.898 281.898C336.523 281.898 337.055 281.842 337.494 281.73C337.933 281.609 338.273 281.441 338.516 281.226C338.759 281.002 338.88 280.741 338.88 280.442C338.88 280.134 338.759 279.873 338.516 279.658C338.273 279.434 337.933 279.266 337.494 279.154C337.055 279.033 336.523 278.972 335.898 278.972ZM335.338 274.632H336.486V276.858H335.338V274.632ZM345.893 280.106H347.041V282.458H345.893V280.106ZM349.911 280.106H351.073V282.458H349.911V280.106ZM348.511 274.576C349.911 274.576 351.003 274.767 351.787 275.15C352.571 275.523 352.963 276.06 352.963 276.76C352.963 277.469 352.571 278.015 351.787 278.398C351.003 278.771 349.911 278.958 348.511 278.958C347.12 278.958 346.028 278.771 345.235 278.398C344.451 278.015 344.059 277.469 344.059 276.76C344.059 276.06 344.451 275.523 345.235 275.15C346.028 274.767 347.12 274.576 348.511 274.576ZM348.511 275.458C347.83 275.458 347.246 275.509 346.761 275.612C346.276 275.715 345.902 275.864 345.641 276.06C345.389 276.247 345.263 276.48 345.263 276.76C345.263 277.04 345.389 277.283 345.641 277.488C345.902 277.684 346.276 277.833 346.761 277.936C347.246 278.029 347.83 278.076 348.511 278.076C349.202 278.076 349.79 278.029 350.275 277.936C350.76 277.833 351.129 277.684 351.381 277.488C351.642 277.283 351.773 277.04 351.773 276.76C351.773 276.48 351.642 276.247 351.381 276.06C351.129 275.864 350.76 275.715 350.275 275.612C349.79 275.509 349.202 275.458 348.511 275.458ZM342.799 279.728H354.237V280.666H342.799V279.728ZM344.185 281.898H352.767V284.754H345.347V286.28H344.213V283.9H351.633V282.794H344.185V281.898ZM344.213 286.042H353.145V286.952H344.213V286.042Z" fill="#242424"/>
</svg>
