<?xml version="1.0" encoding="utf-8"?>
<!-- Generator: Adobe Illustrator 16.0.0, SVG Export Plug-In . SVG Version: 6.00 Build 0)  -->
<!DOCTYPE svg PUBLIC "-//W3C//DTD SVG 1.1//EN" "http://www.w3.org/Graphics/SVG/1.1/DTD/svg11.dtd">
<svg version="1.1" id="Layer_1" xmlns="http://www.w3.org/2000/svg" xmlns:xlink="http://www.w3.org/1999/xlink" x="0px" y="0px"
	 width="128px" height="32px" viewBox="0 0 128 32" enable-background="new 0 0 128 32" xml:space="preserve">
<path fill="#FFFFFF" d="M29.86,9.01c-0.058-0.089-0.095-0.027-0.059,0.085c2.104,6.557-0.718,12.466-0.718,12.466
	s1.194-5.811,0.355-9.449c-0.084-0.363-0.168-0.559-0.275-0.565c-0.138-0.011-0.229,0.1-0.244,0.476
	c-0.409,9.744-5.693,15.142-5.693,15.142s3.486-8.215,3.556-15.362c0.004-0.411,0.021-0.566-0.116-0.615
	c-0.146-0.052-0.283-0.009-0.38,0.267c-4.38,12.555-12.123,17.328-12.123,17.328S21.526,17.33,23.9,10.166
	c0.105-0.317,0.178-0.489,0.039-0.594s-0.314-0.058-0.504,0.184C15.376,19.974,6.542,25.1,6.542,25.1s5.119-8.845,15.409-16.836
	c0.241-0.189,0.285-0.366,0.185-0.502c-0.1-0.137-0.273-0.064-0.594,0.034C13.708,10.2,2.933,17.774,2.933,17.774
	S8.165,9.234,20.23,5.399c0.279-0.089,0.317-0.214,0.267-0.359s-0.204-0.124-0.613-0.12C12.128,4.974,4.557,8.567,4.557,8.567
	s5.458-5.33,15.167-5.801c0.377-0.019,0.508-0.073,0.497-0.212c-0.006-0.106-0.112-0.204-0.477-0.273
	c-4.53-0.869-9.664,0.314-9.664,0.314s5.926-2.744,12.289-0.785c0.116,0.04,0.133-0.021,0.069-0.063
	C19.074,0.17,15.26-0.164,11.673,0.803C8.085,1.769,4.956,3.975,2.838,7.027c-2.117,3.054-3.085,6.757-2.732,10.456
	c0.353,3.698,2.003,7.153,4.659,9.751c2.655,2.599,6.145,4.174,9.851,4.445s7.388-0.777,10.394-2.961
	c3.006-2.184,5.143-5.36,6.031-8.969c0.888-3.607,0.47-7.413-1.179-10.742L29.86,9.01z"/>
<path fill="#FFFFFF" d="M59.612,30.428h-1.533v-3.004h-7.804v-1.146h3.706v-1.72h-4.336V23.41h8.186v-2.732h-7.436v-1.146h8.981
	v3.877h0.997v1.148h-4.835v1.719h4.076V30.428z"/>
<path fill="#FFFFFF" d="M70.426,30.167c-0.996,0.45-2.078,0.685-3.172,0.685s-2.176-0.234-3.172-0.685
	c-0.878-0.454-1.318-1.003-1.319-1.649c0-0.575,0.353-1.08,1.058-1.517c0.811-0.462,1.717-0.733,2.647-0.792v-0.875h-4.584v-1.146
	h10.728v1.146h-4.573v0.876c0.931,0.059,1.837,0.33,2.647,0.792c0.706,0.437,1.059,0.942,1.059,1.516
	C71.744,29.162,71.305,29.712,70.426,30.167z M71.936,23.545c-2.328,0-3.889-0.531-4.682-1.596
	c-0.794,1.064-2.354,1.597-4.682,1.596V22.41c2.099,0,3.35-0.577,3.754-1.732h-3.574v-1.146h8.992v1.146h-3.563
	c0.403,1.155,1.654,1.732,3.755,1.732V23.545z M69.25,27.655c-0.637-0.242-1.315-0.357-1.996-0.339
	c-0.678-0.02-1.352,0.096-1.984,0.339c-0.545,0.239-0.82,0.524-0.82,0.863c0,0.338,0.275,0.618,0.82,0.845
	c0.633,0.244,1.307,0.36,1.984,0.341c0.682,0.019,1.359-0.098,1.996-0.341c0.538-0.227,0.808-0.51,0.808-0.845
	S69.788,27.893,69.25,27.655z"/>
<path fill="#FFFFFF" d="M84.852,26.988h-4.574v3.441h-1.568v-3.441h-4.584v-1.147h10.727V26.988z M83.984,24.692h-8.98v-5.159h1.555
	v1.365h5.867v-1.365h1.556L83.984,24.692z M76.561,22.004v1.541h5.866v-1.543L76.561,22.004z"/>
<path fill="#FFFFFF" d="M40.065,29.281v-2.718h-1.556v3.864h8.72v-1.146H40.065z"/>
<path fill="#FFFFFF" d="M47.229,21.646v-2.115h-1.546v8.254h1.544v-4.99h1.747v-1.148H47.229z"/>
<path fill="#FFFFFF" d="M44.306,19.982h-2.778v-1.148h-1.63v1.148h-2.78v1.145h1.248c-0.269,0.226-0.483,0.508-0.627,0.828
	c-0.144,0.319-0.213,0.667-0.203,1.018c-0.006,0.562,0.165,1.111,0.489,1.57c0.128,0.183,0.275,0.352,0.439,0.505
	c0.615,0.563,1.425,0.866,2.259,0.845c0.83,0.021,1.635-0.281,2.244-0.845c0.294-0.259,0.53-0.579,0.69-0.937
	c0.16-0.358,0.241-0.746,0.237-1.139c0.01-0.351-0.06-0.699-0.204-1.019s-0.359-0.603-0.628-0.827h1.244V19.982z M41.835,24.242
	c-0.138,0.16-0.309,0.289-0.502,0.377s-0.403,0.131-0.615,0.129c-0.214,0.002-0.426-0.042-0.621-0.129
	c-0.195-0.088-0.369-0.217-0.51-0.377c-0.313-0.348-0.479-0.803-0.463-1.27c-0.013-0.467,0.153-0.921,0.463-1.27
	c0.141-0.162,0.314-0.29,0.51-0.377c0.195-0.088,0.407-0.132,0.621-0.129c0.212-0.003,0.422,0.041,0.615,0.128
	s0.364,0.216,0.502,0.378c0.31,0.349,0.475,0.803,0.462,1.27c0.016,0.467-0.149,0.922-0.46,1.27H41.835z"/>
<path fill="#FFFFFF" d="M92.719,19.531h-1.569v1.298h-2.993v-1.298H86.6v5.066h6.117L92.719,19.531z M91.15,23.45h-2.994v-1.528
	h2.993L91.15,23.45z"/>
<path fill="#FFFFFF" d="M96.188,21.115v-1.584h-1.543v5.066h1.543v-2.336h1.748v-1.145L96.188,21.115z"/>
<path fill="#FFFFFF" d="M89.037,28.557h7.15v-3.071h-8.779v1.147h7.225v0.833h-7.165v3.1h8.852v-1.146h-7.282V28.557z"/>
<path fill="#FFFFFF" d="M104.734,22.753h2.553v5.08h1.568v-8.302h-1.568v2.007h-2.553V22.753z"/>
<path fill="#FFFFFF" d="M101.93,23.533c0.362,0.589,0.864,1.081,1.461,1.433c0.596,0.352,1.27,0.552,1.961,0.585v-1.104
	c-0.681-0.072-1.309-0.398-1.759-0.913c-0.593-0.7-0.899-1.598-0.856-2.514v-0.342h2.354v-1.146h-6.319v1.146h2.352v0.342
	c0.043,0.916-0.263,1.813-0.854,2.514c-0.451,0.514-1.078,0.84-1.758,0.913v1.104c0.691-0.033,1.363-0.233,1.961-0.585
	C101.066,24.614,101.566,24.122,101.93,23.533z"/>
<path fill="#FFFFFF" d="M101.684,29.281v-2.718h-1.557v3.864h8.73v-1.146H101.684z"/>
<path fill="#FFFFFF" d="M119.021,16.156c-4.522,0-8.203-3.391-8.203-7.559s3.681-7.56,8.203-7.56s8.201,3.391,8.201,7.56
	S123.545,16.156,119.021,16.156z M119.021,3.148c-1.067,0.046-2.098,0.405-2.963,1.032c-0.865,0.626-1.526,1.494-1.904,2.494
	c-0.375,1-0.45,2.088-0.213,3.129c0.236,1.042,0.773,1.991,1.545,2.73s1.744,1.235,2.795,1.426s2.135,0.07,3.117-0.35
	c0.982-0.419,1.82-1.118,2.41-2.009c0.588-0.892,0.901-1.936,0.901-3.004c-0.033-1.477-0.649-2.879-1.717-3.901
	S120.498,3.118,119.021,3.148z"/>
<path fill="#FFFFFF" d="M59.416,16.156c-4.522,0-8.201-3.391-8.201-7.559s3.679-7.56,8.201-7.56c4.521,0,8.207,3.391,8.207,7.56
	S63.94,16.156,59.416,16.156z M59.416,3.148c-0.735-0.031-1.469,0.087-2.157,0.347s-1.316,0.656-1.847,1.165
	c-0.531,0.509-0.954,1.12-1.242,1.796c-0.289,0.676-0.438,1.404-0.438,2.14s0.149,1.463,0.438,2.14
	c0.289,0.677,0.711,1.288,1.242,1.796c0.531,0.509,1.159,0.905,1.847,1.165s1.422,0.377,2.157,0.347
	c3.138,0,5.688-2.445,5.688-5.447c-0.034-1.477-0.651-2.879-1.718-3.9C62.32,3.675,60.892,3.119,59.416,3.148z"/>
<path fill="#FFFFFF" d="M92.474,15.651h-2.577V1.49h2.577V15.651z"/>
<path fill="#FFFFFF" d="M86.688,15.651H84.11l0.005-11.369l-4.242,11.369l-3.45-0.003l-4.345-11.32v11.323H69.5V1.49h3.748
	l4.803,11.943l4.893-11.941h3.745L86.688,15.651L86.688,15.651z"/>
<path fill="#FFFFFF" d="M52.571,15.651h-3.728l-8-7.186c-0.095-0.079-0.158-0.189-0.178-0.311c0-0.062,0.015-0.123,0.042-0.178
	c0.027-0.056,0.067-0.104,0.116-0.142l7.436-6.284h3.436L44.109,8.1L52.571,15.651z"/>
<path fill="#FFFFFF" d="M40.374,15.651h-2.578V1.49h2.578V15.651z"/>
<path fill="#FFFFFF" d="M104.941,1.49h-9.363v14.161h2.581V3.522h6.282c0.709,0.022,1.384,0.32,1.877,0.83
	c0.496,0.51,0.771,1.193,0.771,1.903s-0.275,1.393-0.771,1.903c-0.493,0.51-1.168,0.808-1.877,0.83h-4.39l-1.737,2.004h6.627
	c0.629,0.008,1.254-0.108,1.838-0.343s1.115-0.583,1.563-1.026c0.449-0.442,0.804-0.969,1.048-1.549
	c0.242-0.581,0.367-1.204,0.367-1.833c0-0.629-0.125-1.252-0.367-1.833c-0.244-0.581-0.599-1.107-1.048-1.549
	c-0.448-0.442-0.979-0.791-1.563-1.026S105.57,1.482,104.941,1.49z"/>
</svg>
