<svg width="128" height="32" viewBox="0 0 128 32" fill="none" xmlns="http://www.w3.org/2000/svg">
<path d="M15.7478 31.748C24.4451 31.748 31.4958 24.6974 31.4958 16C31.4958 7.30262 24.4451 0.251999 15.7478 0.251999C7.05038 0.251999 -0.000244141 7.30262 -0.000244141 16C-0.000244141 24.6974 7.05038 31.748 15.7478 31.748Z" fill="white"/>
<path d="M29.8597 9.00954C29.8023 8.92065 29.765 8.98287 29.8014 9.09531C31.905 15.6518 29.0828 21.5615 29.0828 21.5615C29.0828 21.5615 30.2774 15.7509 29.4383 12.1126C29.3539 11.75 29.2699 11.5544 29.1632 11.5478C29.025 11.5371 28.9348 11.6473 28.9192 12.0238C28.5103 21.7682 23.2263 27.1664 23.2263 27.1664C23.2263 27.1664 26.7117 18.9518 26.7819 11.8038C26.7863 11.3931 26.8028 11.2371 26.6659 11.1886C26.5206 11.1366 26.3828 11.1798 26.2863 11.4553C21.9059 24.0104 14.1632 28.7838 14.1632 28.7838C14.1632 28.7838 21.5259 17.33 23.9001 10.166C24.005 9.84909 24.0779 9.67709 23.9383 9.5722C23.7988 9.46731 23.6241 9.51487 23.4348 9.75576C15.3766 19.9735 6.54233 25.0993 6.54233 25.0993C6.54233 25.0993 11.6614 16.2549 21.9512 8.26375C22.1926 8.07486 22.2361 7.89753 22.1361 7.76109C22.0361 7.62464 21.8628 7.69709 21.5423 7.79487C13.7081 10.1998 2.933 17.7744 2.933 17.7744C2.933 17.7744 8.165 9.23442 20.2299 5.39931C20.5086 5.31042 20.5468 5.18509 20.4966 5.04064C20.4463 4.8962 20.2926 4.91709 19.8837 4.92064C12.1286 4.97397 4.557 8.56731 4.557 8.56731C4.557 8.56731 10.0148 3.23798 19.7246 2.76598C20.1014 2.74776 20.2326 2.69265 20.2214 2.55354C20.2152 2.44731 20.1094 2.34998 19.7446 2.2802C15.2143 1.41131 10.0806 2.59487 10.0806 2.59487C10.0806 2.59487 16.0068 -0.14958 22.369 1.80953C22.485 1.84953 22.5023 1.78864 22.4383 1.74642C19.0738 0.170257 15.26 -0.164126 11.6726 0.802512C8.08517 1.76915 4.95568 3.97441 2.83857 7.0276C0.721464 10.0808 -0.246602 13.7848 0.105893 17.4834C0.458389 21.182 2.10869 24.6365 4.76441 27.2348C7.42013 29.8331 10.9098 31.4076 14.6153 31.6792C18.3207 31.9508 22.0027 30.902 25.0089 28.7187C28.0151 26.5354 30.1515 23.3584 31.0395 19.7507C31.9275 16.143 31.5099 12.3374 29.8606 9.0082L29.8597 9.00954Z" fill="url(#paint0_radial_1401_9962)"/>
<path d="M59.612 30.4277H58.0787V27.4241H50.2743V26.2774H53.98V24.5574H49.644V23.4099H57.8298V20.6774H50.3934V19.5308H59.3743V23.4085H60.3712V24.5561H55.5356V26.2761H59.612V30.4277Z" fill="#003876"/>
<path d="M70.4265 30.1668C69.4297 30.6179 68.3481 30.8512 67.254 30.8512C66.1599 30.8512 65.0784 30.6179 64.0816 30.1668C63.2033 29.7134 62.7638 29.1635 62.7629 28.517C62.7629 27.9425 63.1153 27.4371 63.8202 27.001C64.6311 26.5391 65.5365 26.2681 66.4678 26.2085V25.3334H61.8838V24.1886H72.6114V25.3352H68.038V26.2103C68.9694 26.2698 69.875 26.5408 70.686 27.0028C71.3918 27.4398 71.7445 27.9451 71.7442 28.5188C71.7445 29.1626 71.3053 29.712 70.4265 30.1668ZM71.9349 23.5445C69.6069 23.5445 68.0465 23.013 67.2536 21.9499C66.4601 23.0142 64.8996 23.5457 62.5722 23.5445V22.4108C64.6709 22.4108 65.9223 21.833 66.3265 20.6774H62.7518V19.5308H71.7447V20.6774H68.1807C68.5833 21.833 69.8348 22.4108 71.9349 22.4108V23.5445ZM69.25 27.6552C68.613 27.4131 67.9348 27.2981 67.2536 27.3165C66.5765 27.2971 65.9023 27.4122 65.27 27.6552C64.7242 27.8939 64.4496 28.1801 64.4496 28.5183C64.4496 28.8566 64.7242 29.1366 65.27 29.3628C65.9019 29.6076 66.5762 29.7236 67.2536 29.7041C67.935 29.7227 68.6134 29.6067 69.25 29.3628C69.7882 29.1361 70.0576 28.853 70.0576 28.5183C70.0576 28.1837 69.7882 27.8925 69.25 27.6552Z" fill="#003876"/>
<path d="M84.8521 26.9886H80.2774V30.429H78.7094V26.9886H74.1245V25.841H84.8521V26.9886ZM83.9845 24.6926H75.0036V19.5326H76.5592V20.8984H82.4258V19.5326H83.9814L83.9845 24.6926ZM76.5601 22.0033V23.5446H82.4267V22.0019L76.5601 22.0033Z" fill="#003876"/>
<path d="M40.0648 29.2811V26.5637H38.5093V30.4277H47.2297V29.2811H40.0648Z" fill="#003876"/>
<path d="M47.2289 21.6467V19.5311H45.6831V27.7845H47.2275V22.7947H48.9742V21.6467H47.2289Z" fill="#003876"/>
<path d="M44.3055 19.9818H41.5277V18.8347H39.8975V19.9818H37.1179V21.1276H38.3655C38.0966 21.3523 37.8822 21.6351 37.7385 21.9547C37.5947 22.2742 37.5254 22.6223 37.5357 22.9725C37.5295 23.5342 37.7005 24.0835 38.0246 24.5423C38.1525 24.7258 38.2995 24.8952 38.4632 25.0476C39.0787 25.611 39.8887 25.9138 40.7228 25.8921C41.5524 25.9143 42.3577 25.6113 42.9668 25.0476C43.2613 24.7886 43.4966 24.4692 43.6566 24.1111C43.8166 23.7531 43.8975 23.3647 43.8939 22.9725C43.9043 22.622 43.8347 22.2738 43.6906 21.9541C43.5465 21.6345 43.3315 21.3519 43.0619 21.1276H44.3055V19.9818ZM41.8353 24.2418C41.6976 24.4029 41.5263 24.5317 41.3334 24.6191C41.1404 24.7065 40.9306 24.7504 40.7188 24.7476C40.5049 24.7501 40.293 24.7061 40.0978 24.6188C39.9025 24.5315 39.7285 24.4029 39.5877 24.2418C39.275 23.8946 39.1092 23.4396 39.125 22.9725C39.1121 22.5058 39.2776 22.0517 39.5877 21.7027C39.7284 21.5416 39.9024 21.4129 40.0977 21.3256C40.293 21.2383 40.5049 21.1944 40.7188 21.1969C40.9306 21.1941 41.1405 21.2379 41.3334 21.3253C41.5264 21.4128 41.6977 21.5416 41.8353 21.7027C42.1449 22.052 42.3101 22.5059 42.2975 22.9725C42.3136 23.4392 42.1486 23.894 41.837 24.2418H41.8353Z" fill="#003876"/>
<path d="M92.7192 19.5313H91.1494V20.829H88.1557V19.5313H86.6001V24.5979H92.7165L92.7192 19.5313ZM91.1503 23.4504H88.1565V21.9219H91.1494L91.1503 23.4504Z" fill="#003876"/>
<path d="M96.1876 21.1151V19.5311H94.644V24.5978H96.1876V22.2622H97.9352V21.1165L96.1876 21.1151Z" fill="#003876"/>
<path d="M89.0366 28.5569H96.1869V25.4854H87.4082V26.6329H94.6322V27.4658H87.4677V30.5654H96.3193V29.4191H89.0366V28.5569Z" fill="#003876"/>
<path d="M104.734 22.7529H107.287V27.8329H108.855V19.5311H107.287V21.5382H104.734V22.7529Z" fill="#003876"/>
<path d="M101.929 23.5325C102.292 24.122 102.794 24.614 103.39 24.9656C103.987 25.3173 104.66 25.518 105.351 25.5502V24.4462C104.671 24.3742 104.043 24.0478 103.593 23.5325C103 22.8332 102.694 21.9356 102.737 21.02V20.6778H105.09V19.5311H98.7706V20.6778H101.122V21.02C101.165 21.9354 100.859 22.833 100.267 23.5325C99.8169 24.0473 99.1893 24.3736 98.5093 24.4462V25.5502C99.2006 25.5182 99.8737 25.3175 100.47 24.9659C101.066 24.6142 101.567 24.1221 101.929 23.5325Z" fill="#003876"/>
<path d="M101.683 29.2811V26.5637H100.127V30.4277H108.858V29.2811H101.683Z" fill="#003876"/>
<path d="M119.022 16.1557C114.499 16.1557 110.819 12.765 110.819 8.59659C110.819 4.42815 114.499 1.03703 119.022 1.03703C123.544 1.03703 127.223 4.42815 127.223 8.59659C127.223 12.765 123.545 16.1557 119.022 16.1557ZM119.022 3.14859C117.954 3.19491 116.924 3.55375 116.059 4.18053C115.194 4.8073 114.532 5.67441 114.155 6.67415C113.779 7.67388 113.704 8.76221 113.941 9.80395C114.178 10.8457 114.715 11.7949 115.487 12.5338C116.258 13.2727 117.23 13.7687 118.281 13.9601C119.332 14.1515 120.416 14.03 121.399 13.6106C122.381 13.1912 123.219 12.4924 123.808 11.601C124.396 10.7096 124.71 9.66488 124.71 8.59659C124.677 7.12014 124.06 5.71717 122.993 4.69572C121.926 3.67427 120.498 3.11783 119.022 3.14859Z" fill="#003876"/>
<path d="M59.4158 16.1557C54.894 16.1557 51.2153 12.765 51.2153 8.59659C51.2153 4.42815 54.894 1.03703 59.4158 1.03703C63.9376 1.03703 67.6225 4.42815 67.6225 8.59659C67.6225 12.765 63.9402 16.1557 59.4158 16.1557ZM59.4158 3.14859C58.681 3.11745 57.9475 3.23529 57.2594 3.49502C56.5713 3.75475 55.9429 4.15099 55.412 4.65991C54.881 5.16883 54.4585 5.77991 54.1699 6.45637C53.8813 7.13282 53.7325 7.86068 53.7325 8.59614C53.7325 9.3316 53.8813 10.0595 54.1699 10.7359C54.4585 11.4124 54.881 12.0235 55.412 12.5324C55.9429 13.0413 56.5713 13.4375 57.2594 13.6973C57.9475 13.957 58.681 14.0748 59.4158 14.0437C62.554 14.0437 65.1047 11.5993 65.1047 8.59659C65.0708 7.12037 64.453 5.71781 63.3865 4.69651C62.32 3.67521 60.8921 3.11854 59.4158 3.14859Z" fill="#003876"/>
<path d="M92.4738 15.6513H89.896V1.4904H92.4738V15.6513Z" fill="#003876"/>
<path d="M86.688 15.6513H84.1103L84.1147 4.28284L79.8734 15.6513L76.4227 15.6482L72.0783 4.32862V15.6513H69.5005V1.4904H73.248L78.0512 13.4331L82.9427 1.49173H86.6885V15.6522L86.688 15.6513Z" fill="#003876"/>
<path d="M52.5713 15.6512H48.8438L40.8438 8.46586C40.7488 8.38711 40.6856 8.27656 40.666 8.15475C40.6664 8.09285 40.6808 8.03185 40.7083 7.9764C40.7358 7.92094 40.7756 7.8725 40.8247 7.83475L48.2602 1.55119H51.6958L44.1096 8.09963L52.5713 15.6512Z" fill="#003876"/>
<path d="M40.3742 15.6512H37.7964V1.49032H40.3742V15.6512Z" fill="#003876"/>
<path d="M104.942 1.49036H95.5776V15.6512H98.1594V3.52191H104.441C105.151 3.5441 105.825 3.84179 106.319 4.35197C106.814 4.86215 107.09 5.54475 107.09 6.25524C107.09 6.96574 106.814 7.64834 106.319 8.15852C105.825 8.6687 105.151 8.96639 104.441 8.98857H100.052L98.315 10.9926H104.942C105.571 11.0012 106.196 10.8847 106.78 10.6498C107.364 10.4149 107.895 10.0663 108.343 9.62422C108.792 9.18219 109.147 8.65552 109.39 8.07481C109.633 7.4941 109.758 6.87092 109.758 6.24146C109.758 5.61201 109.633 4.98883 109.39 4.40812C109.147 3.82741 108.792 3.30075 108.343 2.85871C107.895 2.41668 107.364 2.06808 106.78 1.83318C106.196 1.59828 105.571 1.48175 104.942 1.49036Z" fill="#003876"/>
<defs>
<radialGradient id="paint0_radial_1401_9962" cx="0" cy="0" r="1" gradientUnits="userSpaceOnUse" gradientTransform="translate(26.7763 4.82256) scale(33.9144 33.9144)">
<stop offset="0.1" stop-color="#E4F5FE"/>
<stop offset="0.146" stop-color="#DEF2FD"/>
<stop offset="0.206" stop-color="#CDEBFA"/>
<stop offset="0.274" stop-color="#B2DFF7"/>
<stop offset="0.348" stop-color="#8CCEF2"/>
<stop offset="0.426" stop-color="#5CB8EB"/>
<stop offset="0.507" stop-color="#219FE3"/>
<stop offset="0.55" stop-color="#0090DF"/>
<stop offset="0.607" stop-color="#007FCC"/>
<stop offset="0.722" stop-color="#00559C"/>
<stop offset="0.826" stop-color="#002B6D"/>
<stop offset="0.896" stop-color="#0066B0"/>
<stop offset="0.95" stop-color="#0090DF"/>
</radialGradient>
</defs>
</svg>
