<svg width="350" height="40" viewBox="0 0 350 40" fill="none" xmlns="http://www.w3.org/2000/svg">
<path d="M40.3664 4.36623C40.1091 4.38738 42.1324 -1.00932 35.6077 0.168014C18.3601 3.28055 6.1708 14.7684 3.60464 18.0572C1.03847 21.3459 -6.82218 35.0615 13.9504 33.4577C34.7265 31.8538 46.2037 19.9324 47.8005 17.7364C54.0291 9.15312 51.5898 3.46385 40.3664 4.36976V4.36623ZM36.1153 1.56037C36.1153 1.56037 40.1937 0.622733 38.5228 4.66233C38.5228 4.66233 28.3639 5.62464 14.1936 14.0211C14.1936 14.0211 21.5713 3.78109 36.1188 1.5639L36.1153 1.56037ZM30.708 27.9975C20.8558 31.6705 11.5005 30.9832 9.80856 26.4536C8.1201 21.924 14.7364 15.276 24.5852 11.5994C34.4374 7.92291 43.7926 8.6138 45.4811 13.1434C47.1731 17.6729 40.5532 24.3245 30.7045 28.0011L30.708 27.9975Z" fill="#DF134C"/>
<path d="M51.2054 40L55.5729 15.2407H62.013L61.5441 17.8809C62.6333 16.767 63.5851 16.0127 64.3993 15.6179C65.4956 15.0891 66.6553 14.8248 67.8714 14.8248C70.2754 14.8248 71.9709 15.7413 72.9579 17.5778C73.9484 19.4143 74.2058 21.6843 73.7299 24.3915C73.2047 27.3771 72.0837 29.6578 70.3741 31.2299C68.6645 32.802 66.7188 33.5881 64.5298 33.5881C63.4688 33.5881 62.5311 33.4048 61.7239 33.0453C60.9132 32.6857 60.2258 32.1464 59.6653 31.4308L58.1531 40H51.2054ZM60.8814 24.2399C60.6312 25.6534 60.7475 26.7074 61.2234 27.3948C61.6992 28.0821 62.3936 28.4241 63.3101 28.4241C64.1103 28.4241 64.8364 28.0962 65.4956 27.4371C66.1548 26.7779 66.6201 25.664 66.8985 24.0884C67.1523 22.6361 67.0572 21.5751 66.6165 20.8912C66.1724 20.2109 65.545 19.8725 64.7342 19.8725C63.853 19.8725 63.0599 20.218 62.3549 20.9018C61.6464 21.5856 61.1564 22.6995 60.885 24.2399H60.8814Z" fill="#0060A9"/>
<path d="M24.2324 15.2301H30.8417L31.7512 26.3549L37.3312 15.2301H43.4611L45.2588 26.4465L50.1126 15.2301H56.6832L46.9754 33.0488H40.8984L39.1782 22.3259L33.7991 33.0488H27.6975L24.2324 15.2301Z" fill="#0060A9"/>
<path d="M91.1457 14.992H94.0897V16.672H91.1457V14.992ZM91.1457 17.776H94.0897V19.472H91.1457V17.776ZM82.9697 13.584H90.7937V15.28H82.9697V13.584ZM82.8097 21.12L82.6017 19.392C84.9857 19.392 88.3137 19.36 90.9857 19.056L91.0977 20.608C88.3457 21.072 85.1617 21.12 82.8097 21.12ZM84.1377 15.008H86.1857V20.016H84.1377V15.008ZM87.5777 15.008H89.6097V20.016H87.5777V15.008ZM92.8737 12.608H95.0017V21.664H92.8737V12.608ZM89.9777 21.888C93.1297 21.888 95.0497 22.896 95.0497 24.672C95.0497 26.416 93.1297 27.424 89.9777 27.424C86.8257 27.424 84.9057 26.416 84.9057 24.672C84.9057 22.896 86.8257 21.888 89.9777 21.888ZM89.9777 23.504C88.0417 23.504 87.0337 23.872 87.0337 24.672C87.0337 25.44 88.0417 25.824 89.9777 25.824C91.9297 25.824 92.9377 25.44 92.9377 24.672C92.9377 23.872 91.9297 23.504 89.9777 23.504ZM97.4964 19.36H98.5204C100.664 19.36 102.04 19.328 103.672 19.056L103.864 20.752C102.168 21.04 100.728 21.088 98.5204 21.088H97.4964V19.36ZM97.4964 13.6H103.336V15.296H99.5444V20.304H97.4964V13.6ZM98.9364 16.496H103.176V18.096H98.9364V16.496ZM107.608 12.608H109.624V21.648H107.608V12.608ZM105.832 16.24H108.184V17.936H105.832V16.24ZM104.44 12.88H106.424V21.552H104.44V12.88ZM99.4484 22.288H109.624V27.424H107.512V23.984H99.4484V22.288ZM111.431 26V24.656C114.663 21.76 116.551 19.536 116.551 17.712C116.551 16.528 115.927 15.792 114.791 15.792C113.911 15.792 113.223 16.352 112.615 17.024L111.319 15.744C112.407 14.576 113.479 13.952 115.095 13.952C117.319 13.952 118.823 15.376 118.823 17.584C118.823 19.744 117.031 22.048 114.871 24.16C115.463 24.096 116.247 24.016 116.807 24.016H119.367V26H111.431ZM120.517 19.92H133.909V21.632H120.517V19.92ZM126.133 18.032H128.261V20.288H126.133V18.032ZM122.005 22.64H132.293V27.424H130.165V24.32H122.005V22.64ZM122.229 12.976H124.325V14.288H130.101V12.976H132.213V18.704H122.229V12.976ZM124.325 15.872V17.04H130.101V15.872H124.325ZM144.451 12.608H146.579V21.28H144.451V12.608ZM145.731 16.16H148.547V17.92H145.731V16.16ZM136.947 21.856H139.043V22.976H144.467V21.856H146.579V27.264H136.947V21.856ZM139.043 24.576V25.6H144.467V24.576H139.043ZM134.915 13.888H143.635V15.568H134.915V13.888ZM139.283 15.968C141.427 15.968 142.915 17.024 142.915 18.592C142.915 20.16 141.427 21.216 139.283 21.216C137.123 21.216 135.635 20.16 135.635 18.592C135.635 17.024 137.123 15.968 139.283 15.968ZM139.283 17.52C138.323 17.52 137.683 17.904 137.683 18.592C137.683 19.296 138.323 19.664 139.283 19.664C140.227 19.664 140.883 19.296 140.883 18.592C140.883 17.904 140.227 17.52 139.283 17.52ZM138.211 12.496H140.339V14.832H138.211V12.496Z" fill="#242424"/>
<rect width="1" height="16" transform="translate(157.962 12)" fill="#E0E0E0"/>
<path d="M168.226 26V17.04H170.578V26H168.226ZM169.41 15.584C168.994 15.584 168.663 15.472 168.418 15.248C168.172 15.0133 168.05 14.6987 168.05 14.304C168.05 13.92 168.172 13.6107 168.418 13.376C168.663 13.1413 168.994 13.024 169.41 13.024C169.804 13.024 170.13 13.1413 170.386 13.376C170.642 13.6107 170.77 13.92 170.77 14.304C170.77 14.6987 170.642 15.0133 170.386 15.248C170.13 15.472 169.804 15.584 169.41 15.584ZM172.285 22.272V20.576H176.653V22.272H172.285ZM178.559 26V14.144H182.447C183.322 14.144 184.106 14.2613 184.799 14.496C185.503 14.7307 186.058 15.12 186.463 15.664C186.879 16.1973 187.087 16.9333 187.087 17.872C187.087 18.768 186.879 19.5093 186.463 20.096C186.058 20.672 185.508 21.0987 184.815 21.376C184.132 21.6533 183.364 21.792 182.511 21.792H180.927V26H178.559ZM180.927 19.92H182.351C183.162 19.92 183.764 19.7493 184.159 19.408C184.564 19.0667 184.767 18.5547 184.767 17.872C184.767 17.1893 184.554 16.7147 184.127 16.448C183.711 16.1707 183.092 16.032 182.271 16.032H180.927V19.92ZM193.615 26.224C192.569 26.224 191.647 25.9787 190.847 25.488C190.057 24.9867 189.439 24.272 188.991 23.344C188.543 22.416 188.319 21.3067 188.319 20.016C188.319 18.736 188.543 17.6427 188.991 16.736C189.439 15.8293 190.057 15.136 190.847 14.656C191.647 14.176 192.569 13.936 193.615 13.936C194.671 13.936 195.593 14.1813 196.383 14.672C197.172 15.152 197.791 15.8453 198.239 16.752C198.687 17.648 198.911 18.736 198.911 20.016C198.911 21.3067 198.687 22.416 198.239 23.344C197.791 24.272 197.172 24.9867 196.383 25.488C195.593 25.9787 194.671 26.224 193.615 26.224ZM193.615 24.176C194.201 24.176 194.708 24.0053 195.135 23.664C195.572 23.3227 195.908 22.8427 196.143 22.224C196.377 21.5947 196.495 20.8587 196.495 20.016C196.495 19.1733 196.377 18.4533 196.143 17.856C195.908 17.248 195.572 16.784 195.135 16.464C194.708 16.1333 194.201 15.968 193.615 15.968C193.028 15.968 192.516 16.1333 192.079 16.464C191.652 16.784 191.321 17.248 191.087 17.856C190.863 18.4533 190.751 19.1733 190.751 20.016C190.751 20.8587 190.863 21.5947 191.087 22.224C191.321 22.8427 191.652 23.3227 192.079 23.664C192.516 24.0053 193.028 24.176 193.615 24.176ZM204.439 26.224C203.65 26.224 202.877 26.0747 202.119 25.776C201.362 25.4773 200.695 25.0507 200.119 24.496L201.479 22.864C201.895 23.2587 202.37 23.5787 202.903 23.824C203.447 24.0587 203.975 24.176 204.487 24.176C205.106 24.176 205.575 24.0533 205.895 23.808C206.215 23.5627 206.375 23.232 206.375 22.816C206.375 22.5173 206.295 22.2827 206.135 22.112C205.986 21.9307 205.778 21.7707 205.511 21.632C205.245 21.4933 204.935 21.3547 204.583 21.216L203.015 20.528C202.621 20.368 202.237 20.1547 201.863 19.888C201.501 19.6107 201.197 19.264 200.951 18.848C200.717 18.432 200.599 17.936 200.599 17.36C200.599 16.7093 200.775 16.128 201.127 15.616C201.479 15.104 201.965 14.6987 202.583 14.4C203.202 14.0907 203.906 13.936 204.695 13.936C205.399 13.936 206.077 14.0693 206.727 14.336C207.378 14.6027 207.943 14.9813 208.423 15.472L207.223 16.944C206.85 16.6347 206.461 16.3947 206.055 16.224C205.65 16.0533 205.197 15.968 204.695 15.968C204.183 15.968 203.773 16.08 203.463 16.304C203.165 16.5173 203.015 16.8213 203.015 17.216C203.015 17.4933 203.101 17.7227 203.271 17.904C203.442 18.0853 203.666 18.2453 203.943 18.384C204.221 18.512 204.525 18.6453 204.855 18.784L206.407 19.408C206.887 19.6 207.303 19.84 207.655 20.128C208.018 20.416 208.295 20.7627 208.487 21.168C208.69 21.5733 208.791 22.064 208.791 22.64C208.791 23.28 208.615 23.872 208.263 24.416C207.922 24.96 207.426 25.3973 206.775 25.728C206.135 26.0587 205.357 26.224 204.439 26.224Z" fill="#242424"/>
<path d="M222.008 15.242H222.96V17.286C222.96 17.958 222.866 18.6207 222.68 19.274C222.493 19.918 222.232 20.5293 221.896 21.108C221.569 21.6773 221.186 22.1813 220.748 22.62C220.309 23.0587 219.838 23.404 219.334 23.656L218.662 22.732C219.119 22.508 219.548 22.2047 219.95 21.822C220.36 21.4393 220.72 21.0007 221.028 20.506C221.336 20.0113 221.574 19.4887 221.742 18.938C221.919 18.3873 222.008 17.8367 222.008 17.286V15.242ZM222.246 15.242H223.184V17.286C223.184 17.818 223.268 18.35 223.436 18.882C223.613 19.4047 223.856 19.8993 224.164 20.366C224.481 20.8233 224.84 21.2293 225.242 21.584C225.652 21.9387 226.091 22.2187 226.558 22.424L225.914 23.348C225.4 23.1053 224.92 22.7787 224.472 22.368C224.024 21.9573 223.632 21.486 223.296 20.954C222.969 20.4127 222.712 19.834 222.526 19.218C222.339 18.5927 222.246 17.9487 222.246 17.286V15.242ZM219.068 14.724H226.138V15.69H219.068V14.724ZM227.86 13.422H229.022V26.092H227.86V13.422ZM232.815 16.936H241.397V17.888H232.815V16.936ZM232.815 13.674H233.963V17.356H232.815V13.674ZM231.261 19.358H242.713V20.31H231.261V19.358ZM236.973 21.43C238.326 21.43 239.385 21.6307 240.151 22.032C240.916 22.4333 241.299 23.0027 241.299 23.74C241.299 24.468 240.916 25.0327 240.151 25.434C239.385 25.8353 238.326 26.036 236.973 26.036C235.619 26.036 234.555 25.8353 233.781 25.434C233.015 25.0327 232.633 24.468 232.633 23.74C232.633 23.0027 233.015 22.4333 233.781 22.032C234.555 21.6307 235.619 21.43 236.973 21.43ZM236.959 22.354C236.305 22.354 235.741 22.41 235.265 22.522C234.798 22.6247 234.439 22.7787 234.187 22.984C233.935 23.1893 233.809 23.4413 233.809 23.74C233.809 24.0293 233.935 24.2813 234.187 24.496C234.439 24.7013 234.798 24.86 235.265 24.972C235.741 25.0747 236.305 25.126 236.959 25.126C237.631 25.126 238.2 25.0747 238.667 24.972C239.143 24.86 239.507 24.7013 239.759 24.496C240.011 24.2813 240.137 24.0293 240.137 23.74C240.137 23.4413 240.011 23.1893 239.759 22.984C239.507 22.7787 239.143 22.6247 238.667 22.522C238.2 22.41 237.631 22.354 236.959 22.354ZM250.971 16.46H253.561V17.412H250.971V16.46ZM250.957 18.924H253.533V19.876H250.957V18.924ZM243.873 14.822H250.971V15.76H243.873V14.822ZM247.457 16.404C248.027 16.404 248.526 16.502 248.955 16.698C249.385 16.894 249.721 17.1693 249.963 17.524C250.206 17.8693 250.327 18.28 250.327 18.756C250.327 19.2227 250.206 19.6333 249.963 19.988C249.721 20.3333 249.385 20.604 248.955 20.8C248.526 20.996 248.027 21.094 247.457 21.094C246.897 21.094 246.403 20.996 245.973 20.8C245.544 20.604 245.208 20.3333 244.965 19.988C244.723 19.6333 244.601 19.2227 244.601 18.756C244.601 18.28 244.723 17.8693 244.965 17.524C245.208 17.1693 245.544 16.894 245.973 16.698C246.403 16.502 246.897 16.404 247.457 16.404ZM247.457 17.3C246.925 17.3 246.496 17.4307 246.169 17.692C245.852 17.9533 245.693 18.308 245.693 18.756C245.693 19.1947 245.852 19.5493 246.169 19.82C246.496 20.0813 246.925 20.212 247.457 20.212C247.989 20.212 248.419 20.0813 248.745 19.82C249.081 19.5493 249.249 19.1947 249.249 18.756C249.249 18.308 249.081 17.9533 248.745 17.692C248.419 17.4307 247.989 17.3 247.457 17.3ZM246.897 13.31H248.045V15.466H246.897V13.31ZM253.113 13.422H254.275V21.598H253.113V13.422ZM250.131 21.738C251.009 21.738 251.76 21.822 252.385 21.99C253.011 22.158 253.491 22.4053 253.827 22.732C254.173 23.0587 254.345 23.4507 254.345 23.908C254.345 24.356 254.173 24.7433 253.827 25.07C253.491 25.3967 253.011 25.644 252.385 25.812C251.76 25.98 251.009 26.064 250.131 26.064C249.254 26.064 248.498 25.98 247.863 25.812C247.238 25.644 246.753 25.3967 246.407 25.07C246.071 24.7433 245.903 24.356 245.903 23.908C245.903 23.4507 246.071 23.0587 246.407 22.732C246.753 22.4053 247.238 22.158 247.863 21.99C248.498 21.822 249.254 21.738 250.131 21.738ZM250.131 22.648C249.198 22.648 248.461 22.7553 247.919 22.97C247.378 23.1847 247.107 23.4973 247.107 23.908C247.107 24.3 247.378 24.608 247.919 24.832C248.461 25.056 249.198 25.168 250.131 25.168C251.055 25.168 251.783 25.056 252.315 24.832C252.857 24.608 253.127 24.3 253.127 23.908C253.127 23.4973 252.857 23.1847 252.315 22.97C251.783 22.7553 251.055 22.648 250.131 22.648ZM259.827 13.954H260.975V15.76H264.545V13.954H265.693V19.47H259.827V13.954ZM260.975 16.67V18.532H264.545V16.67H260.975ZM267.975 13.422H269.137V19.96H267.975V13.422ZM268.619 16.152H270.999V17.104H268.619V16.152ZM261.087 20.562H269.137V23.642H262.263V25.532H261.129V22.774H267.989V21.486H261.087V20.562ZM261.129 25.014H269.585V25.952H261.129V25.014ZM278.614 16.922H281.82V17.874H278.614V16.922ZM281.162 13.436H282.324V22.718H281.162V13.436ZM274.246 24.86H282.674V25.812H274.246V24.86ZM274.246 21.892H275.394V25.336H274.246V21.892ZM275.128 15.004H276.08V16.026C276.08 16.7913 275.931 17.5147 275.632 18.196C275.343 18.868 274.932 19.456 274.4 19.96C273.868 20.4547 273.252 20.8373 272.552 21.108L271.95 20.17C272.417 20.002 272.841 19.778 273.224 19.498C273.616 19.218 273.957 18.896 274.246 18.532C274.535 18.168 274.755 17.7713 274.904 17.342C275.053 16.9127 275.128 16.474 275.128 16.026V15.004ZM275.352 15.004H276.304V16.026C276.304 16.5673 276.43 17.0947 276.682 17.608C276.934 18.1213 277.293 18.5787 277.76 18.98C278.227 19.372 278.763 19.6753 279.37 19.89L278.782 20.814C278.091 20.562 277.489 20.198 276.976 19.722C276.463 19.2367 276.061 18.6767 275.772 18.042C275.492 17.4073 275.352 16.7353 275.352 16.026V15.004ZM272.314 14.458H279.076V15.41H272.314V14.458ZM287.344 19.848H298.824V20.8H287.344V19.848ZM292.594 20.45H293.77V23.362H292.594V20.45ZM288.814 24.846H297.55V25.812H288.814V24.846ZM288.814 22.116H289.976V25.112H288.814V22.116ZM293.07 13.744C293.966 13.744 294.745 13.8467 295.408 14.052C296.071 14.2573 296.584 14.5513 296.948 14.934C297.321 15.3073 297.508 15.76 297.508 16.292C297.508 16.8053 297.321 17.2533 296.948 17.636C296.584 18.0187 296.071 18.3127 295.408 18.518C294.745 18.7233 293.966 18.826 293.07 18.826C292.183 18.826 291.404 18.7233 290.732 18.518C290.069 18.3127 289.551 18.0187 289.178 17.636C288.814 17.2533 288.632 16.8053 288.632 16.292C288.632 15.76 288.814 15.3073 289.178 14.934C289.551 14.5513 290.069 14.2573 290.732 14.052C291.404 13.8467 292.183 13.744 293.07 13.744ZM293.07 14.682C292.435 14.682 291.875 14.7473 291.39 14.878C290.905 15.0087 290.527 15.1953 290.256 15.438C289.995 15.6713 289.864 15.956 289.864 16.292C289.864 16.6187 289.995 16.9033 290.256 17.146C290.527 17.3793 290.905 17.5613 291.39 17.692C291.875 17.8133 292.435 17.874 293.07 17.874C293.723 17.874 294.288 17.8133 294.764 17.692C295.24 17.5613 295.609 17.3793 295.87 17.146C296.141 16.9033 296.276 16.6187 296.276 16.292C296.276 15.956 296.141 15.6713 295.87 15.438C295.609 15.1953 295.24 15.0087 294.764 14.878C294.288 14.7473 293.723 14.682 293.07 14.682ZM305.725 15.256H309.575V16.194H305.725V15.256ZM305.725 18.168H309.575V19.12H305.725V18.168ZM303.415 14.178C304.031 14.178 304.581 14.3087 305.067 14.57C305.561 14.822 305.949 15.1767 306.229 15.634C306.518 16.082 306.663 16.6 306.663 17.188C306.663 17.776 306.518 18.2987 306.229 18.756C305.949 19.204 305.561 19.5587 305.067 19.82C304.581 20.072 304.031 20.198 303.415 20.198C302.789 20.198 302.229 20.072 301.735 19.82C301.249 19.5587 300.862 19.204 300.573 18.756C300.293 18.2987 300.153 17.776 300.153 17.188C300.153 16.6 300.293 16.082 300.573 15.634C300.862 15.1767 301.249 14.822 301.735 14.57C302.229 14.3087 302.789 14.178 303.415 14.178ZM303.415 15.172C303.004 15.172 302.635 15.256 302.309 15.424C301.982 15.592 301.725 15.83 301.539 16.138C301.352 16.4367 301.259 16.7867 301.259 17.188C301.259 17.58 301.352 17.93 301.539 18.238C301.725 18.5367 301.982 18.7747 302.309 18.952C302.635 19.12 303.004 19.204 303.415 19.204C303.825 19.204 304.189 19.12 304.507 18.952C304.833 18.7747 305.09 18.5367 305.277 18.238C305.463 17.93 305.557 17.58 305.557 17.188C305.557 16.7867 305.463 16.4367 305.277 16.138C305.09 15.83 304.833 15.592 304.507 15.424C304.189 15.256 303.825 15.172 303.415 15.172ZM309.211 13.422H310.373V20.912H309.211V13.422ZM306.201 21.22C307.078 21.22 307.829 21.318 308.455 21.514C309.08 21.7007 309.561 21.976 309.897 22.34C310.242 22.6947 310.415 23.1287 310.415 23.642C310.415 24.146 310.242 24.58 309.897 24.944C309.561 25.308 309.08 25.5833 308.455 25.77C307.829 25.966 307.078 26.064 306.201 26.064C305.333 26.064 304.581 25.966 303.947 25.77C303.321 25.5833 302.836 25.308 302.491 24.944C302.155 24.58 301.987 24.146 301.987 23.642C301.987 23.1287 302.155 22.6947 302.491 22.34C302.836 21.976 303.321 21.7007 303.947 21.514C304.581 21.318 305.333 21.22 306.201 21.22ZM306.201 22.13C305.566 22.13 305.015 22.1907 304.549 22.312C304.091 22.4333 303.737 22.606 303.485 22.83C303.242 23.054 303.121 23.3247 303.121 23.642C303.121 23.95 303.242 24.216 303.485 24.44C303.737 24.664 304.091 24.8367 304.549 24.958C305.015 25.0793 305.566 25.14 306.201 25.14C306.845 25.14 307.395 25.0793 307.853 24.958C308.31 24.8367 308.66 24.664 308.903 24.44C309.155 24.216 309.281 23.95 309.281 23.642C309.281 23.3247 309.155 23.054 308.903 22.83C308.66 22.606 308.31 22.4333 307.853 22.312C307.395 22.1907 306.845 22.13 306.201 22.13ZM315.888 14.514H316.854V16.782C316.854 17.51 316.76 18.2193 316.574 18.91C316.396 19.5913 316.14 20.2307 315.804 20.828C315.477 21.416 315.09 21.9387 314.642 22.396C314.203 22.844 313.722 23.1987 313.2 23.46L312.486 22.494C312.962 22.2793 313.405 21.9713 313.816 21.57C314.226 21.1687 314.586 20.716 314.894 20.212C315.202 19.6987 315.444 19.148 315.622 18.56C315.799 17.972 315.888 17.3793 315.888 16.782V14.514ZM316.084 14.514H317.05V16.782C317.05 17.3607 317.134 17.93 317.302 18.49C317.479 19.05 317.722 19.582 318.03 20.086C318.347 20.5807 318.706 21.0193 319.108 21.402C319.518 21.7753 319.957 22.0693 320.424 22.284L319.724 23.208C319.21 22.9653 318.734 22.6247 318.296 22.186C317.857 21.7473 317.47 21.2433 317.134 20.674C316.807 20.1047 316.55 19.4887 316.364 18.826C316.177 18.1633 316.084 17.482 316.084 16.782V14.514ZM321.754 13.422H322.916V26.106H321.754V13.422ZM330.223 14.29H331.245V15.27C331.245 15.8207 331.147 16.3433 330.951 16.838C330.764 17.3327 330.503 17.7947 330.167 18.224C329.84 18.644 329.457 19.022 329.019 19.358C328.589 19.694 328.127 19.9787 327.633 20.212C327.147 20.4453 326.653 20.6227 326.149 20.744L325.631 19.778C326.069 19.6847 326.508 19.54 326.947 19.344C327.395 19.148 327.815 18.91 328.207 18.63C328.599 18.3407 328.944 18.0187 329.243 17.664C329.551 17.3093 329.789 16.9313 329.957 16.53C330.134 16.1193 330.223 15.6993 330.223 15.27V14.29ZM330.447 14.29H331.441V15.27C331.441 15.6993 331.529 16.1193 331.707 16.53C331.884 16.9313 332.122 17.3093 332.421 17.664C332.729 18.0187 333.079 18.3407 333.471 18.63C333.863 18.91 334.278 19.1527 334.717 19.358C335.165 19.554 335.613 19.694 336.061 19.778L335.529 20.744C335.025 20.6227 334.53 20.4453 334.045 20.212C333.559 19.9787 333.097 19.694 332.659 19.358C332.229 19.022 331.847 18.644 331.511 18.224C331.175 17.7947 330.913 17.3327 330.727 16.838C330.54 16.3433 330.447 15.8207 330.447 15.27V14.29ZM325.155 23.418H336.635V24.384H325.155V23.418ZM343.2 16.6H345.356V17.552H343.2V16.6ZM338.328 19.344H339.126C339.788 19.344 340.372 19.3393 340.876 19.33C341.389 19.3113 341.87 19.2787 342.318 19.232C342.766 19.176 343.218 19.1013 343.676 19.008L343.802 19.932C343.316 20.0347 342.845 20.114 342.388 20.17C341.93 20.2167 341.44 20.2493 340.918 20.268C340.404 20.2773 339.807 20.282 339.126 20.282H338.328V19.344ZM338.328 14.248H343.116V15.2H339.448V19.89H338.328V14.248ZM339.098 16.74H342.612V17.65H339.098V16.74ZM347.316 13.422H348.422V21.038H347.316V13.422ZM344.866 13.646H345.972V20.926H344.866V13.646ZM340.106 21.64H348.422V25.924H340.106V21.64ZM347.288 22.578H341.254V24.972H347.288V22.578Z" fill="#242424"/>
</svg>
